<?xml version="1.0" encoding="utf-8"?>
<!-- Generator: Adobe Illustrator 22.1.0, SVG Export Plug-In . SVG Version: 6.00 Build 0)  -->
<svg version="1.1" id="Layer_1" xmlns="http://www.w3.org/2000/svg" xmlns:xlink="http://www.w3.org/1999/xlink" x="0px" y="0px"
	 viewBox="0 0 372.3 330" style="enable-background:new 0 0 372.3 330;" xml:space="preserve">
<style type="text/css">
	.st0{opacity:0.61;fill:#919395;enable-background:new    ;}
	.st1{fill:#EAAB28;}
	.st2{fill:none;stroke:#FFFFFF;stroke-width:2;stroke-linecap:round;stroke-linejoin:round;stroke-miterlimit:10;}
	.st3{fill:none;stroke:#EAAB28;stroke-width:10;stroke-miterlimit:10;}
	.st4{fill:none;stroke:#EAAB28;stroke-width:10;stroke-miterlimit:10;stroke-dasharray:9.4806,9.4806;}
	.st5{fill:none;stroke:#EAAB28;stroke-width:10;stroke-miterlimit:10;stroke-dasharray:11.2311,11.2311;}
	.st6{fill:none;stroke:#EAAB28;stroke-width:10;stroke-miterlimit:10;stroke-dasharray:11.1615,11.1615;}
	.st7{fill:#BFBFBF;}
	.st8{fill:#DDD8C3;}
	.st9{fill:#E0E0E0;}
	.st10{fill:#DFDFDF;}
	.st11{fill:#DEDEDE;}
	.st12{fill:#DDDDDD;}
	.st13{fill:#DCDCDC;}
	.st14{fill:#DBDBDB;}
	.st15{fill:#DADADA;}
	.st16{fill:#D9D9D9;}
	.st17{fill:#D8D8D8;}
	.st18{fill:#D7D7D7;}
	.st19{fill:#D6D6D6;}
	.st20{fill:#D5D5D5;}
	.st21{fill:#D4D4D4;}
	.st22{fill:#D3D3D3;}
	.st23{fill:#D2D2D2;}
	.st24{fill:#D1D1D1;}
	.st25{fill:#D0D0D0;}
	.st26{fill:#CFCFCF;}
	.st27{fill:#CECECE;}
	.st28{fill:#FFFFFF;}
	.st29{fill:#EDEDED;}
	.st30{fill:#FEFEFE;}
	.st31{fill:#FDFDFD;}
	.st32{fill:#FCFCFC;}
	.st33{fill:#FBFBFB;}
	.st34{fill:#FAFAFA;}
	.st35{fill:#F9F9F9;}
	.st36{fill:#F8F8F8;}
	.st37{fill:#F7F7F7;}
	.st38{fill:#F6F6F6;}
	.st39{fill:#F5F5F5;}
	.st40{fill:#F4F4F4;}
	.st41{fill:#F3F3F3;}
	.st42{fill:#F2F2F2;}
	.st43{fill:#F1F1F1;}
	.st44{fill:#F0F0F0;}
	.st45{fill:#EFEFEF;}
	.st46{fill:#EEEEEE;}
	.st47{fill:#ECECEC;}
	.st48{fill:#EBEBEB;}
	.st49{fill:#EAEAEA;}
	.st50{fill:#E9E9E9;}
	.st51{fill:#E8E8E8;}
	.st52{fill:#E7E7E7;}
	.st53{fill:#E6E6E6;}
	.st54{fill:#E5E5E5;}
	.st55{fill:#E4E4E4;}
	.st56{fill:#E3E3E3;}
	.st57{fill:#E2E2E2;}
	.st58{fill:#E1E1E1;}
	.st59{fill:#CDCDCD;}
	.st60{fill:#CCCCCC;}
	.st61{fill:#CBCBCB;}
	.st62{fill:#CACACA;}
	.st63{fill:#C9C9C9;}
	.st64{fill:#C8C8C8;}
	.st65{fill:#C7C7C7;}
	.st66{fill:#C6C6C6;}
	.st67{fill:#C5C5C5;}
	.st68{fill:#C4C4C4;}
	.st69{fill:#C3C3C3;}
	.st70{fill:#C2C2C2;}
	.st71{fill:#C1C1C1;}
	.st72{fill:#010101;}
	.st73{fill:url(#XMLID_58_);}
	.st74{fill:none;stroke:#FFFFFF;stroke-width:3;stroke-miterlimit:10;}
</style>
<g id="Objects">
	<g>
		<g>
			<g id="XMLID_784_">
				<g id="XMLID_821_">
					<path id="XMLID_843_" class="st0" d="M285.4,26.8c-5.7,0-10.3,4.6-10.3,10.3s4.6,10.3,10.3,10.3s10.3-4.6,10.3-10.3
						C295.7,31.4,291.1,26.8,285.4,26.8z M285.4,41.2c-2.2,0-4-1.8-4-4s1.8-4,4-4s4,1.8,4,4S287.7,41.2,285.4,41.2z"/>
					<path id="XMLID_818_" class="st0" d="M306.6,40.3V34h-4.5c-0.4-2.4-1.3-4.5-2.7-6.4l3.2-3.2l-4.4-4.4l-3.2,3.2
						c-1.9-1.3-4.1-2.2-6.4-2.7V16h-6.3v4.5c-2.4,0.4-4.5,1.3-6.4,2.7l-3.2-3.2l-4.4,4.4l3.2,3.2c-1.3,1.9-2.2,4.1-2.7,6.4h-4.5v6.3
						h4.5c0.4,2.4,1.3,4.5,2.7,6.4l-3.2,3.2l4.4,4.4l3.2-3.2c1.9,1.3,4.1,2.2,6.4,2.7v4.5h6.3v-4.5c2.4-0.4,4.5-1.3,6.4-2.7l3.2,3.2
						l4.4-4.4l-3.2-3.2c1.3-1.9,2.2-4.1,2.7-6.4H306.6z M297.8,37.1c0,6.9-5.6,12.4-12.4,12.4S273,43.9,273,37.1s5.6-12.4,12.4-12.4
						C292.3,24.7,297.8,30.2,297.8,37.1z"/>
					<path id="XMLID_831_" class="st1" d="M287.2,23.8c-5.7,0-10.3,4.6-10.3,10.3s4.6,10.3,10.3,10.3c5.7,0,10.3-4.6,10.3-10.3
						S292.9,23.8,287.2,23.8z M287.2,38.2c-2.2,0-4-1.8-4-4s1.8-4,4-4s4,1.8,4,4C291.3,36.4,289.5,38.2,287.2,38.2z"/>
					<path id="XMLID_835_" class="st1" d="M308.4,37.3V31h-4.5c-0.4-2.4-1.3-4.5-2.7-6.4l3.2-3.2L300,17l-3.2,3.2
						c-1.9-1.3-4.1-2.2-6.4-2.7V13H284v4.5c-2.4,0.4-4.5,1.3-6.4,2.7l-3.2-3.2l-4.4,4.4l3.2,3.2c-1.3,1.9-2.2,4.1-2.7,6.4H266v6.3
						h4.5c0.4,2.4,1.3,4.5,2.7,6.4l-3.2,3.2l4.4,4.4l3.2-3.2c1.9,1.3,4.1,2.2,6.4,2.7v4.5h6.3v-4.5c2.4-0.4,4.5-1.3,6.4-2.7l3.2,3.2
						l4.4-4.4l-3.2-3.2c1.3-1.9,2.2-4.1,2.7-6.4C303.9,37.3,308.4,37.3,308.4,37.3z M299.7,34.1c0,6.9-5.6,12.4-12.4,12.4
						s-12.4-5.6-12.4-12.4c0-6.9,5.6-12.4,12.4-12.4C294.1,21.7,299.7,27.2,299.7,34.1z"/>
				</g>
				<path id="XMLID_779_" class="st2" d="M287.8,48.4c7.9,0,14.3-6.4,14.3-14.3s-6.4-14.3-14.3-14.3 M287.2,28
					c3.4,0,6.1,2.7,6.1,6.1"/>
			</g>
			<g id="XMLID_46_">
				<g id="XMLID_91_">
					<path id="XMLID_199_" class="st0" d="M322.6,17c-4.4,0-7.9,3.5-7.9,7.9s3.5,7.9,7.9,7.9s7.9-3.5,7.9-7.9S327,17,322.6,17z
						 M322.6,28.1c-1.7,0-3.1-1.4-3.1-3.1s1.4-3.1,3.1-3.1s3.1,1.4,3.1,3.1S324.4,28.1,322.6,28.1z"/>
					<path id="XMLID_98_" class="st0" d="M338.9,27.4v-4.9h-3.4c-0.3-1.8-1-3.5-2.1-5l2.4-2.4l-3.4-3.4l-2.4,2.4
						c-1.4-1-3.1-1.7-5-2.1V8.6h-4.9V12c-1.8,0.3-3.5,1-5,2.1l-2.4-2.4l-3.4,3.4l2.4,2.4c-1,1.4-1.7,3.1-2.1,5h-3.4v4.9h3.4
						c0.3,1.8,1,3.5,2.1,5l-2.4,2.4l3.4,3.4l2.4-2.4c1.4,1,3.1,1.7,5,2.1v3.4h4.9v-3.4c1.8-0.3,3.5-1,5-2.1l2.4,2.4l3.4-3.4
						l-2.4-2.4c1-1.4,1.7-3.1,2.1-5C335.5,27.4,338.9,27.4,338.9,27.4z M332.2,25c0,5.3-4.3,9.6-9.6,9.6S313,30.2,313,25
						s4.3-9.6,9.6-9.6C327.9,15.4,332.2,19.7,332.2,25z"/>
					<path id="XMLID_95_" class="st1" d="M324,14.7c-4.4,0-7.9,3.5-7.9,7.9s3.5,7.9,7.9,7.9s7.9-3.5,7.9-7.9S328.4,14.7,324,14.7z
						 M324,25.8c-1.7,0-3.1-1.4-3.1-3.1s1.4-3.1,3.1-3.1s3.1,1.4,3.1,3.1S325.7,25.8,324,25.8z"/>
					<path id="XMLID_92_" class="st1" d="M340.3,25.1v-4.9h-3.4c-0.3-1.8-1-3.5-2.1-5l2.4-2.4l-3.4-3.4l-2.4,2.4
						c-1.4-1-3.1-1.7-5-2.1V6.3h-4.8v3.4c-1.8,0.3-3.5,1-5,2.1l-2.4-2.4l-3.4,3.4l2.4,2.4c-1,1.4-1.7,3.1-2.1,5h-3.4v4.9h3.4
						c0.3,1.8,1,3.5,2.1,5l-2.4,2.4l3.4,3.4l2.4-2.4c1.4,1,3.1,1.7,5,2.1V39h4.9v-3.4c1.8-0.3,3.5-1,5-2.1l2.4,2.4l3.4-3.4l-2.4-2.4
						c1-1.4,1.7-3.1,2.1-5H340.3L340.3,25.1L340.3,25.1z M333.6,22.6c0,5.3-4.3,9.6-9.6,9.6s-9.6-4.3-9.6-9.6s4.3-9.6,9.6-9.6
						C329.3,13.1,333.6,17.4,333.6,22.6z"/>
				</g>
				<path id="XMLID_48_" class="st2" d="M324.5,33.6c6.1,0,11-4.9,11-11s-4.9-11-11-11 M324,18c2.6,0,4.7,2.1,4.7,4.7"/>
			</g>
		</g>
		<g id="XMLID_1_">
			<g>
				<line class="st3" x1="174.7" y1="263.7" x2="174.7" y2="265.5"/>
				<line class="st4" x1="174.7" y1="268.7" x2="174.7" y2="279.9"/>
				<polyline class="st3" points="174.7,281.5 174.7,283.4 172.8,283.4 				"/>
				<line class="st5" x1="169" y1="283.4" x2="64.9" y2="283.4"/>
				<polyline class="st3" points="63,283.4 61.1,283.4 61.1,281.5 				"/>
				<line class="st6" x1="61.1" y1="277.8" x2="61.1" y2="144.2"/>
				<line class="st3" x1="61.1" y1="142.3" x2="61.1" y2="140.5"/>
			</g>
		</g>
		<g id="XMLID_202_">
			<g>
				<line class="st3" x1="209.1" y1="53.3" x2="209.1" y2="51.4"/>
				<line class="st4" x1="209.1" y1="48.2" x2="209.1" y2="37"/>
				<polyline class="st3" points="209.1,35.4 209.1,33.6 211,33.6 				"/>
				<line class="st5" x1="214.8" y1="33.6" x2="318.9" y2="33.6"/>
				<polyline class="st3" points="320.8,33.6 322.6,33.6 322.6,35.4 				"/>
				<line class="st6" x1="322.6" y1="39.2" x2="322.6" y2="172.8"/>
				<line class="st3" x1="322.6" y1="174.6" x2="322.6" y2="176.5"/>
			</g>
		</g>
	</g>
	<rect x="10.7" y="9.2" class="st7" width="207.1" height="185.3"/>
	
		<image style="overflow:visible;enable-background:new    ;" width="786" height="703" xlink:href="73730ECD.jpg"  transform="matrix(0.2635 0 0 0.2635 11.7166 7.5685)">
	</image>
	<ellipse class="st8" cx="202.2" cy="312.9" rx="154" ry="11.3"/>
	<g>
		<g id="XMLID_2371_">
			<g id="XMLID_2482_">
				<path id="XMLID_71_" class="st9" d="M281.5,291.9c-0.6-2.7-6-22.7-6.2-22.7H271l-23.4,23.6l-11.7,11.8l-11.7,11.8
					c3.2,0,7.8-0.1,11-0.3c6.7-0.5,13.4-1.1,20.1-1.9c5-0.5,9.9-1.1,14.8-1.8c3.7-0.5,8-1.2,10.5-4.5
					C284,303.4,282.7,297.1,281.5,291.9z"/>
				<path id="XMLID_89_" class="st10" d="M275.6,270.6h-4.2l-13.7,12.9l-9.9,9.4l-6.7,6.4c-0.1,0.1-4.5,4.6-4.6,4.6l-0.4,0.4
					c-0.1,0.1-4,4-4,4.1c-0.1,0.1-7.5,7.5-7.6,7.6c3,0,7.9-0.1,10.8-0.3c6.4-0.5,13.6-1.1,19.9-1.8c4.7-0.5,10.1-1,14.7-1.7
					c3.5-0.5,8.1-1.2,10.5-4.2c3.4-4.4,2.2-10.6,1.1-15.6c-0.3-1.2-1.5-5.9-2.8-10.6C277.3,276.2,275.8,270.6,275.6,270.6z"/>
				<path id="XMLID_88_" class="st11" d="M276,271.9h-4.1l-13.8,12.2l-9.9,8.9l-6.8,6c-0.1,0.1-4.4,4.4-4.5,4.6l-0.4,0.4
					c-0.1,0.1-3.9,3.9-4,4c-0.2,0.2-7.3,7.3-7.5,7.5c2.9,0,7.9-0.1,10.7-0.3c6-0.4,13.7-1,19.7-1.7c4.4-0.5,10.2-1,14.6-1.6
					c3.3-0.5,8.3-1.1,10.5-4c3.3-4.3,2.2-10.2,1.1-15.1c-0.3-1.2-1.4-5.7-2.6-10.2C277.6,277.4,276.1,272.1,276,271.9z"/>
				<path id="XMLID_87_" class="st12" d="M276.4,273.3h-4.1l-13.8,11.5l-10,8.4l-6.8,5.7c-0.2,0.2-4.3,4.3-4.4,4.5l-0.4,0.4
					c-0.2,0.2-3.8,3.8-3.9,4c-0.3,0.3-7.1,7.1-7.4,7.5c2.7,0,7.9-0.1,10.6-0.3c5.7-0.4,13.8-1,19.4-1.6c4.2-0.4,10.4-0.9,14.6-1.5
					c3.1-0.4,8.4-1,10.5-3.8c3.2-4.2,2.2-9.8,1.2-14.5c-0.3-1.2-1.3-5.5-2.5-9.8C277.9,278.6,276.5,273.5,276.4,273.3z"/>
				<path id="XMLID_86_" class="st13" d="M276.7,274.6h-4l-13.9,10.8l-10,7.8l-6.9,5.3c-0.2,0.2-4.1,4.2-4.4,4.4l-0.4,0.4
					c-0.2,0.2-3.7,3.7-3.9,3.9c-0.5,0.5-6.9,7-7.3,7.3c2.5,0,8-0.1,10.4-0.3c5.3-0.4,13.9-0.9,19.2-1.5c3.9-0.4,10.6-0.9,14.5-1.4
					c2.9-0.4,8.6-1,10.5-3.5c3.1-4,2.2-9.4,1.3-14c-0.2-1.2-1.2-5.3-2.3-9.4C278.2,279.7,276.9,274.9,276.7,274.6z"/>
				<path id="XMLID_85_" class="st14" d="M277.1,276h-4l-14,10.1l-10,7.3l-6.9,5c-0.3,0.3-4,4-4.3,4.3l-0.4,0.4
					c-0.3,0.3-3.6,3.6-3.8,3.8c-0.6,0.6-6.7,6.8-7.2,7.3c2.4,0,8-0.1,10.3-0.2c5-0.4,14-0.8,18.9-1.4c3.6-0.4,10.8-0.8,14.4-1.3
					c2.7-0.4,8.7-0.9,10.6-3.3c3-3.9,2.1-9.1,1.3-13.5c-0.2-1.2-1.1-5.1-2.2-9C278.5,280.9,277.2,276.3,277.1,276z"/>
				<path id="XMLID_84_" class="st15" d="M277.4,277.3h-3.9l-14.1,9.4l-10.1,6.8l-7,4.6c-0.4,0.4-3.9,3.9-4.3,4.3l-0.4,0.4
					c-0.3,0.3-3.5,3.5-3.8,3.8c-0.7,0.7-6.6,6.6-7.1,7.2c2.2,0,8-0.1,10.1-0.2c4.6-0.3,14.1-0.8,18.7-1.3c3.4-0.4,10.9-0.7,14.3-1.2
					c2.5-0.4,8.9-0.8,10.6-3.1c2.9-3.7,2.1-8.7,1.4-13c-0.2-1.2-1.1-4.9-2-8.6C278.8,282,277.6,277.7,277.4,277.3z"/>
				<path id="XMLID_83_" class="st16" d="M277.8,278.7h-3.9l-14.1,8.6l-10.1,6.3l-7,4.2c-0.4,0.4-3.8,3.8-4.2,4.2
					c0,0-0.3,0.3-0.4,0.4c-0.4,0.4-3.3,3.4-3.7,3.7c-0.8,0.8-6.4,6.4-7.1,7.1c2,0,8-0.1,10-0.2c4.2-0.3,14.2-0.7,18.4-1.2
					c3.1-0.3,11.1-0.7,14.2-1.1c2.4-0.3,9-0.8,10.6-2.8c2.7-3.6,2.1-8.4,1.4-12.5c-0.2-1.2-1-4.7-1.9-8.2
					C279.1,283.2,277.9,279.1,277.8,278.7z"/>
				<path id="XMLID_82_" class="st17" d="M278.1,280h-3.8l-14.2,7.9l-10.1,5.7l-7.1,3.9c-0.5,0.5-3.7,3.7-4.1,4.2
					c0,0-0.3,0.3-0.4,0.4c-0.4,0.4-3.2,3.3-3.7,3.7c-0.9,0.9-6.2,6.3-7,7c1.9,0,8.1-0.1,9.9-0.2c3.9-0.3,14.3-0.7,18.2-1.1
					c2.9-0.3,11.3-0.6,14.1-1c2.2-0.3,9.2-0.7,10.6-2.6c2.6-3.5,2.1-8,1.5-12c-0.2-1.2-0.9-4.5-1.7-7.8
					C279.3,284.4,278.3,280.5,278.1,280z"/>
				<path id="XMLID_81_" class="st18" d="M278.5,281.4h-3.8l-14.3,7.2l-10.2,5.2l-7.1,3.5c-0.6,0.6-3.5,3.6-4.1,4.1
					c-0.1,0.1-0.3,0.3-0.4,0.4c-0.5,0.5-3.1,3.2-3.6,3.6c-1,1-6,6.1-6.9,7c1.7,0,8.1,0,9.7-0.2c3.5-0.3,14.4-0.6,18-1
					c2.6-0.3,11.4-0.6,14-0.9c2-0.3,9.3-0.7,10.6-2.4c2.5-3.3,2.1-7.7,1.6-11.5c-0.1-1.2-0.8-4.3-1.6-7.4
					C279.6,285.5,278.7,281.9,278.5,281.4z"/>
				<path id="XMLID_80_" class="st18" d="M278.9,282.7h-3.7l-14.4,6.5l-10.2,4.7l-7.2,3.2c-0.6,0.6-3.4,3.4-4,4.1
					c-0.1,0.1-0.3,0.3-0.4,0.4c-0.5,0.5-3,3.1-3.5,3.6c-1.1,1.2-5.9,5.9-6.8,6.9c1.5,0,8.1,0,9.6-0.2c3.2-0.2,14.6-0.5,17.7-0.9
					c2.4-0.2,11.6-0.5,14-0.8c1.8-0.2,9.5-0.6,10.7-2.1c2.4-3.2,2.1-7.3,1.7-11c-0.1-1.2-0.7-4.1-1.4-7
					C279.9,286.7,279.1,283.3,278.9,282.7z"/>
				<path id="XMLID_79_" class="st19" d="M279.2,284.1h-3.6l-14.4,5.8l-10.3,4.2l-7.2,2.8c-0.7,0.7-3.3,3.3-4,4
					c-0.1,0.1-0.3,0.3-0.4,0.4c-0.6,0.6-2.9,2.9-3.5,3.5c-1.3,1.3-5.7,5.7-6.8,6.8c1.3,0,8.2,0,9.5-0.1c2.8-0.2,14.7-0.5,17.5-0.8
					c2.1-0.2,11.8-0.5,13.9-0.7c1.6-0.2,9.6-0.5,10.7-1.9c2.3-3,2.1-6.9,1.7-10.4c-0.1-1.2-0.6-3.9-1.2-6.6
					C280.2,287.8,279.4,284.7,279.2,284.1z"/>
				<path id="XMLID_78_" class="st20" d="M279.6,285.4H276l-14.5,5.1l-10.3,3.6l-7.3,2.5c-0.7,0.7-3.2,3.2-3.9,3.9
					c-0.1,0.1-0.3,0.3-0.4,0.4c-0.6,0.7-2.8,2.8-3.4,3.5c-1.4,1.4-5.5,5.6-6.7,6.7c1.2,0,8.2,0,9.3-0.1c2.5-0.2,14.8-0.4,17.2-0.7
					c1.8-0.2,12-0.4,13.8-0.6c1.4-0.2,9.8-0.5,10.7-1.7c2.2-2.9,2-6.6,1.8-9.9c-0.1-1.2-0.5-3.7-1.1-6.2
					C280.5,289,279.8,286.1,279.6,285.4z"/>
				<path id="XMLID_77_" class="st21" d="M280,286.7h-3.5l-14.6,4.3l-10.3,3.1l-7.3,2.1c-0.8,0.8-3.1,3.1-3.8,3.9
					c-0.1,0.1-0.3,0.3-0.4,0.4c-0.7,0.7-2.7,2.7-3.4,3.4c-1.5,1.5-5.3,5.4-6.6,6.7c1,0,8.2,0,9.2-0.1c2.1-0.2,14.9-0.4,17-0.6
					c1.6-0.2,12.1-0.3,13.7-0.6c1.2-0.2,9.9-0.4,10.7-1.4c2.1-2.7,2-6.2,1.8-9.4c-0.1-1.2-0.5-3.5-1-5.8
					C280.8,290.1,280.1,287.5,280,286.7z"/>
				<path id="XMLID_76_" class="st22" d="M280.3,288.1h-3.5l-14.7,3.6l-10.4,2.6l-7.4,1.8c-0.9,0.9-2.9,3-3.8,3.8
					c-0.1,0.1-0.3,0.3-0.4,0.4c-0.8,0.8-2.6,2.6-3.3,3.4c-1.6,1.7-5.2,5.2-6.5,6.6c0.8,0,8.3,0,9.1-0.1c1.8-0.1,15-0.3,16.8-0.5
					c1.3-0.1,12.3-0.3,13.6-0.5c1-0.1,10.1-0.3,10.7-1.2c2-2.6,2-5.9,1.9-8.9c0-1.1-0.4-3.3-0.8-5.4
					C281.1,291.3,280.5,288.9,280.3,288.1z"/>
				<path id="XMLID_75_" class="st23" d="M280.7,289.4h-3.4l-14.8,2.9l-10.4,2.1l-7.5,1.4c-0.9,0.9-2.8,2.9-3.7,3.8
					c-0.1,0.1-0.3,0.3-0.3,0.4c-0.8,0.8-2.5,2.5-3.3,3.3c-1.8,1.8-5,5-6.5,6.5c0.7,0,8.3,0,9-0.1c1.4-0.1,15.1-0.2,16.5-0.4
					c1-0.1,12.5-0.2,13.5-0.4c0.8-0.1,10.2-0.3,10.8-0.9c1.9-2.5,2-5.5,2-8.4c0-1.1-0.3-3.1-0.7-5
					C281.4,292.5,280.9,290.3,280.7,289.4z"/>
				<path id="XMLID_74_" class="st24" d="M281,290.8h-3.4l-14.8,2.2l-10.5,1.6l-7.5,1.1c-1,1-2.7,2.7-3.7,3.7
					c-0.1,0.1-0.3,0.3-0.3,0.3c-0.9,0.9-2.4,2.4-3.2,3.2c-1.9,1.9-4.8,4.9-6.4,6.4c0.5,0,8.3,0,8.8-0.1c1-0.1,15.2-0.2,16.3-0.3
					c0.8-0.1,12.6-0.2,13.4-0.3c0.6-0.1,10.4-0.2,10.8-0.7c1.8-2.3,2-5.1,2-7.9c0-1.1-0.2-2.9-0.5-4.6
					C281.7,293.6,281.3,291.7,281,290.8z"/>
				<path id="XMLID_73_" class="st25" d="M281.4,292.1h-3.3l-14.9,1.4l-10.5,1l-7.6,0.7c-1,1.1-2.6,2.6-3.6,3.6
					c-0.1,0.1-0.2,0.2-0.3,0.3c-0.9,0.9-2.3,2.3-3.2,3.2c-2,2-4.7,4.7-6.3,6.4c0.3,0,8.4,0,8.7,0c0.7-0.1,15.3-0.1,16-0.2
					c0.5-0.1,12.8-0.1,13.3-0.2c0.4-0.1,10.5-0.1,10.8-0.5c1.7-2.2,2-4.8,2.1-7.3c0-1.1-0.1-2.7-0.4-4.2
					C282,294.8,281.6,293.1,281.4,292.1z"/>
				<path id="XMLID_72_" class="st26" d="M281.8,293.5h-3.3l-15,0.7l-10.6,0.5l-7.6,0.4c-1.1,1.1-2.5,2.5-3.6,3.6
					c-0.1,0.1-0.2,0.2-0.3,0.3c-1,1-2.2,2.2-3.1,3.1c-2.1,2.1-4.5,4.5-6.2,6.3c0.2,0,8.4,0,8.6,0c0.3,0,15.4-0.1,15.8-0.1
					c0.3,0,13-0.1,13.2-0.1s10.7-0.1,10.8-0.2c1.5-2,2.1-4.4,2.2-6.8c0.1-1.1,0-2.5-0.2-3.8C282.3,295.9,282,294.5,281.8,293.5z"/>
				<path id="XMLID_70_" class="st27" d="M280.5,308c1.4-1.9,2.1-4,2.2-6.3c0.1-1.1,0-2.3-0.1-3.4s-0.3-2.3-0.5-3.4h-18.3h-18.3
					c-1.2,1.2-2.4,2.4-3.5,3.5s-2.3,2.3-3.4,3.4c-2.2,2.2-4.3,4.3-6.2,6.2h24L280.5,308L280.5,308z"/>
			</g>
			<path id="XMLID_2481_" class="st28" d="M279.6,295.6c-0.1-1.2-0.3-2.3-0.6-3.4c-1.9-6.6-3.8-13.2-5.8-19.8c-0.3-1-0.6-2-0.9-3
				l-49.1,0.2c0,0,3.6,19.1,3.6,22.9c-0.1,3.6-1.5,7.3-4,9.8c-2.7,2.7-6.3,3-9.8,3.3c-2.8,0.3-42.1,4.3-48.3,4.9
				c-1.8,0.2-3.6,0.4-5.4,0.5c-0.3,0-0.6,0.2-0.9,0.4c-0.7,0.7,0.1,1.4,0.5,1.4l65.3,3.7c0,0,46.2-7,46.3-7.1
				C277.5,308.3,280.2,301.8,279.6,295.6z"/>
			<path id="XMLID_2480_" class="st29" d="M134.5,103.8l225.3-34.7c3.1-0.5,5.7,2.2,5.2,5.3l-34.6,186.5c-0.9,5.2-5.5,8.9-10.8,8.9
				h-230c-3.3,0-5.7-3.1-4.8-6.3L126.4,111C127.5,107.2,130.6,104.4,134.5,103.8z"/>
			<g id="XMLID_2374_">
				<path id="XMLID_4_" class="st28" d="M277.4,287c-1.4-4.9-2.9-9.8-4.3-14.7c-0.3-1-0.6-2-0.9-3l-49.1,0.2c0,0,2,10.6,3,17.5
					H277.4L277.4,287z"/>
				<path id="XMLID_69_" class="st30" d="M277.4,286.8c-1.4-4.9-2.8-9.7-4.2-14.5c-0.3-1-0.6-2-0.9-3l-49.1,0.2c0,0,2,10.4,3,17.4
					h51.2V286.8z"/>
				<path id="XMLID_68_" class="st31" d="M277.3,286.6c-1.4-4.8-2.8-9.6-4.2-14.4c-0.3-1-0.6-2-0.9-3l-49.1,0.2c0,0,2,10.3,3,17.2
					L277.3,286.6L277.3,286.6z"/>
				<path id="XMLID_67_" class="st32" d="M277.3,286.4c-1.4-4.7-2.7-9.4-4.1-14.2c-0.3-1-0.6-2-0.9-3l-49.1,0.2c0,0,2,10.2,2.9,17
					H277.3L277.3,286.4z"/>
				<path id="XMLID_66_" class="st33" d="M277.2,286.3c-1.3-4.7-2.7-9.3-4.1-14c-0.3-1-0.6-2-0.9-3l-49.1,0.2c0,0,1.9,10,2.9,16.8
					H277.2z"/>
				<path id="XMLID_65_" class="st34" d="M277.2,286.1c-1.3-4.6-2.7-9.2-4-13.8c-0.3-1-0.6-2-0.9-3l-49.1,0.2c0,0,1.9,9.9,2.9,16.6
					L277.2,286.1L277.2,286.1z"/>
				<path id="XMLID_64_" class="st35" d="M277.1,285.9c-1.3-4.5-2.6-9.1-3.9-13.6c-0.3-1-0.6-2-0.9-3l-49.1,0.2
					c0,0,1.9,9.8,2.8,16.4H277.1z"/>
				<path id="XMLID_63_" class="st36" d="M277.1,285.7c-1.3-4.4-2.6-8.9-3.9-13.4c-0.3-1-0.6-2-0.9-3l-49.1,0.2
					c0,0,1.9,9.6,2.8,16.2L277.1,285.7L277.1,285.7z"/>
				<path id="XMLID_62_" class="st37" d="M277,285.5c-1.3-4.4-2.6-8.8-3.8-13.2c-0.3-1-0.6-2-0.9-3l-49.1,0.2c0,0,1.8,9.5,2.8,16
					H277L277,285.5z"/>
				<path id="XMLID_61_" class="st38" d="M277,285.3c-1.2-4.3-2.5-8.7-3.8-13c-0.3-1-0.6-2-0.9-3l-49.1,0.2c0,0,1.8,9.4,2.7,15.8
					H277z"/>
				<path id="XMLID_60_" class="st39" d="M276.9,285.1c-1.2-4.3-2.5-8.6-3.7-12.8c-0.3-1-0.6-2-0.9-3l-49.1,0.2
					c0,0,1.8,9.3,2.7,15.6L276.9,285.1L276.9,285.1z"/>
				<path id="XMLID_59_" class="st40" d="M276.8,284.9c-1.2-4.2-2.5-8.4-3.7-12.6c-0.3-1-0.6-2-0.9-3l-49.1,0.2
					c0,0,1.8,9.1,2.7,15.4H276.8L276.8,284.9z"/>
				<path id="XMLID_57_" class="st41" d="M276.8,284.7c-1.2-4.1-2.4-8.3-3.6-12.4c-0.3-1-0.6-2-0.9-3l-49.1,0.2c0,0,1.7,9,2.6,15.3
					h51V284.7z"/>
				<path id="XMLID_56_" class="st42" d="M276.7,284.5c-1.2-4.1-2.4-8.2-3.6-12.3c-0.3-1-0.6-2-0.9-3l-49.1,0.2
					c0,0,1.7,8.9,2.6,15.1L276.7,284.5L276.7,284.5L276.7,284.5z"/>
				<path id="XMLID_55_" class="st43" d="M276.7,284.3c-1.2-4-2.3-8.1-3.5-12.1c-0.3-1-0.6-2-0.9-3l-49.1,0.2c0,0,1.7,8.7,2.6,14.9
					H276.7L276.7,284.3z"/>
				<path id="XMLID_54_" class="st44" d="M276.6,284.2c-1.1-3.9-2.3-7.9-3.5-11.9c-0.3-1-0.6-2-0.9-3l-49.1,0.2
					c0,0,1.7,8.6,2.5,14.7L276.6,284.2L276.6,284.2z"/>
				<path id="XMLID_53_" class="st45" d="M276.6,284c-1.1-3.9-2.3-7.8-3.4-11.7c-0.3-1-0.6-2-0.9-3l-49.1,0.2c0,0,1.6,8.5,2.5,14.5
					H276.6L276.6,284L276.6,284z"/>
				<path id="XMLID_52_" class="st46" d="M276.5,283.8c-1.1-3.8-2.2-7.7-3.3-11.5c-0.3-1-0.6-2-0.9-3l-49.1,0.2
					c0,0,1.6,8.4,2.5,14.3H276.5z"/>
				<path id="XMLID_51_" class="st29" d="M276.5,283.6c-1.1-3.8-2.2-7.6-3.3-11.3c-0.3-1-0.6-2-0.9-3l-49.1,0.2
					c0,0,1.6,8.2,2.5,14.1L276.5,283.6L276.5,283.6z"/>
				<path id="XMLID_50_" class="st47" d="M276.4,283.4c-1.1-3.7-2.2-7.4-3.2-11.1c-0.3-1-0.6-2-0.9-3l-49.1,0.2
					c0,0,1.6,8.1,2.4,13.9H276.4L276.4,283.4L276.4,283.4z"/>
				<path id="XMLID_49_" class="st48" d="M276.4,283.2c-1-3.6-2.1-7.3-3.2-10.9c-0.3-1-0.6-2-0.9-3l-49.1,0.2c0,0,1.5,8,2.4,13.8
					L276.4,283.2L276.4,283.2z"/>
				<path id="XMLID_47_" class="st49" d="M276.3,283c-1-3.6-2.1-7.1-3.1-10.8c-0.3-1-0.6-2-0.9-3l-49.1,0.2c0,0,1.5,7.8,2.4,13.6
					L276.3,283L276.3,283z"/>
				<path id="XMLID_45_" class="st50" d="M276.2,282.8c-1-3.5-2.1-7-3.1-10.6c-0.3-1-0.6-2-0.9-3l-49.1,0.2c0,0,1.5,7.7,2.3,13.3
					L276.2,282.8L276.2,282.8L276.2,282.8z"/>
				<path id="XMLID_44_" class="st51" d="M276.2,282.6c-1-3.4-2-6.9-3-10.3c-0.3-1-0.6-2-0.9-3l-49.1,0.2c0,0,1.4,7.6,2.3,13.2
					L276.2,282.6L276.2,282.6z"/>
				<path id="XMLID_43_" class="st52" d="M276.1,282.4c-1-3.4-2-6.8-3-10.2c-0.3-1-0.6-2-0.9-3l-49.1,0.2c0,0,1.4,7.5,2.3,13H276.1
					L276.1,282.4z"/>
				<path id="XMLID_42_" class="st53" d="M276.1,282.2c-1-3.3-1.9-6.6-2.9-10c-0.3-1-0.6-2-0.9-3l-49.1,0.2c0,0,1.4,7.3,2.2,12.8
					H276.1z"/>
				<path id="XMLID_41_" class="st54" d="M276,282.1c-0.9-3.3-1.9-6.5-2.9-9.8c-0.3-1-0.6-2-0.9-3l-49.1,0.2c0,0,1.4,7.2,2.2,12.6
					L276,282.1L276,282.1z"/>
				<path id="XMLID_40_" class="st55" d="M276,281.9c-0.9-3.2-1.9-6.4-2.8-9.6c-0.3-1-0.6-2-0.9-3l-49.1,0.2c0,0,1.3,7,2.2,12.4H276
					L276,281.9z"/>
				<path id="XMLID_39_" class="st56" d="M275.9,281.7c-0.9-3.1-1.8-6.3-2.7-9.4c-0.3-1-0.6-2-0.9-3l-49.1,0.2c0,0,1.3,6.9,2.1,12.2
					L275.9,281.7L275.9,281.7z"/>
				<path id="XMLID_38_" class="st57" d="M275.9,281.5c-0.9-3.1-1.8-6.1-2.7-9.2c-0.3-1-0.6-2-0.9-3l-49.1,0.2c0,0,1.3,6.8,2.1,12
					H275.9L275.9,281.5z"/>
				<path id="XMLID_37_" class="st58" d="M275.8,281.3c-0.9-3-1.8-6-2.6-9c-0.3-1-0.6-2-0.9-3l-49.1,0.2c0,0,1.3,6.6,2.1,11.8H275.8
					L275.8,281.3z"/>
				<path id="XMLID_36_" class="st9" d="M275.8,281.1c-0.8-2.9-1.7-5.9-2.6-8.8c-0.3-1-0.6-2-0.9-3l-49.1,0.2c0,0,1.2,6.5,2,11.7
					h50.6V281.1z"/>
				<path id="XMLID_35_" class="st9" d="M275.7,280.9c-0.8-2.9-1.7-5.8-2.5-8.7c-0.3-1-0.6-2-0.9-3l-49.1,0.2c0,0,1.2,6.4,2,11.5
					H275.7L275.7,280.9z"/>
				<path id="XMLID_34_" class="st10" d="M275.6,280.7c-0.8-2.8-1.7-5.6-2.5-8.5c-0.3-1-0.6-2-0.9-3l-49.1,0.2c0,0,1.2,6.3,2,11.3
					H275.6z"/>
				<path id="XMLID_33_" class="st11" d="M275.6,280.6c-0.8-2.8-1.6-5.5-2.4-8.3c-0.3-1-0.6-2-0.9-3l-49.1,0.2c0,0,1.2,6.1,2,11.1
					L275.6,280.6L275.6,280.6z"/>
				<path id="XMLID_32_" class="st12" d="M275.5,280.4c-0.8-2.7-1.6-5.4-2.4-8.1c-0.3-1-0.6-2-0.9-3l-49.1,0.2c0,0,1.1,6,1.9,10.9
					H275.5L275.5,280.4z"/>
				<path id="XMLID_31_" class="st13" d="M275.5,280.2c-0.8-2.6-1.5-5.3-2.3-7.9c-0.3-1-0.6-2-0.9-3l-49.1,0.2c0,0,1.1,5.9,1.9,10.7
					L275.5,280.2L275.5,280.2z"/>
				<path id="XMLID_30_" class="st14" d="M275.4,280c-0.7-2.6-1.5-5.1-2.3-7.7c-0.3-1-0.6-2-0.9-3l-49.1,0.2c0,0,1.1,5.7,1.9,10.5
					H275.4L275.4,280z"/>
				<path id="XMLID_29_" class="st15" d="M275.4,279.8c-0.7-2.5-1.4-5-2.2-7.5c-0.3-1-0.6-2-0.9-3l-49.1,0.2c0,0,1.1,5.6,1.8,10.3
					H275.4L275.4,279.8z"/>
				<path id="XMLID_28_" class="st16" d="M275.3,279.6c-0.7-2.4-1.4-4.9-2.1-7.3c-0.3-1-0.6-2-0.9-3l-49.1,0.2c0,0,1,5.5,1.8,10.1
					L275.3,279.6L275.3,279.6z"/>
				<path id="XMLID_27_" class="st17" d="M275.2,279.4c-0.7-2.4-1.4-4.8-2.1-7.1c-0.3-1-0.6-2-0.9-3l-49.1,0.2c0,0,1,5.4,1.8,9.9
					H275.2L275.2,279.4z"/>
				<path id="XMLID_26_" class="st18" d="M275.2,279.2c-0.7-2.3-1.3-4.6-2-6.9c-0.3-1-0.6-2-0.9-3l-49.1,0.2c0,0,1,5.2,1.7,9.7
					L275.2,279.2L275.2,279.2z"/>
				<path id="XMLID_25_" class="st19" d="M275.1,279c-0.6-2.3-1.3-4.5-2-6.7c-0.3-1-0.6-2-0.9-3l-49.1,0.2c0,0,1,5.1,1.7,9.6h50.3
					V279z"/>
				<path id="XMLID_24_" class="st20" d="M275.1,278.8c-0.6-2.2-1.3-4.4-1.9-6.6c-0.3-1-0.6-2-0.9-3l-49.1,0.2c0,0,0.9,5,1.7,9.4
					H275.1L275.1,278.8z"/>
				<path id="XMLID_23_" class="st21" d="M275,278.6c-0.6-2.1-1.2-4.2-1.9-6.4c-0.3-1-0.6-2-0.9-3l-49.1,0.2c0,0,0.9,4.8,1.6,9.2
					L275,278.6L275,278.6z"/>
				<path id="XMLID_22_" class="st22" d="M275,278.5c-0.6-2.1-1.2-4.1-1.8-6.2c-0.3-1-0.6-2-0.9-3l-49.1,0.2c0,0,0.9,4.7,1.6,9H275
					L275,278.5z"/>
				<path id="XMLID_21_" class="st23" d="M274.9,278.3c-0.6-2-1.2-4-1.8-6c-0.3-1-0.6-2-0.9-3l-49.1,0.2c0,0,0.9,4.6,1.6,8.8H274.9
					L274.9,278.3L274.9,278.3z"/>
				<path id="XMLID_20_" class="st24" d="M274.8,278.1c-0.6-1.9-1.1-3.9-1.7-5.8c-0.3-1-0.6-2-0.9-3l-49.1,0.2c0,0,0.8,4.4,1.6,8.6
					L274.8,278.1L274.8,278.1z"/>
				<path id="XMLID_19_" class="st25" d="M274.8,277.9c-0.5-1.9-1.1-3.7-1.6-5.6c-0.3-1-0.6-2-0.9-3l-49.1,0.2c0,0,0.8,4.3,1.5,8.4
					H274.8L274.8,277.9z"/>
				<path id="XMLID_18_" class="st26" d="M274.7,277.7c-0.5-1.8-1-3.6-1.6-5.4c-0.3-1-0.6-2-0.9-3l-49.1,0.2c0,0,0.8,4.2,1.5,8.2
					L274.7,277.7L274.7,277.7z"/>
				<path id="XMLID_17_" class="st27" d="M274.7,277.5c-0.5-1.8-1-3.5-1.5-5.2c-0.3-1-0.6-2-0.9-3l-49.1,0.2c0,0,0.8,4,1.4,8.1
					L274.7,277.5L274.7,277.5z"/>
				<path id="XMLID_16_" class="st59" d="M274.6,277.3c-0.5-1.7-1-3.4-1.5-5.1c-0.3-1-0.6-2-0.9-3l-49.1,0.2c0,0,0.7,3.9,1.4,7.9
					H274.6L274.6,277.3z"/>
				<path id="XMLID_15_" class="st60" d="M274.6,277.1c-0.5-1.6-0.9-3.2-1.4-4.9c-0.3-1-0.6-2-0.9-3l-49.1,0.2c0,0,0.7,3.8,1.4,7.7
					L274.6,277.1L274.6,277.1z"/>
				<path id="XMLID_14_" class="st61" d="M274.5,277c-0.4-1.6-0.9-3.1-1.3-4.7c-0.3-1-0.6-2-0.9-3l-49.1,0.2c0,0,0.7,3.7,1.3,7.5
					H274.5z"/>
				<path id="XMLID_13_" class="st62" d="M274.5,276.7c-0.4-1.5-0.9-3-1.3-4.5c-0.3-1-0.6-2-0.9-3l-49.1,0.2c0,0,0.7,3.5,1.3,7.3
					H274.5L274.5,276.7L274.5,276.7z"/>
				<path id="XMLID_12_" class="st63" d="M274.4,276.5c-0.4-1.4-0.8-2.9-1.2-4.3c-0.3-1-0.6-2-0.9-3l-49.1,0.2c0,0,0.6,3.4,1.3,7.1
					L274.4,276.5L274.4,276.5z"/>
				<path id="XMLID_11_" class="st64" d="M274.4,276.4c-0.4-1.4-0.8-2.7-1.2-4.1c-0.3-1-0.6-2-0.9-3l-49.1,0.2c0,0,0.6,3.3,1.2,6.9
					H274.4L274.4,276.4z"/>
				<path id="XMLID_10_" class="st65" d="M274.3,276.2c-0.4-1.3-0.7-2.6-1.1-3.9c-0.3-1-0.6-2-0.9-3l-49.1,0.2c0,0,0.6,3.1,1.2,6.7
					L274.3,276.2L274.3,276.2z"/>
				<path id="XMLID_9_" class="st66" d="M274.2,276c-0.4-1.2-0.7-2.5-1.1-3.7c-0.3-1-0.6-2-0.9-3l-49.1,0.2c0,0,0.6,3,1.2,6.5H274.2
					L274.2,276z"/>
				<path id="XMLID_8_" class="st67" d="M274.2,275.8c-0.3-1.2-0.7-2.4-1-3.5c-0.3-1-0.6-2-0.9-3l-49.1,0.2c0,0,0.5,2.9,1.1,6.3
					H274.2L274.2,275.8z"/>
				<path id="XMLID_7_" class="st68" d="M274.1,275.6c-0.3-1.1-0.6-2.2-1-3.3c-0.3-1-0.6-2-0.9-3l-49.1,0.2c0,0,0.5,2.8,1.1,6.1
					L274.1,275.6L274.1,275.6z"/>
				<path id="XMLID_6_" class="st69" d="M274.1,275.4c-0.3-1-0.6-2.1-0.9-3.1s-0.6-2-0.9-3l-49.1,0.2c0,0,0.5,2.6,1.1,6h49.8V275.4z
					"/>
				<path id="XMLID_5_" class="st70" d="M274,275.2c-0.3-1-0.6-2-0.9-3s-0.6-2-0.9-3l-49.1,0.2c0,0,0.5,2.5,1.1,5.8H274L274,275.2
					L274,275.2z"/>
				<path id="XMLID_3_" class="st71" d="M274,275c-0.3-0.9-0.5-1.9-0.8-2.8c-0.3-1-0.6-2-0.9-3l-49.1,0.2c0,0,0.4,2.4,1,5.6L274,275
					L274,275z"/>
			</g>
			<path id="XMLID_2373_" class="st72" d="M133.8,103.8l225.3-34.7c3.1-0.5,5.7,2.2,5.2,5.3l-34.6,186.5c-0.9,5.2-5.5,8.9-10.8,8.9
				H89c-3.3,0-5.7-3.1-4.8-6.3L125.8,111C126.7,107.2,129.9,104.4,133.8,103.8z"/>
			
				<linearGradient id="XMLID_58_" gradientUnits="userSpaceOnUse" x1="94.4" y1="798.1" x2="352" y2="798.1" gradientTransform="matrix(1 0 0 -1 0 968)">
				<stop  offset="0" style="stop-color:#AAAAAE"/>
				<stop  offset="0.1101" style="stop-color:#BBBBBE"/>
				<stop  offset="0.3405" style="stop-color:#D9D9DA"/>
				<stop  offset="0.568" style="stop-color:#EEEEEF"/>
				<stop  offset="0.789" style="stop-color:#FBFBFB"/>
				<stop  offset="0.9961" style="stop-color:#FFFFFF"/>
			</linearGradient>
			<polygon id="XMLID_2372_" class="st73" points="133.5,113 352,81 319.9,254.3 94.4,258.8 			"/>
		</g>
		
			<image style="overflow:visible;enable-background:new    ;" width="3207" height="2218" id="Layer_2_xA0_Image_2_" xlink:href="73730ED3.png"  transform="matrix(8.090795e-02 -4.811259e-04 4.811259e-04 8.090795e-02 93.4611 79.115)">
		</image>
	</g>
	<g id="XMLID_745_">
		<g id="XMLID_750_">
			<path id="XMLID_752_" class="st0" d="M86.8,297H32.9c-1.3,0-2.4-1-2.4-2.4v-46.3c0-1.3,1-2.4,2.4-2.4h53.9c1.3,0,2.4,1,2.4,2.4
				v46.3C89.1,296,88.1,297,86.8,297z"/>
			<path id="XMLID_751_" class="st1" d="M88.4,295.6H34.5c-1.3,0-2.4-1-2.4-2.4V247c0-1.3,1-2.4,2.4-2.4h53.9c1.3,0,2.4,1,2.4,2.4
				v46.3C90.7,294.6,89.7,295.6,88.4,295.6z"/>
			<g id="XMLID_756_">
				<path id="XMLID_754_" class="st74" d="M66.6,275H56.3c-1.7,0-3-1.3-3-3v-14.7c0-1.7,1.3-3,3-3h10.3c1.7,0,3,1.3,3,3V272
					C69.6,273.6,68.3,275,66.6,275z"/>
				<path id="XMLID_747_" class="st28" d="M72.6,286H50.2c-0.7,0-1.4-0.6-1.4-1.4V266c0-0.7,0.6-1.4,1.4-1.4h22.5
					c0.7,0,1.4,0.6,1.4,1.4v18.6C74,285.3,73.4,286,72.6,286z"/>
				<g id="XMLID_753_">
					<circle id="XMLID_748_" class="st1" cx="61.4" cy="274.2" r="3.5"/>
					<rect id="XMLID_749_" x="59.5" y="275.3" class="st1" width="3.8" height="4.7"/>
				</g>
			</g>
		</g>
	</g>
</g>
</svg>
