<?xml version="1.0" encoding="utf-8"?>
<!-- Generator: Adobe Illustrator 22.1.0, SVG Export Plug-In . SVG Version: 6.00 Build 0)  -->
<svg version="1.1" id="Layer_1" xmlns="http://www.w3.org/2000/svg" xmlns:xlink="http://www.w3.org/1999/xlink" x="0px" y="0px"
	 viewBox="0 0 371 327.7" style="enable-background:new 0 0 371 327.7;" xml:space="preserve">
<style type="text/css">
	.st0{fill:#309991;}
	.st1{fill:#DBBC7D;}
	.st2{fill:none;}
	.st3{fill:#FFFFFF;}
	.st4{font-family:'ArialMT';}
	.st5{font-size:8.4445px;}
	.st6{opacity:0.46;}
	.st7{fill:#007CC3;}
	.st8{font-size:25.8558px;}
	.st9{opacity:0.41;fill:#FFFFFF;enable-background:new    ;}
	.st10{fill:#F1F1F1;}
	.st11{fill:none;stroke:#919191;stroke-miterlimit:10;}
	.st12{fill:#DBDBDB;}
	.st13{fill:#B4B4B4;}
	.st14{fill:#E6E6E6;}
	.st15{fill:#CBCBCB;}
	.st16{fill:#ACACAC;}
	.st17{font-size:4.3712px;}
	.st18{fill:#696969;}
	.st19{fill:#02A916;}
	.st20{fill:#FF5141;}
	.st21{fill:#F1BB3F;}
	.st22{fill:#70CB43;}
</style>
<g id="Objects">
	<g>
		<path class="st0" d="M337.4,111.1c-19.3-26.8-47.8-45.6-77-60.9c-22.5-11.7-47.3-22-72.6-19.5c-23.6,2.3-44.5,15.4-64.5,28.1
			c-20.4,12.9-40.8,26-59.3,41.6c-8.1,6.8-15.8,14.2-21,23.3c-12.7,21.9-8.8,49.5-1.2,73.7c11.5,36.5,31.6,71.3,62.1,94.6
			c30.4,23.3,72.1,33.6,108.3,21.1c48.7-16.6,76.7-67.6,119.9-95.4l21.6-12.9C365.5,174,356.7,137.9,337.4,111.1z"/>
		<g>
			<path class="st1" d="M323.7,278.4c-4.7-5.9-12.2-9.1-19.7-10.1c-7.5-1-15.1-0.1-22.6,0.8c-16.4,2.2-31.6,4.4-47.7,8.4
				c-6.7,1.6-14.5,4.5-20.9,6.8c-2.1,0.8-4.1,1.6-5.7,3.1c-1.6,1.5-2.6,3.8-2.2,5.9c0.6,2.3,3,3.9,5.4,4.3c2.4,0.4,4.9-0.2,7.2-0.8
				c20.1-4.4,41.5-5.9,60.7,1.1c5.3,2,10.5,4.6,15.9,6.6s11.1,3.5,16.8,2.9c5.7-0.5,11.4-3.2,14.5-8
				C329.7,293.2,328.3,284.3,323.7,278.4z"/>
			<ellipse class="st1" cx="189.5" cy="300.1" rx="6.1" ry="6.1"/>
			<path class="st1" d="M173.9,308.9c0,2.2-1.8,3.9-3.9,3.9s-3.9-1.8-3.9-3.9s1.8-3.9,3.9-3.9C172.1,304.9,173.9,306.7,173.9,308.9z
				"/>
		</g>
		<path class="st1" d="M52,184.9c6.3,0.1-7.3,24.3-17.3,34.9s-22.7-2.5-7.7-16.5S50.1,184.8,52,184.9z"/>
		<circle class="st1" cx="13.9" cy="238.6" r="8.7"/>
		<circle class="st0" cx="332.8" cy="264.5" r="7"/>
		<path class="st0" d="M362.5,248.3c0,1.8-1.4,3.2-3.2,3.2c-1.8,0-3.2-1.4-3.2-3.2s1.4-3.2,3.2-3.2
			C361.1,245.2,362.5,246.6,362.5,248.3z"/>
		<ellipse class="st0" cx="192.1" cy="12.3" rx="9" ry="9"/>
		<circle class="st0" cx="219.3" cy="15.2" r="5.9"/>
		<path class="st1" d="M340.9,122.5c-18-17.9-42.7-27.6-67.4-33.9c-4.5-1.1-9.1-2.3-13.6-3.3c-16-3.6-30.8-11.3-42.7-22.5
			c-0.1-0.1-0.2-0.1-0.2-0.2c-12.9-12.2-23.9-26.6-38.7-36.2c-20.9-13.8-49-16.6-72-6.6S66.4,52.7,63.9,77.8
			c-2.9,29.9,13.8,59.8,8,89.3c-7.1,36.4-46.8,62.2-47.2,99.3c-0.2,18.3,10.1,35.9,25.1,46.4c15,10.4,34.2,14,52.4,11.6
			c27.7-3.6,51.9-19.6,76.9-31.8c27-13,56.1-21.9,85.8-26c20.2-2.8,41.1-3.7,59.4-12.5c23.3-11.3,39.4-35.5,42.1-61.2
			C369.4,167.2,359.2,140.6,340.9,122.5z"/>
		<g>
			<g>
				<rect x="155.8" y="194.1" class="st2" width="154.1" height="31.2"/>
				<text transform="matrix(1 0 0 1 163.7039 201.2168)" class="st3 st4 st5">Lorem ipsum dolor sit amet, consectetuer </text>
				<text transform="matrix(1 0 0 1 168.9578 210.5996)" class="st3 st4 st5">adipiscing elit, sed diam nonummy nibh </text>
				<text transform="matrix(1 0 0 1 184.7215 219.9824)" class="st3 st4 st5">euismod tincidunt ut laoreet dolore </text>
			</g>
			<g class="st6">
				<text transform="matrix(1 0 0 1 232.4891 155.498)" class="st7 st4 st8">liquid</text>
				<text transform="matrix(1 0 0 1 218.3201 181.8193)" class="st7 st4 st8">banner</text>
			</g>
			<g>
				<text transform="matrix(1 0 0 1 232.4891 153.6216)" class="st3 st4 st8">liquid</text>
				<text transform="matrix(1 0 0 1 218.3201 179.9424)" class="st3 st4 st8">banner</text>
			</g>
		</g>
		<path class="st9" d="M54.1,293.6c-9,14.9,46.6,36.4,90.3,4.9c40.1-28.9,2.3-61.1-31.5-34.2C79.1,291.3,60.2,283.5,54.1,293.6z"/>
	</g>
</g>
<g id="Layer_4">
	<g id="Body">
		<g>
			<path class="st10" d="M332.6,60.3H44c-0.6,0-1,0.5-1,1v219.5h290.5V61.3C333.6,60.8,333.1,60.3,332.6,60.3z"/>
		</g>
		<g>
			<path class="st11" d="M332.6,60.3H44c-0.6,0-1,0.5-1,1v219.5h290.5V61.3C333.6,60.8,333.1,60.3,332.6,60.3z"/>
		</g>
	</g>
	<g id="Right">
		<g>
			<path class="st12" d="M255.2,69.3c-0.6-0.9-1.9-1.7-3-1.7h-70.7c-1.1,0-2.3,0.8-2.8,1.7l-6.9,14.4h92L255.2,69.3z"/>
		</g>
	</g>
	<g id="Close">
		<g>
			<path class="st13" d="M182.6,71.2c-0.8,0-1.3,0.6-1.3,1.3c0,0.8,0.6,1.3,1.3,1.3s1.3-0.6,1.3-1.3
				C183.9,71.8,183.4,71.2,182.6,71.2z M183.4,73l-0.4,0.3l-0.3-0.4l-0.3,0.4l-0.4-0.3l0.4-0.5l-0.4-0.5l0,0v-0.1l0.1,0.1l0.4-0.3
				l0.3,0.4l0.3-0.4l0.4,0.3l-0.4,0.5L183.4,73z"/>
		</g>
	</g>
	<g id="Left">
		<g>
			<path class="st14" d="M171.5,69.3c-0.6-0.9-1.9-1.7-3-1.7H97.8c-1.1,0-2.3,0.8-2.8,1.7l-6.9,14.4h92L171.5,69.3z"/>
		</g>
	</g>
	<g id="Close_1_">
		<g>
			<path class="st15" d="M99.6,71.2c-0.8,0-1.3,0.6-1.3,1.3c0,0.8,0.6,1.3,1.3,1.3s1.3-0.6,1.3-1.3C100.9,71.8,100.3,71.2,99.6,71.2
				z M100.2,73l-0.4,0.3l-0.3-0.4l-0.3,0.4L98.9,73l0.4-0.5L98.9,72l0,0v-0.1L99,72l0.4-0.3l0.3,0.4l0.3-0.4l0.4,0.3l-0.4,0.5
				L100.2,73z"/>
		</g>
	</g>
	<g id="Background_1_">
		<g>
			<rect x="43.6" y="81.6" class="st14" width="289.5" height="19.8"/>
		</g>
	</g>
	<g id="Left_1_">
		<g>
			<path class="st15" d="M58.3,91.2h-6.2l1.9-1.9c0.2-0.2,0.2-0.5,0-0.7c-0.2-0.2-0.5-0.2-0.7,0L51,90.9c-0.2,0.2-0.3,0.4-0.3,0.6
				v0.1c0,0.2,0.1,0.5,0.3,0.6l2.3,2.3c0.2,0.2,0.5,0.2,0.7,0c0.2-0.2,0.2-0.5,0-0.7L52,91.9h6.2c0.3,0,0.5-0.2,0.5-0.5l0,0
				C58.7,91.4,58.5,91.2,58.3,91.2z"/>
		</g>
	</g>
	<g id="Right_1_">
		<g>
			<path class="st15" d="M75.8,90.9l-2.3-2.3c-0.2-0.2-0.5-0.2-0.7,0c-0.2,0.2-0.2,0.5,0,0.7l1.9,1.9h-6.2c-0.3,0-0.5,0.2-0.5,0.5
				l0,0c0,0.3,0.2,0.5,0.5,0.5h6.2l-1.9,1.9c-0.2,0.2-0.2,0.5,0,0.7s0.5,0.2,0.7,0l2.3-2.3c0.2-0.2,0.3-0.4,0.3-0.6v-0.1
				C75.9,91.3,75.9,91.1,75.8,90.9z"/>
		</g>
	</g>
	<g id="Refresh">
		<g>
			<path class="st15" d="M92.7,92c0-0.1-0.1-0.2-0.2-0.2c0-0.1-0.1-0.2-0.2-0.2s-0.3,0.1-0.3,0.3c0,1.4-1.1,2.5-2.5,2.5
				c-0.7,0-1.2-0.3-1.7-0.7c-0.4-0.5-0.7-1-0.7-1.7c0-0.7,0.3-1.2,0.7-1.7c0.4-0.4,0.9-0.7,1.5-0.7v0.6c0,0.1,0.1,0.2,0.1,0.2h0.1
				h0.1l1.4-0.8c0.1,0,0.1-0.1,0.1-0.1h0.1c0.1,0,0.1-0.1,0.1-0.2s-0.1-0.2-0.1-0.2h-0.1c0-0.1-0.1-0.1-0.1-0.1l-1.4-0.8
				c-0.1,0-0.2,0-0.3,0c-0.1,0-0.1,0.1-0.1,0.2V89c-1.6,0.1-2.8,1.4-2.8,3.1c0,0.1,0,0.1,0,0.2s0,0.1,0,0.2c0,1.7,1.4,3.1,3.1,3.1
				c0.9,0,1.7-0.4,2.3-1C92.4,93.7,92.7,92.9,92.7,92z"/>
		</g>
	</g>
	<g id="Settings">
		<g>
			<path class="st15" d="M327.3,88.6h-7.5c-0.1,0-0.2,0.1-0.2,0.2v0.7c0,0.1,0.1,0.2,0.2,0.2h7.5c0.1,0,0.2-0.1,0.2-0.2v-0.7
				C327.5,88.7,327.4,88.6,327.3,88.6z M327.3,90.9h-7.5c-0.1,0-0.2,0.1-0.2,0.2v0.7c0,0.1,0.1,0.2,0.2,0.2h7.5
				c0.1,0,0.2-0.1,0.2-0.2v-0.7C327.5,91,327.4,90.9,327.3,90.9z M327.3,93.2h-7.5c-0.1,0-0.2,0.1-0.2,0.2V94c0,0.1,0.1,0.2,0.2,0.2
				h7.5c0.1,0,0.2-0.1,0.2-0.2v-0.7C327.5,93.2,327.4,93.2,327.3,93.2z"/>
		</g>
	</g>
	<g id="Adress">
		<g>
			<path class="st3" d="M312.2,86.9h-208c-0.2,0-0.4,0.2-0.4,0.4v8.3c0,0.2,0.2,0.4,0.4,0.4h208c0.2,0,0.4-0.2,0.4-0.4v-8.3
				C312.6,87.1,312.4,86.9,312.2,86.9z"/>
		</g>
	</g>
	<text transform="matrix(1.0004 0 0 1 113.7381 92.6509)" class="st16 st4 st17">https://www.</text>
	<text transform="matrix(1.0004 0 0 1 137.7679 92.6509)" class="st18 st4 st17">yourwebsite</text>
	<text transform="matrix(1.0004 0 0 1 160.2957 92.6509)" class="st16 st4 st17">.com</text>
	<g id="Icon">
		<g>
			<path class="st19" d="M110,90.9v-1.1c0-0.8-0.7-1.5-1.5-1.5s-1.5,0.7-1.5,1.5v1.1c-0.3,0-0.6,0.3-0.6,0.6v2.3
				c0,0.3,0.3,0.6,0.6,0.6h2.9c0.3,0,0.6-0.3,0.6-0.6v-2.3C110.6,91.1,110.4,90.9,110,90.9z M107.5,89.8c0-0.7,0.5-1.1,1.1-1.1
				c0.6,0,1.1,0.5,1.1,1.1v1.1h-2.2L107.5,89.8L107.5,89.8z M110.2,93.6c0,0.1-0.1,0.2-0.2,0.2h-2.9c-0.1,0-0.2-0.1-0.2-0.2v-2.3
				c0-0.1,0.1-0.2,0.2-0.2h2.9c0.1,0,0.2,0.1,0.2,0.2V93.6z M108.8,92c0-0.1-0.1-0.2-0.2-0.2s-0.2,0.1-0.2,0.2v0.5
				c-0.1,0.1-0.2,0.2-0.2,0.3c0,0.2,0.2,0.4,0.4,0.4c0.2,0,0.4-0.2,0.4-0.4c0-0.1-0.1-0.3-0.2-0.3L108.8,92L108.8,92z"/>
		</g>
	</g>
	<g id="Ellipse">
		<g>
			<path class="st20" d="M53.1,68.3c-1.9,0-3.4,1.5-3.4,3.4c0,1.9,1.5,3.4,3.4,3.4c1.9,0,3.4-1.5,3.4-3.4
				C56.4,69.8,54.9,68.3,53.1,68.3z"/>
		</g>
	</g>
	<g id="Ellipse_2">
		<g>
			<path class="st21" d="M65.3,68.3c-1.9,0-3.4,1.5-3.4,3.4c0,1.9,1.5,3.4,3.4,3.4c1.9,0,3.4-1.5,3.4-3.4
				C68.6,69.8,67.2,68.3,65.3,68.3z"/>
		</g>
	</g>
	<g id="Ellipse_3">
		<g>
			<path class="st22" d="M77.5,68.3c-1.9,0-3.4,1.5-3.4,3.4c0,1.9,1.5,3.4,3.4,3.4s3.4-1.5,3.4-3.4C80.9,69.8,79.4,68.3,77.5,68.3z"
				/>
		</g>
	</g>
</g>
<g id="Layer_5">
	
		<image style="overflow:visible;enable-background:new    ;" width="1142" height="702" xlink:href="17931F97.jpg"  transform="matrix(0.254 0 0 0.2523 43.212 103.2101)">
	</image>
</g>
</svg>
