<?xml version="1.0" encoding="utf-8"?>
<!-- Generator: Adobe Illustrator 22.1.0, SVG Export Plug-In . SVG Version: 6.00 Build 0)  -->
<svg version="1.1" id="Layer_1" xmlns="http://www.w3.org/2000/svg" xmlns:xlink="http://www.w3.org/1999/xlink" x="0px" y="0px"
	 viewBox="0 0 371.9 290.3" style="enable-background:new 0 0 371.9 290.3;" xml:space="preserve">
<style type="text/css">
	.st0{opacity:0.1;}
	.st1{fill:#C7E6FA;}
	.st2{fill:#F7F7F7;stroke:#FFFFFF;stroke-miterlimit:10;}
	.st3{fill:#F7F7F7;}
	.st4{opacity:0.6;fill:#B29AB2;enable-background:new    ;}
	.st5{opacity:0.4;fill:#B29AB2;enable-background:new    ;}
	.st6{fill:#B29AB2;}
	.st7{fill:#289996;}
	.st8{fill:#2ADBC6;}
	.st9{fill:#25BAAB;}
	.st10{opacity:0.5;fill:none;stroke:#287F7F;stroke-width:4.0869;stroke-miterlimit:10;enable-background:new    ;}
	.st11{fill:#EA382F;}
	.st12{fill:#FF503E;}
	.st13{fill:#BA3838;}
	.st14{fill:#F73B31;}
	.st15{fill:#FF5850;}
	.st16{fill:#935B58;}
	.st17{opacity:0.7;}
	.st18{clip-path:url(#SVGID_2_);}
	.st19{fill:#FF9583;}
	.st20{fill:#492D2A;}
	.st21{fill:#EABD8D;}
	.st22{opacity:0.4;}
	.st23{fill:#C9905C;}
	.st24{fill:#725039;}
	.st25{fill:#A8B3C7;}
	.st26{fill:#FFFDFE;}
	.st27{fill:#C1604D;}
	.st28{fill:#FFA022;}
	.st29{fill:#FF8017;}
	.st30{opacity:0.5;fill:#C1604D;enable-background:new    ;}
	.st31{fill:#F9D641;}
	.st32{fill:#FBBB1E;}
	.st33{fill:#FF5288;}
	.st34{fill:#EF3F6D;}
	.st35{fill:#E09220;}
	.st36{opacity:0.6;fill:#FFFFFF;enable-background:new    ;}
	.st37{fill:#FFFFFF;}
	.st38{opacity:0.7;fill:#FFFFFF;enable-background:new    ;}
	.st39{fill:#715EE2;}
	.st40{fill:#906CFF;}
	.st41{fill:#6147CE;}
	.st42{fill:#8B9116;}
	.st43{fill:#EDDF2E;}
	.st44{fill:#B2B218;}
	.st45{opacity:0.3;fill:none;stroke:#8B9116;stroke-width:2.8314;stroke-miterlimit:10;enable-background:new    ;}
	.st46{fill:none;stroke:#8B9116;stroke-width:2.8314;stroke-miterlimit:10;}
	.st47{fill:#F9423A;}
	.st48{fill:#A52121;}
	.st49{opacity:0.7;fill:#C1B91F;enable-background:new    ;}
	.st50{fill:#CE3434;}
	.st51{fill:#842CBC;}
	.st52{fill:#A940E5;}
	.st53{fill:#632C82;}
	.st54{fill:#EDA229;}
	.st55{opacity:0.7;fill:#B29AB2;enable-background:new    ;}
	.st56{opacity:0.5;fill:#D68021;enable-background:new    ;}
	.st57{fill:#FFBF31;}
	.st58{fill:#D68021;}
	.st59{fill:#FFC0C9;}
	.st60{fill:#FFCCD1;}
	.st61{fill:#F99BAD;}
	.st62{fill:none;stroke:#EF7F9A;stroke-width:1.9487;stroke-miterlimit:10;}
	.st63{fill:#D12824;}
	.st64{opacity:0.5;}
	.st65{fill:#DB6A85;}
	.st66{fill:#B52626;}
	.st67{fill:#408BB5;}
	.st68{fill:#E4BFC6;}
	.st69{fill:#5EC5EA;}
	.st70{fill:#4EABCC;}
	.st71{fill:#6EE4FF;}
	.st72{fill:#842929;}
	.st73{fill:#D15050;}
	.st74{fill:#AF3F3F;}
	.st75{opacity:0.6;fill:#4EABCC;enable-background:new    ;}
	.st76{fill:#933232;}
	.st77{fill:#B24747;}
	.st78{fill:#E02955;}
	.st79{fill:#FF3F6D;}
	.st80{fill:#BC2255;}
	.st81{opacity:0.5;fill:#287F7F;enable-background:new    ;}
	.st82{fill:#BA2D2D;}
	.st83{opacity:0.7;fill:#8E2323;enable-background:new    ;}
	.st84{fill:#FFA28D;}
	.st85{fill:#8E2323;}
	.st86{fill:#FF675F;}
	.st87{opacity:0.7;fill:#6147CE;enable-background:new    ;}
	.st88{fill:#3B359B;}
	.st89{fill:#795EEF;}
	.st90{fill:#4F3EBC;}
	.st91{fill:#A783FF;}
	.st92{fill:#B69FFF;}
	.st93{fill:#614DE2;}
	.st94{fill:#B899FF;}
	.st95{opacity:0.4;fill:#ED9B17;enable-background:new    ;}
	.st96{fill:#544AD6;}
	.st97{opacity:0.6;fill:#ED9B17;enable-background:new    ;}
	.st98{fill:#9B3737;}
	.st99{opacity:0.7;fill:#936031;enable-background:new    ;}
	.st100{fill:#C16E1B;}
	.st101{fill:#5848BC;}
	.st102{opacity:0.5;fill:#FF3F6D;enable-background:new    ;}
	.st103{fill:#E56767;}
	.st104{fill:#FF7B57;}
	.st105{opacity:0.5;fill:#CE3434;enable-background:new    ;}
	.st106{opacity:0.5;fill:#FFFFFF;enable-background:new    ;}
	.st107{fill:#FFAE92;}
	.st108{fill:#FF9D76;}
	.st109{opacity:0.6;fill:#CE3434;enable-background:new    ;}
	.st110{opacity:0.4;fill:#CE3434;enable-background:new    ;}
	.st111{fill:#FFC5C5;}
</style>
<g id="OBJECTS">
	<g class="st0">
		
			<image style="overflow:visible;enable-background:new    ;" width="1358" height="906" xlink:href="A10DB4B0.png"  transform="matrix(0.2979 0 0 0.2979 -15.7428 -13.5114)">
		</image>
	</g>
	<g>
		<path class="st1" d="M364,223c0,4.2-3.4,7.5-7.5,7.5H11.7c-4.2,0-7.6-3.4-7.6-7.5V13.4c0-4.2,3.4-7.6,7.6-7.6h344.7
			c4.2,0,7.5,3.4,7.5,7.5L364,223L364,223z"/>
	</g>
	<path class="st2" d="M356.5,5.8H11.7c-4.2,0-7.6,3.4-7.6,7.6v23.1H364V13.4C364,9.2,360.7,5.8,356.5,5.8z"/>
	<path class="st3" d="M11.7,231.2h344.7c4.2,0,7.5-3.4,7.5-7.5v-12.6H4.2v12.6C4.2,227.8,7.6,231.2,11.7,231.2z"/>
	
		<image style="overflow:visible;enable-background:new    ;" width="1140" height="705" xlink:href="done/big5/prize2.png"  transform="matrix(0.3157 0 0 0.2477 4.7584 36.4491)">
	</image>
	<g>
		<polygon class="st4" points="59.2,218.1 27.8,237.1 62.1,252.4 		"/>
		<polygon class="st4" points="127.8,212.5 96.4,231.5 130.7,246.8 		"/>
		<polygon class="st5" points="158.7,253.9 128.7,273.7 157.5,286.9 		"/>
		<polygon class="st6" points="124.7,214.7 105.1,214.7 80.8,199.4 99.7,188.3 		"/>
		<g>
			<g>
				<g>
					<polygon class="st7" points="138,151.5 93.6,125.7 93.8,186.4 138.1,212.2 					"/>
				</g>
				<g>
					<polygon class="st8" points="181.9,128.5 137.1,101.6 93.6,125.7 138,151.5 					"/>
				</g>
				<g>
					<polygon class="st9" points="138,151.5 138.1,212.2 181.5,187 181.9,128.5 					"/>
					<line class="st10" x1="181.5" y1="142" x2="138" y2="169.8"/>
				</g>
				<polygon class="st11" points="166.5,136.6 165.8,196.1 158.2,200.6 158.3,140.8 				"/>
				<polygon class="st12" points="121.3,109.8 166.5,136.6 166.5,136.6 166.5,136.6 158.3,140.8 113.7,114.1 				"/>
				<polygon class="st12" points="152.9,110.5 160.4,114.9 117.1,139.4 109.5,135 109.5,135 				"/>
				<polygon class="st13" points="109.4,135 109.5,135 117.1,139.4 116.9,199.8 109.3,195.4 				"/>
				<polygon class="st14" points="138.7,119.7 149.5,139.1 143.9,138 140.5,140.7 131.1,124.1 				"/>
				<polygon class="st15" points="133.5,121.2 141.1,125.6 134,140.2 130.3,137.1 124.6,139.2 				"/>
			</g>
			<polygon class="st7" points="135.8,157.9 171.7,139.5 171.7,161.5 135.2,184.2 			"/>
		</g>
		<g>
			<g>
				<polygon class="st16" points="163.5,171.1 173.3,226.3 204.8,209.3 204.8,162.1 				"/>
				<g>
					<g class="st17">
						<g>
							<g>
								<g>
									<g>
										<defs>
											<polygon id="SVGID_1_" points="204.8,209.1 173.4,225.7 173.4,192.3 204.8,174.7 											"/>
										</defs>
										<clipPath id="SVGID_2_">
											<use xlink:href="#SVGID_1_"  style="overflow:visible;"/>
										</clipPath>
										<g class="st18">
											<g>
												<g>
													<g>
														<g>
															<path class="st19" d="M179.1,225.2c-0.7,0-1.2-0.4-1.2-0.9c0-0.3,0.2-0.5,0.3-0.6c0.2-0.2,0.6-0.3,0.9-0.3
																c0.7,0,1.2,0.4,1.2,0.9C180.3,224.8,179.7,225.2,179.1,225.2L179.1,225.2z"/>
														</g>
													</g>
													<g>
														<g>
															<path class="st19" d="M172.6,225.2c-0.7,0-1.2-0.4-1.2-0.9c0-0.3,0.2-0.5,0.3-0.6c0.2-0.2,0.6-0.3,0.9-0.3
																c0.7,0,1.2,0.4,1.2,0.9c0,0.3-0.2,0.5-0.3,0.6C173.3,225.1,173,225.2,172.6,225.2L172.6,225.2z"/>
														</g>
													</g>
													<g>
														<g>
															<path class="st19" d="M166.2,225.2c-0.7,0-1.2-0.4-1.2-0.9c0-0.3,0.2-0.5,0.3-0.6c0.2-0.2,0.6-0.3,0.9-0.3
																c0.7,0,1.2,0.4,1.2,0.9c0,0.3-0.2,0.5-0.3,0.6C166.9,225.1,166.6,225.2,166.2,225.2L166.2,225.2z"/>
														</g>
													</g>
												</g>
												<g>
													<g>
														<g>
															<path class="st19" d="M188.7,219.4c-0.7,0-1.2-0.4-1.2-0.9s0.6-0.9,1.2-0.9c0.7,0,1.2,0.4,1.2,0.9
																c0,0.3-0.2,0.5-0.3,0.6C189.4,219.3,189.1,219.4,188.7,219.4L188.7,219.4z"/>
														</g>
													</g>
													<g>
														<g>
															<path class="st19" d="M182.3,219.4c-0.7,0-1.2-0.4-1.2-0.9c0-0.3,0.2-0.5,0.3-0.6c0.2-0.2,0.6-0.3,0.9-0.3
																c0.7,0,1.2,0.4,1.2,0.9c0,0.3-0.2,0.5-0.3,0.6C182.9,219.3,182.6,219.4,182.3,219.4L182.3,219.4z"/>
														</g>
													</g>
													<g>
														<g>
															<path class="st19" d="M175.9,219.4c-0.7,0-1.2-0.4-1.2-0.9c0-0.3,0.2-0.5,0.3-0.6c0.2-0.2,0.6-0.3,0.9-0.3
																c0.7,0,1.2,0.4,1.2,0.9C177.2,219,176.5,219.4,175.9,219.4L175.9,219.4z"/>
														</g>
													</g>
													<g>
														<g>
															<path class="st19" d="M169.5,219.4c-0.7,0-1.2-0.4-1.2-0.9c0-0.3,0.2-0.5,0.3-0.6c0.2-0.2,0.6-0.3,0.9-0.3
																c0.7,0,1.2,0.4,1.2,0.9c0,0.3-0.2,0.5-0.3,0.6C170.1,219.3,169.8,219.4,169.5,219.4L169.5,219.4z"/>
														</g>
													</g>
													<g>
														<g>
															<path class="st19" d="M163,219.4c-0.7,0-1.2-0.4-1.2-0.9c0-0.3,0.2-0.5,0.3-0.6c0.2-0.2,0.6-0.3,0.9-0.3
																c0.7,0,1.2,0.4,1.2,0.9c0,0.3-0.2,0.5-0.3,0.6C163.7,219.3,163.4,219.4,163,219.4L163,219.4z"/>
														</g>
													</g>
												</g>
												<g>
													<g>
														<g>
															<path class="st19" d="M204.8,213.7c-0.7,0-1.2-0.4-1.2-0.9c0-0.3,0.2-0.5,0.3-0.6c0.2-0.2,0.6-0.3,0.9-0.3
																c0.7,0,1.2,0.4,1.2,0.9c0,0.3-0.2,0.5-0.3,0.6C205.4,213.5,205.1,213.7,204.8,213.7L204.8,213.7z"/>
														</g>
													</g>
													<g>
														<g>
															<path class="st19" d="M198.3,213.7c-0.7,0-1.2-0.4-1.2-0.9c0-0.3,0.2-0.5,0.3-0.6c0.2-0.2,0.6-0.3,0.9-0.3
																c0.7,0,1.2,0.4,1.2,0.9c0,0.3-0.2,0.5-0.3,0.6C199,213.5,198.7,213.7,198.3,213.7L198.3,213.7z"/>
														</g>
													</g>
													<g>
														<g>
															<path class="st19" d="M191.9,213.7c-0.7,0-1.2-0.4-1.2-0.9c0-0.3,0.2-0.5,0.3-0.6c0.2-0.2,0.6-0.3,0.9-0.3
																c0.7,0,1.2,0.4,1.2,0.9c0,0.3-0.2,0.5-0.3,0.6C192.6,213.5,192.3,213.7,191.9,213.7L191.9,213.7z"/>
														</g>
													</g>
													<g>
														<g>
															<path class="st19" d="M185.5,213.7c-0.7,0-1.2-0.4-1.2-0.9c0-0.3,0.2-0.5,0.3-0.6c0.2-0.2,0.6-0.3,0.9-0.3
																c0.7,0,1.2,0.4,1.2,0.9c0,0.3-0.2,0.5-0.3,0.6C186.2,213.5,185.9,213.7,185.5,213.7L185.5,213.7z"/>
														</g>
													</g>
													<g>
														<g>
															<path class="st19" d="M179.1,213.7c-0.7,0-1.2-0.4-1.2-0.9s0.6-0.9,1.2-0.9c0.7,0,1.2,0.4,1.2,0.9
																c0,0.3-0.2,0.5-0.3,0.6C179.8,213.5,179.4,213.7,179.1,213.7L179.1,213.7z"/>
														</g>
													</g>
													<g>
														<g>
															<path class="st19" d="M172.6,213.7c-0.7,0-1.2-0.4-1.2-0.9c0-0.3,0.2-0.5,0.3-0.6c0.2-0.2,0.6-0.3,0.9-0.3
																c0.7,0,1.2,0.4,1.2,0.9c0,0.3-0.2,0.5-0.3,0.6C173.3,213.6,173,213.7,172.6,213.7L172.6,213.7z"/>
														</g>
													</g>
													<g>
														<g>
															<path class="st19" d="M166.2,213.7c-0.7,0-1.2-0.4-1.2-0.9c0-0.3,0.2-0.5,0.3-0.6c0.2-0.2,0.6-0.3,0.9-0.3
																c0.7,0,1.2,0.4,1.2,0.9C167.4,213.3,166.8,213.7,166.2,213.7L166.2,213.7z"/>
														</g>
													</g>
												</g>
												<g>
													<g>
														<g>
															<path class="st19" d="M208,207.9c-0.7,0-1.2-0.4-1.2-0.9c0-0.5,0.6-0.9,1.2-0.9c0.7,0,1.2,0.4,1.2,0.9
																c0,0.3-0.2,0.5-0.3,0.6C208.7,207.8,208.4,207.9,208,207.9L208,207.9z"/>
														</g>
													</g>
													<g>
														<g>
															<path class="st19" d="M201.6,207.9c-0.7,0-1.2-0.4-1.2-0.9c0-0.3,0.2-0.5,0.3-0.6c0.2-0.2,0.6-0.3,0.9-0.3
																c0.7,0,1.2,0.4,1.2,0.9c0,0.3-0.2,0.5-0.3,0.6C202.3,207.8,201.9,207.9,201.6,207.9L201.6,207.9z"/>
														</g>
													</g>
													<g>
														<g>
															<path class="st19" d="M195.1,207.9c-0.7,0-1.2-0.4-1.2-0.9c0-0.3,0.2-0.5,0.3-0.6c0.2-0.2,0.6-0.3,0.9-0.3
																c0.7,0,1.2,0.4,1.2,0.9C196.4,207.5,195.8,207.9,195.1,207.9L195.1,207.9z"/>
														</g>
													</g>
													<g>
														<g>
															<path class="st19" d="M188.7,207.9c-0.7,0-1.2-0.4-1.2-0.9c0-0.3,0.2-0.5,0.3-0.6c0.2-0.2,0.6-0.3,0.9-0.3
																c0.7,0,1.2,0.4,1.2,0.9c0,0.3-0.2,0.5-0.3,0.6C189.4,207.8,189,207.9,188.7,207.9L188.7,207.9z"/>
														</g>
													</g>
													<g>
														<g>
															<path class="st19" d="M182.3,207.9c-0.7,0-1.2-0.4-1.2-0.9c0-0.3,0.2-0.5,0.3-0.6c0.2-0.2,0.6-0.3,0.9-0.3
																c0.7,0,1.2,0.4,1.2,0.9c0,0.3-0.2,0.5-0.3,0.6C182.9,207.8,182.6,207.9,182.3,207.9L182.3,207.9z"/>
														</g>
													</g>
													<g>
														<g>
															<path class="st19" d="M175.9,207.9c-0.7,0-1.2-0.4-1.2-0.9c0-0.5,0.6-0.9,1.2-0.9c0.7,0,1.2,0.4,1.2,0.9
																c0,0.3-0.2,0.5-0.3,0.6C176.5,207.8,176.2,207.9,175.9,207.9L175.9,207.9z"/>
														</g>
													</g>
													<g>
														<g>
															<path class="st19" d="M169.4,207.9c-0.7,0-1.2-0.4-1.2-0.9c0-0.3,0.2-0.5,0.3-0.6c0.2-0.2,0.6-0.3,0.9-0.3
																c0.7,0,1.2,0.4,1.2,0.9c0,0.3-0.2,0.5-0.3,0.6C170.1,207.8,169.8,207.9,169.4,207.9L169.4,207.9z"/>
														</g>
													</g>
													<g>
														<g>
															<path class="st19" d="M163,207.9c-0.7,0-1.2-0.4-1.2-0.9c0-0.3,0.2-0.5,0.3-0.6c0.2-0.2,0.6-0.3,0.9-0.3
																c0.7,0,1.2,0.4,1.2,0.9C164.4,207.5,163.7,207.9,163,207.9L163,207.9z"/>
														</g>
													</g>
												</g>
												<g>
													<g>
														<g>
															<path class="st19" d="M217.6,202.2c-0.7,0-1.2-0.4-1.2-0.9c0-0.3,0.2-0.5,0.3-0.6c0.2-0.2,0.6-0.3,0.9-0.3
																c0.7,0,1.2,0.4,1.2,0.9c0,0.3-0.2,0.5-0.3,0.6C218.3,202,218,202.2,217.6,202.2L217.6,202.2z"/>
														</g>
													</g>
													<g>
														<g>
															<path class="st19" d="M211.2,202.2c-0.7,0-1.2-0.4-1.2-0.9c0-0.3,0.2-0.5,0.3-0.6c0.2-0.2,0.6-0.3,0.9-0.3
																c0.7,0,1.2,0.4,1.2,0.9c0,0.3-0.2,0.5-0.3,0.6C211.9,202,211.5,202.2,211.2,202.2L211.2,202.2z"/>
														</g>
													</g>
													<g>
														<g>
															<path class="st19" d="M204.7,202.2c-0.7,0-1.2-0.4-1.2-0.9c0-0.5,0.6-0.9,1.2-0.9c0.7,0,1.2,0.4,1.2,0.9
																c0,0.3-0.2,0.5-0.3,0.6C205.4,202,205.1,202.2,204.7,202.2L204.7,202.2z"/>
														</g>
													</g>
													<g>
														<g>
															<path class="st19" d="M198.3,202.2c-0.7,0-1.2-0.4-1.2-0.9c0-0.3,0.2-0.5,0.3-0.6c0.2-0.2,0.6-0.3,0.9-0.3
																c0.7,0,1.2,0.4,1.2,0.9c0,0.3-0.2,0.5-0.3,0.6C199,202,198.7,202.2,198.3,202.2L198.3,202.2z"/>
														</g>
													</g>
													<g>
														<g>
															<path class="st19" d="M191.9,202.2c-0.7,0-1.2-0.4-1.2-0.9c0-0.3,0.2-0.5,0.3-0.6c0.2-0.2,0.6-0.3,0.9-0.3
																c0.7,0,1.2,0.4,1.2,0.9C193.1,201.7,192.6,202.2,191.9,202.2L191.9,202.2z"/>
														</g>
													</g>
													<g>
														<g>
															<path class="st19" d="M185.5,202.2c-0.7,0-1.2-0.4-1.2-0.9c0-0.3,0.2-0.5,0.3-0.6c0.2-0.2,0.6-0.3,0.9-0.3
																c0.7,0,1.2,0.4,1.2,0.9c0,0.3-0.2,0.5-0.3,0.6C186.2,202,185.9,202.2,185.5,202.2L185.5,202.2z"/>
														</g>
													</g>
													<g>
														<g>
															<path class="st19" d="M179.1,202.2c-0.7,0-1.2-0.4-1.2-0.9c0-0.3,0.2-0.5,0.3-0.6c0.2-0.2,0.6-0.3,0.9-0.3
																c0.7,0,1.2,0.4,1.2,0.9c0,0.3-0.2,0.5-0.3,0.6C179.8,202,179.4,202.2,179.1,202.2L179.1,202.2z"/>
														</g>
													</g>
													<g>
														<g>
															<path class="st19" d="M172.6,202.2c-0.7,0-1.2-0.4-1.2-0.9c0-0.5,0.6-0.9,1.2-0.9c0.7,0,1.2,0.4,1.2,0.9
																c0,0.3-0.2,0.5-0.3,0.6C173.3,202,173,202.2,172.6,202.2L172.6,202.2z"/>
														</g>
													</g>
													<g>
														<g>
															<path class="st19" d="M166.2,202.2c-0.7,0-1.2-0.4-1.2-0.9c0-0.3,0.2-0.5,0.3-0.6c0.2-0.2,0.6-0.3,0.9-0.3
																c0.7,0,1.2,0.4,1.2,0.9c0,0.3-0.2,0.5-0.3,0.6C166.9,202,166.5,202.2,166.2,202.2L166.2,202.2z"/>
														</g>
													</g>
												</g>
												<g>
													<g>
														<g>
															<path class="st19" d="M214.4,196.4c-0.7,0-1.2-0.4-1.2-0.9c0-0.3,0.2-0.5,0.3-0.6c0.2-0.2,0.6-0.3,0.9-0.3
																c0.7,0,1.2,0.4,1.2,0.9c0,0.3-0.2,0.5-0.3,0.6C215.1,196.3,214.8,196.4,214.4,196.4L214.4,196.4z"/>
														</g>
													</g>
													<g>
														<g>
															<path class="st19" d="M208,196.4c-0.7,0-1.2-0.4-1.2-0.9c0-0.3,0.2-0.5,0.3-0.6c0.2-0.2,0.6-0.3,0.9-0.3
																c0.7,0,1.2,0.4,1.2,0.9c0,0.3-0.2,0.5-0.3,0.6C208.7,196.3,208.4,196.4,208,196.4L208,196.4z"/>
														</g>
													</g>
													<g>
														<g>
															<path class="st19" d="M201.6,196.4c-0.7,0-1.2-0.4-1.2-0.9c0-0.3,0.2-0.5,0.3-0.6c0.2-0.2,0.6-0.3,0.9-0.3
																c0.7,0,1.2,0.4,1.2,0.9c0,0.3-0.2,0.5-0.3,0.6C202.3,196.3,201.9,196.4,201.6,196.4L201.6,196.4z"/>
														</g>
													</g>
													<g>
														<g>
															<path class="st19" d="M195.1,196.4c-0.7,0-1.2-0.4-1.2-0.9c0-0.3,0.2-0.5,0.3-0.6c0.2-0.2,0.6-0.3,0.9-0.3
																c0.7,0,1.2,0.4,1.2,0.9c0,0.3-0.2,0.5-0.3,0.6C195.8,196.3,195.5,196.4,195.1,196.4L195.1,196.4z"/>
														</g>
													</g>
													<g>
														<g>
															<path class="st19" d="M188.7,196.4c-0.7,0-1.2-0.4-1.2-0.9c0-0.3,0.2-0.5,0.3-0.6c0.2-0.2,0.6-0.3,0.9-0.3
																c0.7,0,1.2,0.4,1.2,0.9c0,0.3-0.2,0.5-0.3,0.6C189.4,196.3,189,196.4,188.7,196.4L188.7,196.4z"/>
														</g>
													</g>
													<g>
														<g>
															<path class="st19" d="M182.3,196.4c-0.7,0-1.2-0.4-1.2-0.9c0-0.3,0.2-0.5,0.3-0.6c0.2-0.2,0.6-0.3,0.9-0.3
																c0.7,0,1.2,0.4,1.2,0.9c0,0.3-0.2,0.5-0.3,0.6C182.9,196.3,182.6,196.4,182.3,196.4L182.3,196.4z"/>
														</g>
													</g>
													<g>
														<g>
															<path class="st19" d="M175.9,196.4c-0.7,0-1.2-0.4-1.2-0.9c0-0.3,0.2-0.5,0.3-0.6c0.2-0.2,0.6-0.3,0.9-0.3
																c0.7,0,1.2,0.4,1.2,0.9c0,0.3-0.2,0.5-0.3,0.6C176.5,196.3,176.2,196.4,175.9,196.4L175.9,196.4z"/>
														</g>
													</g>
													<g>
														<g>
															<path class="st19" d="M169.4,196.4c-0.7,0-1.2-0.4-1.2-0.9c0-0.3,0.2-0.5,0.3-0.6c0.2-0.2,0.6-0.3,0.9-0.3
																c0.2,0.1,0.7,0.9,0.9,1.1c0.1,0.1,0.1,0.2,0.2,0.2C170.3,196.2,169.8,196.4,169.4,196.4L169.4,196.4z"/>
														</g>
													</g>
													<g>
														<g>
															<path class="st19" d="M163,196.4c-0.7,0-1.2-0.4-1.2-0.9s0.6-0.9,1.2-0.9c0.7,0,1.2,0.4,1.2,0.9
																c0,0.3-0.2,0.5-0.3,0.6C163.7,196.3,163.3,196.4,163,196.4L163,196.4z"/>
														</g>
													</g>
												</g>
												<g>
													<g>
														<g>
															<path class="st19" d="M217.6,190.6c-0.7,0-1.2-0.4-1.2-0.9c0-0.3,0.2-0.5,0.3-0.6c0.2-0.2,0.6-0.3,0.9-0.3
																c0.7,0,1.2,0.4,1.2,0.9c0,0.3-0.2,0.5-0.3,0.6C218.3,190.5,218,190.6,217.6,190.6L217.6,190.6z"/>
														</g>
													</g>
													<g>
														<g>
															<path class="st19" d="M211.2,190.6c-0.7,0-1.2-0.4-1.2-0.9c0-0.3,0.2-0.5,0.3-0.6c0.2-0.2,0.6-0.3,0.9-0.3
																c0.7,0,1.2,0.4,1.2,0.9S211.8,190.6,211.2,190.6L211.2,190.6z"/>
														</g>
													</g>
													<g>
														<g>
															<path class="st19" d="M204.7,190.6c-0.7,0-1.2-0.4-1.2-0.9c0-0.3,0.2-0.5,0.3-0.6c0.2-0.2,0.6-0.3,0.9-0.3
																c0.7,0,1.2,0.4,1.2,0.9c0,0.3-0.2,0.5-0.3,0.6C205.4,190.5,205.1,190.6,204.7,190.6L204.7,190.6z"/>
														</g>
													</g>
													<g>
														<g>
															<path class="st19" d="M198.3,190.6c-0.7,0-1.2-0.4-1.2-0.9c0-0.3,0.2-0.5,0.3-0.6c0.2-0.2,0.6-0.3,0.9-0.3
																c0.7,0,1.2,0.4,1.2,0.9c0,0.3-0.2,0.5-0.3,0.6C199,190.5,198.7,190.6,198.3,190.6L198.3,190.6z"/>
														</g>
													</g>
													<g>
														<g>
															<path class="st19" d="M191.9,190.6c-0.7,0-1.2-0.4-1.2-0.9s0.6-0.9,1.2-0.9c0.7,0,1.2,0.4,1.2,0.9
																c0,0.3-0.2,0.5-0.3,0.6C192.6,190.5,192.3,190.6,191.9,190.6L191.9,190.6z"/>
														</g>
													</g>
													<g>
														<g>
															<path class="st19" d="M185.5,190.7c-0.7,0-1.2-0.4-1.2-0.9c0-0.3,0.2-0.5,0.3-0.6c0.2-0.2,0.6-0.3,0.9-0.3
																c0.7,0,1.2,0.4,1.2,0.9c0,0.3-0.2,0.5-0.3,0.6C186.2,190.5,185.9,190.7,185.5,190.7L185.5,190.7z"/>
														</g>
													</g>
													<g>
														<g>
															<path class="st19" d="M179.1,190.7c-0.7,0-1.2-0.4-1.2-0.9c0-0.3,0.2-0.5,0.3-0.6c0.2-0.2,0.6-0.3,0.9-0.3
																c0.7,0,1.2,0.4,1.2,0.9C180.3,190.2,179.7,190.7,179.1,190.7L179.1,190.7z"/>
														</g>
													</g>
													<g>
														<g>
															<path class="st19" d="M172.6,191.4c-0.7,0-1.2-0.4-1.2-0.9s0.6-0.9,1.2-0.9c0.7,0,1.2,0.4,1.2,0.9
																c0,0.3-0.2,0.5-0.3,0.6C173.3,191.4,173,191.4,172.6,191.4L172.6,191.4z"/>
														</g>
													</g>
													<g>
														<g>
															<path class="st19" d="M166.2,190.7c-0.7,0-1.2-0.4-1.2-0.9c0-0.3,0.2-0.5,0.3-0.6c0.2-0.2,0.6-0.3,0.9-0.3
																c0.5,0,1.2,1.1,1.2,1.7l0,0C167.2,190.7,166.5,190.7,166.2,190.7L166.2,190.7z"/>
														</g>
													</g>
												</g>
												<g>
													<g>
														<g>
															<path class="st19" d="M214.4,184.9c-0.7,0-1.2-0.4-1.2-0.9c0-0.3,0.2-0.5,0.3-0.6c0.2-0.2,0.6-0.3,0.9-0.3
																c0.7,0,1.2,0.4,1.2,0.9c0,0.3-0.2,0.5-0.3,0.6C215.1,184.8,214.8,184.9,214.4,184.9L214.4,184.9z"/>
														</g>
													</g>
													<g>
														<g>
															<path class="st19" d="M208,184.9c-0.7,0-1.2-0.4-1.2-0.9c0-0.3,0.2-0.5,0.3-0.6c0.2-0.2,0.6-0.3,0.9-0.3
																c0.7,0,1.2,0.4,1.2,0.9C209.2,184.5,208.7,184.9,208,184.9L208,184.9z"/>
														</g>
													</g>
													<g>
														<g>
															<path class="st19" d="M201.6,184.9c-0.7,0-1.2-0.4-1.2-0.9c0-0.3,0.2-0.5,0.3-0.6c0.2-0.2,0.6-0.3,0.9-0.3
																c0.7,0,1.2,0.4,1.2,0.9c0,0.3-0.2,0.5-0.3,0.6C202.2,184.8,201.9,184.9,201.6,184.9L201.6,184.9z"/>
														</g>
													</g>
													<g>
														<g>
															<path class="st19" d="M199.5,179.4c-0.7,0-1.2-0.4-1.2-0.9s0.6-0.9,1.2-0.9c0.7,0,1.2,0.4,1.2,0.9
																c0,0.3-0.2,0.5-0.3,0.6C200.2,179.4,199.8,179.4,199.5,179.4L199.5,179.4z"/>
														</g>
													</g>
													<g>
														<g>
															<path class="st19" d="M195.1,184.9c-0.7,0-1.2-0.4-1.2-0.9c0-0.3,0.2-0.5,0.3-0.6c0.2-0.2,0.6-0.3,0.9-0.3
																c0.7,0,1.2,0.4,1.2,0.9c0,0.3-0.2,0.5-0.3,0.6C195.8,184.8,195.5,184.9,195.1,184.9L195.1,184.9z"/>
														</g>
													</g>
													<g>
														<g>
															<path class="st19" d="M188.7,184.9c-0.7,0-1.2-0.4-1.2-0.9c0-0.5,0.6-0.9,1.2-0.9c0.7,0,1.2,0.4,1.2,0.9
																c0,0.3-0.2,0.5-0.3,0.6C189.4,184.8,189,184.9,188.7,184.9L188.7,184.9z"/>
														</g>
													</g>
													<g>
														<g>
															<path class="st19" d="M182.3,184.9c-0.7,0-1.2-0.4-1.2-0.9c0-0.3,0.2-0.5,0.3-0.6c0.2-0.2,0.6-0.3,0.9-0.3
																c0.7,0,1.2,0.4,1.2,0.9c0,0.3-0.2,0.5-0.3,0.6C182.9,184.8,182.6,184.9,182.3,184.9L182.3,184.9z"/>
														</g>
													</g>
													<g>
														<g>
															<path class="st19" d="M175.9,185.7c-0.7,0-1.2-0.4-1.2-0.9c0-0.3,0.2-0.5,0.3-0.6c0.2-0.2,0.6-0.3,0.9-0.3
																c0.7,0,1.2,0.4,1.2,0.9c0,0.3-0.2,0.5-0.3,0.6C176.5,185.6,176.2,185.7,175.9,185.7L175.9,185.7z"/>
														</g>
													</g>
													<g>
														<g>
															<path class="st19" d="M169.4,185.7c-0.7,0-1.2-0.4-1.2-0.9c0-0.5,0.6-0.9,1.2-0.9c0.7,0,1.2,0.4,1.2,0.9
																c0,0.3-0.2,0.5-0.3,0.6C170.1,185.6,169.8,185.7,169.4,185.7L169.4,185.7z"/>
														</g>
													</g>
													<g>
														<g>
															<path class="st19" d="M163,184.9c-0.7,0-1.2-0.4-1.2-0.9c0-0.3,0.2-0.5,0.3-0.6c0.2-0.2,0.6-0.3,0.9-0.3
																c0.7,0,1.2,0.4,1.2,0.9c0,0.3-0.2,0.5-0.3,0.6C163.7,184.8,163.3,184.9,163,184.9L163,184.9z"/>
														</g>
													</g>
												</g>
											</g>
										</g>
									</g>
								</g>
							</g>
						</g>
					</g>
				</g>
			</g>
			<g>
				<g>
					<g>
						<polygon class="st20" points="173.2,179.4 141,161.7 141.1,208.8 173.3,225.8 						"/>
					</g>
					<g>
						<polygon class="st21" points="204.8,162.1 172.6,145.3 141,161.7 173.2,179.2 						"/>
					</g>
				</g>
				<g class="st22">
					<polygon class="st23" points="173.2,179.8 173.2,194.9 141,177.1 141,162 					"/>
					<polygon class="st23" points="173.3,191.1 173.2,191 173.2,179.6 173.2,179.6 					"/>
					<polygon class="st24" points="173.2,179.8 204.8,162.4 204.8,177.6 173.3,195 					"/>
					<polygon class="st24" points="190.6,182.6 190.6,216.6 188.5,217.8 186.1,184.7 					"/>
				</g>
				<g>
					<g>
						<g>
							<polygon class="st25" points="139.4,161.7 139.4,161.7 139.4,173.3 152.4,180.6 157.9,183.8 173.3,192.2 173.2,183.2 
								173.2,183.2 158.2,172.1 152.5,168.8 139.4,161.7 							"/>
						</g>
						<g>
							<polygon class="st26" points="173.2,183.2 173.2,183.2 173.3,192.8 188.2,184.1 193.9,181.1 206.7,174 206.6,162.4 
								206.6,162.4 206.6,162.4 193.8,169 193.8,169 188.1,171.9 							"/>
						</g>
						<g>
							<polygon class="st27" points="139.3,158.2 139.3,158.2 139.3,169.8 152.4,177.1 158.1,180.4 173.3,188.7 173.2,177.2 
								173.2,177.2 158.2,168.6 152.5,165.6 							"/>
						</g>
						<g>
							<polygon class="st28" points="206.6,158.7 173.2,177.2 139.3,158.2 172.6,141.2 187.3,148.9 189.5,150 							"/>
						</g>
						<g>
							<polygon class="st29" points="173.2,177.2 173.2,177.2 173.3,188.7 190.8,178.9 193.9,177.1 206.7,170 206.6,158.7 
								206.6,158.7 206.6,158.7 193.8,165.4 193.8,165.4 188.1,168.4 							"/>
						</g>
					</g>
				</g>
			</g>
			<path class="st30" d="M172.6,156.8c-0.6,1.9,0.9,6.9,3.2,9l2.1-0.5c0,0-3.4-8.1-3.7-8.5C173.9,156.4,172.6,156.8,172.6,156.8z"/>
			<polygon class="st31" points="156.3,149.7 190.3,167.3 190.3,182.6 192.4,181.4 192.4,166.2 192.4,166.2 192.4,166.2 
				192.4,166.2 192.4,166.2 158.5,148.5 			"/>
			<polygon class="st32" points="153.6,166.2 155.8,167.3 155.7,182.3 153.5,181.2 			"/>
			<polyline class="st31" points="155.8,167.3 155.8,167.3 189,149.8 186.9,148.7 153.6,166.2 153.6,166.2 153.6,166.2 153.6,166.2 
				153.6,166.2 			"/>
			<path class="st30" d="M172.4,156.2c-7.9,4.2-5.8,11.9-5.8,11.9l2.5-0.3l-0.3,0.5l0.7,0.6c0,0-0.4-7.1,4.2-12.6
				c1.6-1.8,0.1,0,0.1,0L172.4,156.2z"/>
			<path class="st30" d="M160.6,147.4l-3.7,1.9c-0.2,1,0.1,2.8,0.2,3.4c-0.7,4.1,16.3,4.7,16.3,4.7
				C173.2,152.6,165.7,147.4,160.6,147.4z M157.3,152.2c0.1-0.1,0.1-0.2,0.2-0.4c3.2-4.3,10.6-1.6,15,4.3
				C171.4,156,159.6,154.8,157.3,152.2z"/>
			<path class="st30" d="M182.1,149.7c-8.5-4.9-8.5,3.3-9.6,5.4c0,0,0.4,0.7,0.6,1c-0.1,0.1,0.4,0.7,0.4,0.7c0,0,11.4-1.8,10.6-4.3
				l0,0C184.2,152,184.1,150.8,182.1,149.7z M174.1,154.9c1.3-2.8,2.4-7.2,8.7-3.6c0.4,0.2,0.6,0.4,0.8,0.6
				C182.9,153.5,177,154.5,174.1,154.9z M184.1,152.3C184.1,152.3,184.1,152.4,184.1,152.3C184.1,152.4,184.1,152.3,184.1,152.3z
				 M183.6,151.8c0.1,0.1,0.1,0.1,0.1,0.1C183.7,151.9,183.7,151.9,183.6,151.8z M183.8,152L183.8,152
				C183.8,152.1,183.8,152,183.8,152z M183.9,152.1L183.9,152.1C183.9,152.2,183.9,152.2,183.9,152.1z"/>
			<polygon class="st32" points="153.6,181.2 155.4,216.3 157.6,217.5 155.8,182.3 			"/>
			<path class="st31" d="M173.9,157c-0.2,0.3-0.5,0.6-0.7,1.1c-0.4,0.7-0.7,1.5-1.1,2.3c-0.2,0.4-0.3,0.9-0.5,1.3
				c-1.2,3.5-1.9,7.2-1.9,7.2l-3-0.7c0.1-0.2,0.9-3.6,2.5-7c0.2-0.4,0.4-0.9,0.6-1.2c0.8-1.5,1.7-2.9,2.8-4c0.4-0.4,0.6-0.5,1.1-0.2
				c0.2,0.1,0.3,0.2,0.4,0.4C174.1,156.4,174.1,156.7,173.9,157z"/>
			<path class="st31" d="M178.7,165.3l-2.8,0.6c0,0-0.2-1.3-0.9-3.3c-0.1-0.2-0.2-0.5-0.2-0.7c-0.1-0.2-0.2-0.5-0.2-0.8l0,0
				c-0.2-0.6-0.4-1.2-0.7-1.9l0,0c-0.2-0.4-0.3-0.8-0.5-1.2c-0.2-0.4-0.4-0.8-0.6-1.2c-0.2-0.4-0.4-0.6,0.1-0.9
				c0.4-0.2,1-0.1,1.3,0.2c0.1,0.1,0.1,0.1,0.1,0.1c0.6,0.8,1.1,1.6,1.5,2.4c0.4,0.6,0.7,1.2,1,1.7c0.1,0.2,0.2,0.5,0.4,0.7
				c0.1,0.2,0.2,0.5,0.4,0.7C178.3,163.9,178.6,165.2,178.7,165.3z"/>
			<path class="st32" d="M173.3,156.3c0,0-18.5-1-15.2-8.1c1.9,4,13.4,5.8,14.5,6C172.9,154.9,173.1,155.6,173.3,156.3z"/>
			<g>
				<path class="st33" d="M173.2,156.2c0.1,0,0.1,0.1,0.2,0c0.1,0,0.1-0.1,0.2-0.1C173.4,156.2,173.3,156.2,173.2,156.2z"/>
			</g>
			<path class="st32" d="M174.5,154.3c-0.5,0.8-1,1.6-1.4,2.1c0,0,14.6-2.1,12.4-6.6C184.1,152.1,177.5,153.7,174.5,154.3z"/>
			<path class="st31" d="M185.6,150.7c0.1-0.6-0.2-1.2-0.8-1.9c-0.7-0.7-1.4-1.3-2-1.6c-0.7-0.4-1.4-0.4-2-0.3
				c-3.3,0.6-5.5,6.8-7.5,9.3l0,0c-0.1-0.2-0.2-1.6-0.2-1.6c0.1-0.1,0.1-0.2,0.2-0.3c1.7-2.6,4.1-9.3,7.7-9.6
				c0.7-0.1,1.4,0.1,2.2,0.6c0.5,0.3,1.1,0.7,1.6,1.4C186.3,148.2,185.9,149.8,185.6,150.7z"/>
			<path class="st31" d="M173.3,155.4c0,0.2,0,0.5,0,0.7c0,0.1,0,0.1,0,0.1c-1.6-5.5-4.4-9.6-7.4-11.2c-0.4-0.2-0.9-0.4-1.3-0.6
				c-2.3-0.7-4.5,0.2-6.2,3c-0.3,0.6-0.5,1.1-0.6,1.5c-0.1-1.2-0.1-4.7,0.6-6c1.5-2.5,3.9-2.8,6.3-1.7c0.4,0.2,0.9,0.4,1.2,0.7
				c3.5,2.2,6.9,7.1,7.3,12.2C173.3,154.7,173.3,155.1,173.3,155.4z"/>
			<polygon class="st34" points="192.4,181.5 190.6,216.6 188.5,217.8 190.3,182.7 			"/>
		</g>
		<g>
			<g>
				<g>
					<polygon class="st35" points="100,229.9 73.6,214.6 73.5,191.6 73.5,189.1 73.5,158.7 98.1,173 99.9,174 99.9,175.3 					"/>
					<path class="st36" d="M90.5,173.4c-0.2-0.4-0.9-0.6-1.3-0.3c-0.1,0.1-0.2,0.1-0.2,0.2c-0.1,0.1-0.1,0.1-0.2,0.2
						c-0.2,0.3-0.2,0.6-0.2,0.9c-0.1,0.3,0.1,0.6,0.2,0.8c0.2,0.6,1.1,0.6,1.5,0.2c0.2-0.2,0.4-0.5,0.5-0.8
						C90.7,174.2,90.7,173.8,90.5,173.4z"/>
					<path class="st36" d="M78.7,166.9h-0.2c-0.4,0-0.7,0.2-0.9,0.6c-0.1,0.1-0.1,0.2-0.2,0.4c-0.1,0.2,0,0.6,0.1,0.8
						c0.1,0.2,0.4,0.4,0.6,0.5c0.2,0.1,0.4,0.1,0.6,0c0.6-0.2,0.9-0.7,0.9-1.4C79.6,167.3,79.2,166.9,78.7,166.9z"/>
					<path class="st36" d="M82.5,181.6c0-0.2-0.1-0.4-0.1-0.6c-0.1-0.2-0.4-0.4-0.7-0.5c-0.3-0.1-0.6,0-0.8,0c0.1,0,0.1,0,0.2,0
						c-0.4,0.1-0.7,0.3-0.9,0.7c-0.1,0.1-0.1,0.1-0.1,0.1c-0.2,0.3-0.2,0.6-0.2,1c0.1,0.4,0.4,0.7,0.7,0.8c0.5,0.1,1.1-0.1,1.4-0.4
						C82.4,182.5,82.6,182,82.5,181.6z"/>
					<path class="st36" d="M74.6,190.2c-0.1,0.4-0.2,0.8-0.6,1.1c-0.1,0.2-0.4,0.2-0.6,0.2v-2.5c0.1,0,0.2,0,0.4,0.1
						C74.3,189.4,74.7,189.7,74.6,190.2z"/>
					<path class="st36" d="M83.9,196.6c-0.1-0.2-0.2-0.4-0.4-0.6c-0.2-0.1-0.4-0.1-0.6-0.1c-0.1,0-0.2,0-0.4,0.1
						c-0.3,0.1-0.7,0.3-0.8,0.6c-0.1,0.2-0.1,0.2-0.1,0.5c0,0.1,0,0.2,0.1,0.3c0.1,0.2,0.1,0.3,0.2,0.5c0.2,0.4,0.9,0.6,1.3,0.3
						c0.2-0.2,0.5-0.4,0.7-0.6C84,197.3,84.1,196.9,83.9,196.6z"/>
					<path class="st36" d="M93.1,192c-0.1-0.1-0.2-0.2-0.3-0.3c-0.2-0.1-0.4-0.1-0.6-0.1c-0.2,0-0.4,0-0.6,0.1s-0.4,0.3-0.4,0.6
						c-0.1,0.2-0.1,0.5,0.1,0.7c0,0,0,0.1,0.1,0.1c0.1,0.2,0.2,0.4,0.4,0.4c0.4,0.2,0.9,0.1,1.2-0.2c0.1-0.1,0.2-0.2,0.2-0.3
						C93.3,192.7,93.3,192.3,93.1,192z"/>
					<path class="st36" d="M96.6,207.9c-0.1-0.2-0.2-0.5-0.4-0.6c-0.1-0.1-0.2-0.1-0.4-0.1c-0.4-0.2-0.9-0.2-1.2,0.1
						c-0.3,0.2-0.5,0.6-0.5,1.1s0.2,0.9,0.6,1.1c0.2,0.1,0.4,0.1,0.6,0.1s0.4-0.1,0.6-0.2c0.3-0.2,0.6-0.6,0.6-0.9
						C96.7,208.3,96.7,208.1,96.6,207.9z"/>
					<path class="st36" d="M88.2,206.8c0-0.2-0.1-0.5-0.2-0.7c-0.2-0.2-0.4-0.3-0.7-0.2c-0.1,0-0.2,0-0.3,0.1
						c-0.2,0.1-0.3,0.1-0.5,0.3c-0.2,0.2-0.3,0.5-0.3,0.8c0,0.2,0.1,0.5,0.2,0.7c0.2,0.2,0.4,0.2,0.7,0.2c0.2,0,0.5-0.1,0.7-0.2
						c0.1-0.1,0.1-0.1,0.1-0.1c0.1,0,0.1-0.1,0.1-0.1C88.1,207.3,88.2,207.1,88.2,206.8z"/>
				</g>
				<g>
					<polygon class="st31" points="133.7,155.1 130.9,156.6 128.4,158 115.8,165.1 113.3,166.5 100.8,173.5 100.8,173.5 99.9,174 
						98.1,173 74.7,159.4 73.5,158.7 75.4,157.6 88.6,150.2 91,148.9 92,148.3 97.1,145.4 107.3,139.7 121,147.7 123.7,149.2 					
						"/>
					<path class="st37" d="M118.9,156.4c-0.2-1.1-1.4-1.4-2.4-1.3c-0.2,0.1-0.4,0.2-0.6,0.4c-0.1,0.1-0.1,0.1-0.1,0.1
						c-0.4,0.4-0.3,0.9,0,1.4c0.6,0.7,1.8,0.9,2.6,0.5C118.9,157.3,119.1,156.8,118.9,156.4z"/>
				</g>
				<g>
					<path class="st32" d="M133.7,211l-33.7,19l-0.1-23.1v-1.1v-10.6v-0.8v-2.9v-0.8v-3.7v-0.9v-10.9V174l1.1-0.6l8.8-4.9l0.8-0.4
						l1.1-0.6l0.8-0.4l0.9-0.5l2.4-1.4l0.9-0.5l1.2-0.7l4.9-2.7l0,0l1.2-0.7l2.9-1.7l1.5-0.9l0,0l0.1-0.1l0.5-0.2l1.5-0.8l0.6-0.3
						l2.7-1.5v13.1v2.8v6.1v2.5L133.7,211z"/>
					<g>
						<g>
							<path class="st38" d="M101,173.4c-0.1,0.7-0.4,1.4-1.1,1.7V174L101,173.4z"/>
							<path class="st38" d="M111.7,176.1C111.7,176.1,111.7,176.1,111.7,176.1c-0.1-0.1-0.1-0.1-0.1-0.1c-0.1-0.1-0.2-0.2-0.4-0.2
								h-0.1c0,0,0,0-0.1,0s-0.1,0-0.1,0h-0.1c0,0,0,0-0.1,0h-0.1c-0.1,0-0.1,0-0.2,0.1h-0.1l0,0c-0.2,0.1-0.4,0.2-0.4,0.4
								c-0.1,0.1-0.1,0.2-0.2,0.4c-0.1,0.2-0.1,0.3-0.1,0.5c0,0.1,0,0.1,0,0.1c-0.1,0.8,1.1,1.2,1.6,0.7c0.3-0.4,0.4-0.7,0.4-1.2
								C111.9,176.5,111.9,176.3,111.7,176.1z"/>
							<path class="st38" d="M115.9,165.4c0,0.4-0.1,0.7-0.2,1.1c-0.1,0.2-0.4,0.5-0.6,0.7c-0.4,0.4-1.2,0.4-1.5-0.2
								c-0.1-0.2-0.2-0.4-0.2-0.6l2.4-1.4C115.8,165.2,115.9,165.3,115.9,165.4z"/>
							<path class="st37" d="M124.1,175.1c-0.2-0.2-0.5-0.5-0.8-0.5c-0.1,0-0.2,0.1-0.4,0.1c-0.1-0.1-0.2-0.1-0.4-0.1
								c-0.4,0-0.8,0.3-0.9,0.7l0,0l0,0v0.1c-0.1,0.1-0.1,0.2-0.1,0.4c0,0.2,0.1,0.5,0.2,0.7c0.1,0.2,0.4,0.4,0.6,0.4
								c0.2,0.1,0.5,0,0.7-0.1c0.1,0,0.1-0.1,0.1-0.1c0.4,0,0.7-0.3,0.8-0.7c0.1-0.1,0.1-0.1,0.1-0.2
								C124.3,175.8,124.3,175.5,124.1,175.1z"/>
							<path class="st38" d="M131.1,156.9c0,0.4-0.1,0.7-0.3,1.1l-0.1,0.1c0,0.1-0.1,0.1-0.1,0.1c-0.2,0.2-0.4,0.4-0.6,0.5
								c-0.6,0.6-1.6,0.2-1.6-0.7v-0.1l0.5-0.2l1.5-0.8l0.6-0.3C131.1,156.7,131.1,156.8,131.1,156.9z"/>
							<path class="st38" d="M133.7,171c-0.3,0-0.6-0.2-0.7-0.4l0,0c-0.1-0.1-0.1-0.1-0.2-0.1c-0.3-0.3-0.4-0.9-0.1-1.2
								c0-0.5,0.4-0.9,0.9-0.9h0.1L133.7,171z"/>
							<path class="st38" d="M114.2,187.4c-0.5,0-0.9,0.4-0.9,0.9c0,0.1,0,0.2,0.1,0.4c-0.1,0.1-0.1,0.2-0.1,0.4l0,0l0,0
								c-0.1,0.2-0.1,0.4,0,0.6c0.1,0.4,0.3,0.6,0.7,0.7c0.4,0.2,1.1,0.1,1.3-0.3c0.2-0.5,0.3-1,0.3-1.6
								C115.5,187.8,114.8,187.4,114.2,187.4z"/>
							<path class="st38" d="M124.5,175.1c-0.5,0-0.9,0.4-0.9,0.9c0,0.1,0,0.2,0.1,0.4c-0.1,0.1-0.1,0.2-0.1,0.4l0,0l0,0
								c-0.1,0.2-0.1,0.4,0,0.6c0.1,0.4,0.3,0.6,0.7,0.7c0.4,0.2,1.1,0.1,1.3-0.3c0.2-0.5,0.3-1,0.3-1.6
								C125.8,175.6,125.1,175.1,124.5,175.1z"/>
							<path class="st38" d="M102.5,187.7c-0.2,0.1-0.4,0.2-0.6,0.4l0,0c-0.4,0.1-0.6,0.5-0.6,0.9v0.7c0,0.8,1.1,1.2,1.6,0.7
								c0.5-0.5,0.7-1.1,1-1.7C104.1,187.9,103.2,187.3,102.5,187.7z"/>
							<path class="st38" d="M105,197.6c-0.4,0.2-0.7,0.5-0.9,0.9c-0.1,0.1-0.1,0.2-0.1,0.2c-0.4,0.6-0.4,1.2-0.1,1.8
								c0.3,0.7,1.3,0.6,1.6,0c0.4-0.6,0.6-1.2,0.8-1.9C106.7,197.9,105.7,197.3,105,197.6z"/>
							<path class="st38" d="M131.2,183.8c-0.2-0.4-0.9-0.6-1.3-0.3c-0.6,0.4-0.8,0.9-1.1,1.4c-0.1,0.1-0.1,0.1-0.1,0.2
								c-0.1,0.2-0.1,0.4-0.2,0.6c-0.3,0.9,0.9,1.6,1.6,0.9c0.1-0.1,0.2-0.3,0.4-0.5c0.1-0.1,0.1-0.1,0.1-0.2c0,0,0-0.1,0.1-0.1
								c0,0,0,0,0.1-0.1c0.2-0.2,0.3-0.6,0.2-0.8C131.3,184.8,131.4,184.3,131.2,183.8z"/>
						</g>
						<path class="st38" d="M133.7,179.6c-0.3,0.1-0.7,0-0.9-0.2c-0.3-0.3-0.4-0.9-0.1-1.2c0-0.2,0.1-0.5,0.2-0.7
							c0.1-0.1,0.1-0.1,0.2-0.2c0.2-0.2,0.4-0.2,0.6-0.2L133.7,179.6z"/>
					</g>
				</g>
				<polygon class="st39" points="124.2,160.5 124.3,216.5 119.7,219.1 119.7,163.1 				"/>
				<polyline class="st40" points="119.7,163.1 93.3,147.7 97.8,145.1 124.2,160.5 124.2,160.5 124.2,160.5 				"/>
				<polygon class="st40" points="116.6,145.1 121.1,147.8 87.4,166.8 82.9,164.2 82.9,164.2 				"/>
				<polyline class="st41" points="87.4,166.8 87.4,222.6 82.8,220 82.9,164.1 82.9,164.2 				"/>
			</g>
			<path class="st35" d="M133.5,183l-33.7,19.4c0,0-1.7,10.3-1.4,9.8c0.4-0.5,33.2-12.2,33.7-12.7C132.7,198.9,133.5,183,133.5,183z
				"/>
		</g>
		<g>
			<g>
				<g>
					<polygon class="st42" points="130.7,222.1 99.9,204.2 100,229.6 130.7,247 					"/>
				</g>
				<g>
					<polygon class="st43" points="168.6,199.4 137.9,181.5 99.9,204.2 130.7,222.1 					"/>
				</g>
				<g>
					<polygon class="st44" points="130.7,222.1 130.7,247 168.6,224.8 168.6,199.4 					"/>
					<line class="st45" x1="130.7" y1="230.6" x2="100" y2="212.7"/>
					<line class="st46" x1="168.6" y1="207.9" x2="130.7" y2="230.6"/>
				</g>
				<polygon class="st11" points="157.7,205.7 157.8,231.1 152.5,234.2 152.4,208.8 				"/>
				<polygon class="st12" points="127,187.9 157.6,205.7 157.6,205.8 157.7,205.7 152.4,208.8 121.7,190.9 				"/>
				<polygon class="st47" points="148.4,211.2 143.1,214.3 141.8,212 133.7,197.8 139,194.8 147.3,209.4 				"/>
				<polygon class="st12" points="135.4,195.8 140.7,198.9 135.8,209 129.2,208.3 				"/>
				<polygon class="st12" points="148.8,187.9 154.1,190.9 116.1,213.7 110.9,210.6 110.9,210.6 				"/>
				<polygon class="st48" points="110.9,210.6 110.9,210.6 116.1,213.7 116.1,238.8 110.8,235.8 				"/>
				<path class="st49" d="M139.3,198.7c-2.5,1.6-4.7,3.5-10.8,5.1c-6.1,1.6-9.3-1.4-10.7-3.1c-1.4-1.7-1.6-5.5,5.6-5.8
					c7.6-0.3,9.9,1.4,14.7,2.1c0,0-1.2-0.7-2.6-1.6c-1.4-0.8-3-8.1,1.1-8.9c4.1-0.7,10.9,2.2,10.6,5.3S139.3,198.7,139.3,198.7z"/>
			</g>
			<g>
				<path class="st12" d="M149.6,181.7c-0.6-0.2-1.4-0.2-2.2,0.1c-0.4,0.1-0.9,0.3-1.4,0.6c-0.1,0-0.1,0.1-0.1,0.1
					c-4.6,2.6-4.4,8.3-4.5,12.2c-0.1,1.7-0.1,3.1-0.7,3.7c0,0-0.1,0.1-0.3,0.2l-5.1-3.9c0.8-0.8,0.7-3,0.8-5.7
					c0.1-3.7,0.6-8.2,4.5-10.4c0.1-0.1,0.1-0.1,0.2-0.1c0.6-0.3,1.1-0.5,1.6-0.6c1.3-0.2,2.3,0.4,3.2,1
					C146.5,179.7,148.8,181.2,149.6,181.7z"/>
				<path class="st50" d="M140.6,198.4c0,0-0.1,0.2-0.4,0.4l-0.9,0.3l-4-4.3c0.8-0.8,0.7-3,0.8-5.6c0,0.1,0.1,0.2,0.1,0.4
					c0,4.7,5.3,6.5,5.3,6.5S141.2,197.8,140.6,198.4z"/>
				<path class="st50" d="M146.4,195c-8.6,5.7-5.8,3.4-5.8,3.4c0.8-0.8,0.7-3.1,0.8-5.8c0.1-0.1,0.2-0.1,0.4-0.2
					c3.5-2.4,5.3-5.6,5.5-8.3c0.1-0.8,0.1-1.6-0.1-2.3c2.1-0.7,3.6,0.1,4.3,1.7C152.8,186.3,151.6,191.5,146.4,195z"/>
				<path class="st48" d="M147.3,184.1c0.1-0.8,0.1-1.6-0.1-2.3c2.1-0.7,3.6,0.1,4.3,1.7C150.1,183.7,148.6,183.9,147.3,184.1z"/>
			</g>
			<path class="st50" d="M140.9,198.3c-2.4,0-4.1-10.4-10.8-10.2c2.6,3,3.9,7.5,5.5,7.6c0,0,1.9-0.2-7.6,3.4
				c-1.6,0.6-2.9,0.9-4.1,0.9c1.6,2.3,4.7,3.5,9.4,1.8C142.9,198,140.9,198.3,140.9,198.3z"/>
			<path class="st12" d="M132.7,188.6c-0.7-0.3-1.6-0.5-2.5-0.5c-0.6,0-1.1,0.1-1.8,0.2c-0.1,0.1-0.2,0.1-0.4,0.1c0,0,0,0-0.1,0
				c-1.9,0.6-3.2,1.7-4,3.2c-0.9,1.4-1.2,3-1.1,4.7c0.1,1.9,0.9,3.8,2.5,5c-1.3-0.7-3.7-2.1-4.2-2.5c-1.4-1.2-2.1-3.2-2.1-5.1
				c0-1.3,0.3-2.6,0.9-3.8c0.9-1.6,2.3-3,4.3-3.6c0.1-0.1,0.2-0.1,0.3-0.1c0.2-0.1,0.4-0.1,0.7-0.2s0.5-0.1,0.7-0.1
				c0.9-0.1,1.6,0,2.3,0.2C129,186.4,131.4,187.8,132.7,188.6z"/>
			<path class="st48" d="M140.9,198.3c-2.4,0-4.1-10.4-10.8-10.2c2.6,3,3.9,7.5,5.5,7.6c0,0,1.3-0.1-3.4,1.7l8.3,1.3
				C141.4,198.2,140.9,198.3,140.9,198.3z"/>
			<polygon class="st11" points="148.4,217 148.4,211.2 143.1,214.3 143.1,220 			"/>
		</g>
		<g>
			<g>
				<g>
					<polygon class="st51" points="100.6,214.1 100.5,229.4 96.8,231.7 84.8,238.8 80.3,241.4 62,252.4 62,237 96.8,216.4 					"/>
				</g>
				<g>
					<polygon class="st52" points="100.6,214.1 96.6,216.5 84.8,223.5 80.3,226.1 62,237 36.4,222.2 54.8,211.3 59.3,208.7 
						68.3,203.4 72.5,200.9 75,199.3 99.9,213.7 					"/>
				</g>
				<g>
					<polygon class="st53" points="62,237 62,252.4 36.4,237.6 36.4,222.2 					"/>
				</g>
				<polyline class="st31" points="45.7,227.6 45.7,227.6 84.3,204.7 88.8,207.3 50.2,230.2 				"/>
				<polyline class="st54" points="50.2,230.2 50.1,245.6 45.7,243.1 45.7,227.6 45.7,227.6 				"/>
				<polygon class="st55" points="100.8,214 96.8,216.6 96.6,216.5 68.3,203.4 72.5,200.9 75,199.3 				"/>
			</g>
			<polygon class="st31" points="84.8,223.5 80.3,226.1 54.8,211.3 59.3,208.7 			"/>
			<path class="st56" d="M63.5,218.5c-2.9,0-11.8-5.3-11.8-5.3l6.9-4l8.8,5.4c0,0,0.7-5.6,4.9-5.2c4.2,0.3,8.7,3.5,3,6.9
				c-4.6,2.7-7.4,3.9-7.4,3.9L63.5,218.5z"/>
			<polygon class="st57" points="84.8,223.5 84.8,238.8 80.3,241.4 80.3,226.1 			"/>
			<g>
				<path class="st54" d="M74.4,215.8c-7.3,4.8-4.9,2.9-4.9,2.9c0.7-0.7,0.6-2.6,0.7-4.9c0.1-0.1,0.2-0.1,0.3-0.2c3-2,4.5-4.7,4.7-7
					c0.1-0.7,0.1-1.4-0.1-1.9c1.7-0.6,3,0.1,3.7,1.4C79.9,208.4,78.9,212.9,74.4,215.8z"/>
				<path class="st58" d="M75.3,206.6c0.1-0.7,0.1-1.4-0.1-1.9c1.7-0.6,3,0.1,3.7,1.4C77.7,206.2,76.4,206.4,75.3,206.6z"/>
			</g>
			<g>
				<path class="st57" d="M53.9,205.3c0.7-0.3,1.7-0.3,3,0.2c4,1.7,4.3,6.3,4.7,9.5c0.2,1.4,0.9,1.9,1.5,2.3c0,0,0.6-0.9,0.1,0.1
					l3.4-2.8c-0.7-0.6-0.8-2.4-1.1-4.5c-0.4-3-1.1-6.5-4.5-8c-1.9-0.8-3-0.1-4,0.7C56.2,203.4,54.6,204.7,53.9,205.3z"/>
				<path class="st54" d="M57.6,215.6c7.3,3.9,4.9,2.3,4.9,2.3c-0.7-0.6,1.8,0.1,1.5-2.1c-0.1-0.1-2.8-2.7-2.9-2.7
					c-3-1.6-4.7-4-5.1-6.2c-0.1-0.7-0.2-1.3-0.1-1.9c-1.7-0.4-2.9,0.4-3.4,1.7C51.7,209.2,53.1,213.3,57.6,215.6z"/>
				<path class="st58" d="M56,207c-0.1-0.7-0.2-1.3-0.1-1.9c-1.7-0.4-2.9,0.4-3.4,1.7C53.7,206.9,54.9,207,56,207z"/>
			</g>
			<path class="st31" d="M77.2,204.5c-0.8-0.2-1.9-0.1-3.1,0.5c-4,2.2-3.9,7.1-3.9,10.4c-0.1,1.5-0.1,2.7-0.6,3.2
				c0,0-0.1,0.1-0.2,0.2l-6.6-0.7l2.2-2.5c0.7-0.7,0.6-2.5,0.7-4.8c0.1-3.2,0.5-7,3.9-8.8c1.9-1.1,3.2-0.4,4.3,0.3
				C74.6,202.8,76.5,204.1,77.2,204.5z"/>
			<polygon class="st31" points="67,215.7 79.5,226.8 75,229.3 62.6,218.2 			"/>
			<polygon class="st57" points="79.5,236.2 79.5,226.7 75.1,229.3 75.1,238.8 77.5,234.9 			"/>
			<path class="st56" d="M59.5,217.1c-1.6,0.6-8.4,4.6-12.3,0.9c0,0,0.4,1.9,2.5,3.4c2.1,1.5,5.9,2.9,9.3,1.4
				c4.1-1.7,9.8-5.3,9.8-5.3s-5.2-1.4-5.5-1.4C63.1,216.3,59.5,217.1,59.5,217.1z"/>
		</g>
		<g>
			<g>
				<g>
					<polygon class="st59" points="157.6,266.9 176.8,255.7 176.7,275.4 157.5,286.6 					"/>
				</g>
				<g>
					<polygon class="st60" points="176.8,255.7 164,263.1 160.4,265.2 157.6,266.9 138.5,256.6 158,245.3 					"/>
				</g>
				<g>
					<polygon class="st61" points="157.6,266.9 157.5,286.6 138.7,276.5 138.5,256.6 					"/>
					<line class="st62" x1="157.6" y1="273.6" x2="176.8" y2="262.4"/>
					<line class="st62" x1="138.7" y1="262.8" x2="157.6" y2="273.6"/>
				</g>
				<polygon class="st63" points="145.5,260.2 145.5,280.2 148.8,281.8 148.8,262 				"/>
				<polygon class="st12" points="164.8,248.8 145.5,260.2 145.5,260.2 145.5,260.2 148.8,262 168.1,250.7 				"/>
				<polygon class="st12" points="151.1,249.1 147.8,251 166.7,261.6 170,259.7 170,259.7 				"/>
				<polygon class="st11" points="170,259.7 170,259.7 166.7,261.6 166.7,281.3 170,279.3 				"/>
				<polygon class="st12" points="157,253.2 151.9,262.8 155.8,264.1 160.6,255.1 				"/>
				<polygon class="st12" points="164,263.1 160.4,265.2 155.5,254.4 159.1,252.5 				"/>
				<g class="st64">
					<path class="st65" d="M166,253.2c-3.1-0.1-4.7,0.3-6.3,0.8c1.2-0.9,2.3-1.9,2.4-2.8c0.1-1.1-1.2-2.1-2.7-2.7
						c-0.2-0.3-0.6-0.5-0.9-0.6c-0.4-0.1-0.9-0.1-1.4-0.1c-0.6-0.1-1.1-0.1-1.6,0.1c-0.6,0.1-1,0.4-1.2,0.9c-1.2,0.6-2.1,1.6-2,2.4
						c0.1,0.9,1.2,2.1,2.4,2.9c-2-0.5-3.7-1.1-7.5-0.9c-4.5,0.2-4.3,2.5-3.5,3.6c0.9,1.1,2.9,2.9,6.7,1.9c3.7-0.9,5-2.1,6.5-3
						c1.4,1,2.7,2.1,6.1,3c3.5,1,5.4-0.9,6.2-1.9C170,255.7,170.1,253.4,166,253.2z"/>
				</g>
			</g>
			<g>
				<path class="st12" d="M159.8,250.6c-0.4,1.6-0.9,2.9-0.5,3.5l-3.5,1.1c-0.1-0.1-0.1-0.2-0.1-0.2c-0.2-0.5-0.1-1.4,0.2-2.4
					c0.4-1.6,1-3.5,0.7-5.4c-0.1-1-0.5-2-1.3-2.9c-0.2-0.2-0.4-0.4-0.6-0.6c-0.5-0.4-1-0.6-1.4-0.7c0.6-0.1,2.1-0.5,2.7-0.7
					c0.8-0.2,1.7-0.3,2.6,0.6c0.1,0.1,0.2,0.2,0.3,0.3c0.7,0.9,1.1,1.7,1.2,2.7C160.4,247.7,160.1,249.2,159.8,250.6z"/>
				<path class="st50" d="M156.2,255.4c0,0,0.1,0.1,0.2,0.2l0.6,0.2l2.5-2.7c-0.5-0.5-0.4-1.9-0.5-3.5c0,0.1,0,0.1,0,0.2
					c0,2.9-3.3,4.1-3.3,4.1S155.8,255,156.2,255.4z"/>
				<path class="st50" d="M152.9,251.7c3.9,5.3,2.7,3.4,2.7,3.4c-0.3-0.7,0.1-2,0.6-3.6c-0.1-0.1-0.1-0.1-0.2-0.2
					c-1.6-2.2-2.1-4.5-1.7-6.2c0.1-0.5,0.2-0.9,0.4-1.3c-1.1-0.9-2.1-0.7-2.7,0C150.7,245.1,150.5,248.5,152.9,251.7z"/>
				<path class="st66" d="M154.2,245c0.1-0.5,0.2-0.9,0.4-1.3c-1.1-0.9-2.1-0.7-2.7,0C152.7,244.2,153.5,244.7,154.2,245z"/>
			</g>
			<path class="st50" d="M156.1,255.3c1.5,0,2.5-6.5,6.8-6.4c-1.6,1.9-2.4,4.7-3.4,4.7c0,0-1.2-0.1,4.7,2.1c0.9,0.4,1.8,0.6,2.5,0.6
				c-1,1.4-2.9,2.2-5.9,1.1C154.9,255.2,156.1,255.3,156.1,255.3z"/>
			<path class="st12" d="M169.8,252.1c0.1,1.3-0.4,2.6-1.3,3.4c-0.2,0.2-1.7,1.1-2.6,1.6c1-0.7,1.5-2,1.6-3.2
				c0.1-0.9-0.2-1.9-0.7-2.8c-0.4-0.6-0.8-1.1-1.4-1.5c-0.2-0.2-0.5-0.3-0.7-0.4c-0.1-0.1-0.2-0.1-0.2-0.1c-0.1,0-0.1-0.1-0.1-0.1
				c-1.2-0.4-2.1-0.2-2.9,0.1c0.8-0.5,2.3-1.4,2.7-1.5c0.6-0.2,1.3-0.2,2.1-0.1c0.1,0,0.1,0,0.2,0.1c0.1,0,0.1,0.1,0.2,0.1
				c0.2,0.1,0.6,0.2,0.8,0.3c0.9,0.4,1.5,1.1,1.9,1.9C169.6,250.7,169.8,251.4,169.8,252.1z"/>
			<path class="st66" d="M156.1,255.3c1.5,0,2.5-6.5,6.8-6.4c-1.6,1.9-2.4,4.7-3.4,4.7c0,0-0.8-0.1,2.1,1.1l-5.2,0.8
				C155.7,255.2,156.1,255.3,156.1,255.3z"/>
		</g>
		<polygon class="st55" points="208.9,262.9 150.6,235.6 150.3,210.4 142.2,206 157.8,197.4 135.1,183.5 138.5,181.2 159,193.9 
			171.9,192.9 171.9,205.3 		"/>
		<g>
			<g>
				<g>
					<g>
						<polygon class="st67" points="193.3,209.4 182.7,247.9 157.5,233.5 157.5,200.6 						"/>
						<g>
							<polygon class="st68" points="182.8,240.8 182.8,242.6 157.5,228 157.5,226.2 							"/>
						</g>
					</g>
					<g>
						<polygon class="st69" points="226.2,191 226.1,211.5 226.1,223.9 183.6,247.3 182.6,247.9 182.6,215 						"/>
						<polygon class="st70" points="226.1,211.5 226.1,223.9 183.6,247.3 182.6,248 182.6,237.2 182.6,236.8 						"/>
						<g>
							<polygon class="st25" points="182.5,240.7 226.1,216.6 226,218.5 182.5,242.5 							"/>
						</g>
					</g>
					<g>
						<polygon class="st71" points="157.5,200.6 201,176.6 226.2,191 182.6,215 						"/>
					</g>
					<polyline class="st72" points="163.9,204.3 163.9,204.3 163.9,204.3 163.9,237.2 167,239 167,206.1 					"/>
					<polyline class="st73" points="167,206.1 210.6,182 207.5,180.3 163.9,204.3 					"/>
					<polygon class="st74" points="207,201.3 207,201.4 207,201.3 203.9,203.1 204,236 207.1,234.2 					"/>
					<polygon class="st73" points="207.1,201.4 203.9,203.1 201.6,201.7 199.8,200.7 178.8,188.7 181.9,186.9 203.9,199.5 
						206,200.7 					"/>
				</g>
			</g>
			<path class="st75" d="M188.7,192.8c3-0.2,6.1-1.1,7.7-2.4c1.8-1.5,1.9-3-0.6-3.4c-2.5-0.3-4.3-1.4-6.3,1.7
				c-1.4,2.2-2.3,3.4-2.4,3.9c-0.1,0.2,0.4,0.2,0.4,0.2H188.7z"/>
			<path class="st75" d="M188.7,191.7c-3.3-3.4-7.3-4.3-7.3-4.3l-4.5,2.5c2.7,4.5,9.3,3.3,10.7,2.9l-0.4-0.1L188.7,191.7z"/>
			<path class="st76" d="M187.2,191.7l-0.2,0.9c-0.4-0.1-0.9-0.1-1.6-0.1c-2.7-0.1-7.2-0.7-8.1-4.7c-0.1-0.2-0.1-0.3-0.1-0.5
				l2.5-2.3C179.8,185,179.6,190.4,187.2,191.7z"/>
			<path class="st73" d="M188,191.8l-0.3,0.2l-0.7,0.6c-0.1-0.4-0.3-0.7-0.6-1.1c-0.4-0.7-1-1.3-1.6-1.8c-0.8-0.6-1.7-1.1-2.6-1.5
				c-2.5-1-5-0.9-5-0.9l2.9-3.1c1.4,0,2.5,0.4,3.5,0.9c0.6,0.4,1.1,0.8,1.6,1.2c0.3,0.3,0.6,0.6,0.8,1c0.9,1.3,1.5,2.8,1.9,3.9
				C187.9,191.5,187.9,191.6,188,191.8z"/>
			<path class="st77" d="M188,191.8l-0.9,1.1c-0.2-0.3-0.5-1-0.7-1.3c0.2-0.6,0.4-2.2-0.5-4.2C186.9,188.7,187.6,190.7,188,191.8z"
				/>
			<path class="st73" d="M185.5,192.5c-2.2-0.1-5.4-0.4-7.1-2.6c-0.4-0.6,3-0.2,4.8,0.9C184.2,191.5,185.2,192.2,185.5,192.5z"/>
			<polygon class="st73" points="201.9,204.4 198.8,206.2 196.7,203.8 187.1,192.8 187.8,191.7 200.3,203 			"/>
			<polygon class="st73" points="187.9,191.7 189.5,192.3 184.6,202 180.7,201.5 			"/>
			<polygon class="st74" points="201.9,218.1 201.9,214.6 201.9,209.3 201.9,204.4 198.8,206.2 198.8,210.5 198.8,216.2 
				198.8,219.9 			"/>
		</g>
		<g>
			<g>
				<g>
					<polygon class="st78" points="251.7,225.5 251.7,237.6 234.7,247.6 230.6,250 208.9,262.9 209,250.8 					"/>
				</g>
				<g>
					<polygon class="st79" points="251.7,225.5 243,230.8 239.7,232.7 234.7,235.7 234.5,235.7 230.6,238 225.4,241.1 209,250.8 
						185.4,237.2 207,224.4 211.1,222 228.1,211.9 237.1,217.1 241.3,219.5 242.8,220.4 245.3,221.8 					"/>
				</g>
				<g>
					<polygon class="st80" points="209,250.8 208.9,262.9 185.3,249.2 185.4,237.2 					"/>
				</g>
				<polyline class="st31" points="194,242.2 193.9,242.2 236.8,216.8 240.9,219.3 198.1,244.5 				"/>
				<polyline class="st54" points="198.1,244.5 198,256.6 193.9,254.2 193.9,242.2 194,242.2 				"/>
			</g>
			<polygon class="st31" points="234.7,235.7 230.6,238 207,224.4 211.1,222 			"/>
			<polygon class="st57" points="234.7,235.7 234.7,247.6 230.6,250 230.6,238 			"/>
			<polygon class="st31" points="218.3,228.4 225.5,241.1 221.4,243.4 214.2,230.8 			"/>
			<polygon class="st31" points="215.1,230.3 219.6,231.6 216.3,238.3 214.4,242 213.6,243.8 208.5,243.2 209.7,240.7 211.3,237.6 
							"/>
			<polygon class="st57" points="225.6,249.8 225.6,240.9 221.4,243.4 221.4,252.2 			"/>
		</g>
		<g>
			<path class="st50" d="M158,255.1c-1.4,0.2-3-5.7-6.9-5c1.7,1.6,2.7,4,3.7,3.9c0,0,1.1-0.3-4.1,2.7c-0.8,0.5-1.6,0.7-2.3,0.9
				c1.1,1.2,2.9,1.7,5.5,0.2C159.1,254.8,158,255.1,158,255.1z"/>
			<path class="st12" d="M152.6,250.2c-0.7-0.2-1.7-0.2-2.7,0.4c-0.1,0.1-0.2,0.1-0.4,0.2c-0.8,0.5-1.4,1.2-1.7,2.1
				c-0.1,0.2-0.1,0.4-0.2,0.6c-0.6,1.9,0.1,4,1.6,5c-0.8-0.3-2.3-0.9-2.5-1.1c-1.5-1.1-2-3.2-1.2-5.1c0.1-0.2,0.1-0.4,0.2-0.5
				c0.4-0.8,1.1-1.5,2-2c0.1-0.1,0.2-0.1,0.3-0.1c0.7-0.3,1.4-0.4,2-0.3C150.3,249.3,151.8,249.8,152.6,250.2z"/>
			<path class="st66" d="M158,255.1c-1.4,0.2-3-5.7-6.9-5c1.7,1.6,2.7,4,3.7,3.9c0,0,0.7-0.2-1.8,1.3h4.8
				C158.3,255.1,158,255.1,158,255.1z"/>
		</g>
		<g>
			<path class="st12" d="M157.5,251.7h0.2C157.6,251.7,157.5,251.7,157.5,251.7z"/>
			<path class="st12" d="M157.6,262.5h-0.2C157.5,262.6,157.6,262.6,157.6,262.5z"/>
		</g>
		<g>
			<path class="st31" d="M67.1,217.6c-2.1,0.2-3.6-8.8-9.6-7.8c2.3,2.4,3.5,6.3,4.8,6.1c0,0,1.7-0.4-6.7,3.9
				c-1.4,0.7-2.5,1.1-3.6,1.2c1.4,1.9,4.2,2.7,8.3,0.6C68.9,217.2,67.1,217.6,67.1,217.6z"/>
			<path class="st57" d="M59.8,209.9c-1.1-0.4-2.5-0.3-4.1,0.4c-1.7,0.7-2.9,1.9-3.6,3.3c-1.7,3-1.2,6.8,1.2,8.4
				c-1.2-0.5-3.3-1.5-3.7-1.7c-2.1-1.6-2.4-5-1.1-7.8c0.7-1.6,2.1-2.9,3.8-3.7c1.4-0.6,2.5-0.7,3.5-0.6
				C56.5,208.4,58.7,209.4,59.8,209.9z"/>
			<path class="st58" d="M67.1,217.6c-2.1,0.2-3.6-8.8-9.6-7.8c2.3,2.4,3.5,6.3,4.8,6.1c0,0,1.1-0.2-3,1.9l7.3,0.2
				C67.5,217.5,67.1,217.6,67.1,217.6z"/>
		</g>
		<g>
			<path class="st54" d="M67.4,217.6c1.9,0.3,4.7-7.8,10-6.8c-2.5,2.1-4.1,5.6-5.4,5.4c0,0-1.6-0.4,5.7,3.7c1.2,0.7,2.2,1.1,3.2,1.2
				c-1.6,1.7-4.2,2.3-7.8,0.2C65.9,217.1,67.4,217.6,67.4,217.6z"/>
			<path class="st31" d="M75.3,210.8c1.1-0.3,2.4-0.2,3.8,0.5c1.4,0.7,2.4,1.9,2.9,3.1c1.1,2.8,0.2,6.2-2.3,7.6
				c1.2-0.4,3.3-1.2,3.7-1.5c2.1-1.4,3-4.5,2.1-7c-0.5-1.4-1.5-2.7-3-3.4c-1.2-0.6-2.2-0.7-3.2-0.6
				C78.5,209.5,76.4,210.4,75.3,210.8z"/>
			<path class="st58" d="M67.4,217.6c1.9,0.3,4.7-7.8,10-6.8c-2.5,2.1-4.1,5.6-5.4,5.4c0,0-1-0.3,2.5,1.9h-6.8
				C67,217.5,67.4,217.6,67.4,217.6z"/>
		</g>
		<g>
			<path class="st81" d="M161.3,125.2c0.3,2,0.3,4.3,0.3,4.3s-15.2,2.9-22.8-3.5l-0.9-0.8c0,0-9.4,8.5-20.7,6.3l-1.8-6.2
				c0,0,1.7-1.5,4.7-2.2c0,0-3.4-1.7-4.8-5l9.4-6c0,0,7.3,5.1,7.6,5.5c0.3,0.3,3.5,1.3,3.5,1.3s-1.2-0.3,1.8-4.3c3-4,10-1.5,6.2,4.8
				s5.7,5.2,8.8,5.3C155.7,125.1,161.3,125.2,161.3,125.2z"/>
			<g>
				<g>
					<path class="st82" d="M152.4,102.4c2.7,1-0.9,12.9-14.4,22.7c0,0,15.1-19.6,4.9-25.8c0,0,2.3,1.8,5.2,2.7
						C149.4,102.4,151.6,102.1,152.4,102.4z"/>
					<path class="st12" d="M152.4,102.4c-7.2,3.3-10.8,8.1-12.6,12.6c-2.2,5.5-1.7,10.2-1.7,10.2c-2.8-6.4-2.9-11.6-1.9-15.6
						c1.7-7.2,7.1-10.6,7.1-10.6s2.3,1.3,4,1.9C148.9,101.3,152.4,102.4,152.4,102.4z"/>
					<path class="st83" d="M138.1,125.2c-2.8-6.4-2.9-11.6-1.9-15.6c-0.4,2.2,2.9,5.3,3.6,5.3C137.5,120.4,138.1,125.2,138.1,125.2z
						"/>
					<path class="st82" d="M114.5,111.9c-1.4,0.5,6.1,13,23.6,13.1c0,0-21.9-12.5-16-20.8C122.2,104.2,119.8,110.1,114.5,111.9z"/>
					<path class="st12" d="M114.6,111.9c1.6-0.1,3,0.1,4.5,0.3c0.5,0.1,0.9,0.2,1.4,0.3c0.4,0.1,0.7,0.2,1.1,0.3
						c0.1,0,0.1,0,0.1,0.1c0.1,0,0.1,0.1,0.2,0.1c3,0.9,5.8,2.2,8.3,3.7c1.5,0.9,2.9,1.9,4,2.9c3.2,2.8,3.9,5.5,3.9,5.5
						c0-2.2-0.1-3.2-0.2-4.6c-0.4-3.9-2.4-7-4.8-9.4c-1.3-1.4-2.8-2.5-4.2-3.4c-0.2-0.2-0.5-0.4-0.8-0.5c-0.2-0.1-0.3-0.2-0.5-0.3
						c-0.1-0.1-0.2-0.1-0.2-0.2c-0.2-0.1-0.5-0.3-0.7-0.4c-2.4-1.4-4.3-2-4.3-2s-1.6,1.9-3.7,4.3
						C116.4,110.9,114.6,111.9,114.6,111.9z"/>
				</g>
				<path class="st84" d="M128.9,107.6c1.4,0.9,2.9,2.1,4.2,3.4c-0.7,1.4-2.2,4.4-2.9,5.6c-2-1.2-4.3-2.4-6.8-3.2h-0.1
					C124.8,113.2,128.2,109.2,128.9,107.6z"/>
				<path class="st84" d="M120.9,112.6l0.7,0.2l0.3,0.1l0,0c1.9-0.9,5.4-5.7,5.7-6.1c-0.1-0.1-0.2-0.1-0.2-0.2
					c-0.2-0.1-0.5-0.3-0.7-0.4C125.1,109.1,120.9,112.6,120.9,112.6z"/>
			</g>
			<path class="st82" d="M153.4,128.3c-4.5,0.2-10-0.6-15.5-3.8c0,0,11-0.2,18.6-4c2.9-1.4,5.2-3.3,6.3-5.8c0,0,0,8.1,1.1,9.8
				C164.6,125.4,160,128,153.4,128.3z"/>
			<path class="st85" d="M153.4,128.3c1.1-2.4,2.2-5.2,3.1-7.8c2.9-1.4,5.2-3.3,6.3-5.8c0,0,0,8.1,1.1,9.8
				C164.6,125.4,160,128,153.4,128.3z"/>
			<path class="st12" d="M163.9,124.4c-1.2-0.9-2.5-1.5-3.9-2c-5.8-2.2-12.1-1.2-16.5,0c-2.9,0.8-4.8,1.8-5.3,2.1
				c-0.1,0.1-0.1,0.1-0.1,0.1c0.1-0.1,0.1-0.3,0.2-0.4c2.3-3.5,4.9-5.8,7.6-7.3c4.3-2.4,8.6-2.9,11.9-2.8c3,0.1,5,0.6,5,0.6
				L163.9,124.4z"/>
			<path class="st82" d="M119.2,129.4c0.1,2.3,10,2.2,19-4.5c0,0-16.7,5.7-18.8-3.6C119.3,121.3,119.1,127.1,119.2,129.4z"/>
			<path class="st12" d="M138.1,125.1c0,0-3-1.9-7.5-1.4c-1.9,0.2-4,0.7-6.3,2c-1.6,0.9-3.4,2.1-5.1,3.8l-0.2-7.8
				c0,0,0.9-0.6,2.5-1.2c2.2-0.7,5.5-1.4,9.3-0.2C133.2,120.9,135.6,122.4,138.1,125.1z"/>
			<path class="st86" d="M130.6,120.1l-0.2,3.6c-1.9,0.2-4,0.7-6.3,2l-2.8-5.2C123.5,119.6,126.8,118.8,130.6,120.1z"/>
			<path class="st84" d="M163.9,124.4c-1.2-0.9-2.5-1.5-3.9-2l-2.3-8.4c3,0.1,5,0.6,5,0.6L163.9,124.4z"/>
		</g>
		<g>
			<path class="st87" d="M118,154.5c-4.5,3.1-1.7,3.1-1.7,3.1c0.9,0.2-1.9,1.4-2.3,1.6c-0.4,0.2-1.3,0.5-3.6-0.2
				c0,0,0.1,1.5-1.6,1.5c-1.7,0-4.2-0.1-6.8-0.1c-0.6,0-0.1-0.9,0.7-1.6c-0.8,0.3-1.9,0.6-3,0.7c-1.4,0.2-5.3-0.7-4.2-2.4
				c0.6-0.9,1.9-1.5,3.7-2.1c-2.3,0.7-4.2,0.6-5.6,0.1c-2.7-1.1-1.8-3.9,3.2-4.7c-2-0.4-3.6-1.1-3.2-2.1c0.1-0.1,0.1-0.2,0.1-0.2
				l4.5-2.5c2.7,0.7,10.6,2.4,10.9,2.4c0.4,0,3.4-0.5,3.7-0.5c0.3,0,4.5,0.7,3.1,2.4C114.6,151.5,122.5,151.4,118,154.5z"/>
			<g>
				<path class="st88" d="M104.1,149.4c3.1,1.6,1.6,3.3,1.6,3.3c-3.7,2.3-6.8,2.9-8.5,2.9c0.4,0.2,0.9,0.4,1.2,0.5
					c1.2,0.4,5.2-0.2,9.1-2.7C107.6,153.3,108.2,149.8,104.1,149.4z"/>
				<path class="st89" d="M109.6,143.1c0.1,3.4-4,3-4.7,3l0,0c-0.1,0-0.1,0-0.1,0l-0.1-0.1l-1.2-1.2c0-0.1,0-0.1,0-0.2
					c-0.2-1.6-0.1-2.7,0-3.7c0-0.1,0-0.1,0.1-0.2c0-0.1,0.1-0.3,0.1-0.4c0.1-0.1,0.1-0.2,0.1-0.4c0.1-0.2,0.1-0.4,0.2-0.6
					c0-0.1,0.1-0.1,0.1-0.2c0,0,3.9,0,4.8,0c0,0,0.2,0.1,0.3,0.7c0,0.1,0.1,0.1,0.1,0.2c0.1,0.2,0.1,0.5,0.2,0.8c0,0,0,0,0,0.1v0.1
					c0.1,0.4,0.1,0.7,0.1,1.2C109.6,142.5,109.6,142.8,109.6,143.1z"/>
				<path class="st90" d="M109.6,143.1c0.1,3.4-4,3-4.7,3l0,0l-0.2-0.2l-1.8-1.3l0.6-0.1l4.3-0.7c0.4-0.4,1.1-1.1,1.7-1.7
					C109.6,142.5,109.6,142.8,109.6,143.1z"/>
				<g>
					<path class="st88" d="M96.1,141.9c0.2-0.2,0.4-0.4,0.9-0.4c0.6-0.1,1.4-0.6,2.5,0.2l0.9,0.4c-0.7,0.6-0.9,1.7-0.9,2.3
						c-0.2,3.1,2.7,4.9,4.4,5.5c0.2,0.6,0.4,1.2,0.5,1.7l-1.5-0.3l-4.4-1.6C93.8,147.9,94.9,142.8,96.1,141.9z"/>
					<path class="st91" d="M105.1,151.7l-0.6-0.1c-0.7-2.9-2.4-7.4-5-9.4c-0.1-0.1-0.2-0.1-0.3-0.2c-0.9-0.7-1.6-0.7-2.7-0.2
						c1.4-0.7,4.3-0.7,4.3-0.7c0.2,0.1,0.4,0.1,0.6,0.2c1.9,0.7,2.7,3.4,2.7,3.4s0.8,4.5,1.1,5.6S105.1,151.7,105.1,151.7z"/>
					<path class="st90" d="M115.6,146.2c-0.4-0.1,0.4,0,0.4,0s1.9,0.4,2.5,0.8c1.1,0.7,2,2.9,0.8,5.2c-1.2,2.3-4.5,2.5-6.6,2.2
						c-2.2-0.2-3.7-0.7-3.7-0.7s0.1-0.3,1.6-0.4c1.2-0.1,4.2,0.8,5.7-2.2C117.4,148.7,117.9,146.4,115.6,146.2z"/>
					<path class="st90" d="M116.1,142.8c-0.1-0.1-0.2-0.2-0.4-0.2c-0.6-0.2-1.5,0-2.7,0.7l-0.7,0.4c0.1,0.4,0.1,0.8,0.1,1.3
						c0.1,3.2-2.9,4.7-4.5,5.2c-0.2,0.6-0.4,1.2-0.5,1.7l1.5-0.2l4.5-1.2C118.3,149,117.3,143.8,116.1,142.8z"/>
					<path class="st92" d="M115.7,142.5c-0.6-0.2-1.5,0-2.7,0.7l0,0c-1.1,0.6-2,1.5-2.7,2.4l0,0c-1.5,1.9-2.4,4.3-2.9,6.3l-0.6,0.1
						c0,0-0.4-0.6-0.1-1.6c0.2-0.8,0.8-3.5,1.1-4.8c0.1-0.4,0.1-0.7,0.1-0.7s0.4-1.2,1.3-2.2c0.5-0.6,1.2-1.1,2.1-1.1
						C111.4,141.5,114.3,141.7,115.7,142.5z"/>
					<path class="st93" d="M113,143.2L113,143.2c-1.1,0.6-2,1.5-2.7,2.4l0,0c-0.7-0.2-1.7-0.4-1.6-0.6c0.1-0.2-0.4,0.1-0.4,0.1
						s-0.2,0.2-0.4,0.2c0.1-0.4,0.1-0.7,0.1-0.7s0.4-1.2,1.3-2.2C109.9,142.9,111.4,143.1,113,143.2z"/>
					<path class="st88" d="M109.4,145.5c-0.7-0.7-0.9-0.1-0.9-0.1s-1.1-0.9-1.7-0.9c-0.7-0.1-1.7,3.1-2,7.1l4-0.1
						c0,0,2.1-4.5,2.1-4.8C110.9,146.5,109.4,145.5,109.4,145.5z"/>
					<path class="st92" d="M118.4,146.9c-0.8-0.4-1.5-0.3-2.2,0.1c-0.9,0.5-1.7,1.4-3.1,2.3c0,0-0.5,0.2-0.6,0.2
						c-0.1,0-1,0.1-1.6-0.1c-0.6-0.2-0.9-0.6,0.3-1.5c0.1-0.1,0.1-0.1,0.2-0.2c1.2-0.9,2-1.4,2.5-1.7c0.7-0.4,1.1-0.4,1.7-0.4
						C116.5,145.9,117.9,146.6,118.4,146.9z"/>
					<path class="st93" d="M116.1,147c-0.9,0.5-1.7,1.4-3.1,2.3c0,0-0.5,0.2-0.6,0.2c-0.1,0-1,0.1-1.6-0.1c-0.1-0.2-0.2-0.3-0.2-0.3
						l0.6-1.2c0.1-0.1,0.1-0.1,0.2-0.2c1.2-0.9,2-1.4,2.5-1.7C114.5,146.4,115.5,146.7,116.1,147z"/>
					<path class="st88" d="M105.7,144.1c0.2-0.2,0.7-0.2,0.7-0.2s0.5,0.4,0.7,4.9s0,5.1,0,5.1l-2.5-1.7l-2.4-2.9c0,0,1.2-2.8,1.4-3
						C103.9,146.1,105.7,144.1,105.7,144.1z"/>
					<path class="st40" d="M113.5,151.2c-0.3,0.7-0.7,1.2-1.1,1.3c-0.8,0.1-6.6,0.1-5.6-0.1c0.7-0.1,1.5-1.1,1.7-2.7
						c0.1-0.6,0.1-1.1,0-1.8c-0.1-0.4-0.1-0.9-0.2-1.2c-0.1-0.6-0.2-1-0.4-1.3c-0.3-0.6-0.7-0.9-1.2-0.9c0,0,3.8,0.1,4.5,0.1
						c0.4,0,1.1,0.1,1.7,0.8c0.3,0.4,0.6,1.1,0.7,2.1v0.1C114,149,113.8,150.3,113.5,151.2z"/>
					<path class="st90" d="M105.9,153.1c-0.2,0.2-0.5,0.3-0.6,0.4c-0.1,0.1-0.2,0.1-0.3,0.2l-2.6-0.2c0,0-2.6-1-2.9-4.4
						c0,0,0,0,0-0.1c-0.1-0.6-0.1-1.2,0-1.7c0.9,1,3.7,2.7,6.2,3.7l0,0C107.7,151.8,106.7,152.6,105.9,153.1z"/>
					<path class="st89" d="M106.1,153.8l-1.1-0.1l-2.6-0.2c0,0-0.3-0.1-0.7-0.4l0,0c-0.8-0.6-2-1.7-2.2-4c0,0,0,0,0-0.1
						c-0.1-0.5-0.1-1-0.1-1.4c0-0.1,0-0.2,0-0.3c0.1-1.7,0.8-2.8,1.4-3.5c0.2-0.2,0.5-0.5,0.7-0.6l4.8,0.7c-0.1,0.5-0.3,1-0.4,1.6
						c-0.2,1.2-0.4,2.7-0.4,4.2c0,0.4,0,0.9,0.1,1.4c0,0.1,0,0.1,0,0.2s0,0.1,0,0.2c0.1,0.9,0.2,1.4,0.2,1.8c0,0.1,0,0.1,0,0.1
						C106.1,153.8,106.1,153.8,106.1,153.8z"/>
					<path class="st90" d="M105.9,153.2c-0.2,0.2-0.4,0.3-0.4,0.3s-2.1,0-2.9-0.2c-0.2-0.1-0.6-0.1-0.9-0.2l0,0
						c-0.8-0.6-2-1.7-2.2-4c0,0,0,0,0-0.1c-0.1-0.5-0.1-1-0.1-1.4c1.2,0.9,3.9,1.7,6.2,2.1c0,0.4,0,0.9,0.1,1.4c0,0.1,0,0.1,0,0.2
						c0,0.1,0,0.1,0,0.2C105.8,152.3,105.9,152.8,105.9,153.2C105.9,153.1,105.9,153.1,105.9,153.2z"/>
					<path class="st90" d="M106.1,153.8c0,0-2.5,0-3.7-0.3c-0.8-0.2-2.6-1-2.9-4.4c0,0,0,0,0-0.1c1.7,0.8,4.2,1.7,6.2,2.3
						C105.9,153.7,106.1,153.8,106.1,153.8z"/>
					<path class="st90" d="M113.5,151.2c-0.3,0.7-0.7,1.2-1.1,1.3c-0.8,0.1-6.6,0.1-5.6-0.1c0.7-0.1,1.5-1.1,1.7-2.7
						C109.7,150.4,111.5,151.1,113.5,151.2z"/>
					<path class="st92" d="M113,145.3c-1.3,0-3.1,0.1-5,0.1c0.2,0.3,0.3,0.7,0.4,1.3l5-0.6C113.2,145.8,113.1,145.6,113,145.3z"/>
					<path class="st88" d="M100,150.5c1.4-0.6,2.8-1.1,3.9-0.9c1.8,0.4,2.2,2.1,2.1,6.3c-0.1,0.1-1,1-1,1s-2.6-9.6-7-5.5L100,150.5z
						"/>
					<path class="st94" d="M106.4,143.9c-0.1,0.5-0.3,1-0.4,1.6c-1.4-0.6-3.5-1.2-5.2-1.7c0.2-0.2,0.5-0.5,0.7-0.6L106.4,143.9z"/>
					<path class="st90" d="M109.7,152c0.6-0.9,1.2-1.3,1.7-1.7c0.6-0.3,2.5-1.1,2.5-1.1s-3,1.9-3.9,3.9
						C109.2,155.2,109.7,152,109.7,152z"/>
					<path class="st90" d="M115.5,157.2c-2.3,1.2-4.7-0.2-5.1-1.4l-0.5-1.9l-1.9-0.6l0.6,3.4c1.2,1.1,2.5,2.1,4.2,1.8
						c1.7-0.4,4.2-2.5,4.2-2.5l-0.3-0.1C116,156.4,116,156.9,115.5,157.2z"/>
					<path class="st40" d="M118.3,154.1c0,0.2-0.1,0.3-0.1,0.4c0,0.1-0.1,0.2-0.1,0.3c-0.1,0.7-0.4,1.2-0.7,1.7
						c-0.5,0.7-4.8,2.1-5.6,1.9c0.6,0.1,1.4-0.2,2-0.7c0.5-0.4,0.9-1.1,1-2c0.1-0.5,0.1-1.1,0-1.8c-0.1-0.4-0.1-0.7-0.2-1
						c-0.7-2.4-2.2-2.7-3.1-2.7c0,0,2.4-1.5,4.1-1.1c1.1,0.2,2.1,1.1,2.5,2.4C118.3,152.4,118.3,153.2,118.3,154.1z"/>
					<path class="st88" d="M98.7,156.3c0.9,1.4,1,1.8,2.1,1.7c1.1-0.1,3.2-0.7,4.2-2.2c1-1.5,0.7,2-1.1,2.7
						c-1.9,0.8-2.2,0.2-3.6-0.6C98.9,156.9,98.7,156.3,98.7,156.3z"/>
					<path class="st93" d="M95.8,150.9c-0.2,1.2-0.1,2.1,0.2,2.8c0.4,1.2,1.3,1.8,2.2,2.2c-0.7-0.1-1.2-0.1-1.6-0.2
						c-1.3-0.5-3.2-1.2-2.9-4.7c0-0.2,0-0.3,0.1-0.5c0.4-3.4,3-3.7,4.2-3.6c0.7,0.1,1.4,0.2,2,0.5C98.7,147.2,96.2,147.6,95.8,150.9
						z"/>
					<path class="st95" d="M98.1,155.9c-0.7-0.1-1.2-0.1-1.6-0.2c-1.3-0.5-3.2-1.2-2.9-4.7c0.5,0.9,1.2,2,2.3,2.8
						C96.3,154.9,97.2,155.5,98.1,155.9z"/>
					<path class="st94" d="M118,151.7l-3.5,1.3c-0.7-2.4-2.2-2.7-3.1-2.7c0,0,2.4-1.5,4.1-1.1C116.6,149.5,117.6,150.4,118,151.7z"
						/>
					<path class="st89" d="M110.9,157c0,0.2-0.1,0.4-0.1,0.6c-0.2,1.4-0.7,2.3-0.7,2.3l-6.2-0.4c0,0-0.2-1.1-0.3-2.7
						c0-0.1,0-0.2,0-0.3c0-0.4,0-0.9,0.1-1.4c0-0.1,0-0.1,0-0.1c0-0.5,0.1-0.9,0.1-1.3c0-0.1,0.1-0.2,0.1-0.3
						c0.1-0.2,0.1-0.3,0.1-0.4l0,0c0.3-1.2,0.7-1.9,0.7-1.9l5.4,0.5c0,0,0.3,0.6,0.6,1.7c0.1,0.2,0.1,0.4,0.1,0.6
						c0,0.2,0.1,0.3,0.1,0.5c0,0.1,0.1,0.3,0.1,0.4s0,0.2,0.1,0.4c0,0.1,0,0.2,0,0.2C111,156,111,156.6,110.9,157z"/>
					<path class="st93" d="M99.9,154.3c0,0.6,0,1,0.1,1.4c0.1,0.4,0.1,0.8,0.2,1.1l0,0c0.1,0.3,0.2,0.5,0.3,0.7
						c0.1,0.2,0.2,0.4,0.4,0.6c0.4,0.4,1,0.6,1.4,0.7c-0.8-0.1-3.2-0.4-4.2-1c-0.9-0.6-1.4-1.2-1.7-1.8c0-0.1-0.1-0.1-0.1-0.2
						c-0.2-0.5-0.3-1.1-0.4-1.4v-0.1c0-0.4,0-0.6,0-0.8c0.1-0.8,0.4-1.9,1.1-2.7c0.7-1,1.9-1.7,3.5-1.6c0.1,0,0.1,0,0.2,0
						s0.1,0,0.2,0c0.1,0,0.1,0,0.1,0c2.5,0.2,3.1,0.5,3.1,0.5c-0.9-0.1-2.7,0.1-3.7,2.1c0,0,0,0.1-0.1,0.1
						C100.1,152.5,99.9,153.3,99.9,154.3z"/>
					<path class="st92" d="M101,149.2c2.5,0.2,3.1,0.5,3.1,0.5c-0.9-0.2-2.8,0.1-3.7,2.1c0,0,0,0.1-0.1,0.1l-3.4-1.1
						c0.7-1,1.9-1.7,3.5-1.6c0.1,0,0.1,0,0.2,0c0.1,0,0.1,0,0.2,0C100.9,149.2,101,149.2,101,149.2z"/>
				</g>
				<path class="st91" d="M109.4,140.8c-0.1-0.3-0.1-0.6-0.2-0.8c0-0.1-0.1-0.1-0.1-0.2c-0.2-0.6-0.3-0.7-0.3-0.7
					c-0.9-0.1-4-0.1-4.8,0l-0.1,0.2c-0.1,0.2-0.1,0.4-0.2,0.6c-0.1,0.1-0.1,0.2-0.1,0.4C105.1,140.4,108.2,140.7,109.4,140.8
					L109.4,140.8z"/>
			</g>
			<path class="st93" d="M118.1,154.9c-0.1,0.7-0.4,1.2-0.7,1.7c-0.5,0.7-4.8,2.1-5.6,1.9c0.6,0.1,1.4-0.2,2-0.7
				c0.5-0.4,0.9-1.1,1-2C116,155.8,117.1,155.6,118.1,154.9z"/>
			<path class="st96" d="M111,156.8c0,0.1,0,0.1,0,0.2c0,0.2-0.1,0.4-0.1,0.6c-0.1,0.2-0.1,0.4-0.1,0.6c-0.1,0.2-0.1,0.4-0.2,0.6
				c-0.1,0.2-0.2,0.5-0.2,0.7c-0.1,0.3-0.2,0.4-0.2,0.4l-6.1-0.2c0,0-0.1-0.3-0.1-0.8c-0.1-0.2-0.1-0.6-0.1-0.9c0-0.1,0-0.1,0-0.1
				c-0.1-0.4-0.1-0.7-0.1-1.1c0-0.1,0-0.2,0-0.3c0-0.2,0-0.4,0-0.7s0-0.4,0-0.7l7.3,0.4C111,155.9,111,156.4,111,156.8z"/>
			<path class="st97" d="M102.2,158.9c-0.8-0.1-3.2-0.4-4.2-1c-0.9-0.6-1.4-1.3-1.7-2c0.9,0.7,2.5,0.8,3.9,1.1
				c0.1,0.3,0.2,0.5,0.3,0.7c0.1,0.2,0.2,0.4,0.4,0.6C101.3,158.6,101.8,158.8,102.2,158.9z"/>
			<path class="st97" d="M110.7,158.2c-0.1,0.6-0.3,1-0.4,1.2c-0.1,0.3-0.2,0.4-0.2,0.4l-6.1-0.2c0,0-0.1-0.3-0.1-0.8
				c-0.1-0.2-0.1-0.6-0.1-0.9C104.9,158.3,109.5,158.5,110.7,158.2z"/>
			<path class="st90" d="M100.1,156.9L100.1,156.9c-1.3,0-2.6-0.2-3.8-0.9c0-0.1-0.1-0.1-0.1-0.2c-0.2-0.5-0.3-1.1-0.4-1.4
				c1.1,0.9,2.5,1.4,4,1.4C100,156.2,100,156.6,100.1,156.9z"/>
			<path class="st89" d="M101.5,141c-0.8,0.1-1.5,0.4-2.2,0.9c-0.9-0.7-1.6-0.7-2.7-0.2c1.4-0.7,4.3-0.7,4.3-0.7
				C101.1,140.9,101.3,141,101.5,141z"/>
		</g>
		<g class="st64">
			<path class="st65" d="M158,256.1c0.5,3,4,5,3.5,6.1c-0.6,1.1-0.6,0.8-0.6,0.8s-2.2,0-4.3,0c-2.1,0-2.8-2.3-0.1-8.5L158,256.1z"/>
		</g>
		<path class="st98" d="M197.8,186c0,1.4-0.4,2.5-1.2,3.4c-1.6,1.9-4.3,2.5-6.2,2.9c-0.6,0.1-1.2,0.2-1.6,0.3l-0.4-0.9
			c7.1-0.8,6.4-7.6,6.4-7.6L197.8,186z"/>
		<path class="st73" d="M194.6,183.3c-5.4,0.8-6.2,6.2-6.8,8.6l1.1,0.7c1.4-5.6,8.9-6.5,8.9-6.5L194.6,183.3z"/>
		<path class="st73" d="M196.6,189.4c-1.6,1.9-4.3,2.5-6.2,2.9C191.5,191.4,193.6,189.7,196.6,189.4z"/>
		<g>
			<path class="st99" d="M230.5,231.3c-4.5,3.1-1.7,3.1-1.7,3.1c0.9,0.2-1.9,1.4-2.3,1.6c-0.4,0.2-1.3,0.5-3.6-0.2
				c0,0,0.1,1.5-1.6,1.5c-1.7,0-4.2-0.1-6.8-0.1c-0.6,0-0.1-0.9,0.7-1.6c-0.8,0.3-1.9,0.6-3,0.7c-1.4,0.2-5.3-0.7-4.2-2.4
				c0.6-0.9,1.9-1.5,3.7-2.1c-2.3,0.7-4.2,0.6-5.6,0.1c-2.7-1.1-1.8-3.9,3.2-4.7c-2-0.4-3.6-1.1-3.2-2.1c0.1-0.1,0.1-0.2,0.1-0.2
				l4.5-2.5c2.7,0.7,10.6,2.4,10.9,2.4c0.4,0,3.4-0.5,3.7-0.5c0.3,0,4.5,0.7,3.1,2.4C227.1,228.2,235,228.1,230.5,231.3z"/>
			<g>
				<path class="st58" d="M216.6,226.2c3.1,1.6,1.6,3.3,1.6,3.3c-3.7,2.3-6.8,2.9-8.5,2.9c0.4,0.2,0.9,0.4,1.2,0.5
					c1.2,0.4,5.2-0.2,9.1-2.7C220.1,230,220.7,226.6,216.6,226.2z"/>
				<path class="st31" d="M222.1,219.9c0.1,3.4-4,3-4.7,3l0,0c-0.1,0-0.1,0-0.1,0l-0.1-0.1l-1.2-1.2c0-0.1,0-0.1,0-0.2
					c-0.2-1.6-0.1-2.7,0-3.7c0-0.1,0-0.1,0.1-0.2c0-0.1,0.1-0.3,0.1-0.4c0.1-0.1,0.1-0.2,0.1-0.4c0.1-0.2,0.1-0.4,0.2-0.6
					c0-0.1,0.1-0.1,0.1-0.2c0,0,3.9,0,4.8,0c0,0,0.2,0.1,0.3,0.7c0,0.1,0.1,0.1,0.1,0.2c0.1,0.2,0.1,0.5,0.2,0.8c0,0,0,0,0,0.1v0.1
					c0.1,0.4,0.1,0.7,0.1,1.2C222,219.2,222,219.6,222.1,219.9z"/>
				<path class="st100" d="M222.1,219.9c0.1,3.4-4,3-4.7,3l0,0l-0.2-0.2l-1.8-1.3l0.6-0.1l4.3-0.7c0.4-0.4,1.1-1.1,1.7-1.7
					C222,219.2,222,219.6,222.1,219.9z"/>
				<g>
					<path class="st58" d="M217,228.3l-1.5-0.3l-4.5-1.6c-2.8-1.1-3.6-3.2-3.5-5c0.1-1.3,0.6-2.4,1.1-2.8c0.2-0.2,0.4-0.4,0.9-0.4
						c0.6-0.1,1.4-0.6,2.5,0.2l0.9,0.4c-0.2,0.1-0.3,0.3-0.4,0.4c-0.4,0.6-0.4,1.4-0.5,1.8c-0.2,3.1,2.7,4.9,4.4,5.5
						C216.7,227.2,216.9,227.8,217,228.3z"/>
					<path class="st100" d="M213,218.8c-0.2,0.1-0.3,0.3-0.4,0.4c-1.5,0.4-3.5,1.4-5,2.2c0.1-1.3,0.6-2.4,1.1-2.8
						c0.2-0.2,0.4-0.4,0.9-0.4c0.6-0.1,1.4-0.6,2.5,0.2L213,218.8z"/>
					<path class="st31" d="M217.5,228.5l-0.6-0.1c-0.7-2.9-2.4-7.4-5-9.4c-0.1-0.1-0.2-0.1-0.3-0.2c-0.9-0.7-1.6-0.7-2.7-0.2
						c1.4-0.7,4.3-0.7,4.3-0.7c0.2,0.1,0.4,0.1,0.6,0.2c1.9,0.7,2.7,3.4,2.7,3.4s0.8,4.5,1.1,5.6
						C217.9,227.9,217.5,228.5,217.5,228.5z"/>
					<path class="st58" d="M228.1,222.9c-0.4-0.1,0.4,0,0.4,0s1.9,0.4,2.5,0.8c1.1,0.7,2,2.9,0.8,5.2c-1.2,2.3-4.5,2.5-6.6,2.2
						c-2.2-0.2-3.7-0.7-3.7-0.7s0.1-0.3,1.6-0.4c1.2-0.1,4.2,0.8,5.7-2.2C229.9,225.5,230.4,223.1,228.1,222.9z"/>
					<path class="st100" d="M228.5,219.5c-0.1-0.1-0.2-0.2-0.4-0.2c-0.6-0.2-1.5,0-2.7,0.7l-0.7,0.4c0.1,0.4,0.1,0.8,0.1,1.3
						c0.1,3.2-2.9,4.7-4.5,5.2c-0.2,0.6-0.4,1.2-0.5,1.7l1.5-0.2l4.5-1.2C230.7,225.8,229.8,220.5,228.5,219.5z"/>
					<path class="st31" d="M228.2,219.3c-0.6-0.2-1.5,0-2.7,0.7l0,0c-1.1,0.6-2,1.5-2.7,2.4l0,0c-1.5,1.9-2.4,4.3-2.9,6.3l-0.6,0.1
						c0,0-0.4-0.6-0.1-1.6c0.2-0.8,0.8-3.5,1.1-4.8c0.1-0.4,0.1-0.7,0.1-0.7s0.4-1.2,1.3-2.2c0.5-0.6,1.2-1.1,2.1-1.1
						C223.9,218.2,226.7,218.5,228.2,219.3z"/>
					<path class="st57" d="M225.5,219.9C225.5,220,225.5,220,225.5,219.9c-1.1,0.6-2,1.5-2.7,2.4l0,0c-0.7-0.2-1.7-0.4-1.6-0.6
						c0.1-0.2-0.4,0.1-0.4,0.1s-0.2,0.2-0.4,0.2c0.1-0.4,0.1-0.7,0.1-0.7s0.4-1.2,1.3-2.2C222.3,219.6,223.9,219.9,225.5,219.9z"/>
					<path class="st100" d="M221.8,222.2c-0.7-0.7-0.9-0.1-0.9-0.1s-1.1-0.9-1.7-0.9c-0.7-0.1-1.7,3.1-2,7.1l4-0.1
						c0,0,2.1-4.5,2.1-4.8C223.4,223.2,221.8,222.2,221.8,222.2z"/>
					<path class="st37" d="M230.8,223.6c-0.8-0.4-1.5-0.3-2.2,0.1c-0.9,0.5-1.7,1.4-3.1,2.3c0,0-0.5,0.2-0.6,0.2
						c-0.1,0-1,0.1-1.6-0.1c-0.6-0.2-0.9-0.6,0.3-1.5c0.1-0.1,0.1-0.1,0.2-0.2c1.2-0.9,2-1.4,2.5-1.7c0.7-0.4,1.1-0.4,1.7-0.4
						C229,222.7,230.3,223.4,230.8,223.6z"/>
					<path class="st57" d="M228.6,223.7c-0.9,0.5-1.7,1.4-3.1,2.3c0,0-0.5,0.2-0.6,0.2c-0.1,0-1,0.1-1.6-0.1
						c-0.1-0.2-0.2-0.3-0.2-0.3l0.6-1.2c0.1-0.1,0.1-0.1,0.2-0.2c1.2-0.9,2-1.4,2.5-1.7C227,223.2,227.9,223.5,228.6,223.7z"/>
					<path class="st58" d="M218.2,220.9c0.2-0.2,0.7-0.2,0.7-0.2s0.5,0.4,0.7,4.9c0.2,4.5,0,5.1,0,5.1l-2.5-1.7l-2.4-2.9
						c0,0,1.2-2.8,1.4-3C216.4,222.9,218.2,220.9,218.2,220.9z"/>
					<path class="st57" d="M225.9,228c-0.3,0.7-0.7,1.2-1.1,1.3c-0.8,0.1-6.6,0.1-5.6-0.1c0.7-0.1,1.5-1.1,1.7-2.7
						c0.1-0.6,0.1-1.1,0-1.8c-0.1-0.4-0.1-0.9-0.2-1.2c-0.1-0.6-0.2-1-0.4-1.3c-0.3-0.6-0.7-0.9-1.2-0.9c0,0,3.8,0.1,4.5,0.1
						c0.4,0,1.1,0.1,1.7,0.8c0.3,0.4,0.6,1.1,0.7,2.1v0.1C226.4,225.8,226.3,227,225.9,228z"/>
					<path class="st101" d="M218.4,229.9c-0.2,0.2-0.5,0.3-0.6,0.4c-0.1,0.1-0.2,0.1-0.3,0.2l-2.6-0.2c0,0-2.6-1-2.9-4.4
						c0,0,0,0,0-0.1c-0.1-0.6-0.1-1.2,0-1.7c0.9,1,3.7,2.7,6.2,3.7l0,0C220.2,228.5,219.2,229.4,218.4,229.9z"/>
					<path class="st57" d="M218.5,230.6l-1.1-0.1l-2.6-0.2c0,0-0.3-0.1-0.7-0.4l0,0c-0.8-0.6-2-1.7-2.2-4c0,0,0,0,0-0.1
						c-0.1-0.5-0.1-1-0.1-1.4c0-0.1,0-0.2,0-0.3c0.1-1.7,0.8-2.8,1.4-3.5c0.2-0.2,0.5-0.5,0.7-0.6l4.8,0.7c-0.1,0.5-0.3,1-0.4,1.6
						c-0.2,1.2-0.4,2.7-0.4,4.2c0,0.4,0,0.9,0.1,1.4c0,0.1,0,0.1,0,0.2c0,0.1,0,0.1,0,0.2c0.1,0.9,0.2,1.4,0.2,1.8
						c0,0.1,0,0.1,0,0.1C218.5,230.5,218.5,230.6,218.5,230.6z"/>
					<path class="st100" d="M218.4,229.9c-0.2,0.2-0.4,0.3-0.4,0.3s-2.1,0-2.9-0.2c-0.2-0.1-0.6-0.1-0.9-0.2l0,0
						c-0.8-0.6-2-1.7-2.2-4c0,0,0,0,0-0.1c-0.1-0.5-0.1-1-0.1-1.4c1.2,0.9,3.9,1.7,6.2,2.1c0,0.4,0,0.9,0.1,1.4c0,0.1,0,0.1,0,0.2
						c0,0.1,0,0.1,0,0.2C218.2,229,218.4,229.6,218.4,229.9C218.4,229.9,218.4,229.9,218.4,229.9z"/>
					<path class="st100" d="M218.5,230.6c0,0-2.5,0-3.7-0.3c-0.8-0.2-2.6-1-2.9-4.4c0,0,0,0,0-0.1c1.7,0.8,4.2,1.7,6.2,2.3
						C218.4,230.4,218.5,230.6,218.5,230.6z"/>
					<path class="st58" d="M225.9,228c-0.3,0.7-0.7,1.2-1.1,1.3c-0.8,0.1-6.6,0.1-5.6-0.1c0.7-0.1,1.5-1.1,1.7-2.7
						C222.2,227.1,223.9,227.8,225.9,228z"/>
					<path class="st31" d="M225.4,222.1c-1.3,0-3.1,0.1-5,0.1c0.2,0.3,0.3,0.7,0.4,1.3l5-0.6C225.7,222.6,225.6,222.3,225.4,222.1z"
						/>
					<path class="st100" d="M212.5,227.2c1.4-0.6,2.8-1.1,3.9-0.9c1.8,0.4,2.2,2.1,2.1,6.3c-0.1,0.1-1,1-1,1s-2.6-9.6-7-5.5
						L212.5,227.2z"/>
					<path class="st37" d="M218.9,220.6c-0.1,0.5-0.3,1-0.4,1.6c-1.4-0.6-3.5-1.2-5.2-1.7c0.2-0.2,0.5-0.5,0.7-0.6L218.9,220.6z"/>
					<path class="st100" d="M222.2,228.8c0.6-0.9,1.2-1.3,1.7-1.7c0.6-0.3,2.5-1.1,2.5-1.1s-3,1.9-3.9,3.9
						C221.7,231.9,222.2,228.8,222.2,228.8z"/>
					<path class="st57" d="M227.9,234c-2.3,1.2-4.7-0.2-5.1-1.4l-0.5-1.9l-1.9-0.6l0.6,3.4c1.2,1.1,2.5,2.1,4.2,1.8
						c1.7-0.4,4.2-2.5,4.2-2.5l-0.3-0.1C228.4,233.2,228.5,233.7,227.9,234z"/>
					<path class="st54" d="M230.7,230.8c0,0.2-0.1,0.3-0.1,0.4s-0.1,0.2-0.1,0.3c-0.1,0.7-0.4,1.2-0.7,1.7c-0.5,0.7-4.8,2.1-5.6,1.9
						c0.6,0.1,1.4-0.2,2-0.7c0.5-0.4,0.9-1.1,1-2c0.1-0.5,0.1-1.1,0-1.8c-0.1-0.4-0.1-0.7-0.2-1c-0.7-2.4-2.2-2.7-3.1-2.7
						c0,0,2.4-1.5,4.1-1.1c1.1,0.2,2.1,1.1,2.5,2.4C230.7,229.1,230.8,229.9,230.7,230.8z"/>
					<path class="st100" d="M211.1,233.1c0.9,1.4,1,1.8,2.1,1.7c1.1-0.1,3.2-0.7,4.2-2.2c1-1.5,0.7,2-1.1,2.7
						c-1.9,0.8-2.2,0.2-3.6-0.6C211.3,233.7,211.1,233.1,211.1,233.1z"/>
					<path class="st57" d="M208.2,227.6c-0.2,1.2-0.1,2.1,0.2,2.8c0.4,1.2,1.3,1.8,2.2,2.2c-0.7-0.1-1.2-0.1-1.6-0.2
						c-1.3-0.5-3.2-1.2-2.9-4.7c0-0.2,0-0.3,0.1-0.5c0.4-3.4,3-3.7,4.2-3.6c0.7,0.1,1.4,0.2,2,0.5
						C211.1,224,208.7,224.4,208.2,227.6z"/>
					<path class="st54" d="M210.5,232.6c-0.7-0.1-1.2-0.1-1.6-0.2c-1.3-0.5-3.2-1.2-2.9-4.7c0.5,0.9,1.2,2,2.3,2.8
						C208.8,231.7,209.7,232.2,210.5,232.6z"/>
					<path class="st31" d="M230.5,228.5l-3.5,1.3c-0.7-2.4-2.2-2.7-3.1-2.7c0,0,2.4-1.5,4.1-1.1C229.1,226.3,230,227.1,230.5,228.5z
						"/>
					<path class="st57" d="M223.4,233.7c0,0.2-0.1,0.4-0.1,0.6c-0.2,1.4-0.7,2.3-0.7,2.3l-6.2-0.4c0,0-0.2-1.1-0.3-2.7
						c0-0.1,0-0.2,0-0.3c0-0.4,0-0.9,0.1-1.4c0-0.1,0-0.1,0-0.1c0-0.5,0.1-0.9,0.1-1.3c0-0.1,0.1-0.2,0.1-0.3
						c0.1-0.2,0.1-0.3,0.1-0.4l0,0c0.3-1.2,0.7-1.9,0.7-1.9l5.4,0.5c0,0,0.3,0.6,0.6,1.7c0.1,0.2,0.1,0.4,0.1,0.6
						c0,0.2,0.1,0.3,0.1,0.5c0,0.1,0.1,0.3,0.1,0.4s0,0.2,0.1,0.4c0,0.1,0,0.2,0,0.2C223.5,232.7,223.5,233.3,223.4,233.7z"/>
					<path class="st57" d="M212.3,231.1c0,0.6,0,1,0.1,1.4c0.1,0.4,0.1,0.8,0.2,1.1l0,0c0.1,0.3,0.2,0.5,0.3,0.7
						c0.1,0.2,0.2,0.4,0.4,0.6c0.4,0.4,1,0.6,1.4,0.7c-0.8-0.1-3.2-0.4-4.2-1c-0.9-0.6-1.4-1.2-1.7-1.8c0-0.1-0.1-0.1-0.1-0.2
						c-0.2-0.5-0.3-1.1-0.4-1.4v-0.1c0-0.4,0-0.6,0-0.8c0.1-0.8,0.4-1.9,1.1-2.7c0.7-1,1.9-1.7,3.5-1.6c0.1,0,0.1,0,0.2,0
						s0.1,0,0.2,0c0.1,0,0.1,0,0.1,0c2.5,0.2,3.1,0.5,3.1,0.5c-0.9-0.1-2.7,0.1-3.7,2.1c0,0,0,0.1-0.1,0.1
						C212.6,229.2,212.4,230,212.3,231.1z"/>
					<path class="st31" d="M213.5,226c2.5,0.2,3.1,0.5,3.1,0.5c-0.9-0.2-2.8,0.1-3.7,2.1c0,0,0,0.1-0.1,0.1l-3.4-1.1
						c0.7-1,1.9-1.7,3.5-1.6c0.1,0,0.1,0,0.2,0s0.1,0,0.2,0C213.4,225.9,213.4,225.9,213.5,226z"/>
				</g>
				<path class="st57" d="M221.8,217.5c-0.1-0.3-0.1-0.6-0.2-0.8c0-0.1-0.1-0.1-0.1-0.2c-0.2-0.6-0.3-0.7-0.3-0.7
					c-0.9-0.1-4-0.1-4.8,0l-0.1,0.2c-0.1,0.2-0.1,0.4-0.2,0.6c-0.1,0.1-0.1,0.2-0.1,0.4C217.6,217.1,220.7,217.5,221.8,217.5
					C221.8,217.6,221.8,217.5,221.8,217.5z"/>
			</g>
			<path class="st102" d="M230.6,231.6c-0.1,0.7-0.4,1.2-0.7,1.7c-0.5,0.7-4.8,2.1-5.6,1.9c0.6,0.1,1.4-0.2,2-0.7
				c0.5-0.4,0.9-1.1,1-2C228.5,232.5,229.5,232.3,230.6,231.6z"/>
			<path class="st54" d="M223.5,233.6c0,0.1,0,0.1,0,0.2c0,0.2-0.1,0.4-0.1,0.6c-0.1,0.2-0.1,0.4-0.1,0.6c-0.1,0.2-0.1,0.4-0.2,0.6
				c-0.1,0.2-0.2,0.5-0.2,0.7c-0.1,0.3-0.2,0.4-0.2,0.4l-6.1-0.2c0,0-0.1-0.3-0.1-0.8c-0.1-0.2-0.1-0.6-0.1-0.9c0-0.1,0-0.1,0-0.1
				c-0.1-0.4-0.1-0.7-0.1-1.1c0-0.1,0-0.2,0-0.3c0-0.2,0-0.4,0-0.7s0-0.4,0-0.7l7.3,0.4C223.5,232.7,223.5,233.1,223.5,233.6z"/>
			<path class="st58" d="M214.7,235.6c-0.8-0.1-3.2-0.4-4.2-1c-0.9-0.6-1.4-1.3-1.7-2c0.9,0.7,2.5,0.8,3.9,1.1
				c0.1,0.3,0.2,0.5,0.3,0.7c0.1,0.2,0.2,0.4,0.4,0.6C213.8,235.4,214.3,235.5,214.7,235.6z"/>
			<path class="st58" d="M223.1,235c-0.1,0.6-0.3,1-0.4,1.2c-0.1,0.3-0.2,0.4-0.2,0.4l-6.1-0.2c0,0-0.1-0.3-0.1-0.8
				c-0.1-0.2-0.1-0.6-0.1-0.9C217.4,235.1,222,235.3,223.1,235z"/>
			<path class="st54" d="M212.6,233.6L212.6,233.6c-1.3,0-2.6-0.2-3.8-0.9c0-0.1-0.1-0.1-0.1-0.2c-0.2-0.5-0.3-1.1-0.4-1.4
				c1.1,0.9,2.5,1.4,4,1.4C212.4,232.9,212.5,233.3,212.6,233.6z"/>
			<path class="st57" d="M213.9,217.8c-0.8,0.1-1.5,0.4-2.2,0.9c-0.9-0.7-1.6-0.7-2.7-0.2c1.4-0.7,4.3-0.7,4.3-0.7
				C213.6,217.6,213.8,217.7,213.9,217.8z"/>
		</g>
		<path class="st103" d="M185.2,186.4l-0.3,3.4c-0.8-0.6-1.7-1.1-2.6-1.5l1.4-3.2C184.2,185.5,184.7,185.9,185.2,186.4z"/>
		<path class="st104" d="M118.1,190.7"/>
		<path class="st105" d="M125.3,201.3c-1.3-0.7-3.7-2.1-4.2-2.5c-1.4-1.2-2.1-3.2-2.1-5.1c1.1,0.9,2.3,1.7,3.8,2.7
			C122.9,198.3,123.7,200.1,125.3,201.3z"/>
		<polygon class="st103" points="201.9,204.4 198.8,206.2 196.7,203.8 200.3,203 		"/>
		<polygon class="st103" points="201.6,201.7 206,200.7 203.9,199.5 199.8,200.7 		"/>
		<path class="st106" d="M183,145.2c-0.1,0.7-0.3,1.3-0.4,2c-0.7-0.4-1.4-0.4-2-0.3c0-0.7,0.1-1.5,0.2-2.2
			C181.4,144.6,182.2,144.8,183,145.2z"/>
		<g>
			<path class="st37" d="M170.2,161.3L170.2,161.3L170.2,161.3z"/>
		</g>
		<path class="st107" d="M130.2,188.1c-0.6,0-1.1,0.1-1.8,0.2c-0.4-0.2-0.7-0.4-1.1-0.6c-0.9-0.6-1.9-0.9-2.7-1.5
			c0.2-0.1,0.4-0.1,0.7-0.2c0.2-0.1,0.5-0.1,0.7-0.1c0.9,0.4,1.9,0.8,2.7,1.4C129.1,187.5,129.7,187.8,130.2,188.1z"/>
		<path class="st108" d="M147.4,181.8c-0.4,0.1-0.9,0.3-1.4,0.6c-0.1,0-0.1,0.1-0.1,0.1c-0.3-0.2-0.6-0.4-0.9-0.6
			c-0.2-0.1-0.5-0.3-0.7-0.5c-1.2-0.9-2.4-1.8-3.5-2.7c0.6-0.3,1.1-0.5,1.6-0.6c0.9,0.7,1.7,1.4,2.5,2.1c0.4,0.3,0.9,0.6,1.3,0.9
			C146.6,181.4,147,181.5,147.4,181.8z"/>
		<path class="st66" d="M156.8,254.9c0-1.1-0.3-3.2,0.8-3.2c1.2,0,2.9,4.1,2.9,4.1l-2.5,0.3L156.8,254.9z"/>
		<path class="st66" d="M156.8,254.9c0,2.2-0.1,7.6,0.7,7.6c1.7,0,2.9-9.5,2.9-9.5l-2.5-0.7L156.8,254.9z"/>
		<path class="st12" d="M162.7,259.6c-0.1,1.7-0.3,2.9-0.7,2.8l-4.4,0.1c0.2-0.1,0.5-1.7,0.6-3.8c0.1-1.5,0.1-3.2,0.1-4.5
			c-0.1-0.7-0.1-1.4-0.2-1.9c-0.1-0.4-0.2-0.7-0.4-0.7l4.4-0.2c0.2-0.1,0.3,0.2,0.4,0.8c0.1,0.5,0.2,1.1,0.2,1.9
			C162.9,255.8,162.9,258,162.7,259.6z"/>
		<path class="st109" d="M162.7,259.6c-0.1,1.7-0.3,2.9-0.7,2.8l-4.4,0.1c0.2-0.1,0.5-1.7,0.6-3.8
			C159.9,259.1,161.4,259.4,162.7,259.6z"/>
		<path class="st110" d="M149.2,258.3c-0.8-0.3-2.3-0.9-2.5-1.1c-1.5-1.1-2-3.2-1.2-5.1c0.1-0.2,0.1-0.4,0.2-0.5
			c0.6,0.6,1.3,1.2,2,1.7C147,255.2,147.6,257.4,149.2,258.3z"/>
		<path class="st111" d="M169.8,252.1c-0.8,0.8-1.7,1.4-2.4,1.8c0.1-0.9-0.2-1.9-0.7-2.8c-0.5-0.8-1.2-1.5-2.2-1.9
			c0.6-0.5,1.2-1.1,1.7-1.6c0.1,0,0.1,0.1,0.2,0.1c1.2,0.4,2.2,1.2,2.7,2.2C169.6,250.7,169.8,251.4,169.8,252.1z"/>
		<path class="st111" d="M160.2,246.2l-3.7,1.1c-0.1-1-0.5-2-1.3-2.9c-0.2-0.2-0.4-0.4-0.6-0.6l3.9-0.7c0.1,0.1,0.2,0.2,0.3,0.3
			C159.7,244.3,160.1,245.2,160.2,246.2z"/>
		<path class="st111" d="M152.6,250.2c-0.7-0.2-1.7-0.2-2.7,0.4c-0.1,0.1-0.2,0.1-0.4,0.2l-1.6-1.3c0.7-0.3,1.4-0.4,2-0.3
			C150.3,249.3,151.8,249.8,152.6,250.2z"/>
		<path class="st37" d="M162.7,254.1c-1.5,0-2.9,0-4.4,0.1c-0.1-0.7-0.1-1.4-0.2-1.9c1.5-0.1,2.9-0.1,4.4-0.1
			C162.6,252.8,162.7,253.4,162.7,254.1z"/>
		<path class="st37" d="M165.3,249.7c0.6-0.6,1.3-1.1,2-1.6c-0.2-0.1-0.5-0.2-0.8-0.3c-0.1,0-0.1-0.1-0.2-0.1
			c-0.1,0-0.1-0.1-0.2-0.1c-0.6,0.5-1.2,1-1.8,1.6L165.3,249.7z"/>
		<polygon class="st11" points="164,263.1 164,263.2 160.4,265.2 160.5,270.2 164.1,268 		"/>
		<polygon class="st4" points="100.6,214.1 100.5,229.4 96.8,231.7 96.8,216.4 		"/>
	</g>
</g>
</svg>
