<?xml version="1.0" encoding="utf-8"?>
<!-- Generator: Adobe Illustrator 22.1.0, SVG Export Plug-In . SVG Version: 6.00 Build 0)  -->
<svg version="1.1" id="Layer_1" xmlns="http://www.w3.org/2000/svg" xmlns:xlink="http://www.w3.org/1999/xlink" x="0px" y="0px"
	 viewBox="0 0 372.4 372.4" style="enable-background:new 0 0 372.4 372.4;" xml:space="preserve">
<style type="text/css">
	.st0{fill:#E0E0E0;}
	.st1{fill:#F1F1F1;}
	.st2{fill:none;stroke:#707070;stroke-miterlimit:10;}
	.st3{fill:#E6E6E6;}
	.st4{fill:#CBCBCB;}
	.st5{fill:#FFFFFF;}
	.st6{fill:#ACACAC;}
	.st7{font-family:'ArialMT';}
	.st8{font-size:4.8806px;}
	.st9{fill:#696969;}
	.st10{fill:#02A916;}
	.st11{fill:#FF5141;}
	.st12{fill:#F1BB3F;}
	.st13{fill:#70CB43;}
	.st14{fill:#DBDBDB;}
	.st15{fill:#B4B4B4;}
	.st16{fill:#D0D0D0;}
	.st17{clip-path:url(#SVGID_3_);}
	.st18{opacity:0.59;}
	.st19{fill:#F6C5B0;}
	.st20{fill:#002D51;}
	.st21{fill:#005467;}
	.st22{fill:#D49C6B;}
	.st23{clip-path:url(#SVGID_5_);}
	.st24{fill:#FFD54D;}
	.st25{fill:#FDB037;}
	.st26{fill:#C8E7F5;}
	.st27{fill:#00BABA;}
	.st28{fill:#C2D69F;}
	.st29{fill:#F4F5F4;}
	.st30{fill:#747370;}
	.st31{fill:#B1B0AD;}
	.st32{fill:#8A8482;}
	.st33{fill:#96908B;}
	.st34{fill:#5E5A5A;}
	.st35{opacity:0.11;enable-background:new    ;}
</style>
<g id="Browser_01_1_">
	<g id="Navigation_1_">
		<g id="Body_2_">
			<g>
				<path class="st0" d="M331.9,97H7.8c-0.6,0-1.1,0.5-1.1,1.1v247.1H333V98.1C333,97.5,332.6,97,331.9,97z"/>
			</g>
		</g>
		<g id="Body">
			<g>
				<path class="st1" d="M329.4,99.5H7.2c-0.6,0-1.1,0.5-1.1,1.1v245.1h324.3V100.6C330.5,100.1,330,99.5,329.4,99.5z"/>
			</g>
			<g>
				<path class="st2" d="M329.4,99.5H7.2c-0.6,0-1.1,0.5-1.1,1.1v245.1h324.3V100.6C330.5,100.1,330,99.5,329.4,99.5z"/>
			</g>
		</g>
		<g id="Background">
			<g>
				<rect x="6.8" y="123.4" class="st3" width="323.1" height="22"/>
			</g>
		</g>
		<g id="Left_1_">
			<g>
				<path class="st4" d="M23.1,134h-6.9l2.1-2.1c0.2-0.2,0.2-0.5,0-0.7c-0.2-0.2-0.5-0.2-0.7,0l-2.5,2.6c-0.2,0.2-0.3,0.4-0.3,0.6
					v0.1c0,0.3,0.1,0.5,0.3,0.6l2.5,2.6c0.2,0.2,0.5,0.2,0.7,0c0.2-0.2,0.2-0.5,0-0.7l-2.1-2.1h6.9c0.3,0,0.5-0.3,0.5-0.5l0,0
					C23.6,134.2,23.4,134,23.1,134z"/>
			</g>
		</g>
		<g id="Right_1_">
			<g>
				<path class="st4" d="M42.5,133.8l-2.5-2.6c-0.2-0.2-0.5-0.2-0.7,0c-0.2,0.2-0.2,0.5,0,0.7l2.1,2.1h-6.9c-0.3,0-0.5,0.3-0.5,0.5
					l0,0c0,0.3,0.2,0.5,0.5,0.5h6.9l-2.1,2.1c-0.2,0.2-0.2,0.5,0,0.7s0.5,0.2,0.7,0l2.5-2.6c0.2-0.2,0.3-0.4,0.3-0.6v-0.1
					C42.9,134.2,42.7,134,42.5,133.8z"/>
			</g>
		</g>
		<g id="Refresh">
			<g>
				<path class="st4" d="M61.6,135c0-0.1-0.1-0.3-0.2-0.3c0-0.1-0.1-0.2-0.3-0.2c-0.1,0-0.3,0.1-0.3,0.3c0,1.6-1.3,2.9-2.9,2.9
					c-0.8,0-1.4-0.3-1.9-0.8c-0.4-0.5-0.8-1.2-0.8-1.9c0-0.7,0.3-1.4,0.7-1.9c0.4-0.4,1-0.7,1.7-0.8v0.6c0,0.1,0.1,0.2,0.1,0.3
					c0.1,0,0.1,0.1,0.1,0.1s0.1,0,0.1-0.1l1.6-1c0.1-0.1,0.1-0.1,0.1-0.1l0.1-0.1c0.1-0.1,0.1-0.1,0.1-0.3s-0.1-0.2-0.1-0.3
					l-0.1-0.1c0-0.1-0.1-0.1-0.1-0.1l-1.6-1c-0.1-0.1-0.2-0.1-0.3,0c-0.1,0.1-0.1,0.1-0.1,0.3v0.6c-1.8,0.1-3.2,1.6-3.2,3.4
					c0,0.1,0,0.1,0,0.2s0,0.1,0,0.2c0,1.9,1.5,3.4,3.4,3.4c1,0,1.9-0.4,2.5-1.1C61.1,136.9,61.6,136,61.6,135z"/>
			</g>
		</g>
		<g id="Settings">
			<g>
				<path class="st4" d="M323.4,131.2h-8.3c-0.1,0-0.3,0.1-0.3,0.3v0.7c0,0.1,0.1,0.3,0.3,0.3h8.3c0.1,0,0.3-0.1,0.3-0.3v-0.7
					C323.7,131.3,323.5,131.2,323.4,131.2z M323.4,133.7h-8.3c-0.1,0-0.3,0.1-0.3,0.3v0.7c0,0.1,0.1,0.3,0.3,0.3h8.3
					c0.1,0,0.3-0.1,0.3-0.3V134C323.7,133.9,323.5,133.7,323.4,133.7z M323.4,136.3h-8.3c-0.1,0-0.3,0.1-0.3,0.3v0.7
					c0,0.1,0.1,0.3,0.3,0.3h8.3c0.1,0,0.3-0.1,0.3-0.3v-0.7C323.7,136.4,323.5,136.3,323.4,136.3z"/>
			</g>
		</g>
		<g id="Adress">
			<g>
				<path class="st5" d="M306.6,129.3H74.3c-0.3,0-0.4,0.2-0.4,0.4v9.2c0,0.3,0.2,0.4,0.4,0.4h232.3c0.3,0,0.4-0.2,0.4-0.4v-9.2
					C307,129.5,306.9,129.3,306.6,129.3z"/>
			</g>
		</g>
		<g id="https_1_">
			<g id="https:_x2F__x2F_www.yourwebsite.com">
				<text transform="matrix(1.0004 0 0 1 84.9935 135.7104)" class="st6 st7 st8">https://www.</text>
				<text transform="matrix(1.0004 0 0 1 111.805 135.7104)" class="st9 st7 st8">yourwebsite</text>
				<text transform="matrix(1.0004 0 0 1 137.0247 135.7104)" class="st6 st7 st8">.com</text>
			</g>
			<g id="Icon">
				<g>
					<path class="st10" d="M80.9,133.7v-1.3c0-0.9-0.8-1.7-1.7-1.7s-1.7,0.8-1.7,1.7v1.3c-0.3,0-0.6,0.3-0.6,0.6v2.5
						c0,0.3,0.3,0.6,0.6,0.6h3.2c0.3,0,0.6-0.3,0.6-0.6v-2.5C81.5,134,81.2,133.7,80.9,133.7z M78,132.5c0-0.7,0.6-1.3,1.2-1.3
						c0.7,0,1.2,0.6,1.2,1.3v1.3H78V132.5L78,132.5z M81.1,136.9c0,0.1-0.1,0.2-0.2,0.2h-3.2c-0.1,0-0.2-0.1-0.2-0.2v-2.5
						c0-0.1,0.1-0.2,0.2-0.2h3.2c0.1,0,0.2,0.1,0.2,0.2V136.9z M79.5,134.9c0-0.1-0.1-0.2-0.2-0.2c-0.1,0-0.2,0.1-0.2,0.2v0.4
						c-0.1,0.1-0.2,0.2-0.2,0.4c0,0.3,0.2,0.4,0.4,0.4c0.3,0,0.4-0.2,0.4-0.4c0-0.1-0.1-0.3-0.2-0.4L79.5,134.9L79.5,134.9z"/>
				</g>
			</g>
		</g>
	</g>
	<g id="Caption_buttons_1_">
		<g id="Ellipse">
			<g>
				<ellipse class="st11" cx="17.3" cy="112.2" rx="3.8" ry="3.8"/>
			</g>
		</g>
		<g id="Ellipse_2">
			<g>
				<ellipse class="st12" cx="31" cy="112.2" rx="3.8" ry="3.8"/>
			</g>
		</g>
		<g id="Ellipse_3">
			<g>
				<ellipse class="st13" cx="44.6" cy="112.2" rx="3.8" ry="3.8"/>
			</g>
		</g>
	</g>
</g>
<g id="Tabs_1_">
	<g id="Right">
		<g>
			<path class="st14" d="M242.9,109.7c-0.6-1-2.1-1.8-3.4-1.8h-78.9c-1.3,0-2.7,0.8-3.1,1.8l-7.8,16h102.7L242.9,109.7z"/>
		</g>
	</g>
	<g id="Close">
		<g>
			<path class="st15" d="M162,111.8c-0.8,0-1.5,0.6-1.5,1.5s0.6,1.5,1.5,1.5c0.8,0,1.5-0.6,1.5-1.5S162.8,111.8,162,111.8z
				 M162.7,113.7l-0.4,0.3l-0.3-0.4l-0.3,0.4l-0.4-0.3l0.4-0.5l-0.4-0.5h-0.1l-0.1-0.1l0.1,0.1l0.4-0.3l0.3,0.4l0.3-0.4l0.4,0.3
				l-0.4,0.5L162.7,113.7z"/>
		</g>
	</g>
	<g id="Left">
		<g>
			<path class="st3" d="M149.4,109.7c-0.6-1-2.1-1.8-3.4-1.8H67.2c-1.3,0-2.7,0.8-3.1,1.8l-7.8,16H159L149.4,109.7z"/>
		</g>
	</g>
	<g id="Close_1_">
		<g>
			<path class="st4" d="M69.2,111.8c-0.8,0-1.5,0.6-1.5,1.5s0.6,1.5,1.5,1.5c0.8,0,1.5-0.6,1.5-1.5S70,111.8,69.2,111.8z M70,113.7
				l-0.4,0.3l-0.3-0.4l-0.3,0.4l-0.4-0.3l0.4-0.5l-0.4-0.5h-0.1l-0.1-0.1l0.1,0.1l0.4-0.3l0.3,0.4l0.3-0.4l0.4,0.3l-0.4,0.5
				L70,113.7z"/>
		</g>
	</g>
	
		<image style="overflow:visible;enable-background:new    ;" width="1140" height="705" xlink:href="done/big8/melkya2.png"  transform="matrix(0.2834 0 0 0.2835 6.4249 145.3985)">
	</image>
	<g>
		<g>
			<g>
				<g>
					<g>
						<polygon class="st16" points="81.8,293.6 78,298.4 80.8,300.6 84.9,295.3 						"/>
					</g>
				</g>
				<g>
					<path class="st16" d="M80.9,300.3l-2-2.6l-1.3-0.5l-2.2,1l2,8.1l0,0c1.2,0.3,2.4-0.6,2.4-1.8V304L80.9,300.3z"/>
				</g>
			</g>
			<g>
				<g>
					<g>
						<polygon class="st16" points="69.8,293.6 73.5,298.4 70.7,300.6 66.6,295.3 						"/>
					</g>
				</g>
				<g>
					<path class="st16" d="M70.6,300.6l1.7-2.8l1.1-0.7l2.3,0.7l-1.1,8.3l0,0c-1.1,0.4-2.4-0.3-2.6-1.5l-0.1-0.4L70.6,300.6z"/>
				</g>
			</g>
			<path class="st16" d="M102,246.2c-2.5-5.8-5.5-9.7-8.1-15.2c-3.1-0.5-6.2-1.5-9.3-2.2c0.3-0.4,0.4-0.8,0.7-1.1
				c-4.1,0.4-8.4-0.1-12.5,0.4c-1.7,0.1-3.4,0.1-5.2,0c0.2,0.3,0.4,0.6,0.6,1c-3,1-6,2.2-9,2.9c-2.3,5.8-4.8,10.2-6.6,16.4
				c-1.9,6.2-3.1,14.1-5.3,20.5c6.2,9.9,14.2,21.3,20.2,31.1c2.2-0.8,2.7-3.4,4.9-4.1c-2.8-9.1-5.2-18.3-8.3-27.3
				c3.5-6.2,6.6-12.5,9.7-18.8c1.5-3,5.6-3.2,7.4-0.4c3.6,5.5,7.1,11.1,10.4,16.8c-3.4,10.2-8,19.9-12.2,29.8c2,1.1,2,3.5,4,4.5
				c8.1-10.9,18.1-23,25.2-34.6C106.3,259.5,104.5,251.9,102,246.2z"/>
		</g>
		<g>
			<g id="XMLID_2_">
				<path class="st16" d="M84.4,170.7c-0.7-0.5-1.4-0.9-2.3-1.2c-1.5-0.6-3.1-0.6-4.6-0.5c-3.6,0.1-7.4,0.6-10.1,3.1
					c-5,4.6-4.4,15-5.3,21.3c-0.7,5-1.5,10-2.2,15l-2,23.9l27.9,0.4l9.2-1.5l-2.4-25.1c-0.5-5.5-1.3-11-2-16.5
					C90,183.7,89.8,174.6,84.4,170.7z"/>
			</g>
			<g>
				<g>
					<path class="st16" d="M80.9,150.1c-1.4-1.4-3.4-2.2-5.3-2.2c-6.8,0.1-7.4,6.7-6.1,11.8c0.6,2.3,1.7,4.5,3.6,5.9
						c0.5,0.4,1.1,0.6,1.7,0.9c-0.3,1-0.1,2.2-0.1,3.1c-0.1,0.6-0.2,1.1,0.2,1.6c0.4,0.6,1.5,0.6,2.2,0.6c0.6,0,1.1-0.1,1.6-0.4
						c0.8-0.5,0.6-1.2,0.6-1.9c-0.1-1.1,0.1-2.2,0-3.2c0.2-0.1,0.4-0.2,0.6-0.3c1.8-1.3,2.4-3.8,2.7-6
						C82.9,157,83.2,152.3,80.9,150.1z"/>
				</g>
				<g>
					<path class="st16" d="M81.4,156.4c0.2,0.3,0.6,0.3,0.9,0.5c0.9,0.7,0,2.2,0.6,3.2c0.7,1.3,0.6,3.5-0.8,4.6
						c-0.4,0.4-1.1,0.6-1.3,1.1c-0.2,0.6,0.3,1.5-0.3,2c0.7,0.8,2,0.6,2.9,0.2c1-0.4,1.9-1,2.9-1c0.3,0,0.7,0.1,1-0.2
						c0.1-0.1,0.1-0.4,0.1-0.6c0.3-2.4,3.1-1.8,3.4-3.7c0.1-0.5-0.5-1.8-0.5-2.5c0-1.1,0.6-2,0.3-3.1c-0.1-0.4-0.4-0.8-0.6-1.3
						c-0.3-1,0-1.9,0.2-2.9c0.2-1,0.2-2.1-0.6-2.7c-0.6-0.4-1.5-0.4-2.1-0.9c-1.3-1-0.4-3.8-1.8-4.5c-0.8-0.4-1.7,0.1-2.5-0.1
						c-0.9-0.1-1.6-0.8-2.4-1.4c-0.8-0.5-1.9-0.8-2.5-0.1c-0.5,0.6-0.4,1.5-0.9,2.1c-0.4,0.5-1.1,0.6-1.7,0.9
						c-2.8,1.3,2.5,2.2,3.2,3.1c0.6,0.8,1.3,2.2,1.8,3.2C81.2,153.6,80.8,155.8,81.4,156.4z"/>
				</g>
				<g>
					<path class="st16" d="M73.2,149.8c-3.4,0.7-1.3,3.3-2.5,5.4c-0.4,0.8-1.6,1.1-1.8,2c-0.2,0.7,0.3,1.4,0.8,2
						c0.4,0.6,0.8,1.5,0.3,2c-0.1,0.2-0.4,0.3-0.5,0.4c-0.3,0.5,0.4,1,0.9,1.3c0.6,0.3,1.2,0.7,1,1.3c-0.6,1.6-1,1,0,2.3
						c0.3,0.3,0.7,0.3,0.9,0.6c-0.4,0.5-1.1,0.6-1.8,0.4c-1.6-0.6-1.1,0.1-2.4,0.4c-1.3,0.2-1.3-0.2-2.5-1c-1.1-0.7-3.3-1.1-3.7-2.5
						c-0.2-0.8,0.4-1.6,0.2-2.4c-0.2-0.8-1-1.3-1.3-2c-0.8-1.4,0.4-2.9,0.6-4.4c0.3-2.1-0.9-4.6,1.3-6c0.4-0.3,1-0.4,1.5-0.7
						c1.4-0.8,1.7-2.2,2.2-3.5c0.6-1.3,2-2.6,3.8-2.3c1.6,0.3,2.4,1.8,4,1.9c0.6,0.1,1.2-0.1,1.7,0.1c0.4,0.1,0.6,0.4,0.8,0.8
						c0.4,0.7,1.5,3.1,0.6,3.8C76.2,150.6,74.6,149.5,73.2,149.8z"/>
				</g>
				<g>
					<path class="st16" d="M86.3,157.9c0.2-0.3,0.3-0.5,0.4-0.8c0.1-0.4-0.2-0.8-0.6-1.1c-0.3-0.1-0.5-0.2-0.8-0.3
						c-0.5-0.2-1-0.4-0.7-1.2c0.1-0.1,0.1-0.3,0.2-0.4c0.2-0.4,0.3-1,0.1-1.5c-0.1-0.4-0.4-0.7-0.7-0.8c-0.3-0.1-0.6,0-0.9,0
						c-1.1-0.1-0.7-1.1-0.6-1.8c0.1-1.1-0.6-2.1-1.8-2.2c-0.2,0-0.2,0.3,0,0.3c0.6,0.1,1.1,0.4,1.3,0.9c0.3,0.5,0.2,1,0.1,1.5
						c-0.1,0.4-0.1,1,0.3,1.3c0.6,0.5,1.5-0.2,2,0.6c0.4,0.8-0.1,1.3-0.3,2c-0.6,1.7,3,1.2,1.9,3.1c-0.3,0.5-0.8,1-0.7,1.6
						c0.1,0.4,0.4,0.8,0.9,0.8c0.2,0,0.2-0.3,0-0.3c-0.8,0.1-0.6-0.8-0.4-1.2C86,158.2,86.1,158,86.3,157.9z"/>
				</g>
				<g>
					<path class="st16" d="M70.7,149c-1-0.1-2.5-0.1-2.6,1.1c-0.1,0.6,0.3,1.2,0.4,1.8c0.2,1.3-1.1,1.5-1.9,1.9
						c-1,0.4-1.8,1.5-0.8,2.3c0.1,0.1,0.3,0.2,0.4,0.3c-0.1,0.3-0.1,0.6-0.2,0.8c-0.1,0.1-0.3,0.2-0.4,0.3c-0.1,0.1-0.3,0.3-0.3,0.5
						c-0.1,0.4,0.2,0.6,0.5,0.6c0.2,0,0.2-0.3,0-0.3c0-0.3,0.1-0.5,0.1-0.7c0.1-0.1,0.1-0.1,0.3-0.1c0.1-0.1,0.2-0.1,0.3-0.2
						c0.1-0.1,0.2-0.2,0.3-0.3c0.1-0.3,0.1-0.6-0.2-0.8c-0.3-0.3-0.4-0.3-0.6-0.6c-0.3-0.6,0.1-1,0.6-1.3c0.5-0.3,1.1-0.4,1.7-0.7
						c0.8-0.5,1-1.3,0.6-2.1c-0.2-0.6-0.6-1.5,0.1-2c0.5-0.4,1.3-0.3,1.9-0.2C70.9,149.3,70.9,149.1,70.7,149z"/>
				</g>
				<g>
					<path class="st16" d="M64.3,154c0.2-0.1,0.1-0.3-0.1-0.3c-0.8,0.2-1.7,0.6-1.7,1.5c0,0.3,0.1,0.5,0.3,0.7
						c0.3,0.3,0.7,0.3,1,0.6c0.5,0.6-0.1,1.5-1,1.2c-0.2-0.1-0.3,0.2-0.1,0.3c0.8,0.3,1.6-0.3,1.5-1.1c-0.1-0.4-0.3-0.7-0.7-0.9
						c-0.6-0.3-1-0.8-0.5-1.3C63.4,154.2,63.9,154.1,64.3,154z"/>
				</g>
			</g>
		</g>
		<g>
			<g>
				<g>
					<path id="SVGID_1_" class="st16" d="M113.2,77.9c0-21.4-17-38.8-38-38.8s-38,17.4-38,38.8c0,7.6,2.2,14.7,5.9,20.7l0,0
						c10.6,18.1,13,33.2,13,33.2h19.1h19.1c0,0,2.4-15.2,13-33.2l0,0C111,92.6,113.2,85.5,113.2,77.9z"/>
				</g>
				<g>
					<g>
						<g>
							<defs>
								<path id="SVGID_2_" d="M113.2,77.9c0-21.4-17-38.8-38-38.8s-38,17.4-38,38.8c0,7.6,2.2,14.7,5.9,20.7l0,0
									c10.6,18.1,13,33.2,13,33.2h19.1h19.1c0,0,2.4-15.2,13-33.2l0,0C111,92.6,113.2,85.5,113.2,77.9z"/>
							</defs>
							<clipPath id="SVGID_3_">
								<use xlink:href="#SVGID_2_"  style="overflow:visible;"/>
							</clipPath>
							<g class="st17">
								<rect x="27.5" y="78.5" class="st16" width="102.1" height="14.1"/>
								<rect x="27.5" y="92.5" class="st16" width="102.1" height="14.1"/>
								<rect x="27.5" y="106.5" class="st16" width="102.1" height="14.1"/>
								<rect x="27.5" y="120.6" class="st16" width="102.1" height="14.1"/>
								<rect x="27.5" y="36.3" class="st16" width="102.1" height="14.1"/>
								<rect x="27.5" y="50.4" class="st16" width="102.1" height="14.1"/>
								<rect x="27.5" y="64.4" class="st16" width="102.1" height="14.1"/>
							</g>
						</g>
					</g>
				</g>
			</g>
			<g class="st18">
				<path class="st16" d="M43.6,81.3c0-18.7,14.8-33.9,33.2-33.9c10.7,0,20.2,5.2,26.3,13.2c-5.7-10.1-16.5-17-28.8-17
					c-18.3,0-33.2,15.2-33.2,33.9c0,7.8,2.5,14.9,6.9,20.6C45.1,93.2,43.6,87.5,43.6,81.3z"/>
			</g>
			<g>
				<polygon class="st16" points="67.9,132 63.4,82.4 69.8,87.8 75.4,78.8 81.1,87.5 87.4,82.4 82.7,132 84.7,132 89.7,77.8 
					81.5,84.6 75.3,75.1 69.3,84.8 60.9,77.8 66,132 				"/>
			</g>
			<g>
				<path id="XMLID_1_" class="st16" d="M63.9,159.8v6.1c0,2,1.6,3.6,3.5,3.6H83c1.9,0,3.5-1.6,3.5-3.6v-6.1L63.9,159.8L63.9,159.8z
					"/>
				<path class="st16" d="M55.7,132v25.8c0,1.1,0.8,2,1.8,2h35.4c1,0,1.8-0.9,1.8-2V132H55.7z"/>
				<g>
					<rect x="55.7" y="138.4" class="st16" width="39.1" height="4.8"/>
					<rect x="55.7" y="148.6" class="st16" width="39.1" height="4.8"/>
				</g>
				<g>
					<path class="st16" d="M77.1,148.6h17.7v-5.4H83.9C81.6,145.3,79.3,147.1,77.1,148.6z"/>
					<path class="st16" d="M94.7,138.4V132h-0.6c-1.8,2.4-3.6,4.5-5.4,6.4H94.7z"/>
					<path class="st16" d="M57.5,159.8h35.4c1,0,1.8-0.9,1.8-2v-4.5H69.2c-5.2,2.7-9.9,4.1-13.5,5C55.9,159.2,56.6,159.8,57.5,159.8
						z"/>
					<path class="st16" d="M83.9,143.2h10.9v-4.8h-6C87.1,140.2,85.4,141.8,83.9,143.2z"/>
					<path class="st16" d="M69.2,153.4h25.5v-4.8H77.1C74.4,150.5,71.8,152.1,69.2,153.4z"/>
				</g>
				<path class="st16" d="M86.5,163.5c-4.4,4.3-12.9,5.7-15.7,6H83c1.9,0,3.5-1.6,3.5-3.6V163.5z"/>
			</g>
		</g>
		<g>
			<g>
				<path class="st16" d="M99,144.4c-0.3-1.1-0.9-2.1-1.7-2.9c-0.6-0.5-2.6-2-3.4-0.9c-0.1,0.1-0.1,0.1-0.1,0.3
					c-0.1,0.6-0.1,1.8,0.3,2.4c0.4,0.5,1,0.3,1.4,0.8c0.3,0.3,0.4,0.9,0,1.1c-0.2,0.1-0.4,0.1-0.7,0.1c-0.3,0.1-0.5,0.3-0.4,0.5
					c0,0.1,0.1,0.2,0.3,0.3c0.5,0.4,1,0.8,1.5,1.1c0.7,0.6,1.5,1.3,1.3,2.2c0.8,0.1,1.6,0,2.4-0.1C99.6,147.6,99.5,145.9,99,144.4z"
					/>
			</g>
			<g>
				<path class="st16" d="M83.5,181.6c-0.3-1-0.6-1.9-0.9-2.9c-0.1-0.6-2-9.3-0.5-9c3.2,0.7,6.5,0.8,9.7,0.5
					c0.5-0.1,5.4-0.4,5.4-0.8c-0.1-4.9-0.2-9.8-0.5-14.6c-0.1-2.4-0.6-4.9-0.6-7.4c0-1,0-0.8,0.8-1.3c0.7-0.3,1.8-0.6,2.5,0
					c0.6,0.5,0.8,1.3,0.9,2.1c1.3,6.1,3.5,12,5.3,18c1.2,3.9,3.4,9.3,0.8,13.2c-0.8,1.3-2.2,2.1-3.5,2.8c-4.4,2.5-8.8,4.7-13.5,6.6
					c-0.6,0.3-1.1,0.4-1.7,0.3c-0.8-0.2-1.4-1-1.8-1.8C84.9,185.4,84.1,183.6,83.5,181.6z"/>
			</g>
		</g>
		<g>
			<g>
				<path class="st16" d="M52.3,146c0.3-1.1,0.9-2.1,1.7-2.9c0.6-0.5,2.6-2,3.4-0.9c0.1,0.1,0.1,0.1,0.1,0.3
					c0.1,0.6,0.1,1.8-0.3,2.4c-0.4,0.5-1,0.3-1.4,0.8c-0.3,0.3-0.4,0.9,0,1.1c0.2,0.1,0.4,0.1,0.7,0.1c0.3,0.1,0.5,0.3,0.4,0.5
					c0,0.1-0.1,0.2-0.3,0.3c-0.5,0.4-1,0.8-1.5,1.1c-0.7,0.6-1.5,1.3-1.3,2.2c-0.8,0.1-1.6,0-2.4-0.1
					C51.7,149.3,51.8,147.5,52.3,146z"/>
			</g>
			<g>
				<path class="st16" d="M69.1,183.5c0.4-2.7,0.8-5.1,0.8-5.5c0-1.3,0.2-5.8-1.1-6.5c-1-0.5-5,1-6.4,0.8c-1.7-0.2-3.2-1.2-4.2-2.5
					c-1-1.3-1.7-2.9-2.2-4.5c-0.9-2.5-2-5.4-1.7-8.1c0.3-2.7,1-5.3,1-8.1c0-1,0-0.8-0.8-1.3c-0.7-0.3-1.8-0.6-2.5,0
					c-1.7,1.5-1.8,4.8-2.4,6.8c-0.8,3.2-1.6,6.4-2.4,9.6c-0.5,2-1,4-0.7,6c0.3,2,1.3,3.9,2.5,5.7c4.5,6.6,10.7,12,18,15.3
					C67.5,191.5,68.4,187.3,69.1,183.5z"/>
			</g>
		</g>
	</g>
	<g>
		<g>
			<g>
				<g>
					<g>
						<polygon class="st19" points="77.9,292.4 74.2,297.1 77,299.3 81.1,294 						"/>
					</g>
				</g>
				<g>
					<path class="st20" d="M77.1,299l-2-2.6l-1.3-0.5l-2.2,1l2,8.1l0,0c1.2,0.3,2.4-0.6,2.4-1.8v-0.4L77.1,299z"/>
				</g>
			</g>
			<g>
				<g>
					<g>
						<polygon class="st19" points="66,292.4 69.7,297.1 66.9,299.3 62.8,294 						"/>
					</g>
				</g>
				<g>
					<path class="st20" d="M66.8,299.3l1.7-2.8l1.1-0.7l2.3,0.7l-1.1,8.3l0,0c-1.1,0.4-2.4-0.3-2.6-1.5l-0.1-0.4L66.8,299.3z"/>
				</g>
			</g>
			<path class="st20" d="M98.2,244.9c-2.5-5.8-5.5-9.7-8.1-15.2c-3.1-0.5-6.2-1.5-9.3-2.2c0.3-0.4,0.4-0.8,0.7-1.1
				c-4.1,0.4-8.4-0.1-12.5,0.4c-1.7,0.1-3.4,0.1-5.2,0c0.2,0.3,0.4,0.6,0.6,1c-3,1-6,2.2-9,2.9c-2.3,5.8-4.8,10.2-6.6,16.4
				c-1.9,6.2-3.1,14.1-5.3,20.5c6.2,9.9,14.2,21.3,20.2,31.1c2.2-0.8,2.7-3.4,4.9-4.1c-2.8-9.1-5.2-18.3-8.3-27.3
				c3.5-6.2,6.6-12.5,9.7-18.8c1.5-3,5.6-3.2,7.4-0.4c3.6,5.5,7.1,11.1,10.4,16.8c-3.4,10.2-8,19.9-12.2,29.8c2,1.1,2,3.5,4,4.5
				c8.1-10.9,18.1-23,25.2-34.6C102.4,258.3,100.7,250.7,98.2,244.9z"/>
		</g>
		<g>
			<g id="XMLID_18_">
				<path class="st21" d="M80.6,169.4c-0.7-0.5-1.4-0.9-2.3-1.2c-1.5-0.6-3.1-0.6-4.6-0.5c-3.6,0.1-7.4,0.6-10.1,3.1
					c-5,4.6-4.4,15-5.3,21.3c-0.7,5-1.5,10-2.2,15l-2,23.9l27.9,0.4l9.2-1.5l-2.4-25.1c-0.5-5.5-1.3-11-2-16.5
					C86.1,182.4,86,173.3,80.6,169.4z"/>
			</g>
			<g>
				<g>
					<path class="st19" d="M77.1,148.8c-1.4-1.4-3.4-2.2-5.3-2.2c-6.8,0.1-7.4,6.7-6.1,11.8c0.6,2.3,1.7,4.5,3.6,5.9
						c0.5,0.4,1.1,0.6,1.7,0.9c-0.3,1-0.1,2.2-0.1,3.1c-0.1,0.6-0.2,1.1,0.2,1.6c0.4,0.6,1.5,0.6,2.2,0.6c0.6,0,1.1-0.1,1.6-0.4
						c0.8-0.5,0.6-1.2,0.6-1.9c-0.1-1.1,0.1-2.2,0-3.2c0.2-0.1,0.4-0.2,0.6-0.3c1.8-1.3,2.4-3.8,2.7-6
						C79.1,155.8,79.3,151,77.1,148.8z"/>
				</g>
				<g>
					<path class="st20" d="M77.6,155.1c0.2,0.3,0.6,0.3,0.9,0.5c0.9,0.7,0,2.2,0.6,3.2c0.7,1.3,0.6,3.5-0.8,4.6
						c-0.4,0.4-1.1,0.6-1.3,1.1c-0.2,0.6,0.3,1.5-0.3,2c0.7,0.8,2,0.6,2.9,0.2c1-0.4,1.9-1,2.9-1c0.3,0,0.7,0.1,1-0.2
						c0.1-0.1,0.1-0.4,0.1-0.6c0.3-2.4,3.1-1.8,3.4-3.7c0.1-0.5-0.5-1.8-0.5-2.5c0-1.1,0.6-2,0.3-3.1c-0.1-0.4-0.4-0.8-0.6-1.3
						c-0.3-1,0-1.9,0.2-2.9c0.2-1,0.2-2.1-0.6-2.7c-0.6-0.4-1.5-0.4-2.1-0.9c-1.3-1-0.4-3.8-1.8-4.5c-0.8-0.4-1.7,0.1-2.5-0.1
						c-0.9-0.1-1.6-0.8-2.4-1.4c-0.8-0.5-1.9-0.8-2.5-0.1c-0.5,0.6-0.4,1.5-0.9,2.1c-0.4,0.5-1.1,0.6-1.7,0.9
						c-2.8,1.3,2.5,2.2,3.2,3.1c0.6,0.8,1.3,2.2,1.8,3.2C77.4,152.3,77,154.5,77.6,155.1z"/>
				</g>
				<g>
					<path class="st20" d="M69.3,148.5c-3.4,0.7-1.3,3.3-2.5,5.4c-0.4,0.8-1.6,1.1-1.8,2c-0.2,0.7,0.3,1.4,0.8,2
						c0.4,0.6,0.8,1.5,0.3,2c-0.1,0.2-0.4,0.3-0.5,0.4c-0.3,0.5,0.4,1,0.9,1.3c0.6,0.3,1.2,0.7,1,1.3c-0.6,1.6-1,1,0,2.3
						c0.3,0.3,0.7,0.3,0.9,0.6c-0.4,0.5-1.1,0.6-1.8,0.4c-1.6-0.6-1.1,0.1-2.4,0.4c-1.3,0.2-1.3-0.2-2.5-1c-1.1-0.7-3.3-1.1-3.7-2.5
						c-0.2-0.8,0.4-1.6,0.2-2.4s-1-1.3-1.3-2c-0.8-1.4,0.4-2.9,0.6-4.4c0.3-2.1-0.9-4.6,1.3-6c0.4-0.3,1-0.4,1.5-0.7
						c1.4-0.8,1.7-2.2,2.2-3.5c0.6-1.3,2-2.6,3.8-2.3c1.6,0.3,2.4,1.8,4,1.9c0.6,0.1,1.2-0.1,1.7,0.1c0.4,0.1,0.6,0.4,0.8,0.8
						c0.4,0.7,1.5,3.1,0.6,3.8C72.3,149.3,70.8,148.2,69.3,148.5z"/>
				</g>
				<g>
					<path class="st22" d="M82.5,156.6c0.2-0.3,0.3-0.5,0.4-0.8c0.1-0.4-0.2-0.8-0.6-1.1c-0.3-0.1-0.5-0.2-0.8-0.3
						c-0.5-0.2-1-0.4-0.7-1.2c0.1-0.1,0.1-0.3,0.2-0.4c0.2-0.4,0.3-1,0.1-1.5c-0.1-0.4-0.4-0.7-0.7-0.8c-0.3-0.1-0.6,0-0.9,0
						c-1.1-0.1-0.7-1.1-0.6-1.8c0.1-1.1-0.6-2.1-1.8-2.2c-0.2,0-0.2,0.3,0,0.3c0.6,0.1,1.1,0.4,1.3,0.9c0.3,0.5,0.2,1,0.1,1.5
						c-0.1,0.4-0.1,1,0.3,1.3c0.6,0.5,1.5-0.2,2,0.6c0.4,0.8-0.1,1.3-0.3,2c-0.6,1.7,3,1.2,1.9,3.1c-0.3,0.5-0.8,1-0.7,1.6
						c0.1,0.4,0.4,0.8,0.9,0.8c0.2,0,0.2-0.3,0-0.3c-0.8,0.1-0.6-0.8-0.4-1.2C82.2,156.9,82.3,156.8,82.5,156.6z"/>
				</g>
				<g>
					<path class="st22" d="M66.9,147.7c-1-0.1-2.5-0.1-2.6,1.1c-0.1,0.6,0.3,1.2,0.4,1.8c0.2,1.3-1.1,1.5-1.9,1.9
						c-1,0.4-1.8,1.5-0.8,2.3c0.1,0.1,0.3,0.2,0.4,0.3c-0.1,0.3-0.1,0.6-0.2,0.8c-0.1,0.1-0.3,0.2-0.4,0.3s-0.3,0.3-0.3,0.5
						c-0.1,0.4,0.2,0.6,0.5,0.6c0.2,0,0.2-0.3,0-0.3c0-0.3,0.1-0.5,0.1-0.7c0.1-0.1,0.1-0.1,0.3-0.1c0.1-0.1,0.2-0.1,0.3-0.2
						c0.1-0.1,0.2-0.2,0.3-0.3c0.1-0.3,0.1-0.6-0.2-0.8c-0.3-0.3-0.4-0.3-0.6-0.6c-0.3-0.6,0.1-1,0.6-1.3c0.5-0.3,1.1-0.4,1.7-0.7
						c0.8-0.5,1-1.3,0.6-2.1c-0.2-0.6-0.6-1.5,0.1-2c0.5-0.4,1.3-0.3,1.9-0.2C67,148.1,67,147.8,66.9,147.7z"/>
				</g>
				<g>
					<path class="st22" d="M60.5,152.7c0.2-0.1,0.1-0.3-0.1-0.3c-0.8,0.2-1.7,0.6-1.7,1.5c0,0.3,0.1,0.5,0.3,0.7
						c0.3,0.3,0.7,0.3,1,0.6c0.5,0.6-0.1,1.5-1,1.2c-0.2-0.1-0.3,0.2-0.1,0.3c0.8,0.3,1.6-0.3,1.5-1.1c-0.1-0.4-0.3-0.7-0.7-0.9
						c-0.6-0.3-1-0.8-0.5-1.3C59.5,153,60,152.8,60.5,152.7z"/>
				</g>
			</g>
		</g>
		<g>
			<g>
				<g>
					<g>
						<g>
							<defs>
								<path id="SVGID_4_" d="M109.4,76.6c0-21.4-17-38.8-38-38.8s-38,17.4-38,38.8c0,7.6,2.2,14.7,5.9,20.7l0,0
									c10.6,18.1,13,33.2,13,33.2h19.1h19.1c0,0,2.4-15.2,13-33.2l0,0C107.2,91.3,109.4,84.3,109.4,76.6z"/>
							</defs>
							<clipPath id="SVGID_5_">
								<use xlink:href="#SVGID_4_"  style="overflow:visible;"/>
							</clipPath>
							<g class="st23">
								<rect x="23.6" y="77.2" class="st24" width="102.1" height="14.1"/>
								<rect x="23.6" y="91.2" class="st25" width="102.1" height="14.1"/>
								<rect x="23.6" y="105.3" class="st26" width="102.1" height="14.1"/>
								<rect x="23.6" y="119.3" class="st27" width="102.1" height="14.1"/>
								<rect x="23.6" y="35.1" class="st24" width="102.1" height="14.1"/>
								<rect x="23.6" y="49.1" class="st26" width="102.1" height="14.1"/>
								<rect x="23.6" y="63.1" class="st28" width="102.1" height="14.1"/>
							</g>
						</g>
					</g>
				</g>
			</g>
			<g class="st18">
				<path class="st5" d="M39.7,80c0-18.7,14.8-33.9,33.2-33.9c10.7,0,20.2,5.2,26.3,13.2c-5.7-10.1-16.5-17-28.8-17
					c-18.3,0-33.2,15.2-33.2,33.9c0,7.8,2.5,14.9,6.9,20.6C41.3,91.9,39.7,86.2,39.7,80z"/>
			</g>
			<g>
				<polygon class="st29" points="64.1,130.7 59.5,81.1 66,86.6 71.6,77.5 77.2,86.2 83.5,81.1 78.9,130.7 80.9,130.7 85.9,76.5 
					77.7,83.3 71.5,73.8 65.5,83.6 57.1,76.5 62.1,130.7 				"/>
			</g>
			<g>
				<path id="XMLID_17_" class="st30" d="M60,158.6v6.1c0,2,1.6,3.6,3.5,3.6h15.7c1.9,0,3.5-1.6,3.5-3.6v-6.1H60L60,158.6z"/>
				<path class="st31" d="M51.8,130.7v25.8c0,1.1,0.8,2,1.8,2h35.4c1,0,1.8-0.9,1.8-2v-25.8H51.8z"/>
				<g>
					<rect x="51.8" y="137.2" class="st32" width="39.1" height="4.8"/>
					<rect x="51.8" y="147.4" class="st32" width="39.1" height="4.8"/>
				</g>
				<g>
					<path class="st33" d="M73.3,147.4H91v-5.4H80.1C77.7,144,75.5,145.8,73.3,147.4z"/>
					<path class="st33" d="M90.9,137.2v-6.4h-0.6c-1.8,2.4-3.6,4.5-5.4,6.4H90.9z"/>
					<path class="st33" d="M53.7,158.6h35.4c1,0,1.8-0.9,1.8-2v-4.5H65.4c-5.2,2.7-9.9,4.1-13.5,5C52.1,157.9,52.8,158.6,53.7,158.6
						z"/>
					<path class="st30" d="M80,141.9h10.9v-4.8h-6C83.3,138.9,81.6,140.5,80,141.9z"/>
					<path class="st30" d="M65.4,152.1h25.5v-4.8H73.3C70.5,149.3,67.9,150.9,65.4,152.1z"/>
				</g>
				<path class="st34" d="M82.7,162.3c-4.4,4.3-12.9,5.7-15.7,6h12.2c1.9,0,3.5-1.6,3.5-3.6V162.3z"/>
			</g>
		</g>
		<g>
			<g>
				<path class="st19" d="M95.2,143.1c-0.3-1.1-0.9-2.1-1.7-2.9c-0.6-0.5-2.6-2-3.4-0.9c-0.1,0.1-0.1,0.1-0.1,0.3
					c-0.1,0.6-0.1,1.8,0.3,2.4c0.4,0.5,1,0.3,1.4,0.8c0.3,0.3,0.4,0.9,0,1.1c-0.2,0.1-0.4,0.1-0.7,0.1c-0.3,0.1-0.5,0.3-0.4,0.5
					c0,0.1,0.1,0.2,0.3,0.3c0.5,0.4,1,0.8,1.5,1.1c0.7,0.6,1.5,1.3,1.3,2.2c0.8,0.1,1.6,0,2.4-0.1C95.8,146.3,95.6,144.6,95.2,143.1
					z"/>
			</g>
			<g>
				<path class="st21" d="M79.7,180.3c-0.3-1-0.6-1.9-0.9-2.9c-0.1-0.6-2-9.3-0.5-9c3.2,0.7,6.5,0.8,9.7,0.5
					c0.5-0.1,5.4-0.4,5.4-0.8c-0.1-4.9-0.2-9.8-0.5-14.6c-0.1-2.4-0.6-4.9-0.6-7.4c0-1,0-0.8,0.8-1.3c0.7-0.3,1.8-0.6,2.5,0
					c0.6,0.5,0.8,1.3,0.9,2.1c1.3,6.1,3.5,12,5.3,18c1.2,3.9,3.4,9.3,0.8,13.2c-0.8,1.3-2.2,2.1-3.5,2.8c-4.4,2.5-8.8,4.7-13.5,6.6
					c-0.6,0.3-1.1,0.4-1.7,0.3c-0.8-0.2-1.4-1-1.8-1.8C81.1,184.2,80.3,182.3,79.7,180.3z"/>
			</g>
		</g>
		<g>
			<g>
				<path class="st19" d="M48.5,144.7c0.3-1.1,0.9-2.1,1.7-2.9c0.6-0.5,2.6-2,3.4-0.9c0.1,0.1,0.1,0.1,0.1,0.3
					c0.1,0.6,0.1,1.8-0.3,2.4c-0.4,0.5-1,0.3-1.4,0.8c-0.3,0.3-0.4,0.9,0,1.1c0.2,0.1,0.4,0.1,0.7,0.1c0.3,0.1,0.5,0.3,0.4,0.5
					c0,0.1-0.1,0.2-0.3,0.3c-0.5,0.4-1,0.8-1.5,1.1c-0.7,0.6-1.5,1.3-1.3,2.2c-0.8,0.1-1.6,0-2.4-0.1C47.9,148,48,146.3,48.5,144.7z
					"/>
			</g>
			<g>
				<path class="st21" d="M65.3,182.2c0.4-2.7,0.8-5.1,0.8-5.5c0-1.3,0.2-5.8-1.1-6.5c-1-0.5-5,1-6.4,0.8c-1.7-0.2-3.2-1.2-4.2-2.5
					c-1-1.3-1.7-2.9-2.2-4.5c-0.9-2.5-2-5.4-1.7-8.1c0.3-2.7,1-5.3,1-8.1c0-1,0-0.8-0.8-1.3c-0.7-0.3-1.8-0.6-2.5,0
					c-1.7,1.5-1.8,4.8-2.4,6.8c-0.8,3.2-1.6,6.4-2.4,9.6c-0.5,2-1,4-0.7,6c0.3,2,1.3,3.9,2.5,5.7c4.5,6.6,10.7,12,18,15.3
					C63.7,190.3,64.6,186,65.3,182.2z"/>
			</g>
		</g>
	</g>
	<ellipse class="st35" cx="74.5" cy="363.6" rx="38.6" ry="7.8"/>
	<path class="st24" d="M246.5,88.5c0,0-8.7-9.8-31.3-33.5s6.9-31.5,14.8-11.6C237.8,63.4,246.5,88.5,246.5,88.5z"/>
	<path class="st24" d="M280.4,84.8c0,0,1.6-14.8,4.1-50.7s32.3-42.5,21.4-13.9C295,48.8,280.4,84.8,280.4,84.8z"/>
	<path class="st24" d="M318.1,92c0,0,10.5-7.8,37.6-26.4c27.1-18.5-0.3-32.2-12.1-14.3C331.7,69.2,318.1,92,318.1,92z"/>
</g>
</svg>
