<?xml version="1.0" encoding="utf-8"?>
<!-- Generator: Adobe Illustrator 22.1.0, SVG Export Plug-In . SVG Version: 6.00 Build 0)  -->
<svg version="1.1" id="Layer_1" xmlns="http://www.w3.org/2000/svg" xmlns:xlink="http://www.w3.org/1999/xlink" x="0px" y="0px"
	 viewBox="0 0 372.7 234" style="enable-background:new 0 0 372.7 234;" xml:space="preserve">
<style type="text/css">
	.st0{fill:#D6D6D6;}
	.st1{display:none;}
	.st2{display:inline;}
	.st3{fill:#FFFFFF;}
	.st4{fill:#0B3003;}
	.st5{fill:#C2BEBC;}
	.st6{fill:#B1E264;}
	.st7{fill:#4DA8F2;}
	.st8{fill:#E8E8E8;}
	.st9{fill:#C2C2C2;}
	.st10{fill:#C9FF7B;}
	.st11{fill:#75BC2A;}
	.st12{fill:#93D830;}
	.st13{fill:#95EA32;}
	.st14{fill:#94FF36;}
	.st15{fill:#356309;}
	.st16{fill:#1A598C;}
	.st17{fill:#FDFFE6;}
	.st18{fill:#282828;}
	.st19{fill:#F5F5F5;}
	.st20{fill:#EBEBEB;}
	.st21{fill:#DEDEDE;}
	.st22{fill:#292C47;}
	.st23{fill:#E3F2FF;}
	.st24{fill:#EEA886;}
	.st25{fill:#EAD8CF;}
	.st26{fill:#DA9B5B;}
	.st27{fill:#424773;}
	.st28{fill:#3A3F47;}
	.st29{fill:#E2D2CA;}
	.st30{fill:#323657;}
	.st31{fill:#252840;}
	.st32{fill:#2F4563;}
	.st33{fill:#354C70;}
	.st34{fill:#2B3B57;}
	.st35{fill:#FF7E55;}
	.st36{fill:#353A3D;}
	.st37{fill:#E55353;}
	.st38{fill:#FFA88C;}
	.st39{fill:#CF8C6C;}
	.st40{fill:#3B3F66;}
	.st41{fill:#555C94;}
	.st42{fill:#E8734D;}
	.st43{fill:#D9D0C4;}
	.st44{fill:#3B4427;}
	.st45{fill:#EEA987;}
	.st46{fill:#494F80;}
	.st47{fill:#FCCCA2;}
	.st48{fill:#C48A6F;}
	.st49{fill:#285173;}
	.st50{fill:#DB9C7C;}
	.st51{fill:#B0573A;}
	.st52{fill:#C9F4EB;}
	.st53{fill:#9FDD28;}
	.st54{fill:#ABC969;}
	.st55{fill:#BDDBAB;}
	.st56{fill:#F2D0B1;}
	.st57{fill:#859174;}
	.st58{fill:#547F21;}
	.st59{fill:#90C453;}
	.st60{fill:#F7E3BA;}
	.st61{clip-path:url(#SVGID_2_);}
</style>
<g id="Layer_1_1_">
	<rect x="7.2" y="4.9" class="st0" width="361.7" height="223.7"/>
	
		<image style="overflow:visible;enable-background:new    ;" width="1140" height="705" xlink:href="done/big3/portal2.png"  transform="matrix(0.3173 0 0 0.3173 5.542 3.4373)">
	</image>
	<g class="st1">
		<g class="st2">
			<g>
				<g>
					<path class="st3" d="M80.5,231.2H58.8v-87.7h21.6L80.5,231.2L80.5,231.2z M59.1,230.8h21v-87.1h-21V230.8L59.1,230.8z"/>
				</g>
			</g>
			<g>
				<g>
					<path class="st3" d="M166.2,184.7l-0.3-0.1c0.1-0.1,0.3-0.3,0.6-0.7c0.2-0.3,0.5-0.5,0.8-0.9l0.2,0.2c-0.3,0.3-0.6,0.7-0.8,0.9
						C166.4,184.4,166.2,184.6,166.2,184.7z M168.8,181.6l-0.2-0.2c0.4-0.5,0.8-1.1,1.2-1.7l0.3,0.2
						C169.5,180.5,169.1,181,168.8,181.6z M-7.5,179.4L-7.5,179.4l0.2-0.3l0.1,0.1L-7.5,179.4z M171,178.1l-0.3-0.2
						c0.3-0.6,0.7-1.2,1-1.8l0.3,0.1C171.7,177,171.4,177.6,171,178.1z M-8.8,177.8c-0.4-0.5-0.8-1.1-1.1-1.7l0.3-0.2
						c0.3,0.6,0.7,1.2,1.1,1.7L-8.8,177.8z M172.9,174.5l-0.3-0.1c0.3-0.6,0.6-1.2,0.8-1.9l0.3,0.1
						C173.5,173.3,173.2,173.9,172.9,174.5z M-10.9,174.2c-0.3-0.6-0.6-1.2-0.8-1.9l0.3-0.1c0.3,0.6,0.5,1.3,0.8,1.9L-10.9,174.2z
						 M174.5,170.7l-0.3-0.1c0.2-0.6,0.4-1.3,0.6-1.9l0.3,0.1C174.9,169.4,174.7,170.1,174.5,170.7z M-12.3,170.3
						c-0.2-0.7-0.4-1.3-0.5-2l0.3-0.1c0.2,0.7,0.3,1.3,0.5,2L-12.3,170.3z M175.7,166.8l-0.3-0.1c0.2-0.7,0.3-1.3,0.5-2l0.3,0.1
						C176,165.4,175.9,166.1,175.7,166.8z M-13.3,166.3c-0.1-0.7-0.2-1.4-0.3-2.1h0.3c0.1,0.7,0.2,1.4,0.3,2L-13.3,166.3z
						 M176.6,162.8l-0.3-0.1c0.1-0.7,0.2-1.3,0.3-2h0.3C176.8,161.4,176.7,162.1,176.6,162.8z M-13.6,162.2c0-0.1,0-0.2,0-0.3
						c0-0.6,0-1.2,0.1-1.8h0.3c0,0.6-0.1,1.2-0.1,1.8c0,0.1,0,0.2,0,0.3H-13.6z M177.1,158.7h-0.3c0.1-0.7,0.1-1.4,0.2-2h0.3
						C177.3,157.3,177.2,158,177.1,158.7z M-13.1,158.2h-0.3c0.1-0.7,0.3-1.4,0.4-2l0.3,0.1C-12.8,156.8-12.9,157.5-13.1,158.2z
						 M177.4,154.6h-0.3c0-0.7,0-1.4,0-2.1h0.3C177.4,153.2,177.4,153.9,177.4,154.6z M-12,154.2l-0.3-0.1c0.3-0.6,0.5-1.3,0.8-1.9
						l0.3,0.1C-11.5,153-11.8,153.6-12,154.2z M-10.2,150.6l-0.3-0.2c0.3-0.6,0.8-1.1,1.2-1.7l0.2,0.2
						C-9.5,149.4-9.9,150-10.2,150.6z M177.1,150.4c0-0.7,0-1.4-0.1-2h0.3c0,0.7,0.1,1.4,0.1,2.1h-0.3V150.4z M-7.7,147.4l-0.2-0.2
						c0.5-0.5,1-1,1.5-1.4l0.2,0.2C-6.8,146.4-7.3,146.9-7.7,147.4z M176.9,146.4c-0.1-0.7-0.1-1.4-0.2-2h0.3
						c0.1,0.7,0.1,1.4,0.2,2.1h-0.3V146.4z M-4.6,144.7l-0.2-0.3c0.5-0.4,1.1-0.8,1.7-1.1l0.2,0.3C-3.5,144-4.1,144.3-4.6,144.7z
						 M-1.1,142.6l-0.1-0.3c0.6-0.3,1.2-0.6,1.9-0.9l0.1,0.3C0.1,142-0.5,142.3-1.1,142.6z M176.5,142.3c-0.1-0.7-0.2-1.4-0.3-2h0.3
						c0.1,0.7,0.2,1.4,0.3,2H176.5z M2.6,141.1l-0.1-0.3c0.6-0.2,1.3-0.4,2-0.6l0.1,0.3C3.9,140.6,3.2,140.8,2.6,141.1z M6.5,139.9
						l-0.1-0.3c0.7-0.2,1.3-0.3,2-0.4l0.1,0.3C7.9,139.6,7.2,139.8,6.5,139.9z M10.5,139.1v-0.3c0.7-0.1,1.3-0.2,2-0.3v0.3
						C11.9,138.9,11.2,139,10.5,139.1z M14.6,138.6v-0.3l0,0c0.7-0.1,1.3-0.1,2-0.2v0.3C16,138.5,15.3,138.5,14.6,138.6L14.6,138.6z
						 M175.8,138.3c0-0.2-0.1-0.5-0.1-0.7c-0.1-0.4-0.2-0.9-0.3-1.3l0.3-0.1c0.1,0.4,0.2,0.9,0.3,1.3c0,0.3,0.1,0.5,0.1,0.7
						L175.8,138.3z M18.7,138.1v-0.3c0.7-0.1,1.4-0.2,2-0.3l0.1,0.3C20.1,137.9,19.4,138,18.7,138.1z M22.8,137.4l-0.1-0.3
						c0.7-0.1,1.3-0.3,2-0.4l0.1,0.3C24.1,137.1,23.4,137.2,22.8,137.4z M26.7,136.4l-0.1-0.3c0.7-0.2,1.3-0.4,2-0.6l0.1,0.3
						C28.1,136,27.4,136.2,26.7,136.4z M30.7,135.2l-0.1-0.3c0.6-0.2,1.3-0.4,1.9-0.7l0.1,0.3C32,134.7,31.3,135,30.7,135.2z
						 M174.9,134.2c-0.2-0.7-0.3-1.3-0.5-2l0.3-0.1c0.2,0.7,0.3,1.3,0.5,2L174.9,134.2z M34.5,133.8l-0.1-0.3
						c0.6-0.3,1.3-0.5,1.9-0.8l0.1,0.3C35.8,133.2,35.2,133.5,34.5,133.8z M38.3,132.2l-0.1-0.3c0.6-0.3,1.2-0.6,1.8-0.9l0.1,0.3
						C39.5,131.6,38.9,131.9,38.3,132.2z M42,130.4l-0.1-0.3c0.6-0.3,1.2-0.6,1.8-1l0.1,0.3C43.2,129.8,42.6,130.1,42,130.4z
						 M173.8,130.3c-0.2-0.6-0.4-1.3-0.7-1.9l0.3-0.1c0.2,0.6,0.4,1.3,0.7,1.9L173.8,130.3z M45.6,128.5l-0.1-0.3
						c0.6-0.3,1.2-0.7,1.8-1l0.2,0.3C46.8,127.8,46.2,128.1,45.6,128.5z M172.4,126.5c-0.3-0.6-0.5-1.3-0.8-1.9l0.3-0.1
						c0.3,0.6,0.5,1.3,0.8,1.9L172.4,126.5z M49.1,126.4l-0.2-0.3c0.6-0.3,1.2-0.7,1.7-1.1l0.2,0.3C50.3,125.7,49.7,126,49.1,126.4z
						 M52.6,124.2l-0.2-0.3c0.6-0.3,1.1-0.7,1.7-1.1l0.2,0.3C53.8,123.5,53.2,123.9,52.6,124.2z M170.8,122.7
						c-0.3-0.6-0.6-1.2-1-1.8l0.3-0.1c0.3,0.6,0.6,1.2,1,1.8L170.8,122.7z M56.1,122l-0.2-0.3c0.5-0.3,1.1-0.8,1.7-1.1l0.2,0.3
						C57.2,121.3,56.6,121.6,56.1,122z M59.5,119.7l-0.2-0.3c0.6-0.4,1.1-0.8,1.7-1.2l0.2,0.3C60.6,118.9,60.1,119.3,59.5,119.7z
						 M168.8,119.1c-0.3-0.6-0.7-1.2-1.1-1.7l0.3-0.2c0.4,0.6,0.7,1.2,1.1,1.7L168.8,119.1z M62.9,117.4l-0.2-0.3
						c0.6-0.4,1.1-0.8,1.7-1.2l0.2,0.3C64,116.6,63.4,117,62.9,117.4z M166.6,115.7c-0.4-0.6-0.8-1.1-1.2-1.6l0.2-0.2
						c0.4,0.5,0.8,1.1,1.2,1.6L166.6,115.7z M66.2,115l-0.2-0.3c0.6-0.4,1.1-0.8,1.7-1.2l0.2,0.3C67.4,114.2,66.8,114.6,66.2,115z
						 M69.6,112.7l-0.2-0.3c0.6-0.4,1.1-0.8,1.7-1.1l0.2,0.3C70.7,111.9,70.2,112.3,69.6,112.7z M164.1,112.4
						c-0.4-0.5-0.9-1-1.3-1.6l0.2-0.2c0.4,0.5,0.9,1,1.4,1.6L164.1,112.4z M73,110.4l-0.2-0.3c0.6-0.4,1.1-0.8,1.7-1.1l0.2,0.3
						C74.1,109.6,73.6,110,73,110.4z M161.4,109.4c-0.5-0.5-1-1-1.5-1.4l0.2-0.2c0.5,0.5,1,1,1.5,1.4L161.4,109.4z M76.4,108.1
						l-0.2-0.3c0.6-0.4,1.2-0.8,1.7-1.1l0.2,0.3C77.6,107.4,77,107.8,76.4,108.1z M158.4,106.6c-0.5-0.4-1-0.9-1.6-1.3l0.2-0.2
						c0.5,0.4,1.1,0.9,1.6,1.3L158.4,106.6z M79.9,106l-0.2-0.3c0.6-0.3,1.2-0.7,1.7-1l0.2,0.3C81.1,105.3,80.5,105.6,79.9,106z
						 M155.2,104.1c-0.5-0.4-1.1-0.8-1.7-1.2l0.2-0.3c0.6,0.4,1.1,0.8,1.7,1.2L155.2,104.1z M83.4,103.9l-0.2-0.3
						c0.6-0.3,1.2-0.7,1.8-1l0.1,0.3C84.6,103.2,84,103.6,83.4,103.9z M87,102l-0.1-0.3c0.6-0.3,1.2-0.6,1.8-0.9l0.1,0.3
						C88.2,101.3,87.6,101.6,87,102z M151.8,101.8c-0.6-0.3-1.2-0.7-1.8-1l0.2-0.3c0.6,0.3,1.2,0.7,1.8,1L151.8,101.8z M90.7,100.2
						l-0.1-0.3c0.6-0.3,1.3-0.6,1.9-0.8l0.1,0.3C91.9,99.6,91.3,99.9,90.7,100.2z M148.2,99.8c-0.6-0.3-1.2-0.6-1.8-0.9l0.1-0.3
						c0.6,0.3,1.2,0.6,1.8,0.9L148.2,99.8z M94.5,98.6l-0.1-0.3c0.6-0.3,1.3-0.5,1.9-0.7l0.1,0.3C95.8,98.1,95.1,98.3,94.5,98.6z
						 M144.5,98.1c-0.6-0.3-1.3-0.5-1.9-0.8l0.1-0.3c0.6,0.3,1.3,0.5,1.9,0.8L144.5,98.1z M98.4,97.2l-0.1-0.3
						c0.7-0.2,1.3-0.4,2-0.6l0.1,0.3C99.7,96.8,99,97,98.4,97.2z M140.7,96.6c-0.6-0.2-1.3-0.4-2-0.6l0.1-0.3c0.7,0.2,1.3,0.4,2,0.6
						L140.7,96.6z M102.3,96.1l-0.1-0.3c0.3-0.1,0.6-0.2,0.9-0.2c0.3-0.1,0.7-0.2,1.1-0.3l0.1,0.3c-0.3,0.1-0.7,0.2-1.1,0.3
						C102.9,95.9,102.6,96,102.3,96.1z M136.7,95.5c-0.7-0.2-1.3-0.3-2-0.5l0.1-0.3c0.7,0.2,1.3,0.3,2,0.5L136.7,95.5z M106.3,95.2
						l-0.1-0.3c0.7-0.1,1.4-0.3,2-0.4l0.1,0.3C107.6,94.9,107,95.1,106.3,95.2z M132.7,94.6c-0.7-0.1-1.3-0.2-2-0.3V94
						c0.7,0.1,1.4,0.2,2,0.3V94.6z M110.3,94.5l-0.1-0.3c0.7-0.1,1.4-0.2,2-0.3v0.3C111.7,94.3,111,94.4,110.3,94.5z M128.7,94.1
						c-0.7-0.1-1.4-0.1-2-0.2v-0.3c0.7,0.1,1.4,0.1,2.1,0.2L128.7,94.1z M114.4,94v-0.3c0.7-0.1,1.4-0.1,2.1-0.2v0.3
						C115.7,93.9,115,93.9,114.4,94z M124.6,93.7c-0.7,0-1.4-0.1-2.1-0.1v-0.3c0.7,0,1.4,0,2.1,0.1V93.7z M118.5,93.7v-0.3
						c0.7,0,1.4,0,2.1-0.1v0.3C119.8,93.7,119.1,93.7,118.5,93.7z"/>
				</g>
			</g>
			<g>
				<g>
					<g>
						<g>
							<path class="st3" d="M142.5,83.7c-0.3-1.3-0.9-2.5-1.5-3.6l1.6-2.3l-2.2-2.1l-2.2-2.1l-2.3,1.6c-1.1-0.7-2.3-1.2-3.7-1.5
								l-0.6-2.7h-3h-3l-0.5,2.7c-1.3,0.3-2.5,0.9-3.6,1.5l-2.3-1.6l-2.1,2.2L115,78l1.6,2.3c-0.7,1.1-1.2,2.3-1.5,3.7l-2.7,0.6v3v3
								l2.7,0.5c0.3,1.3,0.9,2.5,1.5,3.6L115,97l2.2,2.1l2.2,2.1l2.3-1.6c1.1,0.7,2.3,1.2,3.7,1.5l0.6,2.7h3h3l0.5-2.7
								c1.3-0.3,2.5-0.9,3.6-1.5l2.3,1.6l2.1-2.2l2.1-2.2l-1.5-2.4c0.7-1.1,1.2-2.3,1.5-3.7l2.7-0.6v-3v-3L142.5,83.7z M128.7,97.9
								c-5.9,0-10.6-4.7-10.7-10.6c0-5.9,4.7-10.6,10.6-10.7c5.9,0,10.6,4.7,10.7,10.6C139.3,93.1,134.6,97.9,128.7,97.9z"/>
						</g>
					</g>
				</g>
			</g>
			<g>
				<g>
					<g>
						<g>
							<path class="st3" d="M9.5,162.6c0.1,0.1,0.2,0.1,0.3,0.2L9.6,163l-5.3,6.6L4,169.4l5.3-6.6L9.5,162.6z"/>
						</g>
					</g>
					<g>
						<g>
							<path class="st3" d="M34,156.2c0,0.1,0,0.2,0.1,0.3l-0.3,0.1L14,160.3l-0.3,0.1c0-0.1,0-0.2-0.1-0.3l0.3-0.1l19.8-3.7
								L34,156.2z"/>
						</g>
					</g>
					<g>
						<g>
							<path class="st3" d="M48.3,136l-0.2,0.3L38,153.6l-0.2,0.3c-0.1-0.1-0.2-0.1-0.3-0.2l0.2-0.3l10.1-17.3l0.2-0.3
								C48.1,135.9,48.2,136,48.3,136z"/>
						</g>
					</g>
					<g>
						<g>
							<path class="st3" d="M70.9,127.1c0,0.1,0,0.1,0.1,0.2l-19.2,6.1c0-0.1,0-0.1,0-0.2c0-0.1,0-0.1-0.1-0.2l19.2-6.1
								C70.9,127,70.9,127,70.9,127.1z"/>
						</g>
					</g>
					<g>
						<g>
							<path class="st3" d="M82.7,106.6l-8.1,17.3l-0.1,0.3c-0.1-0.1-0.2-0.1-0.3-0.1l0.1-0.3l8.1-17.3L82.7,106.6z"/>
						</g>
					</g>
				</g>
				<g>
					<g>
						<g>
							<path class="st3" d="M10.3,158.1c-1.5,0.4-2.3,2-1.8,3.5c0.2,0.5,0.4,0.9,0.8,1.2c0.1,0.1,0.2,0.1,0.3,0.2
								c0.7,0.5,1.6,0.7,2.4,0.4c1.3-0.4,2.1-1.7,1.9-3c0-0.1,0-0.2-0.1-0.3c0-0.1,0-0.1,0-0.2C13.4,158.4,11.8,157.6,10.3,158.1z
								 M13.6,160.4c0.2,1.1-0.5,2.3-1.7,2.6c-0.8,0.2-1.6,0.1-2.2-0.3c-0.1-0.1-0.2-0.1-0.3-0.2c-0.3-0.3-0.6-0.7-0.7-1.1
								c-0.4-1.3,0.3-2.7,1.6-3.1s2.7,0.3,3.1,1.6v0.1C13.6,160.2,13.6,160.3,13.6,160.4z"/>
						</g>
					</g>
				</g>
				<g>
					<g>
						<g>
							<path class="st3" d="M38,153.6c-0.1-0.1-0.2-0.1-0.3-0.2c-0.6-0.3-1.4-0.4-2.1-0.2c-1.3,0.4-2.1,1.7-1.9,3
								c0,0.1,0,0.2,0.1,0.3c0,0.1,0,0.1,0,0.2c0.4,1.5,2,2.3,3.5,1.8s2.3-2,1.8-3.5C38.9,154.5,38.5,154,38,153.6z M37.2,158.3
								c-1.3,0.4-2.7-0.3-3.1-1.6v-0.1c0-0.1,0-0.2-0.1-0.3c-0.2-1.1,0.5-2.3,1.7-2.6c0.6-0.2,1.3-0.1,1.8,0.2
								c0.1,0,0.2,0.1,0.3,0.2c0.4,0.3,0.8,0.8,1,1.3C39.2,156.5,38.5,157.9,37.2,158.3z"/>
						</g>
					</g>
				</g>
				<g>
					<g>
						<g>
							<path class="st3" d="M52,132.9c-0.5-1.4-2-2.1-3.4-1.6c-1.5,0.4-2.3,2-1.8,3.5c0.2,0.6,0.6,1.1,1.1,1.5
								c0.1,0.1,0.2,0.1,0.3,0.2c0.6,0.3,1.4,0.4,2.1,0.2c1.4-0.4,2.2-1.9,1.8-3.3c0-0.1,0-0.1,0-0.2C52,133,52,132.9,52,132.9z
								 M50.1,136.2c-0.6,0.2-1.3,0.1-1.8-0.2c-0.1,0-0.2-0.1-0.3-0.2c-0.4-0.3-0.8-0.8-1-1.3c-0.4-1.3,0.3-2.7,1.6-3.1
								c1.2-0.4,2.6,0.3,3,1.5c0,0.1,0,0.1,0.1,0.2c0,0.1,0,0.1,0,0.2C52.1,134.5,51.3,135.8,50.1,136.2z"/>
						</g>
					</g>
				</g>
				<g>
					<g>
						<g>
							<path class="st3" d="M74.6,123.9c-0.1-0.1-0.2-0.1-0.3-0.1c-0.6-0.2-1.2-0.3-1.9-0.1c-1.4,0.4-2.2,1.9-1.8,3.3
								c0,0.1,0,0.1,0,0.2s0,0.1,0.1,0.2c0.5,1.4,2,2.1,3.4,1.6c1.5-0.4,2.3-2,1.8-3.5C75.7,124.8,75.2,124.2,74.6,123.9z M74,128.7
								c-1.2,0.4-2.6-0.3-3-1.5c0-0.1,0-0.1-0.1-0.2c0-0.1,0-0.1,0-0.2c-0.3-1.2,0.4-2.5,1.6-2.9c0.6-0.2,1.1-0.1,1.6,0.1
								c0.1,0,0.2,0.1,0.3,0.1c0.5,0.3,1,0.8,1.2,1.4C76,126.9,75.3,128.3,74,128.7z"/>
						</g>
					</g>
				</g>
			</g>
			<g>
				<g>
					<path class="st3" d="M98.1,237.1h-10V128.5h10V237.1z M88.8,236.5h8.6V129.2h-8.6V236.5z"/>
				</g>
			</g>
			<g>
				<g>
					
						<rect x="87.8" y="233.9" transform="matrix(0.8846 -0.4663 0.4663 0.8846 -98.5441 70.4394)" class="st3" width="10.5" height="0.9"/>
				</g>
				<g>
					
						<rect x="87.8" y="217.3" transform="matrix(0.8846 -0.4663 0.4663 0.8846 -90.8107 68.5258)" class="st3" width="10.5" height="0.9"/>
				</g>
				<g>
					
						<rect x="87.8" y="200.7" transform="matrix(0.8846 -0.4663 0.4663 0.8846 -83.0709 66.6091)" class="st3" width="10.5" height="0.9"/>
				</g>
				<g>
					
						<rect x="87.9" y="184.1" transform="matrix(0.8845 -0.4666 0.4666 0.8845 -75.3539 64.7833)" class="st3" width="10.5" height="0.9"/>
				</g>
				<g>
					
						<rect x="87.9" y="167.5" transform="matrix(0.8845 -0.4666 0.4666 0.8845 -67.6058 62.8704)" class="st3" width="10.5" height="0.9"/>
				</g>
				<g>
					
						<rect x="87.9" y="150.9" transform="matrix(0.8845 -0.4665 0.4665 0.8845 -59.8438 60.939)" class="st3" width="10.5" height="0.9"/>
				</g>
				<g>
					
						<rect x="87.9" y="134.3" transform="matrix(0.8845 -0.4665 0.4665 0.8845 -52.1007 59.0205)" class="st3" width="10.5" height="0.9"/>
				</g>
			</g>
			<g>
				<g>
					<path class="st3" d="M140.7,237.1h-10V128.5h10V237.1z M131.4,236.5h8.6V129.2h-8.6V236.5z"/>
				</g>
			</g>
			<g>
				<g>
					
						<rect x="130.5" y="233.9" transform="matrix(0.8846 -0.4664 0.4664 0.8846 -93.6357 90.3673)" class="st3" width="10.5" height="0.9"/>
				</g>
				<g>
					
						<rect x="130.5" y="217.3" transform="matrix(0.8846 -0.4664 0.4664 0.8846 -85.8942 88.4498)" class="st3" width="10.5" height="0.9"/>
				</g>
				<g>
					
						<rect x="130.5" y="200.7" transform="matrix(0.8846 -0.4664 0.4664 0.8846 -78.1527 86.5323)" class="st3" width="10.5" height="0.9"/>
				</g>
				<g>
					
						<rect x="130.5" y="184.1" transform="matrix(0.8844 -0.4667 0.4667 0.8844 -70.4383 84.6898)" class="st3" width="10.5" height="0.9"/>
				</g>
				<g>
					
						<rect x="130.5" y="167.5" transform="matrix(0.8844 -0.4667 0.4667 0.8844 -62.6884 82.7759)" class="st3" width="10.5" height="0.9"/>
				</g>
				<g>
					
						<rect x="130.5" y="150.9" transform="matrix(0.8845 -0.4665 0.4665 0.8845 -54.9188 80.8095)" class="st3" width="10.5" height="0.9"/>
				</g>
				<g>
					
						<rect x="130.5" y="134.3" transform="matrix(0.8845 -0.4665 0.4665 0.8845 -47.1757 78.8911)" class="st3" width="10.5" height="0.9"/>
				</g>
			</g>
			<g>
				<g>
					<g>
						<polygon class="st3" points="-1.4,183.6 -10.7,179.4 -7.6,179 						"/>
					</g>
				</g>
				<g>
					<g>
						<polygon class="st3" points="-1.4,183.6 -4.5,179.5 -6.8,179.6 						"/>
					</g>
				</g>
				<g>
					<g>
						<polygon class="st3" points="-8.5,180.4 -8.6,181.5 -1.4,183.6 						"/>
					</g>
				</g>
			</g>
			<g>
				<g>
					<polygon class="st3" points="150.6,184.9 164,184.9 164,194.6 164,196.7 162,194.6 150.6,194.6 					"/>
				</g>
			</g>
			<g>
				<g>
					<rect x="100.2" y="88.9" class="st3" width="28.6" height="103.7"/>
				</g>
			</g>
			<g>
				<g>
					<rect x="63.5" y="150.1" class="st3" width="21.4" height="87.4"/>
				</g>
			</g>
			<g>
				<g>
					<rect x="33.6" y="170.8" class="st3" width="21.4" height="66.7"/>
				</g>
			</g>
			<g>
				<g>
					<path class="st3" d="M51.5,233.7H29.9v-67h21.6V233.7z M30.2,233.4h21.1V167h-21L30.2,233.4L30.2,233.4z"/>
				</g>
			</g>
			<g>
				<g>
					<rect x="3.7" y="191.1" class="st3" width="21.4" height="46.4"/>
				</g>
			</g>
			<g>
				<g>
					<path class="st3" d="M21.2,234.5H-0.4v-46.7h21.6V234.5z M-0.2,234.2h21v-46.1h-21C-0.2,188.1-0.2,234.2-0.2,234.2z"/>
				</g>
			</g>
			<g>
				<g>
					<g>
						<g>
							<polygon class="st3" points="46.3,260.5 46,260.5 47.6,219.5 19.4,219.5 17.8,260.5 17.5,260.5 19.1,219.2 48,219.2 							
								"/>
						</g>
					</g>
				</g>
			</g>
			<g>
				<g>
					<g>
						<g>
							<polygon class="st3" points="49,260.5 47.3,219.5 19.1,219.5 20.7,260.5 20.4,260.5 18.8,219.2 47.7,219.2 49.3,260.5 
															"/>
						</g>
					</g>
				</g>
			</g>
			<g>
				<g>
					<g>
						<polygon class="st3" points="20.6,247.2 49.1,247.2 47.5,206 18.9,206 						"/>
					</g>
				</g>
			</g>
			<g>
				<g>
					<g>
						<polygon class="st3" points="45.4,247.2 16.8,247.2 18.4,206 47,206 						"/>
					</g>
				</g>
			</g>
			<g>
				<g>
					<path class="st3" d="M30.6,212.4c-0.7-1.9-2.5-3.1-4.5-3.1c-0.5,0-1,0.1-1.4,0.3c-1.4,0.5-2.4,1.6-2.9,3c-0.3,0.9-0.3,2,0.1,3
						c0,0.1,0.1,0.2,0.1,0.3c0.2,0.4,0.4,0.8,0.7,1.1c1.2,1.4,3.2,2,5.1,1.4C30.2,217.4,31.5,214.8,30.6,212.4z M27.4,217.2
						c-1.4,0.5-2.9,0.1-3.8-1c-0.2-0.3-0.4-0.5-0.5-0.9c0-0.1-0.1-0.1-0.1-0.2c-0.3-0.7-0.3-1.5,0-2.2c0.3-1,1.1-1.8,2.2-2.2
						c0.3-0.1,0.7-0.2,1.1-0.2c1.5,0,2.9,0.9,3.4,2.3C30.2,214.6,29.3,216.6,27.4,217.2z"/>
				</g>
			</g>
			<g>
				<g>
					<path class="st3" d="M114.3,61.4C101.8,74,100.1,89,100.1,89h14.3h14.3C128.7,88.9,126.9,73.9,114.3,61.4z"/>
				</g>
			</g>
			<g>
				<g>
					<g>
						<path class="st3" d="M40.1,210.2c-0.2-0.2-0.4-0.4-0.6-0.6c-0.2,0.2-0.4,0.4-0.6,0.6l-0.2-0.2c0.2-0.3,0.5-0.5,0.7-0.8
							l0.1-0.1l0.1,0.1c0.3,0.3,0.5,0.5,0.7,0.8L40.1,210.2z"/>
					</g>
				</g>
				<g>
					<g>
						<path class="st3" d="M35.9,240.7h-0.3v-2h0.3V240.7z M35.9,236.8h-0.3v-2h0.3V236.8z M35.9,232.9h-0.3v-2h0.3V232.9z
							 M35.9,228.9h-0.3v-2h0.3V228.9z M35.9,225h-0.3v-2h0.3V225z M35.9,221.1h-0.3v-2h0.3V221.1z M35.9,217.2h-0.3v-0.6l0,0
							c0-0.3,0.3-1.3,0.3-1.4l0.3,0.1c-0.2,0.7-0.3,1.2-0.3,1.3V217.2z M36.8,213.5l-0.3-0.1c0.3-0.6,0.6-1.2,0.9-1.7l0.3,0.2
							C37.4,212.3,37.1,212.8,36.8,213.5z"/>
					</g>
				</g>
				<g>
					<g>
						<polygon class="st3" points="36.8,243.8 35.6,243.8 35.6,242.7 35.9,242.7 35.9,243.6 36.8,243.6 						"/>
					</g>
				</g>
				<g>
					<g>
						<rect x="38.6" y="243.6" class="st3" width="1.8" height="0.3"/>
					</g>
				</g>
				<g>
					<g>
						<polygon class="st3" points="43.4,243.8 42.2,243.8 42.2,243.6 43.1,243.6 43.1,242.7 43.4,242.7 						"/>
					</g>
				</g>
				<g>
					<g>
						<path class="st3" d="M43.4,240.7h-0.3v-1.9h0.3V240.7z M43.4,236.9h-0.3V235h0.3V236.9z M43.4,233h-0.3v-1.9h0.3V233z
							 M43.4,229.2h-0.3v-1.9h0.3V229.2z M43.4,225.3h-0.3v-1.9h0.3V225.3z M43.4,221.4h-0.3v-1.9h0.3V221.4z"/>
					</g>
				</g>
				<g>
					<g>
						<path class="st3" d="M43.4,217.6h-0.3v-1c0-0.1-0.1-0.4-0.2-1l0.3-0.1c0.2,0.6,0.2,1,0.2,1l0,0V217.6L43.4,217.6z"/>
					</g>
				</g>
				<g>
					<g>
						<path class="st3" d="M42.2,213.6c-0.3-0.6-0.6-1.2-1-1.8l0.3-0.2c0.3,0.6,0.7,1.2,1,1.8L42.2,213.6z"/>
					</g>
				</g>
			</g>
			<g>
				<g>
					<path class="st3" d="M132.1,224.6c-1.2,0-2.3,0.2-3.4,0.5c-1.4-3.4-4.8-5.7-8.8-5.7c-4.5,0-8.2,2.9-9.2,6.9
						c-0.8-0.3-1.6-0.4-2.5-0.4c-3.7,0-6.7,2.9-6.7,6.4h9.8h3.6h7.7h5.9h13.1C141.6,228,137.3,224.6,132.1,224.6z"/>
				</g>
			</g>
			<g>
				<g>
					<path class="st3" d="M100.7,95.5c-0.9,0-1.6,0.1-2.4,0.4c-1-2.6-3.4-4.5-6.3-4.5c-3.2,0-5.8,2.3-6.5,5.4
						c-0.5-0.2-1.1-0.3-1.8-0.3c-2.6,0-4.8,2.3-4.8,5h7h2.6H94h4h9.4C107.4,98.2,104.4,95.5,100.7,95.5z"/>
				</g>
			</g>
			<g>
				<g>
					<path class="st3" d="M130.7,88.3c-0.5,0-1,0.1-1.5,0.3c-0.6-1.6-2.1-2.8-3.9-2.8c-2,0-3.6,1.4-4.1,3.4
						c-0.3-0.2-0.7-0.2-1.1-0.2c-1.6,0-3,1.4-3,3.1h4.3h1.6h3.4h2.6h5.8C134.8,90,133,88.3,130.7,88.3z"/>
				</g>
			</g>
			<g>
				<g>
					<path class="st3" d="M145.8,110.9c-0.9,0-1.7,0.2-2.5,0.4c-1-2.9-3.6-5-6.5-5c-3.3,0-6.1,2.6-6.8,6c-0.6-0.3-1.2-0.4-1.8-0.4
						c-2.8,0-5,2.5-5,5.6h7.3h2.7h5.7h4.3h9.7C152.8,113.9,149.6,110.9,145.8,110.9z"/>
				</g>
			</g>
			<g>
				<g>
					<rect x="29.9" y="221.8" class="st3" width="2.7" height="22.1"/>
				</g>
			</g>
			<g>
				<g>
					<rect x="26.1" y="227.1" class="st3" width="2.7" height="16.9"/>
				</g>
			</g>
			<g>
				<g>
					<rect x="22.3" y="232.2" class="st3" width="2.7" height="11.7"/>
				</g>
			</g>
			<g>
				<g>
					<g>
						<g>
							<polygon class="st3" points="19.2,209.1 25.6,212.7 32,202.6 24.3,199.9 							"/>
						</g>
					</g>
				</g>
				<g>
					<g>
						<g>
							<polygon class="st3" points="19.6,208.9 25.6,212.1 31.6,202.7 24.3,200.2 							"/>
						</g>
					</g>
				</g>
				<g>
					<g>
						<g>
							<path class="st3" d="M17.5,207.1c0,0,1.1-0.5,1.6-0.8s1.7-0.7,1.8-0.8c0.1-0.1,3.7-0.3,3.9-0.5c0.2-0.2,0.4,0.4-0.5,0.6
								c-0.9,0.2-2.2,0.7-2.3,1.1c-0.1,0.4,1,0.4,1.1,0.8c0.1,0.3,0,0.2-0.2,0.3s-1.2-0.5-1.7-0.3s-1.2-0.1-1.6,0.1
								c-0.3,0.1-2.1,0.7-2.1,0.7L17.5,207.1z"/>
						</g>
					</g>
				</g>
				<g>
					<g>
						<g>
							<path class="st3" d="M19.5,207.9l0.6-0.2c0,0-0.7-1.7-1-1.6c-0.3,0-0.8,0.2-0.8,0.2L19.5,207.9z"/>
						</g>
					</g>
				</g>
				<g>
					<g>
						<g>
							<path class="st3" d="M19.6,208.2c-0.1-0.1-1.2-2.3-1.2-2.3l-2.4,0.3l1.3,2.6L19.6,208.2z"/>
						</g>
					</g>
				</g>
				<g>
					<g>
						<g>
							<path class="st3" d="M25.9,211.4c0,0,0.9-0.8,1.4-1.2c0.4-0.3,1.3-1.4,1.4-1.4c0.1-0.1,1.7-3.4,2-3.5s-0.3-0.6-0.8,0.2
								s-1.5,1.8-1.9,1.7s-0.1-1.1-0.3-1.3c-0.3-0.2-0.2-0.1-0.3,0.1c-0.1,0.1,0,1.4-0.3,1.7c-0.3,0.4-0.4,1.1-0.7,1.5
								c-0.3,0.3-1.5,1.7-1.5,1.7L25.9,211.4z"/>
						</g>
					</g>
				</g>
				<g>
					<g>
						<g>
							<path class="st3" d="M5.9,256.2c0,0-0.2,1.4-0.2,1.6s-2.3-0.1-2.3-0.1L3.2,256C3.2,256,5.6,256,5.9,256.2z"/>
						</g>
					</g>
				</g>
				<g>
					<g>
						<g>
							<path class="st3" d="M5.7,257.6c0,0,0.7,0.9,1.4,1.2c0.7,0.4,1.7,0.5,2.2,0.9c0.3,0.3,1,1.5-1.8,1.4c-2.8,0-4.2,0.2-4.5-0.3
								c-0.3-0.4,0.4-3.3,0.4-3.3S4.1,257.7,5.7,257.6z"/>
						</g>
					</g>
				</g>
				<g>
					<g>
						<g>
							<path class="st3" d="M21.7,256.2c0,0-0.2,1.4-0.2,1.6s-2.3-0.1-2.3-0.1l-0.2-1.6C19.1,256,21.5,256,21.7,256.2z"/>
						</g>
					</g>
				</g>
				<g>
					<g>
						<g>
							<path class="st3" d="M21.5,257.6c0,0,0.7,0.9,1.4,1.2c0.7,0.4,3.2,0.7,3.6,1c0.3,0.3,0.8,1.4-3.2,1.3
								c-2.8-0.1-4.2,0.2-4.5-0.3c-0.3-0.4,0.4-3.3,0.4-3.3S19.9,257.7,21.5,257.6z"/>
						</g>
					</g>
				</g>
				<g>
					<g>
						<g>
							<path class="st3" d="M7.7,220.2c0,0-2.1,3.3-1.9,6.3s-0.8,6.3-1.1,9.4c-0.3,3.5-1.8,11.7-1.8,13.6c-0.1,1.9,0.2,7.8,0.2,7.8
								l2.9,0.1c0,0,2.4-14.4,3-15.9s3.7-12,3.8-13.1C12.9,227.2,7.7,220.2,7.7,220.2z"/>
						</g>
					</g>
				</g>
				<g>
					<g>
						<g>
							<path class="st3" d="M18.7,220.7c0,0,1.6,8.2,1.8,10s0.3,8.9,0.4,10s0.7,15,1.2,16.7h-3.6c0,0-2.8-10.1-2.8-14.8
								c0-4.8-2.2-10.3-3.6-13.5c-1.4-3.1-4.6-3.2-5.5-9C6.7,220.1,17.5,218.8,18.7,220.7z"/>
						</g>
					</g>
				</g>
				<g>
					<g>
						<g>
							<path class="st3" d="M11.2,192.4c0,0,2.8-1,4.1,1.1s1.2,6.4-0.3,6.9c-1.4,0.5-3.5,0.3-4.3-1.1c-0.7-1.3-1.4-3.3-1.3-4.5
								C9.5,193.5,10.4,192.8,11.2,192.4z"/>
						</g>
					</g>
				</g>
				<g>
					<g>
						<g>
							<path class="st3" d="M14.7,200.5c0,0-0.1,0.8,0.1,1.1c0.2,0.4-3.6,0.4-3.6,0.4s-0.3-2-0.9-3.7
								C9.7,196.6,14.7,200.5,14.7,200.5z"/>
						</g>
					</g>
				</g>
				<g>
					<g>
						<g>
							<path class="st3" d="M10.3,198.3c0,0,0.3,0.4,1.3,0.3c1.1-0.2,2.4-1.6,2.8-1.7c0.4-0.2,0.4-0.4,0.4-0.4l0.3,0.4h0.5
								c0,0-0.4-1.3,0.2-1.8c0.7-0.5-0.7-4.1-4.1-2.9c0,0-2.6,0.7-2.5,2.2C9.3,195.8,9.7,197.6,10.3,198.3z"/>
						</g>
					</g>
				</g>
				<g>
					<g>
						<g>
							<path class="st3" d="M15,201.6c0,0,0-0.7-0.3-0.8s-3.6-0.4-3.9-0.2v0.8C10.7,201.5,11.5,201.9,15,201.6z"/>
						</g>
					</g>
				</g>
				<g>
					<g>
						<g>
							<path class="st3" d="M14.8,195.9c-0.1-0.3-0.7-1-1-0.2s0.4,1.8,0.7,1.7C14.9,197.3,15,196.5,14.8,195.9z"/>
						</g>
					</g>
				</g>
				<g>
					<g>
						<g>
							<path class="st3" d="M27.8,210L27.8,210C27.9,210,27.9,210,27.8,210z"/>
						</g>
					</g>
				</g>
				<g>
					<g>
						<g>
							<path class="st3" d="M5.4,228.1c0,0,1.7,0.5,4.6,0.8s10.2-0.1,10.3-0.5c0-0.3-1.6-12.8-1.5-13.5c0.1-0.6,0.1-3,0.1-3
								c0,0.6,0.7,3.2,1.5,4.6c0.3,0.5,1.2,2.1,1.7,1.7c2.2-1.7,5.6-8.3,5.8-8.4c-0.2-0.1-1.6-0.7-1.8-0.8c-0.2-0.1-1.7,1.6-2.7,2.6
								c-0.4,0.5-0.7,0.8-0.7,0.8c-0.3-0.6-1.3-4.5-1.6-5.9c-0.7-3-0.6-3.2-0.6-3.2c-2.1-0.6-5.4-2-5.4-2l-4.3-0.2
								c0,0-3.9,0.9-5.5,1.6c-0.2,0.1-0.2,3.5-0.5,4.4l1.3,2.7c0,0,0.7,5.4,0.9,7.7C7,219,5.4,228.1,5.4,228.1z"/>
						</g>
					</g>
				</g>
				<g>
					<g>
						<g>
							<path class="st3" d="M4.5,211.9c0.1,0.3,0.6,0.7,1,0.8c0.2,0.1,0.4,0.1,0.7,0.1h0.2l0,0l2.9-0.5c0,0,0.6-7.4-4-9.2
								C5.1,203,3.5,208.6,4.5,211.9z"/>
						</g>
					</g>
				</g>
				<g>
					<g>
						<g>
							<path class="st3" d="M5.5,212.7L5.5,212.7c0.2,0.1,0.4,0.1,0.7,0.1h0.2l0,0L6.1,209L5.5,212.7z"/>
						</g>
					</g>
				</g>
				<g>
					<g>
						<g>
							<path class="st3" d="M22.6,212.7l0.3,1.5c0,0,0.4-1.5,0.4-2.3C22.9,212.3,22.6,212.7,22.6,212.7z"/>
						</g>
					</g>
				</g>
				<g>
					<g>
						<g>
							<path class="st3" d="M10.4,192.7c0,0-3.5,0.3-0.1,5.7L10.4,192.7z"/>
						</g>
					</g>
				</g>
				<g>
					<g>
						<g>
							<polygon class="st3" points="29.1,202.1 29.4,201.4 26.5,200.4 26.1,201 							"/>
						</g>
					</g>
				</g>
			</g>
			<g>
				<g>
					<path class="st3" d="M121.4,110.8c0,3.8-3.1,6.9-6.9,6.9s-6.9-3.1-6.9-6.9s3.1-6.9,6.9-6.9S121.4,107,121.4,110.8z"/>
				</g>
			</g>
			<g>
				<g>
					<circle class="st3" cx="114.4" cy="131.6" r="6.9"/>
				</g>
			</g>
			<g>
				<g>
					<path class="st3" d="M119.7,131.6c0,2.9-2.3,5.1-5.1,5.2c-2.9,0-5.1-2.3-5.2-5.1c0-2.9,2.3-5.1,5.1-5.2
						C117.4,126.5,119.7,128.7,119.7,131.6z"/>
				</g>
			</g>
			<g>
				<g>
					<path class="st3" d="M119.6,110.8c0,2.9-2.3,5.1-5.1,5.2c-2.9,0-5.1-2.3-5.2-5.1c0-2.9,2.3-5.1,5.1-5.2
						C117.3,105.7,119.6,108,119.6,110.8z"/>
				</g>
			</g>
			<g>
				<g>
					<g>
						<g>
							<path class="st3" d="M44.5,128.4c0,0,0.5-0.9-0.3-3.1s-3.3-2-4.2-0.6c-0.8,1.4-0.5,2.3,0.7,3.9
								C41.9,130.1,44,129.1,44.5,128.4z"/>
						</g>
					</g>
				</g>
				<g>
					<g>
						<g>
							<path class="st3" d="M38.5,167.7c0,0-0.1,1-0.2,1.1s-1.4-0.1-1.4-0.1l-0.1-1.1C36.8,167.5,38.3,167.5,38.5,167.7z"/>
						</g>
					</g>
				</g>
				<g>
					<g>
						<g>
							<path class="st3" d="M38.4,168.6c0,0,0.4,0.6,0.9,0.8c0.4,0.3,1.1,0.3,1.4,0.6c0.2,0.2,0.7,1-1.1,1s-2.7,0.1-2.9-0.2
								s0.3-2.3,0.3-2.3S37.4,168.7,38.4,168.6z"/>
						</g>
					</g>
				</g>
				<g>
					<g>
						<g>
							<path class="st3" d="M48.3,167.7c0,0-0.1,1-0.2,1.1s-1.4-0.1-1.4-0.1l-0.1-1.1C46.6,167.5,48.1,167.5,48.3,167.7z"/>
						</g>
					</g>
				</g>
				<g>
					<g>
						<g>
							<path class="st3" d="M48.1,168.6c0,0,0.4,0.6,0.9,0.8c0.4,0.3,2,0.4,2.3,0.7c0.2,0.2,0.5,0.9-2,0.9c-1.8-0.1-2.7,0.1-2.9-0.2
								s0.3-2.3,0.3-2.3S47.2,168.7,48.1,168.6z"/>
						</g>
					</g>
				</g>
				<g>
					<g>
						<g>
							<path class="st3" d="M39,144.3c0,0-0.7,2.3-0.6,4.2s-0.4,4.1-0.6,6.1c-0.2,2.3-1.1,7.6-1.1,8.8s0.1,5,0.1,5h1.7
								c0,0,1.5-9.3,1.8-10.3c0.4-1,2.3-7.7,2.3-8.5C42.8,148.9,39,144.3,39,144.3z"/>
						</g>
					</g>
				</g>
				<g>
					<g>
						<g>
							<path class="st3" d="M46.2,144.1c0,0,1,5.9,1.2,7.1c0.1,1.2,0.2,5.7,0.3,6.5c0.1,0.7,0.4,9.7,0.8,10.8h-1.9c0,0-2-6.5-2-9.6
								s-1.3-6.7-2.2-8.7s-2.8-2.1-3.3-5.8C39,144.3,45.5,142.9,46.2,144.1z"/>
						</g>
					</g>
				</g>
				<g>
					<g>
						<g>
							<path class="st3" d="M43.8,129c0,0-0.2,0.6,0,1.1c0.2,0.4-2.8,0.2-2.8,0.2s0.1-1-0.3-1.7C40.4,127.8,43.8,129,43.8,129z"/>
						</g>
					</g>
				</g>
				<g>
					<g>
						<g>
							<path class="st3" d="M38.8,144.8c0,0,1.1,1.1,7.5-0.2l-0.1-0.5l-7.3,0.3L38.8,144.8z"/>
						</g>
					</g>
				</g>
				<g>
					<g>
						<g>
							<path class="st3" d="M44.3,130.2c0,0,1.1,0.1,1.4,0.2s2.5-0.4,2.9-0.4s2.3-1.3,2.4-1.5s1.1-2.9,1.2-3.5c0.1-0.6,1-0.3,1,0.1
								c-0.2,0.8-0.3,2.6-0.5,3.2c-0.1,0.6-0.4,1.9-0.6,2.1c-0.2,0.2-1.9,1.5-3.5,2s-2.9,1.4-2.9,1.4h-8.2c0,0-3.2-4.5-3.2-5.2
								c-0.1-0.7,2.2-5.2,2.7-5.8c0.4-0.6,1.1,0.2,1.1,0.2s-1.4,4-1.6,4.6c-0.2,0.6,1.6,3.1,2.1,3.1s1.7-0.2,2.3-0.2
								s1.1-0.3,1.1-0.3H44.3z"/>
						</g>
					</g>
				</g>
				<g>
					<g>
						<g>
							<path class="st3" d="M47.8,133.2c0,0-1,0.7-1.1,1.8s-0.4,3-0.6,3.6c-0.2,0.6,0.2,5.1,0.2,5.4c0,0.3-6.3,1.1-7.3,0.3
								c0,0-0.3-4.2-0.4-5.4c-0.1-1.2-0.7-4.1-0.9-4.4c-0.2-0.4-2.4-3.5-2.5-3.9c0,0,1.1-1.8,2-1.8c0,0,1.3,1.5,1.7,1.6s3-0.4,3-0.4
								s0.3,0.4,1.8-0.1c0,0,1.8,0.2,2.1,0.3c0.3,0,2.8-0.3,2.8-0.3s1,1.7,0.8,2.5L47.8,133.2z"/>
						</g>
					</g>
				</g>
				<g>
					<g>
						<g>
							<path class="st3" d="M52.2,125.3c0,0,0.2-1,0-1.4c-0.2-0.2-0.5-0.6-0.5-0.7s-0.4-0.3-0.4-0.4s0.4-0.3,0.7,0.1
								s0.5,0.4,0.7,0.3c0.1,0,0.3-1.1,0.3-1.4s0.1-1,0.3-1c0.2,0.1,0.2,0.4,0.2,0.4s0.2-0.5,0.3-0.4s0.1,0.4,0.1,0.4
								s0.3-0.3,0.3-0.1c0.1,0.2,0,0.4,0,0.4s0.3-0.2,0.3,0.2c0,0.3-0.1,1.4-0.3,1.7c-0.2,0.4-0.9,1.3-1,1.7
								C53.1,125.6,52.2,125.3,52.2,125.3z"/>
						</g>
					</g>
				</g>
				<g>
					<g>
						<g>
							<path class="st3" d="M37.8,123.5c0,0,0.8-1.3,1-1.4c0.3-0.1,0.6-0.2,1-0.4c0.3-0.2,0.7-0.4,0.7-0.5s-0.4,0-0.8,0.1
								c-0.4,0.2-0.6,0.1-0.6,0s0.2-0.7,0.3-0.9s1-1,0.9-1.1c-0.2-0.1-0.7,0.3-0.8,0.4c0,0,0.4-1,0.3-1c-0.2,0-0.5,0.3-0.5,0.3
								s0-0.8-0.8,0.5c0,0,0.2-0.4-0.1-0.3c-0.3,0.2-0.5,1-0.6,1.4s-0.5,1.7-0.8,2C36.6,123,37.8,123.5,37.8,123.5z"/>
						</g>
					</g>
				</g>
				<g>
					<g>
						<g>
							<path class="st3" d="M40.7,128.6c0,0,0.4,0,1.2-0.3c0.9-0.3,0.9-1.8,1.1-1.6c0.4,0.3,0.7,0.1,0.9-0.1c0,0-0.4-0.5-0.2-0.8
								s0.5-0.4,0.5-0.4s-0.6-2.9-3.3-1.6C37.7,125.3,40.7,128.6,40.7,128.6z"/>
						</g>
					</g>
				</g>
				<g>
					<g>
						<g>
							<path class="st3" d="M43.8,130.1l-0.1-0.4c0,0-1.7,0-2.7,0.1l-0.1,0.5C40.9,130.3,42.1,130.8,43.8,130.1z"/>
						</g>
					</g>
				</g>
				<g>
					<g>
						<g>
							<path class="st3" d="M43.4,126.3c-0.2-0.3-0.7-0.4-0.8,0.3c-0.1,0.6,1,1.2,1,0.7C43.6,126.7,43.5,126.5,43.4,126.3z"/>
						</g>
					</g>
				</g>
				<g>
					<g>
						<g>
							<path class="st3" d="M52.2,125.1c0,0,0.6,0,0.9,0.3c0,0,0,0.2-0.1,0.3c0,0-0.5-0.3-1-0.3C52.1,125.4,52.1,125.2,52.2,125.1z"
								/>
						</g>
					</g>
				</g>
				<g>
					<g>
						<g>
							<path class="st3" d="M52.9,125.3c0.1,0.1,0,0.3-0.2,0.3c-0.1,0.1-0.3,0-0.3-0.2c-0.1-0.1,0-0.3,0.2-0.3
								C52.7,125.1,52.9,125.1,52.9,125.3z"/>
						</g>
					</g>
				</g>
			</g>
			<g>
				<g>
					<rect x="97.1" y="192.9" class="st3" width="6.2" height="26.4"/>
				</g>
			</g>
			<g>
				<g>
					<rect x="111.3" y="192.9" class="st3" width="6.2" height="26.4"/>
				</g>
			</g>
			<g>
				<g>
					<rect x="125.6" y="192.9" class="st3" width="6.2" height="26.4"/>
				</g>
			</g>
			<g>
				<g>
					<path class="st3" d="M119.6,195.7h-10.3c0-2.9,2.3-5.1,5.1-5.1C117.3,190.5,119.6,192.8,119.6,195.7z"/>
				</g>
			</g>
			<g>
				<g>
					<path class="st3" d="M133.9,195.7h-10.3c0-2.9,2.3-5.1,5.1-5.1C131.6,190.5,133.9,192.8,133.9,195.7z"/>
				</g>
			</g>
			<g>
				<g>
					<path class="st3" d="M138.6,210.5c-1.7,0-3.4,0.3-4.9,0.8c-2-5.5-7-9.3-12.9-9.3c-6.5,0-12,4.8-13.5,11.2
						c-1.1-0.5-2.3-0.7-3.6-0.7c-5.5,0-9.9,4.7-9.9,10.4h14.4h5.3h11.3h8.6h19.2C152.4,216,146.2,210.5,138.6,210.5z"/>
				</g>
			</g>
			<g>
				<g>
					<path class="st3" d="M128.2,219.9c-1.7,0-3.4,0.3-4.9,0.9c-2-5.8-7-9.9-12.9-9.9c-6.5,0-12,5.1-13.5,11.9
						c-1.1-0.5-2.3-0.8-3.6-0.8c-5.5,0-9.9,4.9-9.9,11h14.4h5.3h11.3h8.6h19.2C142.1,225.8,135.9,219.9,128.2,219.9z"/>
				</g>
			</g>
			<g>
				<g>
					<path class="st3" d="M162.3,226.7c-2,0-3.8,0.3-5.6,0.8c-2.3-5.5-7.9-9.4-14.6-9.4c-7.4,0-13.5,4.8-15.2,11.4
						c-1.3-0.5-2.7-0.7-4.1-0.7c-6.1,0-11.1,4.7-11.1,10.5H128h6h12.7h9.7H178C178,232.3,170.9,226.7,162.3,226.7z"/>
				</g>
			</g>
			<g>
				<g>
					<path class="st3" d="M112.2,229.5c-1.5,0-3,0.2-4.3,0.6c-1.8-4.3-6.2-7.3-11.3-7.3c-5.7,0-10.5,3.7-11.8,8.8
						c-1-0.4-2.1-0.6-3.2-0.6c-4.7,0-8.6,3.6-8.6,8.2h12.6h4.6h9.8h7.5h16.7C124.2,233.9,118.8,229.5,112.2,229.5z"/>
				</g>
			</g>
			<g>
				<g>
					<path class="st3" d="M164.9,206.3c0,0-0.3-0.8-0.3-0.9c-0.1-0.1-0.3-0.3-0.7-0.5c-0.3-0.2-1-0.3-1-0.3c-0.1,0-0.1,0-0.2,0.2
						s-0.1,0.3-0.1,0.3s-0.2,0.2-0.2,0.4c0,0-0.2,0.2-0.1,0.4c0,0-0.2,0.2-0.1,0.3c0,0,0.3,0.2,0.4,0.3c0.1,0.1,0.7,0.4,1.4,0.7
						C164,207.3,164.7,207.4,164.9,206.3z"/>
				</g>
			</g>
			<g>
				<g>
					<path class="st3" d="M163.7,205.9c0,0,0,0.4,0.1,0.5s-0.9,0.4-0.9,0.4S163.2,205.9,163.7,205.9z"/>
				</g>
			</g>
			<g>
				<g>
					<polygon class="st3" points="180.6,246.7 180.2,245.5 178.6,245.8 178.8,246.9 					"/>
				</g>
			</g>
			<g>
				<g>
					<polygon class="st3" points="166.9,246.6 166.8,247.3 165,247 165.1,246 					"/>
				</g>
			</g>
			<g>
				<g>
					<g>
						<path class="st3" d="M170.9,227.7c0,0,0.3,1.5,0.6,3.1c0.1,0.3,0.1,0.6,0.2,0.9c0.3,1.6,0.6,3.1,0.7,3.4
							c0.3,0.7,5.9,11,5.9,11s2.3-0.2,2.4-0.5c0,0-4.7-11.1-4.7-11.5s-0.6-11.8-0.6-11.8S171,227,170.9,227.7z"/>
					</g>
				</g>
			</g>
			<g>
				<g>
					<g>
						<path class="st3" d="M168.3,221.5c0,0-2.2,11.2-2.4,12.1c-0.2,0.9-1,12.3-1,12.3s0.5,1,2.3,0.6c0,0,2.5-12.3,2.7-12.8
							c0.8-1.6,4.8-9.4,5.2-10.5s0.3-2.4,0.3-2.4S172.4,219.2,168.3,221.5z"/>
					</g>
				</g>
			</g>
			<g>
				<g>
					<g>
						<path class="st3" d="M169.2,206.9c0,0-1,2.4-1.2,2.3c-0.3-0.1-3-3.3-3-3.3s-1.3,1.6-1.1,1.7c0.2,0.3,3.5,5.7,3.9,5.6
							c0.4-0.1,2.4-3.4,2.4-3.4S170.5,207.4,169.2,206.9z"/>
					</g>
				</g>
			</g>
			<g>
				<g>
					<g>
						<path class="st3" d="M173.4,202.4c0,0-2.5,1.9-3.2,2.7s-2.6,3.9-2.4,4.8c0.5,3.6,0.8,6.7,0.8,9.2c0,2.2-0.7,2.7-0.3,2.7
							c0.5,0,6.8,2.3,7.7,2.6c0,0-0.6-7.6-0.9-8.4C174.8,215,176,205.9,173.4,202.4z"/>
					</g>
				</g>
			</g>
			<g>
				<g>
					<path class="st3" d="M157.3,198.8l-0.6,2.8l-0.6,2.8c0,0,3.2-1,6.8-0.3l0.3-1.2l0.3-1.2C159.9,200.9,157.3,198.8,157.3,198.8z"
						/>
				</g>
			</g>
			<g>
				<g>
					<path class="st3" d="M166.8,247.3l-1.4-0.3c-0.1,0-0.3-0.6-0.6-0.5c-0.2,0.1-0.2,0.8-0.4,0.9c-0.2,0.1-1.8,1.2-2.1,1.4
						c-0.2,0.2-1.5,0.1-1.6,0.4c-0.2,0.3-0.2,1.2,1.7,1s4,0.1,4.4-0.1C167.3,249.9,166.9,247.8,166.8,247.3z"/>
				</g>
			</g>
			<g>
				<g>
					<path class="st3" d="M180.7,246.7c0,0-1.4,0-1.5-0.1c-0.1,0-0.4-0.5-0.6-0.4c-0.2,0.1-0.1,0.8-0.3,0.9
						c-0.2,0.2-1.6,1.5-1.8,1.7s-1.4,0.3-1.5,0.7s0,1.2,1.8,0.7s4-0.5,4.3-0.8C181.5,249.2,180.8,247.2,180.7,246.7z"/>
				</g>
			</g>
			<g>
				<g>
					<g>
						<path class="st3" d="M169.7,222c0,0-0.2,0.7-0.4,0.8c-0.3,0.2,1.3,1.6,1.3,1.6s0.6-1.4,0.6-1.5
							C171.1,222.8,169.7,222,169.7,222z"/>
					</g>
				</g>
			</g>
			<g>
				<g>
					<g>
						<path class="st3" d="M174.5,205.3c0,0,1.8,8.5,1.9,9.4c0.1,0.8-5.2,8.7-5.2,8.7l-1.8-1c0,0,4.3-7.9,4.3-8.2s-2.1-7.2-2.1-7.2
							s-0.9-1.5,0.7-2.2C173.8,203.9,174.5,205.3,174.5,205.3z"/>
					</g>
				</g>
			</g>
			<g>
				<g>
					<path class="st3" d="M168.7,222.6c0,0-0.6,2.9-0.5,3.8c0,0.9,3.3-1.4,3.2-2.3L168.7,222.6z"/>
				</g>
			</g>
			<g>
				<g>
					<g>
						<g>
							<path class="st3" d="M173.4,202.4c0,0-4.5,4.9-4.3,4.4c1-2,1.7-2.3,1.7-2.7c0-0.3-0.1-1.1-0.1-1.4c0-0.5-0.1-1-0.1-1
								s2.3-3.2,2.2-2.1C172.6,200.8,173.4,202.4,173.4,202.4z"/>
						</g>
					</g>
				</g>
			</g>
			<g>
				<g>
					<g>
						<g>
							<path class="st3" d="M169,196.5c0,0-0.6,1.5-0.6,1.8s0.1,0.6,0,1s-0.4,1.3-0.3,1.5c0.1,0.3,0.7,0.1,0.7,0.6
								c0.1,0.5,0.5,1.4,0.7,1.4c0.6,0,2.7-0.8,2.9-1.3c0.1-0.4,0.9-3,1.2-3.4c0.3-0.5-3.8-3.1-4.2-2.3
								C169,196.5,169,196.5,169,196.5z"/>
						</g>
					</g>
				</g>
			</g>
			<g>
				<g>
					<path class="st3" d="M174.5,197.6c0.3-1.2-1.1-1.4-1.1-1.4s-0.9-1.1-3.2-1c-2.2,0.1-1.9,3-1.9,3s1.6-0.2,2.2-0.1
						c0,0,0.1,1.2,0,1.6l0.8-0.1c0,0-0.1-1.1,0.3-1.1c0.4-0.1,0.5,2.3,1.3,2.9c0,0,0-0.2,0.1-0.3l0,0l0,0c0.2-0.3,0.4-0.7,0.6-1.2
						C174,199.1,174.4,198.3,174.5,197.6z"/>
				</g>
			</g>
			<g>
				<g>
					<g>
						<g>
							<path class="st3" d="M171.1,198.8c0,0,0.3-0.9,1-0.3c0.5,0.4,0,1.8-0.5,1.8S170.9,199.6,171.1,198.8z"/>
						</g>
					</g>
				</g>
			</g>
			<g>
				<g>
					<path class="st3" d="M172.5,201.2c0,0-0.1,0.4-0.2,0.5c-0.1,0.1-0.7,0.6-1.7,0.9l0.1,0.9C170.7,203.5,172.6,202.7,172.5,201.2z
						"/>
				</g>
			</g>
			<g>
				<g>
					<path class="st3" d="M162.5,207.2l-0.3-0.2l1.5-3.1l0.8,0.4l-1.2,2.6C163.1,207.2,162.8,207.3,162.5,207.2z"/>
				</g>
			</g>
			<g>
				<g>
					<path class="st3" d="M162.9,204.8c0,0,0.9,0.5,0.9,0.7s-0.2,0.2-0.2,0.2l0.3,0.4c0,0,0,0.3-0.3,0.3c0,0,0.1,0.3-0.3,0.2
						c0,0,0,0.2-0.2,0.2s-0.8-0.3-0.8-0.3s-0.1-0.1,0.1-0.3c0,0-0.1-0.2,0.1-0.4c0,0-0.1-0.2,0.2-0.4
						C162.5,205.3,162.4,204.9,162.9,204.8C162.8,204.7,162.8,204.7,162.9,204.8z"/>
				</g>
			</g>
			<g>
				<g>
					<polygon class="st3" points="165.5,204.6 162.3,204 162.9,201.4 166,202.1 					"/>
				</g>
			</g>
			<g>
				<g>
					<path class="st3" d="M164.5,205.4c0,0-0.7,0-1.1,0.1c-0.1,0-0.2,0.1-0.2,0.2c0,0.1,0.1,0.2,0.4,0.3s0.7,0.2,0.7,0.2
						S164.7,206.1,164.5,205.4z"/>
				</g>
			</g>
			<g>
				<g>
					<path class="st3" d="M171.5,230.7c0.1,0.3,0.1,0.6,0.2,0.9l1.8-4.8C173.2,227.3,171.5,230.7,171.5,230.7z"/>
				</g>
			</g>
			<g>
				<g>
					<path class="st3" d="M105.3,195.7H95c0-2.9,2.3-5.1,5.1-5.1C103,190.5,105.3,192.8,105.3,195.7z"/>
				</g>
			</g>
		</g>
		<g class="st2">
			<g>
				<g>
					<path class="st4" d="M82.4,232.1H60.7v-87.7h21.6L82.4,232.1L82.4,232.1z M61,231.8h21v-87.1H61V231.8L61,231.8z"/>
				</g>
			</g>
			<g>
				<g>
					<path class="st5" d="M168.1,185.7l-0.3-0.1c0.1-0.1,0.3-0.3,0.6-0.7c0.2-0.3,0.5-0.5,0.8-0.9l0.2,0.2c-0.3,0.3-0.6,0.7-0.8,0.9
						C168.3,185.4,168.1,185.6,168.1,185.7z M170.7,182.6l-0.2-0.2c0.4-0.5,0.8-1.1,1.2-1.7l0.3,0.2
						C171.5,181.4,171,182,170.7,182.6z M-5.6,180.4L-5.6,180.4l0.2-0.3l0.1,0.1L-5.6,180.4z M172.9,179.1l-0.3-0.2
						c0.3-0.6,0.7-1.2,1-1.8l0.3,0.1C173.6,177.9,173.3,178.5,172.9,179.1z M-6.9,178.7c-0.4-0.5-0.8-1.1-1.1-1.7l0.3-0.2
						c0.3,0.6,0.7,1.2,1.1,1.7L-6.9,178.7z M174.8,175.4l-0.3-0.1c0.3-0.6,0.6-1.2,0.8-1.9l0.3,0.1
						C175.4,174.2,175.1,174.8,174.8,175.4z M-9,175.2c-0.3-0.6-0.6-1.2-0.8-1.9l0.3-0.1c0.3,0.6,0.5,1.3,0.8,1.9L-9,175.2z
						 M176.4,171.6l-0.3-0.1c0.2-0.6,0.4-1.3,0.6-1.9l0.3,0.1C176.8,170.3,176.6,171,176.4,171.6z M-10.4,171.3
						c-0.2-0.7-0.4-1.3-0.5-2l0.3-0.1c0.2,0.7,0.3,1.3,0.5,2L-10.4,171.3z M177.6,167.7l-0.3-0.1c0.2-0.7,0.3-1.3,0.5-2l0.3,0.1
						C177.9,166.4,177.8,167.1,177.6,167.7z M-11.4,167.3c-0.1-0.7-0.2-1.4-0.3-2.1h0.3c0.1,0.7,0.2,1.4,0.3,2L-11.4,167.3z
						 M178.5,163.7l-0.3-0.1c0.1-0.7,0.2-1.3,0.3-2h0.3C178.7,162.3,178.6,163,178.5,163.7z M-11.7,163.2c0-0.1,0-0.2,0-0.3
						c0-0.6,0-1.2,0.1-1.8h0.3c0,0.6-0.1,1.2-0.1,1.8c0,0.1,0,0.2,0,0.3H-11.7z M179,159.6h-0.3c0.1-0.7,0.1-1.4,0.2-2h0.3
						C179.2,158.2,179.1,158.9,179,159.6z M-11.2,159.1h-0.3c0.1-0.7,0.3-1.4,0.4-2l0.3,0.1C-10.9,157.7-11,158.4-11.2,159.1z
						 M179.3,155.5H179c0-0.7,0-1.4,0-2.1h0.3C179.4,154.2,179.4,154.8,179.3,155.5z M-10.1,155.2l-0.3-0.1c0.3-0.6,0.5-1.3,0.8-1.9
						l0.3,0.1C-9.6,153.9-9.9,154.5-10.1,155.2z M-8.3,151.5l-0.3-0.2c0.3-0.6,0.8-1.1,1.2-1.7l0.2,0.2C-7.6,150.4-8,151-8.3,151.5z
						 M179,151.4c0-0.7,0-1.4-0.1-2h0.3c0,0.7,0.1,1.4,0.1,2.1H179V151.4z M-5.8,148.3l-0.2-0.2c0.5-0.5,1-1,1.5-1.4l0.2,0.2
						C-4.8,147.4-5.4,147.8-5.8,148.3z M178.8,147.3c-0.1-0.7-0.1-1.4-0.2-2h0.3c0.1,0.7,0.1,1.4,0.2,2.1h-0.3V147.3z M-2.7,145.7
						l-0.2-0.3c0.5-0.4,1.1-0.8,1.7-1.1l0.2,0.3C-1.6,144.9-2.2,145.3-2.7,145.7z M0.8,143.6l-0.1-0.3c0.6-0.3,1.2-0.6,1.9-0.9
						l0.1,0.3C2,143,1.4,143.3,0.8,143.6z M178.4,143.2c-0.1-0.7-0.2-1.4-0.3-2h0.3c0.1,0.7,0.2,1.4,0.3,2H178.4z M4.5,142l-0.1-0.3
						c0.6-0.2,1.3-0.4,2-0.6l0.1,0.3C5.8,141.6,5.1,141.8,4.5,142z M8.4,140.9l-0.1-0.3c0.7-0.2,1.3-0.3,2-0.4l0.1,0.3
						C9.8,140.5,9.1,140.7,8.4,140.9z M12.4,140.1v-0.3c0.7-0.1,1.3-0.2,2-0.3v0.3C13.8,139.8,13.1,139.9,12.4,140.1z M16.5,139.6
						v-0.3l0,0c0.7-0.1,1.3-0.1,2-0.2v0.3C17.9,139.4,17.2,139.5,16.5,139.6L16.5,139.6z M177.7,139.2c0-0.2-0.1-0.5-0.1-0.7
						c-0.1-0.4-0.2-0.9-0.3-1.3l0.3-0.1c0.1,0.4,0.2,0.9,0.3,1.3c0,0.3,0.1,0.5,0.1,0.7L177.7,139.2z M20.6,139.1v-0.3
						c0.7-0.1,1.4-0.2,2-0.3l0.1,0.3C22,138.9,21.3,139,20.6,139.1z M24.7,138.3l-0.1-0.3c0.7-0.1,1.3-0.3,2-0.4l0.1,0.3
						C26,138,25.3,138.2,24.7,138.3z M28.6,137.3l-0.1-0.3c0.7-0.2,1.3-0.4,2-0.6l0.1,0.3C30,137,29.3,137.2,28.6,137.3z
						 M32.6,136.1l-0.1-0.3c0.6-0.2,1.3-0.4,1.9-0.7l0.1,0.3C33.9,135.7,33.2,135.9,32.6,136.1z M176.8,135.2
						c-0.2-0.7-0.3-1.3-0.5-2l0.3-0.1c0.2,0.7,0.3,1.3,0.5,2L176.8,135.2z M36.4,134.7l-0.1-0.3c0.6-0.3,1.3-0.5,1.9-0.8l0.1,0.3
						C37.7,134.2,37.1,134.5,36.4,134.7z M40.2,133.1l-0.1-0.3c0.6-0.3,1.2-0.6,1.8-0.9l0.1,0.3C41.4,132.6,40.8,132.8,40.2,133.1z
						 M43.9,131.3l-0.1-0.3c0.6-0.3,1.2-0.6,1.8-1l0.1,0.3C45.1,130.7,44.5,131,43.9,131.3z M175.7,131.2c-0.2-0.6-0.4-1.3-0.7-1.9
						l0.3-0.1c0.2,0.6,0.4,1.3,0.7,1.9L175.7,131.2z M47.5,129.4l-0.1-0.3c0.6-0.3,1.2-0.7,1.8-1l0.2,0.3
						C48.7,128.7,48.1,129.1,47.5,129.4z M174.3,127.4c-0.3-0.6-0.5-1.3-0.8-1.9l0.3-0.1c0.3,0.6,0.5,1.3,0.8,1.9L174.3,127.4z
						 M51.1,127.3l-0.2-0.3c0.6-0.3,1.2-0.7,1.7-1.1l0.2,0.3C52.2,126.6,51.6,127,51.1,127.3z M54.5,125.2l-0.2-0.3
						c0.6-0.3,1.1-0.7,1.7-1.1l0.2,0.3C55.7,124.5,55.1,124.8,54.5,125.2z M172.7,123.7c-0.3-0.6-0.6-1.2-1-1.8l0.3-0.1
						c0.3,0.6,0.6,1.2,1,1.8L172.7,123.7z M58,122.9l-0.2-0.3c0.5-0.3,1.1-0.8,1.7-1.1l0.2,0.3C59.1,122.2,58.5,122.6,58,122.9z
						 M61.4,120.7l-0.2-0.3c0.6-0.4,1.1-0.8,1.7-1.2l0.2,0.3C62.5,119.9,62,120.3,61.4,120.7z M170.7,120.1
						c-0.3-0.6-0.7-1.2-1.1-1.7l0.3-0.2c0.4,0.6,0.7,1.2,1.1,1.7L170.7,120.1z M64.8,118.3l-0.2-0.3c0.6-0.4,1.1-0.8,1.7-1.2
						l0.2,0.3C65.9,117.5,65.3,117.9,64.8,118.3z M168.5,116.6c-0.4-0.6-0.8-1.1-1.2-1.6l0.2-0.2c0.4,0.5,0.8,1.1,1.2,1.6
						L168.5,116.6z M68.2,116l-0.2-0.3c0.6-0.4,1.1-0.8,1.7-1.2l0.2,0.3C69.3,115.2,68.7,115.6,68.2,116z M71.5,113.6l-0.2-0.3
						c0.6-0.4,1.1-0.8,1.7-1.1l0.2,0.3C72.6,112.9,72.1,113.3,71.5,113.6z M166,113.4c-0.4-0.5-0.9-1-1.3-1.6l0.2-0.2
						c0.4,0.5,0.9,1,1.4,1.6L166,113.4z M74.9,111.3l-0.2-0.3c0.6-0.4,1.1-0.8,1.7-1.1l0.2,0.3C76.1,110.6,75.5,110.9,74.9,111.3z
						 M163.3,110.3c-0.5-0.5-1-1-1.5-1.4l0.2-0.2c0.5,0.5,1,1,1.5,1.4L163.3,110.3z M78.3,109.1l-0.2-0.3c0.6-0.4,1.2-0.8,1.7-1.1
						L80,108C79.5,108.3,78.9,108.7,78.3,109.1z M160.3,107.6c-0.5-0.4-1-0.9-1.6-1.3l0.2-0.2c0.5,0.4,1.1,0.9,1.6,1.3L160.3,107.6z
						 M81.8,106.9l-0.2-0.3c0.6-0.3,1.2-0.7,1.7-1l0.2,0.3C83,106.2,82.4,106.6,81.8,106.9z M157.1,105c-0.5-0.4-1.1-0.8-1.7-1.2
						l0.2-0.3c0.6,0.4,1.1,0.8,1.7,1.2L157.1,105z M85.3,104.9l-0.2-0.3c0.6-0.3,1.2-0.7,1.8-1l0.1,0.3
						C86.5,104.2,85.9,104.5,85.3,104.9z M88.9,102.9l-0.1-0.3c0.6-0.3,1.2-0.6,1.8-0.9l0.1,0.3C90.1,102.3,89.5,102.6,88.9,102.9z
						 M153.7,102.7c-0.6-0.3-1.2-0.7-1.8-1l0.2-0.3c0.6,0.3,1.2,0.7,1.8,1L153.7,102.7z M92.6,101.1l-0.1-0.3
						c0.6-0.3,1.3-0.6,1.9-0.8l0.1,0.3C93.9,100.6,93.2,100.9,92.6,101.1z M150.1,100.7c-0.6-0.3-1.2-0.6-1.8-0.9l0.1-0.3
						c0.6,0.3,1.2,0.6,1.8,0.9L150.1,100.7z M96.4,99.5l-0.1-0.3c0.6-0.3,1.3-0.5,1.9-0.7l0.1,0.3C97.7,99,97,99.3,96.4,99.5z
						 M146.4,99c-0.6-0.3-1.3-0.5-1.9-0.8l0.1-0.3c0.6,0.3,1.3,0.5,1.9,0.8L146.4,99z M100.3,98.2l-0.1-0.3c0.7-0.2,1.3-0.4,2-0.6
						l0.1,0.3C101.6,97.7,100.9,97.9,100.3,98.2z M142.6,97.6c-0.6-0.2-1.3-0.4-2-0.6l0.1-0.3c0.7,0.2,1.3,0.4,2,0.6L142.6,97.6z
						 M104.2,97l-0.1-0.3c0.3-0.1,0.6-0.2,0.9-0.2c0.3-0.1,0.7-0.2,1.1-0.3l0.1,0.3c-0.3,0.1-0.7,0.2-1.1,0.3
						C104.8,96.9,104.5,97,104.2,97z M138.6,96.4c-0.7-0.2-1.3-0.3-2-0.5l0.1-0.3c0.7,0.2,1.3,0.3,2,0.5L138.6,96.4z M108.2,96.1
						l-0.1-0.3c0.7-0.1,1.4-0.3,2-0.4l0.1,0.3C109.5,95.9,108.9,96,108.2,96.1z M134.7,95.6c-0.7-0.1-1.3-0.2-2-0.3V95
						c0.7,0.1,1.4,0.2,2,0.3V95.6z M112.2,95.4l-0.1-0.3c0.7-0.1,1.4-0.2,2-0.3v0.3C113.6,95.2,112.9,95.3,112.2,95.4z M130.6,95
						c-0.7-0.1-1.4-0.1-2-0.2v-0.3c0.7,0.1,1.4,0.1,2.1,0.2L130.6,95z M116.3,95v-0.3c0.7-0.1,1.4-0.1,2.1-0.2v0.3
						C117.6,94.8,116.9,94.9,116.3,95z M126.5,94.7c-0.7,0-1.4-0.1-2.1-0.1v-0.3c0.7,0,1.4,0,2.1,0.1V94.7z M120.4,94.7v-0.3
						c0.7,0,1.4,0,2.1-0.1v0.3C121.7,94.6,121,94.6,120.4,94.7z"/>
				</g>
			</g>
			<g>
				<g>
					<g>
						<g>
							<path class="st6" d="M144.4,84.6c-0.3-1.3-0.9-2.5-1.5-3.6l1.6-2.3l-2.2-2.1l-2.2-2.1l-2.3,1.6c-1.1-0.7-2.3-1.2-3.7-1.5
								l-0.6-2.7h-3h-3l-0.5,2.7c-1.3,0.3-2.5,0.9-3.6,1.5l-2.3-1.6l-2.1,2.2l-2.1,2.2l1.6,2.3c-0.7,1.1-1.2,2.3-1.5,3.7l-2.7,0.6v3
								v3L117,92c0.3,1.3,0.9,2.5,1.5,3.6l-1.6,2.3l2.2,2.1l2.2,2.1l2.3-1.6c1.1,0.7,2.3,1.2,3.7,1.5l0.6,2.7h3h3l0.5-2.7
								c1.3-0.3,2.5-0.9,3.6-1.5l2.3,1.6l2.1-2.2l2.1-2.2l-1.5-2.4c0.7-1.1,1.2-2.3,1.5-3.7l2.7-0.6v-3v-3L144.4,84.6z M130.6,98.9
								c-5.9,0-10.6-4.7-10.7-10.6c0-5.9,4.7-10.6,10.6-10.7c5.9,0,10.6,4.7,10.7,10.6C141.3,94.1,136.5,98.9,130.6,98.9z"/>
						</g>
					</g>
				</g>
			</g>
			<g>
				<g>
					<g>
						<g>
							<path class="st4" d="M11.4,163.5c0.1,0.1,0.2,0.1,0.3,0.2l-0.2,0.3l-5.3,6.6L6,170.4l5.3-6.6L11.4,163.5z"/>
						</g>
					</g>
					<g>
						<g>
							<path class="st4" d="M35.9,157.2c0,0.1,0,0.2,0.1,0.3l-0.3,0.1l-19.8,3.7l-0.3,0.1c0-0.1,0-0.2-0.1-0.3l0.3-0.1l19.8-3.7
								L35.9,157.2z"/>
						</g>
					</g>
					<g>
						<g>
							<path class="st4" d="M50.2,137l-0.2,0.3l-10.1,17.3l-0.2,0.3c-0.1-0.1-0.2-0.1-0.3-0.2l0.2-0.3l10.1-17.3l0.2-0.3
								C50,136.9,50.1,137,50.2,137z"/>
						</g>
					</g>
					<g>
						<g>
							<path class="st4" d="M72.8,128c0,0.1,0,0.1,0.1,0.2l-19.2,6.1c0-0.1,0-0.1,0-0.2c0-0.1,0-0.1-0.1-0.2l19.2-6.1
								C72.8,127.9,72.8,128,72.8,128z"/>
						</g>
					</g>
					<g>
						<g>
							<path class="st4" d="M84.6,107.6l-8.1,17.3l-0.1,0.3c-0.1-0.1-0.2-0.1-0.3-0.1l0.1-0.3l8.1-17.3L84.6,107.6z"/>
						</g>
					</g>
				</g>
				<g>
					<g>
						<g>
							<path class="st4" d="M12.2,159c-1.5,0.4-2.3,2-1.8,3.5c0.2,0.5,0.4,0.9,0.8,1.2c0.1,0.1,0.2,0.1,0.3,0.2
								c0.7,0.5,1.6,0.7,2.4,0.4c1.3-0.4,2.1-1.7,1.9-3c0-0.1,0-0.2-0.1-0.3c0-0.1,0-0.1,0-0.2C15.3,159.4,13.7,158.6,12.2,159z
								 M15.5,161.4c0.2,1.1-0.5,2.3-1.7,2.6c-0.8,0.2-1.6,0.1-2.2-0.3c-0.1-0.1-0.2-0.1-0.3-0.2c-0.3-0.3-0.6-0.7-0.7-1.1
								c-0.4-1.3,0.3-2.7,1.6-3.1s2.7,0.3,3.1,1.6v0.1C15.5,161.2,15.5,161.3,15.5,161.4z"/>
						</g>
					</g>
				</g>
				<g>
					<g>
						<g>
							<path class="st4" d="M39.9,154.6c-0.1-0.1-0.2-0.1-0.3-0.2c-0.6-0.3-1.4-0.4-2.1-0.2c-1.3,0.4-2.1,1.7-1.9,3
								c0,0.1,0,0.2,0.1,0.3c0,0.1,0,0.1,0,0.2c0.4,1.5,2,2.3,3.5,1.8s2.3-2,1.8-3.5C40.8,155.5,40.4,154.9,39.9,154.6z M39.1,159.3
								c-1.3,0.4-2.7-0.3-3.1-1.6v-0.1c0-0.1,0-0.2-0.1-0.3c-0.2-1.1,0.5-2.3,1.7-2.6c0.6-0.2,1.3-0.1,1.8,0.2
								c0.1,0,0.2,0.1,0.3,0.2c0.4,0.3,0.8,0.8,1,1.3C41.1,157.5,40.4,158.9,39.1,159.3z"/>
						</g>
					</g>
				</g>
				<g>
					<g>
						<g>
							<path class="st4" d="M53.9,133.8c-0.5-1.4-2-2.1-3.4-1.6c-1.5,0.4-2.3,2-1.8,3.5c0.2,0.6,0.6,1.1,1.1,1.5
								c0.1,0.1,0.2,0.1,0.3,0.2c0.6,0.3,1.4,0.4,2.1,0.2c1.4-0.4,2.2-1.9,1.8-3.3c0-0.1,0-0.1,0-0.2
								C53.9,133.9,53.9,133.9,53.9,133.8z M52,137.2c-0.6,0.2-1.3,0.1-1.8-0.2c-0.1,0-0.2-0.1-0.3-0.2c-0.4-0.3-0.8-0.8-1-1.3
								c-0.4-1.3,0.3-2.7,1.6-3.1c1.2-0.4,2.6,0.3,3,1.5c0,0.1,0,0.1,0.1,0.2c0,0.1,0,0.1,0,0.2C54,135.5,53.2,136.8,52,137.2z"/>
						</g>
					</g>
				</g>
				<g>
					<g>
						<g>
							<path class="st4" d="M76.5,124.8c-0.1-0.1-0.2-0.1-0.3-0.1c-0.6-0.2-1.2-0.3-1.9-0.1c-1.4,0.4-2.2,1.9-1.8,3.3
								c0,0.1,0,0.1,0,0.2c0,0.1,0,0.1,0.1,0.2c0.5,1.4,2,2.1,3.4,1.6c1.5-0.4,2.3-2,1.8-3.5C77.6,125.7,77.1,125.2,76.5,124.8z
								 M75.9,129.6c-1.2,0.4-2.6-0.3-3-1.5c0-0.1,0-0.1-0.1-0.2c0-0.1,0-0.1,0-0.2c-0.3-1.2,0.4-2.5,1.6-2.9
								c0.6-0.2,1.1-0.1,1.6,0.1c0.1,0,0.2,0.1,0.3,0.1c0.5,0.3,1,0.8,1.2,1.4C77.9,127.8,77.2,129.2,75.9,129.6z"/>
						</g>
					</g>
				</g>
			</g>
			<g>
				<g>
					<path class="st4" d="M100,238.1H90V129.4h10V238.1z M90.7,237.4h8.6V130.1h-8.6V237.4z"/>
				</g>
			</g>
			<g>
				<g>
					
						<rect x="89.7" y="234.8" transform="matrix(0.8846 -0.4663 0.4663 0.8846 -98.7509 71.4191)" class="st4" width="10.5" height="0.9"/>
				</g>
				<g>
					
						<rect x="89.7" y="218.2" transform="matrix(0.8846 -0.4663 0.4663 0.8846 -91.0175 69.5054)" class="st4" width="10.5" height="0.9"/>
				</g>
				<g>
					
						<rect x="89.7" y="201.6" transform="matrix(0.8846 -0.4663 0.4663 0.8846 -83.2777 67.5887)" class="st4" width="10.5" height="0.9"/>
				</g>
				<g>
					
						<rect x="89.8" y="185.1" transform="matrix(0.8845 -0.4666 0.4666 0.8845 -75.5966 65.7956)" class="st4" width="10.5" height="0.9"/>
				</g>
				<g>
					
						<rect x="89.8" y="168.5" transform="matrix(0.8845 -0.4666 0.4666 0.8845 -67.8484 63.8827)" class="st4" width="10.5" height="0.9"/>
				</g>
				<g>
					
						<rect x="89.8" y="151.8" transform="matrix(0.8845 -0.4665 0.4665 0.8845 -60.0506 61.9191)" class="st4" width="10.5" height="0.9"/>
				</g>
				<g>
					
						<rect x="89.8" y="135.2" transform="matrix(0.8845 -0.4665 0.4665 0.8845 -52.3074 60.0006)" class="st4" width="10.5" height="0.9"/>
				</g>
			</g>
			<g>
				<g>
					<path class="st7" d="M142.6,238.1h-10V129.4h10V238.1z M133.4,237.4h8.6V130.1h-8.6V237.4z"/>
				</g>
			</g>
			<g>
				<g>
					
						<rect x="132.4" y="234.9" transform="matrix(0.8846 -0.4664 0.4664 0.8846 -93.8783 91.3791)" class="st4" width="10.5" height="0.9"/>
				</g>
				<g>
					
						<rect x="132.4" y="218.3" transform="matrix(0.8846 -0.4664 0.4664 0.8846 -86.1368 89.4616)" class="st4" width="10.5" height="0.9"/>
				</g>
				<g>
					
						<rect x="132.4" y="201.7" transform="matrix(0.8846 -0.4664 0.4664 0.8846 -78.3953 87.5441)" class="st4" width="10.5" height="0.9"/>
				</g>
				<g>
					
						<rect x="132.4" y="185.1" transform="matrix(0.8844 -0.4667 0.4667 0.8844 -70.6809 85.7023)" class="st4" width="10.5" height="0.9"/>
				</g>
				<g>
					
						<rect x="132.4" y="168.4" transform="matrix(0.8844 -0.4667 0.4667 0.8844 -62.8952 83.7565)" class="st4" width="10.5" height="0.9"/>
				</g>
				<g>
					
						<rect x="132.4" y="151.8" transform="matrix(0.8845 -0.4665 0.4665 0.8845 -55.1256 81.7896)" class="st4" width="10.5" height="0.9"/>
				</g>
				<g>
					
						<rect x="132.4" y="135.2" transform="matrix(0.8845 -0.4665 0.4665 0.8845 -47.3825 79.8712)" class="st4" width="10.5" height="0.9"/>
				</g>
			</g>
			<g>
				<g>
					<g>
						<polygon class="st0" points="0.5,184.6 -8.8,180.4 -5.7,179.9 						"/>
					</g>
				</g>
				<g>
					<g>
						<polygon class="st8" points="0.5,184.6 -2.6,180.4 -4.9,180.6 						"/>
					</g>
				</g>
				<g>
					<g>
						<polygon class="st9" points="-6.6,181.3 -6.7,182.5 0.5,184.6 						"/>
					</g>
				</g>
			</g>
			<g>
				<g>
					<polygon class="st10" points="152.5,185.9 165.9,185.9 165.9,195.6 165.9,197.7 163.9,195.6 152.5,195.6 					"/>
				</g>
			</g>
			<g>
				<g>
					<rect x="102.1" y="89.8" class="st11" width="28.6" height="103.7"/>
				</g>
			</g>
			<g>
				<g>
					<rect x="65.4" y="151.1" class="st12" width="21.4" height="87.4"/>
				</g>
			</g>
			<g>
				<g>
					<rect x="35.5" y="171.8" class="st13" width="21.4" height="66.7"/>
				</g>
			</g>
			<g>
				<g>
					<path class="st4" d="M53.4,234.6H31.8v-67h21.6V234.6z M32.1,234.4h21.1V168h-21L32.1,234.4L32.1,234.4z"/>
				</g>
			</g>
			<g>
				<g>
					<rect x="5.7" y="192.1" class="st14" width="21.4" height="46.4"/>
				</g>
			</g>
			<g>
				<g>
					<path class="st4" d="M23.1,235.4H1.5v-46.7h21.6V235.4L23.1,235.4z M1.8,235.1h21V189h-21C1.8,189,1.8,235.1,1.8,235.1z"/>
				</g>
			</g>
			<g>
				<g>
					<g>
						<g>
							<polygon class="st15" points="48.2,261.5 47.9,261.5 49.5,220.5 21.3,220.5 19.7,261.5 19.4,261.5 21,220.1 49.9,220.1 
															"/>
						</g>
					</g>
				</g>
			</g>
			<g>
				<g>
					<g>
						<g>
							<polygon class="st16" points="50.9,261.5 49.2,220.5 21,220.5 22.6,261.5 22.3,261.5 20.7,220.1 49.6,220.1 51.2,261.5 
															"/>
						</g>
					</g>
				</g>
			</g>
			<g>
				<g>
					<g>
						<polygon class="st15" points="22.5,248.1 51.1,248.1 49.4,206.9 20.8,206.9 						"/>
					</g>
				</g>
			</g>
			<g>
				<g>
					<g>
						<polygon class="st17" points="47.3,248.1 18.7,248.1 20.3,206.9 48.9,206.9 						"/>
					</g>
				</g>
			</g>
			<g>
				<g>
					<path class="st18" d="M32.5,213.4c-0.7-1.9-2.5-3.1-4.5-3.1c-0.5,0-1,0.1-1.4,0.3c-1.4,0.5-2.4,1.6-2.9,3c-0.3,0.9-0.3,2,0.1,3
						c0,0.1,0.1,0.2,0.1,0.3c0.2,0.4,0.4,0.8,0.7,1.1c1.2,1.4,3.2,2,5.1,1.4C32.1,218.4,33.4,215.7,32.5,213.4z M29.4,218.2
						c-1.4,0.5-2.9,0.1-3.8-1c-0.2-0.3-0.4-0.5-0.5-0.9c0-0.1-0.1-0.1-0.1-0.2c-0.3-0.7-0.3-1.5,0-2.2c0.3-1,1.1-1.8,2.2-2.2
						c0.3-0.1,0.7-0.2,1.1-0.2c1.5,0,2.9,0.9,3.4,2.3C32.1,215.5,31.2,217.5,29.4,218.2z"/>
				</g>
			</g>
			<g>
				<g>
					<path class="st6" d="M116.3,62.3C103.7,74.9,102,89.9,102,89.9h14.3h14.3C130.6,89.8,128.8,74.8,116.3,62.3z"/>
				</g>
			</g>
			<g>
				<g>
					<g>
						<path class="st18" d="M42,211.1c-0.2-0.2-0.4-0.4-0.6-0.6c-0.2,0.2-0.4,0.4-0.6,0.6l-0.2-0.2c0.2-0.3,0.5-0.5,0.7-0.8l0.1-0.1
							l0.1,0.1c0.3,0.3,0.5,0.5,0.7,0.8L42,211.1z"/>
					</g>
				</g>
				<g>
					<g>
						<path class="st18" d="M37.8,241.7h-0.3v-2h0.3V241.7z M37.8,237.8h-0.3v-2h0.3V237.8z M37.8,233.8h-0.3v-2h0.3V233.8z
							 M37.8,229.9h-0.3v-2h0.3V229.9z M37.8,226h-0.3v-2h0.3V226z M37.8,222h-0.3v-2h0.3V222z M37.8,218.1h-0.3v-0.6l0,0
							c0-0.3,0.3-1.3,0.3-1.4l0.3,0.1c-0.2,0.7-0.3,1.2-0.3,1.3V218.1z M38.7,214.4l-0.3-0.1c0.3-0.6,0.6-1.2,0.9-1.7l0.3,0.2
							C39.3,213.2,39,213.8,38.7,214.4z"/>
					</g>
				</g>
				<g>
					<g>
						<polygon class="st18" points="38.7,244.8 37.5,244.8 37.5,243.6 37.8,243.6 37.8,244.5 38.7,244.5 						"/>
					</g>
				</g>
				<g>
					<g>
						<rect x="40.5" y="244.5" class="st18" width="1.8" height="0.3"/>
					</g>
				</g>
				<g>
					<g>
						<polygon class="st18" points="45.3,244.8 44.1,244.8 44.1,244.5 45,244.5 45,243.6 45.3,243.6 						"/>
					</g>
				</g>
				<g>
					<g>
						<path class="st18" d="M45.3,241.7H45v-1.9h0.3V241.7z M45.3,237.8H45v-1.9h0.3V237.8z M45.3,234H45v-2h0.3V234z M45.3,230.1
							H45v-1.9h0.3V230.1z M45.3,226.2H45v-1.9h0.3V226.2z M45.3,222.4H45v-1.9h0.3V222.4z"/>
					</g>
				</g>
				<g>
					<g>
						<path class="st18" d="M45.3,218.5H45v-1c0-0.1-0.1-0.4-0.2-1l0.3-0.1c0.2,0.6,0.2,1,0.2,1l0,0V218.5L45.3,218.5z"/>
					</g>
				</g>
				<g>
					<g>
						<path class="st18" d="M44.1,214.6c-0.3-0.6-0.6-1.2-1-1.8l0.3-0.2c0.3,0.6,0.7,1.2,1,1.8L44.1,214.6z"/>
					</g>
				</g>
			</g>
			<g>
				<g>
					<path class="st19" d="M134,225.5c-1.2,0-2.3,0.2-3.4,0.5c-1.4-3.4-4.8-5.7-8.8-5.7c-4.5,0-8.2,2.9-9.2,6.9
						c-0.8-0.3-1.6-0.4-2.5-0.4c-3.7,0-6.7,2.9-6.7,6.4h9.8h3.6h7.7h5.9h13.1C143.5,228.9,139.3,225.5,134,225.5z"/>
				</g>
			</g>
			<g>
				<g>
					<path class="st20" d="M102.6,96.4c-0.9,0-1.6,0.1-2.4,0.4c-1-2.6-3.4-4.5-6.3-4.5c-3.2,0-5.8,2.3-6.5,5.4
						c-0.5-0.2-1.1-0.3-1.8-0.3c-2.6,0-4.8,2.3-4.8,5h7h2.6h5.5h4.2h9.4C109.3,99.1,106.3,96.4,102.6,96.4z"/>
				</g>
			</g>
			<g>
				<g>
					<path class="st20" d="M132.6,89.3c-0.5,0-1,0.1-1.5,0.3c-0.6-1.6-2.1-2.8-3.9-2.8c-2,0-3.6,1.4-4.1,3.4
						c-0.3-0.2-0.7-0.2-1.1-0.2c-1.6,0-3,1.4-3,3.1h4.3h1.6h3.4h2.6h5.8C136.7,91,134.9,89.3,132.6,89.3z"/>
				</g>
			</g>
			<g>
				<g>
					<path class="st21" d="M147.7,111.9c-0.9,0-1.7,0.2-2.5,0.4c-1-2.9-3.6-5-6.5-5c-3.3,0-6.1,2.6-6.8,6c-0.6-0.3-1.2-0.4-1.8-0.4
						c-2.8,0-5,2.5-5,5.6h7.3h2.7h5.7h4.3h9.7C154.7,114.8,151.5,111.9,147.7,111.9z"/>
				</g>
			</g>
			<g>
				<g>
					<rect x="31.8" y="222.8" class="st18" width="2.7" height="22.1"/>
				</g>
			</g>
			<g>
				<g>
					<rect x="28" y="228" class="st18" width="2.7" height="16.9"/>
				</g>
			</g>
			<g>
				<g>
					<rect x="24.2" y="233.2" class="st18" width="2.7" height="11.7"/>
				</g>
			</g>
			<g>
				<g>
					<g>
						<g>
							<polygon class="st22" points="21.1,210.1 27.5,213.6 33.9,203.6 26.2,200.9 							"/>
						</g>
					</g>
				</g>
				<g>
					<g>
						<g>
							<polygon class="st23" points="21.5,209.8 27.5,213.1 33.5,203.6 26.2,201.1 							"/>
						</g>
					</g>
				</g>
				<g>
					<g>
						<g>
							<path class="st24" d="M19.4,208c0,0,1.1-0.5,1.6-0.8s1.7-0.7,1.8-0.8c0.1-0.1,3.7-0.3,3.9-0.5c0.2-0.2,0.4,0.4-0.5,0.6
								c-0.9,0.2-2.2,0.7-2.3,1.1c-0.1,0.4,1,0.4,1.1,0.8c0.1,0.3,0,0.2-0.2,0.3s-1.2-0.5-1.7-0.3s-1.2-0.1-1.6,0.1
								c-0.3,0.1-2.1,0.7-2.1,0.7L19.4,208z"/>
						</g>
					</g>
				</g>
				<g>
					<g>
						<g>
							<path class="st25" d="M21.4,208.8l0.6-0.2c0,0-0.7-1.7-1-1.6c-0.3,0-0.8,0.2-0.8,0.2L21.4,208.8z"/>
						</g>
					</g>
				</g>
				<g>
					<g>
						<g>
							<path class="st26" d="M21.5,209.1c-0.1-0.1-1.2-2.3-1.2-2.3l-2.4,0.3l1.3,2.6L21.5,209.1z"/>
						</g>
					</g>
				</g>
				<g>
					<g>
						<g>
							<path class="st24" d="M27.8,212.3c0,0,0.9-0.8,1.4-1.2c0.4-0.3,1.3-1.4,1.4-1.4c0.1-0.1,1.7-3.4,2-3.5s-0.3-0.6-0.8,0.2
								s-1.5,1.8-1.9,1.7s-0.1-1.1-0.3-1.3c-0.3-0.2-0.2-0.1-0.3,0.1c-0.1,0.1,0,1.4-0.3,1.7c-0.3,0.4-0.4,1.1-0.7,1.5
								c-0.3,0.3-1.5,1.7-1.5,1.7L27.8,212.3z"/>
						</g>
					</g>
				</g>
				<g>
					<g>
						<g>
							<path class="st27" d="M7.8,257.1c0,0-0.2,1.4-0.2,1.6s-2.3-0.1-2.3-0.1L5.1,257C5.1,256.9,7.5,256.9,7.8,257.1z"/>
						</g>
					</g>
				</g>
				<g>
					<g>
						<g>
							<path class="st22" d="M7.6,258.5c0,0,0.7,0.9,1.4,1.2c0.7,0.4,1.7,0.5,2.2,0.9c0.3,0.3,1,1.5-1.8,1.4c-2.8,0-4.2,0.2-4.5-0.3
								c-0.3-0.4,0.4-3.3,0.4-3.3S6,258.7,7.6,258.5z"/>
						</g>
					</g>
				</g>
				<g>
					<g>
						<g>
							<path class="st27" d="M23.6,257.1c0,0-0.2,1.4-0.2,1.6s-2.3-0.1-2.3-0.1l-0.2-1.6C21,256.9,23.4,256.9,23.6,257.1z"/>
						</g>
					</g>
				</g>
				<g>
					<g>
						<g>
							<path class="st22" d="M23.5,258.5c0,0,0.7,0.9,1.4,1.2c0.7,0.4,3.2,0.7,3.6,1c0.3,0.3,0.8,1.4-3.2,1.3
								c-2.8-0.1-4.2,0.2-4.5-0.3c-0.3-0.4,0.4-3.3,0.4-3.3S21.8,258.7,23.5,258.5z"/>
						</g>
					</g>
				</g>
				<g>
					<g>
						<g>
							<path class="st22" d="M9.6,221.2c0,0-2.1,3.3-1.9,6.3s-0.8,6.3-1.1,9.4c-0.3,3.5-1.8,11.7-1.8,13.6c-0.1,1.9,0.2,7.8,0.2,7.8
								l2.9,0.1c0,0,2.4-14.4,3-15.9s3.7-12,3.8-13.1C14.8,228.1,9.6,221.2,9.6,221.2z"/>
						</g>
					</g>
				</g>
				<g>
					<g>
						<g>
							<path class="st22" d="M20.6,221.6c0,0,1.6,8.2,1.8,10c0.2,1.8,0.3,8.9,0.4,10s0.7,15,1.2,16.7h-3.6c0,0-2.8-10.1-2.8-14.8
								c0-4.8-2.2-10.3-3.6-13.5c-1.4-3.1-4.6-3.2-5.5-9C8.6,221,19.4,219.8,20.6,221.6z"/>
						</g>
					</g>
				</g>
				<g>
					<g>
						<g>
							<path class="st24" d="M13.1,193.4c0,0,2.8-1,4.1,1.1s1.2,6.4-0.3,6.9c-1.4,0.5-3.5,0.3-4.3-1.1c-0.7-1.3-1.4-3.3-1.3-4.5
								C11.4,194.5,12.3,193.8,13.1,193.4z"/>
						</g>
					</g>
				</g>
				<g>
					<g>
						<g>
							<path class="st24" d="M16.6,201.5c0,0-0.1,0.8,0.1,1.1c0.2,0.4-3.6,0.4-3.6,0.4s-0.3-2-0.9-3.7
								C11.6,197.6,16.6,201.5,16.6,201.5z"/>
						</g>
					</g>
				</g>
				<g>
					<g>
						<g>
							<path class="st28" d="M12.2,199.3c0,0,0.3,0.4,1.3,0.3c1.1-0.2,2.4-1.6,2.8-1.7c0.4-0.2,0.4-0.4,0.4-0.4l0.3,0.4h0.5
								c0,0-0.4-1.3,0.2-1.8c0.7-0.5-0.7-4.1-4.1-2.9c0,0-2.6,0.7-2.5,2.2C11.2,196.8,11.6,198.5,12.2,199.3z"/>
						</g>
					</g>
				</g>
				<g>
					<g>
						<g>
							<path class="st29" d="M16.9,202.6c0,0,0-0.7-0.3-0.8s-3.6-0.4-3.9-0.2v0.8C12.6,202.4,13.4,202.9,16.9,202.6z"/>
						</g>
					</g>
				</g>
				<g>
					<g>
						<g>
							<path class="st24" d="M16.7,196.8c-0.1-0.3-0.7-1-1-0.2c-0.3,0.8,0.4,1.8,0.7,1.7C16.9,198.3,16.9,197.5,16.7,196.8z"/>
						</g>
					</g>
				</g>
				<g>
					<g>
						<g>
							<path class="st30" d="M29.7,210.9L29.7,210.9C29.8,211,29.8,211,29.7,210.9z"/>
						</g>
					</g>
				</g>
				<g>
					<g>
						<g>
							<path class="st30" d="M7.3,229.1c0,0,1.7,0.5,4.6,0.8s10.2-0.1,10.3-0.5c0-0.3-1.6-12.8-1.5-13.5c0.1-0.6,0.1-3,0.1-3
								c0,0.6,0.7,3.2,1.5,4.6c0.3,0.5,1.2,2.1,1.7,1.7c2.2-1.7,5.6-8.3,5.8-8.4c-0.2-0.1-1.6-0.7-1.8-0.8c-0.2-0.1-1.7,1.6-2.7,2.6
								c-0.4,0.5-0.7,0.8-0.7,0.8c-0.3-0.6-1.3-4.5-1.6-5.9c-0.7-3-0.6-3.2-0.6-3.2c-2.1-0.6-5.4-2-5.4-2l-4.3-0.2
								c0,0-3.9,0.9-5.5,1.6C7,204,7,207.5,6.6,208.4l1.3,2.7c0,0,0.7,5.4,0.9,7.7C8.9,219.9,7.3,229.1,7.3,229.1z"/>
						</g>
					</g>
				</g>
				<g>
					<g>
						<g>
							<path class="st30" d="M6.4,212.8c0.1,0.3,0.6,0.7,1,0.8c0.2,0.1,0.4,0.1,0.7,0.1h0.2l0,0l2.9-0.5c0,0,0.6-7.4-4-9.2
								C7,204,5.4,209.5,6.4,212.8z"/>
						</g>
					</g>
				</g>
				<g>
					<g>
						<g>
							<path class="st31" d="M7.4,213.6L7.4,213.6c0.2,0.1,0.4,0.1,0.7,0.1h0.2l0,0L8,209.9L7.4,213.6z"/>
						</g>
					</g>
				</g>
				<g>
					<g>
						<g>
							<path class="st31" d="M24.5,213.6l0.3,1.5c0,0,0.4-1.5,0.4-2.3C24.8,213.3,24.5,213.6,24.5,213.6z"/>
						</g>
					</g>
				</g>
				<g>
					<g>
						<g>
							<path class="st28" d="M12.3,193.7c0,0-3.5,0.3-0.1,5.7L12.3,193.7z"/>
						</g>
					</g>
				</g>
				<g>
					<g>
						<g>
							<polygon class="st22" points="31,203 31.3,202.3 28.4,201.3 28,202 							"/>
						</g>
					</g>
				</g>
			</g>
			<g>
				<g>
					<path class="st6" d="M123.3,111.8c0,3.8-3.1,6.9-6.9,6.9s-6.9-3.1-6.9-6.9s3.1-6.9,6.9-6.9C120.2,104.9,123.3,108,123.3,111.8z
						"/>
				</g>
			</g>
			<g>
				<g>
					<circle class="st6" cx="116.3" cy="132.6" r="6.9"/>
				</g>
			</g>
			<g>
				<g>
					<path class="st19" d="M121.6,132.6c0,2.9-2.3,5.1-5.1,5.2c-2.9,0-5.1-2.3-5.2-5.1c0-2.9,2.3-5.1,5.1-5.2
						C119.3,127.4,121.6,129.7,121.6,132.6z"/>
				</g>
			</g>
			<g>
				<g>
					<path class="st19" d="M121.5,111.8c0,2.9-2.3,5.1-5.1,5.2c-2.9,0-5.1-2.3-5.2-5.1c0-2.9,2.3-5.1,5.1-5.2
						C119.2,106.7,121.5,108.9,121.5,111.8z"/>
				</g>
			</g>
			<g>
				<g>
					<g>
						<g>
							<path class="st24" d="M46.4,129.3c0,0,0.5-0.9-0.3-3.1c-0.8-2.2-3.3-2-4.2-0.6c-0.8,1.4-0.5,2.3,0.7,3.9
								C43.9,131.1,45.9,130,46.4,129.3z"/>
						</g>
					</g>
				</g>
				<g>
					<g>
						<g>
							<path class="st24" d="M40.4,168.6c0,0-0.1,1-0.2,1.1s-1.4-0.1-1.4-0.1l-0.1-1.1C38.7,168.5,40.2,168.5,40.4,168.6z"/>
						</g>
					</g>
				</g>
				<g>
					<g>
						<g>
							<path class="st3" d="M40.3,169.6c0,0,0.4,0.6,0.9,0.8c0.4,0.3,1.1,0.3,1.4,0.6c0.2,0.2,0.7,1-1.1,1s-2.7,0.1-2.9-0.2
								s0.3-2.3,0.3-2.3S39.3,169.6,40.3,169.6z"/>
						</g>
					</g>
				</g>
				<g>
					<g>
						<g>
							<path class="st24" d="M50.2,168.6c0,0-0.1,1-0.2,1.1s-1.4-0.1-1.4-0.1l-0.1-1.1C48.5,168.5,50,168.5,50.2,168.6z"/>
						</g>
					</g>
				</g>
				<g>
					<g>
						<g>
							<path class="st3" d="M50,169.6c0,0,0.4,0.6,0.9,0.8c0.4,0.3,2,0.4,2.3,0.7c0.2,0.2,0.5,0.9-2,0.9c-1.8-0.1-2.7,0.1-2.9-0.2
								s0.3-2.3,0.3-2.3S49.1,169.6,50,169.6z"/>
						</g>
					</g>
				</g>
				<g>
					<g>
						<g>
							<path class="st32" d="M40.9,145.3c0,0-0.7,2.3-0.6,4.2s-0.4,4.1-0.6,6.1c-0.2,2.3-1.1,7.6-1.1,8.8s0.1,5,0.1,5h1.7
								c0,0,1.5-9.3,1.8-10.3c0.4-1,2.3-7.7,2.3-8.5C44.7,149.9,40.9,145.3,40.9,145.3z"/>
						</g>
					</g>
				</g>
				<g>
					<g>
						<g>
							<path class="st33" d="M48.1,145.1c0,0,1,5.9,1.2,7.1c0.1,1.2,0.2,5.7,0.3,6.5c0.1,0.7,0.4,9.7,0.8,10.8h-1.9c0,0-2-6.5-2-9.6
								s-1.3-6.7-2.2-8.7s-2.8-2.1-3.3-5.8C40.9,145.3,47.4,143.8,48.1,145.1z"/>
						</g>
					</g>
				</g>
				<g>
					<g>
						<g>
							<path class="st24" d="M45.7,129.9c0,0-0.2,0.6,0,1.1c0.2,0.4-2.8,0.2-2.8,0.2s0.1-1-0.3-1.7
								C42.3,128.7,45.7,129.9,45.7,129.9z"/>
						</g>
					</g>
				</g>
				<g>
					<g>
						<g>
							<path class="st34" d="M40.7,145.7c0,0,1.1,1.1,7.5-0.2l-0.1-0.5l-7.3,0.3L40.7,145.7z"/>
						</g>
					</g>
				</g>
				<g>
					<g>
						<g>
							<path class="st24" d="M46.2,131.2c0,0,1.1,0.1,1.4,0.2s2.5-0.4,2.9-0.4s2.3-1.3,2.4-1.5s1.1-2.9,1.2-3.5c0.1-0.6,1-0.3,1,0.1
								c-0.2,0.8-0.3,2.6-0.5,3.2c-0.1,0.6-0.4,1.9-0.6,2.1c-0.2,0.2-1.9,1.5-3.5,2s-2.9,1.4-2.9,1.4h-8.2c0,0-3.2-4.5-3.2-5.2
								c-0.1-0.7,2.2-5.2,2.7-5.8c0.4-0.6,1.1,0.2,1.1,0.2s-1.4,4-1.6,4.6c-0.2,0.6,1.6,3.1,2.1,3.1s1.7-0.2,2.3-0.2
								s1.1-0.3,1.1-0.3L46.2,131.2z"/>
						</g>
					</g>
				</g>
				<g>
					<g>
						<g>
							<path class="st35" d="M49.7,134.2c0,0-1,0.7-1.1,1.8s-0.4,3-0.6,3.6c-0.2,0.6,0.2,5.1,0.2,5.4c0,0.3-6.3,1.1-7.3,0.3
								c0,0-0.3-4.2-0.4-5.4c-0.1-1.2-0.7-4.1-0.9-4.4c-0.2-0.4-2.4-3.5-2.5-3.9c0,0,1.1-1.8,2-1.8c0,0,1.3,1.5,1.7,1.6s3-0.4,3-0.4
								s0.3,0.4,1.8-0.1c0,0,1.8,0.2,2.1,0.3c0.3,0,2.8-0.3,2.8-0.3s1,1.7,0.8,2.5L49.7,134.2z"/>
						</g>
					</g>
				</g>
				<g>
					<g>
						<g>
							<path class="st24" d="M54.1,126.3c0,0,0.2-1,0-1.4c-0.2-0.2-0.5-0.6-0.5-0.7s-0.4-0.3-0.4-0.4s0.4-0.3,0.7,0.1
								s0.5,0.4,0.7,0.3c0.1,0,0.3-1.1,0.3-1.4s0.1-1,0.3-1c0.2,0.1,0.2,0.4,0.2,0.4s0.2-0.5,0.3-0.4s0.1,0.4,0.1,0.4
								s0.3-0.3,0.3-0.1c0.1,0.2,0,0.4,0,0.4s0.3-0.2,0.3,0.2c0,0.3-0.1,1.4-0.3,1.7c-0.2,0.4-0.9,1.3-1,1.7
								C55,126.6,54.1,126.3,54.1,126.3z"/>
						</g>
					</g>
				</g>
				<g>
					<g>
						<g>
							<path class="st24" d="M39.7,124.4c0,0,0.8-1.3,1-1.4c0.3-0.1,0.6-0.2,1-0.4c0.3-0.2,0.7-0.4,0.7-0.5s-0.4,0-0.8,0.1
								c-0.4,0.2-0.6,0.1-0.6,0s0.2-0.7,0.3-0.9s1-1,0.9-1.1c-0.2-0.1-0.7,0.3-0.8,0.4c0,0,0.4-1,0.3-1c-0.2,0-0.5,0.3-0.5,0.3
								s0-0.8-0.8,0.5c0,0,0.2-0.4-0.1-0.3c-0.3,0.2-0.5,1-0.6,1.4s-0.5,1.7-0.8,2C38.5,123.9,39.7,124.4,39.7,124.4z"/>
						</g>
					</g>
				</g>
				<g>
					<g>
						<g>
							<path class="st36" d="M42.6,129.5c0,0,0.4,0,1.2-0.3c0.9-0.3,0.9-1.8,1.1-1.6c0.4,0.3,0.7,0.1,0.9-0.1c0,0-0.4-0.5-0.2-0.8
								s0.5-0.4,0.5-0.4s-0.6-2.9-3.3-1.6C39.6,126.2,42.6,129.5,42.6,129.5z"/>
						</g>
					</g>
				</g>
				<g>
					<g>
						<g>
							<path class="st35" d="M45.7,131l-0.1-0.4c0,0-1.7,0-2.7,0.1l-0.1,0.5C42.8,131.2,44,131.8,45.7,131z"/>
						</g>
					</g>
				</g>
				<g>
					<g>
						<g>
							<path class="st24" d="M45.3,127.3c-0.2-0.3-0.7-0.4-0.8,0.3c-0.1,0.6,1,1.2,1,0.7C45.5,127.7,45.4,127.4,45.3,127.3z"/>
						</g>
					</g>
				</g>
				<g>
					<g>
						<g>
							<path class="st37" d="M54.1,126c0,0,0.6,0,0.9,0.3c0,0,0,0.2-0.1,0.3c0,0-0.5-0.3-1-0.3C54,126.4,54,126.1,54.1,126z"/>
						</g>
					</g>
				</g>
				<g>
					<g>
						<g>
							<path class="st36" d="M54.8,126.2c0.1,0.1,0,0.3-0.2,0.3c-0.1,0.1-0.3,0-0.3-0.2c-0.1-0.1,0-0.3,0.2-0.3
								C54.6,126,54.8,126.1,54.8,126.2z"/>
						</g>
					</g>
				</g>
			</g>
			<g>
				<g>
					<rect x="99" y="193.8" class="st38" width="6.2" height="26.4"/>
				</g>
			</g>
			<g>
				<g>
					<rect x="113.2" y="193.8" class="st38" width="6.2" height="26.4"/>
				</g>
			</g>
			<g>
				<g>
					<rect x="127.5" y="193.8" class="st38" width="6.2" height="26.4"/>
				</g>
			</g>
			<g>
				<g>
					<path class="st11" d="M121.5,196.6h-10.3c0-2.9,2.3-5.1,5.1-5.1C119.2,191.4,121.5,193.8,121.5,196.6z"/>
				</g>
			</g>
			<g>
				<g>
					<path class="st11" d="M135.8,196.6h-10.3c0-2.9,2.3-5.1,5.1-5.1C133.5,191.4,135.8,193.8,135.8,196.6z"/>
				</g>
			</g>
			<g>
				<g>
					<path class="st3" d="M140.5,211.5c-1.7,0-3.4,0.3-4.9,0.8c-2-5.5-7-9.3-12.9-9.3c-6.5,0-12,4.8-13.5,11.2
						c-1.1-0.5-2.3-0.7-3.6-0.7c-5.5,0-9.9,4.7-9.9,10.4H110h5.3h11.3h8.6h19.2C154.4,217,148.1,211.5,140.5,211.5z"/>
				</g>
			</g>
			<g>
				<g>
					<path class="st19" d="M130.1,220.8c-1.7,0-3.4,0.3-4.9,0.9c-2-5.8-7-9.9-12.9-9.9c-6.5,0-12,5.1-13.5,11.9
						c-1.1-0.5-2.3-0.8-3.6-0.8c-5.5,0-9.9,4.9-9.9,11h14.4h5.3h11.3h8.6H144C144,226.7,137.8,220.8,130.1,220.8z"/>
				</g>
			</g>
			<g>
				<g>
					<path class="st21" d="M164.2,227.6c-2,0-3.8,0.3-5.6,0.8c-2.3-5.5-7.9-9.4-14.6-9.4c-7.4,0-13.5,4.8-15.2,11.4
						c-1.3-0.5-2.7-0.7-4.1-0.7c-6.1,0-11.1,4.7-11.1,10.5h16.2h6h12.7h9.7h21.6C179.9,233.2,172.8,227.6,164.2,227.6z"/>
				</g>
			</g>
			<g>
				<g>
					<path class="st20" d="M114.1,230.5c-1.5,0-3,0.2-4.3,0.6c-1.8-4.3-6.2-7.3-11.3-7.3c-5.7,0-10.5,3.7-11.8,8.8
						c-1-0.4-2.1-0.6-3.2-0.6c-4.7,0-8.6,3.6-8.6,8.2h12.6h4.6h9.8h7.5h16.7C126.1,234.8,120.7,230.5,114.1,230.5z"/>
				</g>
			</g>
			<g>
				<g>
					<path class="st24" d="M166.8,207.3c0,0-0.3-0.8-0.3-0.9c-0.1-0.1-0.3-0.3-0.7-0.5c-0.3-0.2-1-0.3-1-0.3c-0.1,0-0.1,0-0.2,0.2
						s-0.1,0.3-0.1,0.3s-0.2,0.2-0.2,0.4c0,0-0.2,0.2-0.1,0.4c0,0-0.2,0.2-0.1,0.3c0,0,0.3,0.2,0.4,0.3c0.1,0.1,0.7,0.4,1.4,0.7
						C165.9,208.3,166.6,208.3,166.8,207.3z"/>
				</g>
			</g>
			<g>
				<g>
					<path class="st39" d="M165.6,206.9c0,0,0,0.4,0.1,0.5s-0.9,0.4-0.9,0.4S165.1,206.9,165.6,206.9z"/>
				</g>
			</g>
			<g>
				<g>
					<polygon class="st40" points="182.5,247.7 182.1,246.5 180.5,246.7 180.7,247.8 					"/>
				</g>
			</g>
			<g>
				<g>
					<polygon class="st41" points="168.8,247.6 168.7,248.2 166.9,247.9 167,246.9 					"/>
				</g>
			</g>
			<g>
				<g>
					<g>
						<path class="st42" d="M172.8,228.6c0,0,0.3,1.5,0.6,3.1c0.1,0.3,0.1,0.6,0.2,0.9c0.3,1.6,0.6,3.1,0.7,3.4
							c0.3,0.7,5.9,11,5.9,11s2.3-0.2,2.4-0.5c0,0-4.7-11.1-4.7-11.5s-0.6-11.8-0.6-11.8S172.9,228,172.8,228.6z"/>
					</g>
				</g>
			</g>
			<g>
				<g>
					<g>
						<path class="st42" d="M170.2,222.4c0,0-2.2,11.2-2.4,12.1c-0.2,0.9-1,12.3-1,12.3s0.5,1,2.3,0.6c0,0,2.5-12.3,2.7-12.8
							c0.8-1.6,4.8-9.4,5.2-10.5s0.3-2.4,0.3-2.4S174.3,220.2,170.2,222.4z"/>
					</g>
				</g>
			</g>
			<g>
				<g>
					<g>
						<path class="st22" d="M171.1,207.9c0,0-1,2.4-1.2,2.3c-0.3-0.1-3-3.3-3-3.3s-1.3,1.6-1.1,1.7c0.2,0.3,3.5,5.7,3.9,5.6
							c0.4-0.1,2.4-3.4,2.4-3.4S172.4,208.3,171.1,207.9z"/>
					</g>
				</g>
			</g>
			<g>
				<g>
					<g>
						<path class="st30" d="M175.3,203.3c0,0-2.5,1.9-3.2,2.7s-2.6,3.9-2.4,4.8c0.5,3.6,0.8,6.7,0.8,9.2c0,2.2-0.7,2.7-0.3,2.7
							c0.5,0,6.8,2.3,7.7,2.6c0,0-0.6-7.6-0.9-8.4C176.7,216,177.9,206.8,175.3,203.3z"/>
					</g>
				</g>
			</g>
			<g>
				<g>
					<path class="st43" d="M159.2,199.7l-0.6,2.8l-0.6,2.8c0,0,3.2-1,6.8-0.3l0.3-1.2l0.3-1.2C161.8,201.8,159.2,199.7,159.2,199.7z
						"/>
				</g>
			</g>
			<g>
				<g>
					<path class="st44" d="M168.7,248.2l-1.4-0.3c-0.1,0-0.3-0.6-0.6-0.5c-0.2,0.1-0.2,0.8-0.4,0.9c-0.2,0.1-1.8,1.2-2.1,1.4
						c-0.2,0.2-1.5,0.1-1.6,0.4c-0.2,0.3-0.2,1.2,1.7,1s4,0.1,4.4-0.1C169.2,250.8,168.9,248.8,168.7,248.2z"/>
				</g>
			</g>
			<g>
				<g>
					<path class="st44" d="M182.6,247.7c0,0-1.4,0-1.5-0.1s-0.4-0.5-0.6-0.4c-0.2,0.1-0.1,0.8-0.3,0.9c-0.2,0.2-1.6,1.5-1.8,1.7
						s-1.4,0.3-1.5,0.7s0,1.2,1.8,0.7s4-0.5,4.3-0.8C183.4,250.2,182.7,248.2,182.6,247.7z"/>
				</g>
			</g>
			<g>
				<g>
					<g>
						<path class="st45" d="M171.6,222.9c0,0-0.2,0.7-0.4,0.8c-0.3,0.2,1.3,1.6,1.3,1.6s0.6-1.4,0.6-1.5
							C173,223.8,171.6,222.9,171.6,222.9z"/>
					</g>
				</g>
			</g>
			<g>
				<g>
					<g>
						<path class="st46" d="M176.4,206.3c0,0,1.8,8.5,1.9,9.4c0.1,0.8-5.2,8.7-5.2,8.7l-1.8-1c0,0,4.3-7.9,4.3-8.2s-2.1-7.2-2.1-7.2
							s-0.9-1.5,0.7-2.2C175.7,204.9,176.4,206.3,176.4,206.3z"/>
					</g>
				</g>
			</g>
			<g>
				<g>
					<path class="st42" d="M170.6,223.5c0,0-0.6,2.9-0.5,3.8c0,0.9,3.3-1.4,3.2-2.3L170.6,223.5z"/>
				</g>
			</g>
			<g>
				<g>
					<g>
						<g>
							<path class="st24" d="M175.3,203.3c0,0-4.5,4.9-4.3,4.4c1-2,1.7-2.3,1.7-2.7c0-0.3-0.1-1.1-0.1-1.4c0-0.5-0.1-1-0.1-1
								s2.3-3.2,2.2-2.1C174.5,201.7,175.3,203.3,175.3,203.3z"/>
						</g>
					</g>
				</g>
			</g>
			<g>
				<g>
					<g>
						<g>
							<path class="st24" d="M170.9,197.5c0,0-0.6,1.5-0.6,1.8s0.1,0.6,0,1s-0.4,1.3-0.3,1.5c0.1,0.3,0.7,0.1,0.7,0.6
								c0.1,0.5,0.5,1.4,0.7,1.4c0.6,0,2.7-0.8,2.9-1.3c0.1-0.4,0.9-3,1.2-3.4c0.3-0.5-3.8-3.1-4.2-2.3
								C170.9,197.5,170.9,197.5,170.9,197.5z"/>
						</g>
					</g>
				</g>
			</g>
			<g>
				<g>
					<path class="st47" d="M176.4,198.6c0.3-1.2-1.1-1.4-1.1-1.4s-0.9-1.1-3.2-1c-2.2,0.1-1.9,3-1.9,3s1.6-0.2,2.2-0.1
						c0,0,0.1,1.2,0,1.6l0.8-0.1c0,0-0.1-1.1,0.3-1.1c0.4-0.1,0.5,2.3,1.3,2.9c0,0,0-0.2,0.1-0.3l0,0l0,0c0.2-0.3,0.4-0.7,0.6-1.2
						C175.9,200.1,176.3,199.2,176.4,198.6z"/>
				</g>
			</g>
			<g>
				<g>
					<g>
						<g>
							<path class="st24" d="M173,199.8c0,0,0.3-0.9,1-0.3c0.5,0.4,0,1.8-0.5,1.8S172.8,200.5,173,199.8z"/>
						</g>
					</g>
				</g>
			</g>
			<g>
				<g>
					<path class="st48" d="M174.4,202.1c0,0-0.1,0.4-0.2,0.5c-0.1,0.1-0.7,0.6-1.7,0.9l0.1,0.9C172.6,204.4,174.5,203.7,174.4,202.1
						z"/>
				</g>
			</g>
			<g>
				<g>
					<path class="st49" d="M164.4,208.2l-0.3-0.2l1.5-3.1l0.8,0.4l-1.2,2.6C165,208.2,164.7,208.3,164.4,208.2z"/>
				</g>
			</g>
			<g>
				<g>
					<path class="st50" d="M164.8,205.7c0,0,0.9,0.5,0.9,0.7s-0.2,0.2-0.2,0.2l0.3,0.4c0,0,0,0.3-0.3,0.3c0,0,0.1,0.3-0.3,0.2
						c0,0,0,0.2-0.2,0.2s-0.8-0.3-0.8-0.3s-0.1-0.1,0.1-0.3c0,0-0.1-0.2,0.1-0.4c0,0-0.1-0.2,0.2-0.4
						C164.4,206.3,164.3,205.8,164.8,205.7C164.7,205.6,164.7,205.7,164.8,205.7z"/>
				</g>
			</g>
			<g>
				<g>
					<polygon class="st42" points="167.4,205.6 164.2,205 164.8,202.3 167.9,203.1 					"/>
				</g>
			</g>
			<g>
				<g>
					<path class="st24" d="M166.4,206.4c0,0-0.7,0-1.1,0.1c-0.1,0-0.2,0.1-0.2,0.2c0,0.1,0.1,0.2,0.4,0.3s0.7,0.2,0.7,0.2
						S166.6,207.1,166.4,206.4z"/>
				</g>
			</g>
			<g>
				<g>
					<path class="st51" d="M173.4,231.7c0.1,0.3,0.1,0.6,0.2,0.9l1.8-4.8C175.1,228.2,173.4,231.7,173.4,231.7z"/>
				</g>
			</g>
			<g>
				<g>
					<path class="st11" d="M107.2,196.6H96.9c0-2.9,2.3-5.1,5.1-5.1C104.9,191.4,107.2,193.8,107.2,196.6z"/>
				</g>
			</g>
		</g>
	</g>
</g>
<g id="Layer_2_1_">
	<g>
		<g>
			<path class="st3" d="M113.2,139.2c0,0,17.3,8.4,10.4,33c0,0-3.6-12.4-15.4-15.6L113.2,139.2z"/>
			<path class="st3" d="M80.8,139.2c0,0-17.3,8.4-10.4,33c0,0,3.6-12.4,15.4-15.6L80.8,139.2z"/>
			<path class="st3" d="M91.4,161.8h11.7c0.5,0,0.9-0.3,1-0.8l0.6-2.9c0.1-0.6-0.3-1.2-1-1.2h-13c-0.6,0-1.1,0.6-1,1.2l0.6,2.9
				C90.6,161.5,91,161.8,91.4,161.8z"/>
			<path class="st3" d="M114.2,132.6c0,0-1.8,16.5-7.4,27c0,0-8.9-4.3-19.3,0c0,0-6.4-8.9-7.7-28.3c-0.8-11.2,0.2-24,3.9-35.1h26
				C113.1,105.1,115.6,117.2,114.2,132.6z"/>
			<path class="st3" d="M99.1,78.2c2.6,3,7.1,8.9,10.6,17.9h-26C86.1,89,89.6,82.7,94.6,78C95.9,76.8,97.9,76.9,99.1,78.2z"/>
			<path class="st3" d="M97.5,131.7c0,0,8,18.1,0,39.6C97.5,171.4,88.6,153.4,97.5,131.7z"/>
			<circle class="st3" cx="96.7" cy="114.9" r="10"/>
			<ellipse class="st3" cx="96.7" cy="114.9" rx="6.9" ry="6.9"/>
		</g>
	</g>
	<g>
		<g>
			<path class="st3" d="M7.9,167.8c7.1-10.6,16.9-19.7,28.4-26.5c18.1-10.8,39.4-17.6,61-17.2c20.2,0.3,41.7,9.6,52.6,28.9
				c8.9,15.6,11.6,30.2,26.1,41.8c10,8.1,26,10.7,31,22c1.4,3.2,1.6,6.5,1.3,10H7.9V167.8z"/>
		</g>
	</g>
	<g>
		<g>
			<path class="st52" d="M6.7,169.7c7.1-10.6,16.9-19.7,28.4-26.5c18.1-10.8,39.4-17.6,61-17.2c20.2,0.3,41.7,9.6,52.6,28.9
				c8.9,15.6,11.6,30.2,26.1,41.8c10,8.1,26,10.7,31,22c1.4,3.2,1.6,6.5,1.3,10H6.7V169.7z"/>
		</g>
	</g>
	<g>
		<path class="st3" d="M134.4,151.4c-1-0.9-2.1-0.8-2.6-0.6c-0.5-1.3-1.5-2.7-3.8-2.7c-4,0-4.3,4-4.3,4c-2.8-0.9-3.4,1.6-3.4,1.7
			h15.2C135.5,152.3,134.4,151.4,134.4,151.4z"/>
		<g>
			<g>
				<g>
					<path class="st3" d="M57.9,158.7c-0.7,0-1.4,0.2-2,0.5c-1.1-2-3.2-3.3-5.7-3.3c-2.3,0-4.3,1.2-5.4,3c-0.6-2.1-2.6-3.7-4.9-3.7
						c-2.6,0-4.7,2-5,4.6c-0.2,0-0.4-0.1-0.6-0.1c-1.6,0-3,0.9-3.6,2.3H62C61.5,160.1,59.8,158.7,57.9,158.7z"/>
				</g>
			</g>
		</g>
		<g>
			<circle class="st53" cx="77.9" cy="80.5" r="2.2"/>
			<path class="st54" d="M125.5,125.7c0,0.8,0.6,1.5,1.5,1.5c0.8,0,1.5-0.6,1.5-1.5c0-0.8-0.6-1.5-1.5-1.5
				C126.1,124.3,125.5,124.9,125.5,125.7z"/>
			<path class="st53" d="M67.6,118.1l0.9-0.5c0.1,0,0.1-0.1,0.1-0.1l0.5-0.9c0.1-0.2,0.4-0.2,0.5,0l0.5,0.9c0,0.1,0.1,0.1,0.1,0.1
				l0.9,0.5c0.2,0.1,0.2,0.4,0,0.5l-0.9,0.5c-0.1,0-0.1,0.1-0.1,0.1l-0.5,0.9c-0.1,0.2-0.4,0.2-0.5,0l-0.5-0.9
				c0-0.1-0.1-0.1-0.1-0.1l-0.9-0.5C67.4,118.6,67.4,118.2,67.6,118.1z"/>
			<path class="st55" d="M118.7,89.1l1.1-0.6c0.1,0,0.1-0.1,0.2-0.2l0.6-1.1c0.2-0.3,0.5-0.3,0.7,0l0.6,1.1c0,0.1,0.1,0.1,0.2,0.2
				l1.1,0.6c0.3,0.2,0.3,0.5,0,0.7l-1.1,0.6c-0.1,0-0.1,0.1-0.2,0.2l-0.6,1.1c-0.2,0.3-0.5,0.3-0.7,0l-0.6-1.1
				c0-0.1-0.1-0.1-0.2-0.2l-1.1-0.6C118.4,89.7,118.4,89.2,118.7,89.1z"/>
			<path class="st55" d="M42.9,111.1l1.3-0.7c0.1,0,0.2-0.1,0.2-0.2l0.7-1.3c0.2-0.3,0.7-0.3,0.8,0l0.7,1.3c0,0.1,0.1,0.2,0.2,0.2
				l1.3,0.7c0.3,0.2,0.3,0.7,0,0.8l-1.3,0.7c-0.1,0-0.2,0.1-0.2,0.2l-0.7,1.3c-0.2,0.3-0.7,0.3-0.8,0l-0.7-1.3
				c0-0.1-0.1-0.2-0.2-0.2l-1.3-0.7C42.6,111.7,42.6,111.2,42.9,111.1z"/>
			<path class="st54" d="M145.9,106l1.2-0.6c0.1,0,0.1-0.1,0.2-0.2l0.6-1.2c0.2-0.3,0.6-0.3,0.8,0l0.6,1.2c0,0.1,0.1,0.1,0.2,0.2
				l1.2,0.6c0.3,0.2,0.3,0.6,0,0.8l-1.2,0.6c-0.1,0-0.1,0.1-0.2,0.2l-0.6,1.2c-0.2,0.3-0.6,0.3-0.8,0l-0.6-1.2
				c0-0.1-0.1-0.1-0.2-0.2l-1.2-0.6C145.6,106.6,145.6,106.1,145.9,106z"/>
			<path class="st54" d="M65.1,98.4l0.9-0.5c0.1,0,0.1-0.1,0.1-0.1l0.5-0.9c0.1-0.2,0.4-0.2,0.6,0l0.5,0.9c0,0.1,0.1,0.1,0.1,0.1
				l0.9,0.5c0.2,0.1,0.2,0.4,0,0.6l-0.9,0.5c-0.1,0-0.1,0.1-0.1,0.1l-0.5,0.9c-0.1,0.2-0.4,0.2-0.6,0l-0.5-0.9
				c0-0.1-0.1-0.1-0.1-0.1L65.1,99C64.9,98.9,64.9,98.5,65.1,98.4z"/>
		</g>
		<rect x="89.7" y="162.4" class="st3" width="12.6" height="59.2"/>
		<path class="st56" d="M91.2,165.8c0-2.5,2.1-4.6,4.6-4.6s4.6,2.1,4.6,4.6c0,0,0.6,10.9-4.6,16.7C90.6,176.6,91.2,165.8,91.2,165.8
			z"/>
		<g>
			<path class="st57" d="M111.9,140.8c0,0,17.3,8.4,10.4,33c0,0-3.6-12.4-15.4-15.6L111.9,140.8z"/>
			<path class="st57" d="M79.6,140.8c0,0-17.3,8.4-10.4,33c0,0,3.6-12.4,15.4-15.6L79.6,140.8z"/>
			<path class="st58" d="M90.1,163.4h11.7c0.5,0,0.9-0.3,1-0.8l0.6-2.9c0.1-0.6-0.3-1.2-1-1.2h-13c-0.6,0-1.1,0.6-1,1.2l0.6,2.9
				C89.3,163,89.7,163.4,90.1,163.4z"/>
			<path class="st59" d="M113,134.1c0,0-1.8,16.5-7.4,27c0,0-8.9-4.3-19.3,0c0,0-6.4-8.9-7.7-28.3c-0.8-11.2,0.2-24,3.9-35.1h26
				C111.9,106.7,114.3,118.8,113,134.1z"/>
			<path class="st58" d="M97.8,79.8c2.6,3,7.1,8.9,10.6,17.9h-26c2.4-7.1,5.9-13.4,10.9-18.1C94.6,78.4,96.7,78.5,97.8,79.8z"/>
			<path class="st57" d="M96.2,133.3c0,0,8,18.1,0,39.6C96.2,173,87.4,155,96.2,133.3z"/>
			<circle class="st58" cx="95.5" cy="116.5" r="10"/>
			<ellipse class="st60" cx="95.5" cy="116.5" rx="6.9" ry="6.9"/>
		</g>
		<g>
			<g>
				<g>
					<g>
						<g>
							<defs>
								<rect id="SVGID_1_" x="6.7" y="192" width="190" height="36.8"/>
							</defs>
							<clipPath id="SVGID_2_">
								<use xlink:href="#SVGID_1_"  style="overflow:visible;"/>
							</clipPath>
							<g class="st61">
								<ellipse class="st3" cx="113.4" cy="224.1" rx="14.7" ry="14.5"/>
								<ellipse class="st3" cx="68.5" cy="224.1" rx="13.1" ry="12.9"/>
								<ellipse class="st3" cx="90.1" cy="212.9" rx="10.3" ry="10.1"/>
								<ellipse class="st3" cx="108.9" cy="206.8" rx="7.2" ry="7.1"/>
								<ellipse class="st3" cx="90.6" cy="201" rx="4.9" ry="4.8"/>
								<ellipse class="st3" cx="99.3" cy="212.8" rx="8.7" ry="8.5"/>
								<ellipse class="st3" cx="168.5" cy="245.7" rx="26.5" ry="26.1"/>
								<ellipse class="st3" cx="136.7" cy="230.8" rx="19.9" ry="19.6"/>
								<ellipse class="st3" cx="39.5" cy="244.1" rx="28.1" ry="27.7"/>
								<ellipse class="st3" cx="109.2" cy="237.6" rx="19.9" ry="19.6"/>
								<ellipse class="st3" cx="85.3" cy="235.2" rx="22.3" ry="22"/>
							</g>
						</g>
					</g>
				</g>
			</g>
		</g>
	</g>
</g>
</svg>
