<?xml version="1.0" encoding="utf-8"?>
<!-- Generator: Adobe Illustrator 22.1.0, SVG Export Plug-In . SVG Version: 6.00 Build 0)  -->
<svg version="1.1" id="Layer_1" xmlns="http://www.w3.org/2000/svg" xmlns:xlink="http://www.w3.org/1999/xlink" x="0px" y="0px"
	 viewBox="0 0 372.3 323.1" style="enable-background:new 0 0 372.3 323.1;" xml:space="preserve">
<style type="text/css">
	.st0{fill:#F1F1F1;}
	.st1{fill:none;stroke:#8E8E8E;stroke-miterlimit:10;}
	.st2{fill:#DBDBDB;}
	.st3{fill:#B4B4B4;}
	.st4{fill:#E6E6E6;}
	.st5{fill:#CBCBCB;}
	.st6{fill:#FFFFFF;}
	.st7{fill:#ACACAC;}
	.st8{font-family:'ArialMT';}
	.st9{font-size:3.493px;}
	.st10{fill:#696969;}
	.st11{fill:#02A916;}
	.st12{fill:#FF5141;}
	.st13{fill:#F1BB3F;}
	.st14{fill:#70CB43;}
	.st15{font-size:3.1822px;}
	.st16{fill:#B1DBE5;}
	.st17{fill:#FFE67D;}
	.st18{fill:#C7E598;}
	.st19{clip-path:url(#SVGID_2_);}
</style>
<g id="Layer_4">
	<g>
		<g id="Body">
			<g>
				<path class="st0" d="M343.9,4H113.5c-0.4,0-0.8,0.3-0.8,0.8V180h232V4.8C344.7,4.3,344.4,4,343.9,4z"/>
			</g>
			<g>
				<path class="st1" d="M343.9,4H113.5c-0.4,0-0.8,0.3-0.8,0.8V180h232V4.8C344.7,4.3,344.4,4,343.9,4z"/>
			</g>
		</g>
		<g id="Right">
			<g>
				<path class="st2" d="M282.4,11.1c-0.5-0.7-1.5-1.3-2.4-1.3h-56.5c-0.9,0-1.9,0.6-2.2,1.3l-5.6,11.5h73.6L282.4,11.1z"/>
			</g>
		</g>
		<g id="Close">
			<g>
				<path class="st3" d="M224.3,12.6c-0.6,0-1.1,0.5-1.1,1.1s0.5,1.1,1.1,1.1c0.6,0,1.1-0.5,1.1-1.1S224.9,12.6,224.3,12.6z
					 M224.9,14l-0.3,0.2l-0.2-0.3l-0.2,0.3l-0.3-0.2l0.3-0.4l-0.3-0.4h0l0-0.1l0,0.1l0.3-0.2l0.2,0.3l0.3-0.2l0.3,0.2l-0.3,0.4
					L224.9,14z"/>
			</g>
		</g>
		<g id="Left">
			<g>
				<path class="st4" d="M215.4,11.1c-0.5-0.7-1.5-1.3-2.4-1.3h-56.5c-0.9,0-1.9,0.6-2.2,1.3l-5.6,11.5h73.6L215.4,11.1z"/>
			</g>
		</g>
		<g id="Close_1_">
			<g>
				<path class="st5" d="M158,12.6c-0.6,0-1.1,0.5-1.1,1.1s0.5,1.1,1.1,1.1c0.6,0,1.1-0.5,1.1-1.1S158.6,12.6,158,12.6z M158.5,14
					l-0.3,0.2l-0.2-0.3l-0.2,0.3l-0.3-0.2l0.3-0.4l-0.3-0.4h0l0-0.1l0,0.1l0.3-0.2l0.2,0.3l0.2-0.3l0.3,0.2l-0.3,0.4L158.5,14z"/>
			</g>
		</g>
		<g id="Background_1_">
			<g>
				<rect x="113.1" y="21" class="st4" width="231.2" height="15.8"/>
			</g>
		</g>
		<g id="Left_1_">
			<g>
				<path class="st5" d="M125.1,28.9c0.2-0.2,0-0.4-0.2-0.4h-5l1.5-1.5c0.1-0.1,0.1-0.4,0-0.5c-0.1-0.1-0.4-0.1-0.5,0l-1.8,1.9
					c-0.1,0.1-0.2,0.3-0.2,0.5V29c0,0.2,0.1,0.3,0.2,0.5l1.8,1.9c0.1,0.1,0.4,0.1,0.5,0c0.1-0.1,0.1-0.4,0-0.5l-1.5-1.5h5
					C125.1,29.3,125.3,29.1,125.1,28.9L125.1,28.9z"/>
			</g>
		</g>
		<g id="Right_1_">
			<g>
				<path class="st5" d="M138.8,28.9v-0.1c0.2-0.2,0.2-0.3,0-0.5l-1.8-1.9c-0.1-0.1-0.4-0.1-0.5,0s-0.1,0.4,0,0.5l1.5,1.5h-5
					c-0.2,0.1-0.3,0.2-0.5,0.4l0,0c0.1,0.2,0.3,0.4,0.5,0.4h5l-1.5,1.5c-0.1,0.1-0.1,0.4,0,0.5c0.1,0.1,0.4,0.1,0.5,0l1.8-1.9
					C139.1,29.3,139.1,29.2,138.8,28.9z"/>
			</g>
		</g>
		<g id="Refresh">
			<g>
				<path class="st5" d="M152.7,29.2c0-0.1-0.1-0.2-0.2-0.2s-0.2,0.1-0.2,0.2c0,0.5,0,0.9-0.3,1.2c0.2-0.3,0.3-0.7,0.3-1.1
					c0,0,0,0,0,0c0-0.1,0-0.1,0-0.2c0-0.1-0.1-0.2-0.2-0.2s-0.2,0.1-0.2,0.2c0,0,0,0.1,0,0.2s0,0.1,0,0.1c0,0,0,0.1,0,0.1
					c0,0.4-0.2,0.7-0.4,1c-0.7,0.6-1.5,0.7-2.1,0.6c-0.7-0.3-1.2-1-1.2-1.9s0.5-1.5,1.2-1.9c0.1,0,0.2,0,0.2,0v0.5
					c0,0.1,0,0.1,0.1,0.2c0,0,0.1,0,0.1,0c0,0,0.1,0,0.1,0l0.2-0.1c0,0,0,0,0.1,0s0.1,0,0.1,0l1.2-0.7c0,0,0.1-0.1,0.1-0.2
					s0-0.1-0.1-0.2l-1.2-0.7c0,0-0.1,0-0.2,0l-0.2-0.1c0,0-0.1,0-0.2,0s-0.1,0.1-0.1,0.2v0.5c-1.3,0.1-2.3,1.2-2.2,2.6
					c0,0.2,0,0.5,0,0.7c0.2,0.9,1,1.6,1.9,1.8c0.5,0.1,1.1,0,1.5-0.2C151.9,31.4,152.7,30.4,152.7,29.2z M147.8,29.2
					c0,0.1,0,0.2,0,0.3c0,0,0-0.1,0-0.2C147.8,29.2,147.8,29.2,147.8,29.2z"/>
			</g>
		</g>
		<g id="Settings">
			<g>
				<path class="st5" d="M340,26.4h-5.9c-0.1,0-0.2,0.1-0.2,0.2v0.5c0,0.1,0.1,0.2,0.2,0.2h5.9c0.1,0,0.2-0.1,0.2-0.2v-0.5
					C340.2,26.5,340.1,26.4,340,26.4z M340,28.5h-5.9c-0.1,0-0.2,0.1-0.2,0.2v0.5c0,0.1,0.1,0.2,0.2,0.2h5.9c0.1,0,0.2-0.1,0.2-0.2
					v-0.5C340.2,28.5,340.1,28.5,340,28.5z M340,30.1h-5.9c-0.1,0-0.2,0.1-0.2,0.2v0.5c0,0.1,0.1,0.2,0.2,0.2h5.9
					c0.1,0,0.2-0.1,0.2-0.2v-0.5C340.2,30.2,340.1,30.1,340,30.1z"/>
			</g>
		</g>
		<g id="Adress">
			<g>
				<path class="st6" d="M327.8,25.2H161.6c-0.2,0-0.3,0.2-0.3,0.3v6.4c0,0.2,0.2,0.3,0.3,0.3h166.2c0.2,0,0.3-0.2,0.3-0.3v-6.4
					C328.1,25.3,328,25.2,327.8,25.2z"/>
			</g>
		</g>
		<text transform="matrix(1.0004 0 0 1 169.2933 29.7466)" class="st7 st8 st9">https://www.</text>
		<text transform="matrix(1.0004 0 0 1 188.4769 29.7466)" class="st10 st8 st9">yourwebsite</text>
		<text transform="matrix(1.0004 0 0 1 206.5394 29.7466)" class="st7 st8 st9">.com</text>
		<g id="Icon">
			<g>
				<path class="st11" d="M165.2,29.1c-0.1,0-0.2,0.1-0.2,0.2v0.3c-0.1,0-0.1,0.2-0.1,0.2c0,0.2,0.1,0.3,0.3,0.3
					c0.2,0,0.3-0.1,0.3-0.3c0-0.1,0-0.2,0-0.2v-0.3C165.3,29.2,165.2,29.1,165.2,29.1z M166.2,28.3v-0.8c0-0.7-0.5-1.2-1.2-1.2
					s-1.2,0.6-1.2,1.2v0.9c0,0-0.2,0.2,0,0.5v-0.2c0-0.1,0.1-0.2,0.2-0.2h0.2v-0.9c0-0.5,0.4-0.9,0.8-0.9s0.8,0.4,0.8,0.9v0.9h0.2
					c0.1,0,0.2,0.1,0.2,0.2v1.8c0,0.1-0.1,0.2-0.2,0.2h-2.2c-0.1,0-0.2-0.1-0.2-0.2v0.1c-0.2,0.2,0.2,0.4,0.2,0.4h2.2
					c0.2,0,0.5-0.2,0.5-0.5v-1.8C166.7,28.5,166.5,28.3,166.2,28.3z"/>
			</g>
		</g>
		<g id="Ellipse">
			<g>
				<path class="st12" d="M120.8,10.3c-1.5,0-2.7,1.2-2.7,2.7c0,1.5,1.2,2.7,2.7,2.7s2.7-1.2,2.7-2.7S122.3,10.3,120.8,10.3z"/>
			</g>
		</g>
		<g id="Ellipse_2">
			<g>
				<path class="st13" d="M130.6,10.3c-1.5,0-2.7,1.2-2.7,2.7c0,1.5,1.2,2.7,2.7,2.7s2.7-1.2,2.7-2.7S132.1,10.3,130.6,10.3z"/>
			</g>
		</g>
		<g id="Ellipse_3">
			<g>
				<path class="st14" d="M140.4,10.3c-1.5,0-2.7,1.2-2.7,2.7c0,1.5,1.2,2.7,2.7,2.7s2.7-1.2,2.7-2.7
					C143.1,11.5,141.9,10.3,140.4,10.3z"/>
			</g>
		</g>
		
			<image style="overflow:visible;enable-background:new    ;" width="1139" height="702" xlink:href="AEC5D927.jpg"  transform="matrix(0.2032 0 0 0.2027 113.0117 36.9494)">
		</image>
	</g>
	<g>
		<g id="Body_2_">
			<g>
				<path class="st0" d="M218.1,136.6H8c-0.4,0-0.7,0.3-0.7,0.7v159.8h211.5V137.3C218.8,136.9,218.5,136.6,218.1,136.6z"/>
			</g>
			<g>
				<path class="st1" d="M218.1,136.6H8c-0.4,0-0.7,0.3-0.7,0.7v159.8h211.5V137.3C218.8,136.9,218.5,136.6,218.1,136.6z"/>
			</g>
		</g>
		<g id="Right_6_">
			<g>
				<path class="st2" d="M161.7,143.2c-0.4-0.7-1.4-1.2-2.2-1.2h-51.4c-0.8,0-1.7,0.5-2,1.2l-5.1,10.5h67L161.7,143.2z"/>
			</g>
		</g>
		<g id="Close_6_">
			<g>
				<path class="st3" d="M108.9,144.6c-0.5,0-1,0.4-1,1s0.4,1,1,1s1-0.4,1-1S109.5,144.6,108.9,144.6z M109.4,145.9l-0.3,0.2
					l-0.2-0.2l-0.2,0.2l-0.3-0.2l0.3-0.3l-0.3-0.3h0v-0.1l0,0l0.2-0.2l0.2,0.2l0.2-0.2l0.3,0.2l-0.3,0.3L109.4,145.9z"/>
			</g>
		</g>
		<g id="Left_6_">
			<g>
				<path class="st4" d="M100.7,143.2c-0.4-0.7-1.4-1.2-2.2-1.2H47.1c-0.8,0-1.7,0.5-2,1.2L40,153.7h67L100.7,143.2z"/>
			</g>
		</g>
		<g id="Close_4_">
			<g>
				<path class="st5" d="M48.4,144.6c-0.5,0-1,0.4-1,1s0.4,1,1,1c0.5,0,1-0.4,1-1S49,144.6,48.4,144.6z M48.9,145.9l-0.3,0.2
					l-0.2-0.2l-0.2,0.2l-0.3-0.2l0.3-0.3l-0.3-0.3h0l0-0.1l0,0l0.2-0.2l0.2,0.2l0.2-0.2l0.3,0.2l-0.3,0.3L48.9,145.9z"/>
			</g>
		</g>
		<g id="Background_3_">
			<g>
				<rect x="7.5" y="152.1" class="st4" width="210.4" height="14.4"/>
			</g>
		</g>
		<g id="Left_4_">
			<g>
				<path class="st5" d="M18.4,159.1h-4.5l1.4-1.4c0.1-0.1,0.1-0.3,0-0.5c-0.1-0.1-0.3-0.1-0.5,0l-1.7,1.7c-0.1,0.1-0.2,0.2-0.2,0.4
					v0.1c0,0.2,0,0.3,0.2,0.4l1.7,1.7c0.1,0.1,0.3,0.1,0.5,0c0.1-0.1,0.1-0.3,0-0.5l-1.4-1.4h4.5c0.2,0,0.3-0.2,0.3-0.3l0,0
					C18.7,159.2,18.6,159.1,18.4,159.1z"/>
			</g>
		</g>
		<g id="Right_4_">
			<g>
				<path class="st5" d="M31.1,158.9l-1.7-1.7c-0.1-0.1-0.3-0.1-0.5,0s-0.1,0.3,0,0.5l1.4,1.4h-4.5c-0.2,0-0.3,0.2-0.3,0.3l0,0
					c0,0.2,0.1,0.3,0.3,0.3h4.5l-1.4,1.4c-0.1,0.1-0.1,0.3,0,0.5s0.3,0.1,0.5,0l1.7-1.7c0.1-0.1,0.2-0.2,0.2-0.4v-0.1
					C31.3,159.2,31.2,159,31.1,158.9z"/>
			</g>
		</g>
		<g id="Refresh_2_">
			<g>
				<path class="st5" d="M43.5,159.7c0-0.1,0-0.2-0.1-0.2c0-0.1-0.1-0.1-0.2-0.1c-0.1,0-0.2,0.1-0.2,0.2c0,1-0.8,1.9-1.9,1.9
					c-0.5,0-0.9-0.2-1.2-0.5c-0.3-0.3-0.5-0.8-0.5-1.2c0-0.5,0.2-0.9,0.5-1.2c0.3-0.3,0.7-0.5,1.1-0.5v0.4c0,0.1,0,0.1,0.1,0.2
					c0,0,0,0,0.1,0c0,0,0.1,0,0.1,0l1-0.6c0,0,0,0,0.1-0.1l0,0c0,0,0.1-0.1,0.1-0.2c0-0.1,0-0.1-0.1-0.2l0,0c0,0,0-0.1-0.1-0.1
					l-1-0.6c0,0-0.1,0-0.2,0c0,0-0.1,0.1-0.1,0.2v0.4c-1.2,0.1-2.1,1-2.1,2.2c0,0,0,0.1,0,0.1s0,0.1,0,0.1c0,1.2,1,2.2,2.2,2.2
					c0.7,0,1.2-0.3,1.6-0.7C43.2,160.9,43.5,160.4,43.5,159.7z"/>
			</g>
		</g>
		<g id="Settings_2_">
			<g>
				<path class="st5" d="M214.2,157.2h-5.4c-0.1,0-0.2,0.1-0.2,0.2v0.5c0,0.1,0.1,0.2,0.2,0.2h5.4c0.1,0,0.2-0.1,0.2-0.2v-0.5
					C214.3,157.3,214.3,157.2,214.2,157.2z M214.2,158.9h-5.4c-0.1,0-0.2,0.1-0.2,0.2v0.5c0,0.1,0.1,0.2,0.2,0.2h5.4
					c0.1,0,0.2-0.1,0.2-0.2v-0.5C214.3,158.9,214.3,158.9,214.2,158.9z M214.2,160.6h-5.4c-0.1,0-0.2,0.1-0.2,0.2v0.5
					c0,0.1,0.1,0.2,0.2,0.2h5.4c0.1,0,0.2-0.1,0.2-0.2v-0.5C214.3,160.6,214.3,160.6,214.2,160.6z"/>
			</g>
		</g>
		<g id="Adress_2_">
			<g>
				<path class="st6" d="M203.2,156H51.8c-0.2,0-0.3,0.1-0.3,0.3v6c0,0.2,0.1,0.3,0.3,0.3h151.5c0.2,0,0.3-0.1,0.3-0.3v-6
					C203.5,156.1,203.4,156,203.2,156z"/>
			</g>
		</g>
		<text transform="matrix(1.0004 0 0 1 58.7454 160.1714)" class="st7 st8 st15">https://www.</text>
		<text transform="matrix(1.0004 0 0 1 76.2278 160.1714)" class="st10 st8 st15">yourwebsite</text>
		<text transform="matrix(1.0004 0 0 1 92.6712 160.1714)" class="st7 st8 st15">.com</text>
		<g id="Icon_2_">
			<g>
				<path class="st11" d="M55.1,159.7c0-0.1,0-0.1-0.1-0.1s-0.1,0-0.1,0.1v0.3c-0.1,0-0.1,0.1-0.1,0.2c0,0.2,0.1,0.3,0.2,0.3
					c0.1,0,0.2-0.1,0.2-0.3c0-0.1,0-0.2-0.1-0.2L55.1,159.7L55.1,159.7z M56,158.9v-0.8c0-0.6-0.5-1.1-1.1-1.1s-1.1,0.5-1.1,1.1v0.8
					c-0.2,0-0.4,0.2-0.4,0.4v1.6c0,0.2,0.2,0.4,0.4,0.4H56c0.2,0,0.4-0.2,0.4-0.4v-1.6C56.5,159.1,56.3,158.9,56,158.9z M54.2,158.1
					c0-0.5,0.4-0.8,0.8-0.8s0.8,0.4,0.8,0.8v0.8h-1.6V158.1z M56.2,160.9c0,0.1,0,0.1-0.1,0.1H54c-0.1,0-0.1,0-0.1-0.1v-1.6
					c0-0.1,0-0.1,0.1-0.1h2.1c0.1,0,0.1,0,0.1,0.1V160.9z"/>
			</g>
		</g>
		<g id="Ellipse_2_">
			<g>
				<ellipse class="st12" cx="14.6" cy="144.8" rx="2.4" ry="2.4"/>
			</g>
		</g>
		<g id="Ellipse_2_2_">
			<g>
				<ellipse class="st13" cx="23.5" cy="144.8" rx="2.4" ry="2.4"/>
			</g>
		</g>
		<g id="Ellipse_3_2_">
			<g>
				<ellipse class="st14" cx="32.4" cy="144.8" rx="2.4" ry="2.4"/>
			</g>
		</g>
		
			<image style="overflow:visible;enable-background:new    ;" width="1143" height="704" xlink:href="AEC5D925.jpg"  transform="matrix(0.1842 0 0 0.1837 7.5397 166.974)">
		</image>
	</g>
</g>
<g id="Object_1_">
	<path class="st16" d="M346.3,207.9c13.4-10.3,19.8-27.6,17.5-44.4c-1.2-8.8-4.8-17.3-10.6-24c-2.7-3-5.9-5.6-9.4-7.6
		c-3.1-1.7-5.6-2.9-8.5-2.9c-2,0-3.9,0-5.2,0c-4.9,0.3-5.3,1.7-8.8,3.7c-3.3,1.9-6.5,4-9.5,6.3c-7.1,5.5-14.1,12.4-18.2,20.6
		c-8,15.9-0.6,33.8,10.1,46.3c5.3,6.2,12.2,9.8,20.3,9.9C332.1,215.9,339.9,212.8,346.3,207.9z"/>
	<path class="st17" d="M240.7,233.2c7.1,0.2,14.3-2.9,20.3-7.5c5.8-4.4,10.9-10.5,13.6-17.9c2.6-7,2.7-14.7,0.3-21.6
		c-2.2-6.5-6.3-12-11.1-16.2c-0.9-1.2-1.9-2.2-3.1-3c-3.2-2.1-7-2.4-10.6-2.7c-3.6-0.2-7.2-0.4-10.8,0c-7.1,0.7-13.7,4-17.8,11.1
		c-4.3,7.3-5.2,16.1-4.3,24.5C218.9,214.8,225.6,232.7,240.7,233.2z"/>
	<path class="st18" d="M133.5,264.2c5.5,1.8,11.7,1.2,17.2-0.6c5.4-1.8,10.5-5,14-9.6c3.4-4.4,4.9-9.8,4.4-15.3
		c-0.5-5.1-2.6-10-5.5-14.2c-0.5-1-1-2-1.8-2.9c-2-2.2-4.9-3.4-7.7-4.4c-2.7-1-5.5-2-8.3-2.5c-5.7-1.2-11.4-0.3-15.9,3.7
		c-4.7,4.2-7.2,10.3-8.1,16.5C120.1,246,121.8,260.3,133.5,264.2z"/>
	<path class="st6" d="M205.8,202.6c14.4-9,21.2-24.2,18.8-39.1c-1.3-7.8-5.1-15.3-11.5-21.1c-2.9-2.7-6.4-5-10.2-6.6
		c-3.4-1.5-6.1-2.6-9.1-2.6c-2.1,0-4.2,0-5.6,0c-5.2,0.3-5.6,1.5-9.5,3.3c-3.5,1.7-6.9,3.5-10.2,5.5c-7.6,4.9-15.1,10.9-19.5,18.1
		c-8.6,14-0.6,29.7,11,40.8c5.7,5.5,13.2,8.7,21.9,8.7C190.6,209.7,199,206.9,205.8,202.6z"/>
	<path class="st6" d="M74.2,276c2.5,4.8,6.8,8.4,11.4,10.8c4.4,2.3,9.6,3.6,14.5,2.9c4.7-0.6,8.8-3.2,11.5-7c2.6-3.7,4-8.2,4.5-12.7
		c0.3-1,0.5-2,0.5-3c0-2.8-1.2-5.4-2.5-7.8c-1.2-2.4-2.4-4.8-3.9-7.1c-3-4.5-7.1-7.6-12.4-8c-5.4-0.4-10.5,2-14.6,5.4
		C75.9,255.4,68.9,265.8,74.2,276z"/>
</g>
<g id="Object">
	<g>
		<g>
			<defs>
				<rect id="SVGID_1_" x="3" y="94.5" width="367.3" height="230.4"/>
			</defs>
			<clipPath id="SVGID_2_">
				<use xlink:href="#SVGID_1_"  style="overflow:visible;"/>
			</clipPath>
			<g class="st19">
				<g>
					<g>
						<g>
							<g>
								<path d="M182.1,219.5c1.2-3.2-1.2-6.1-4-7.2c-3.5-1.5-7.5-1.4-11.1-2.7c-8.5-3.1-14.7-9.5-17-18.3
									c-4.3-16,0.9-34.4,13.5-45.2c12.4-10.6,31-13.4,45.5-5.4c6.7,3.7,12.3,9.5,15.8,16.3c4.3,8.3,4.6,17.5,3,26.6
									c-1.7,9.6-5,20.2-14,25.4c-2.2,1.3-4.5,2-7,2.4c-2.3,0.4-4.8,0.5-6.9,1.5c-2.8,1.3-5.1,4.6-3.8,7.8c0.3,0.7,1.5,0.4,1.2-0.3
									c-1-2.4,0.6-4.9,2.8-6.1c2.2-1.2,5-1.3,7.5-1.7c3.8-0.6,7.2-2.3,10.2-4.8c6.8-5.8,9.6-14.6,11.2-23.1
									c1.6-8.6,1.7-17.4-1.8-25.7c-2.9-6.9-7.8-12.9-13.9-17.2c-13-9.2-30.5-9.1-44.2-1.2c-14,8.1-22,23.9-21.7,39.9
									c0.2,9.1,2.8,18.6,9.9,24.7c3.3,2.8,7.2,4.8,11.3,6c3.7,1.1,14.9,1.3,12.5,7.8C180.6,219.9,181.8,220.2,182.1,219.5
									L182.1,219.5z"/>
							</g>
						</g>
						<g>
							<g>
								<path d="M181.3,220.9c2.8,1,5.7,1.3,8.7,1.1c1.5-0.1,2.9-0.2,4.4-0.4c0.8-0.1,1.9,0,2.5-0.7c0.5-0.6-0.4-1.5-0.9-0.9
									c-0.5,0.6-2.6,0.5-3.4,0.6c-1.2,0.1-2.4,0.2-3.7,0.2c-2.5,0-4.9-0.2-7.3-1.1C180.9,219.4,180.6,220.6,181.3,220.9
									L181.3,220.9z"/>
							</g>
						</g>
						<g>
							<g>
								<path d="M180.5,219.4c-1,3.6-1,7.5,0.5,10.9c1.2,2.9,5.3,2.7,8,2.7c2.6,0,6.8,0.5,8.2-2.4c1.6-3.4,1.2-7.9,0.5-11.4
									c-0.2-0.8-1.4-0.5-1.2,0.3c0.6,2.9,0.7,5.9,0.1,8.8c-0.4,1.8-1.2,2.9-3.1,3.2c-1.5,0.2-2.9,0.2-4.4,0.2
									c-1.5,0-3.1-0.2-4.6-0.4c-1.7-0.3-2.3-1.5-2.8-3.1c-0.8-2.8-0.7-5.7,0.1-8.6C181.9,219,180.7,218.7,180.5,219.4L180.5,219.4
									z"/>
							</g>
						</g>
						<g>
							<g>
								<path d="M180.7,224.9c5.6,1.2,11,1.2,16.6,0c0.8-0.2,0.5-1.4-0.3-1.2c-5.4,1.2-10.6,1.2-16,0
									C180.3,223.5,179.9,224.7,180.7,224.9L180.7,224.9z"/>
							</g>
						</g>
						<g>
							<g>
								<path d="M180.8,228.7c5.6,1.5,11.5,2.2,16.9-0.4c0.7-0.3,0.1-1.4-0.6-1.1c-5.1,2.4-10.7,1.7-16,0.2
									C180.3,227.3,180,228.5,180.8,228.7L180.8,228.7z"/>
							</g>
						</g>
						<g>
							<g>
								<path d="M184.3,233.3c0.6,2,1,4.6,2.1,6.4c0.8,1.4,2.3,1.6,3.8,1.3c4.2-0.7,4.3-5.2,4.8-8.7c0.1-0.8-1.2-0.8-1.2,0
									c-0.3,2.7-0.6,7.5-4.2,7.5c-2.8,0-3.3-4.9-4-6.9C185.2,232.2,184,232.6,184.3,233.3L184.3,233.3z"/>
							</g>
						</g>
						<g>
							<g>
								<path d="M187.3,220.5c-0.8-6.8-2-13.4-3.8-20c-0.9-3.4-2-6.8-3.2-10.3c-0.7-2.2-1.5-4.7-3.4-6.2c-3.6-2.8-8.5,0.8-5.8,4.9
									c1.2,1.9,3.6,2.5,5.7,2.8c2.9,0.4,6.1,0.5,8.8-0.6c3.2-1.3,7.8-6.6,4.1-9.9c-1.4-1.2-3.5-1-4.8,0.3
									c-1.4,1.5-1.4,3.8-0.6,5.6c1.8,4.2,7.1,5.5,11.3,5.3c2.1-0.1,4.6-0.6,5.9-2.6c0.9-1.4,0.8-3.4-0.6-4.4
									c-1.6-1.2-3.9-0.4-5.1,1c-2,2.3-1.8,6.3-2.1,9.2c-0.8,8.5-1.7,16.9-2.5,25.4c-0.1,0.8,1.2,0.8,1.2,0
									c0.8-8.6,1.7-17.2,2.5-25.8c0.2-1.9,0.2-4,0.7-5.9c0.3-1,0.7-2.1,1.7-2.7c0.4-0.3,1.1-0.5,1.6-0.5c1.5,0,2.2,2,1.5,3.1
									c-1.8,2.9-7.6,2.2-10.3,1.3c-1.6-0.5-3.1-1.5-4-2.8c-0.6-0.8-1-1.9-1-2.9c0-2,2.3-4.4,4-2.2c1.4,1.9,0.3,4.2-1.2,5.7
									c-1.6,1.6-3.8,2.2-6,2.4c-2,0.2-4.1,0-6-0.4c-2-0.4-5.5-2.4-4-5c1.7-3,5.1,0.2,6,2c0.9,1.8,1.5,3.9,2.1,5.8
									c2.9,8.9,4.9,18,6.1,27.3C186.1,221.3,187.4,221.4,187.3,220.5L187.3,220.5z"/>
							</g>
						</g>
					</g>
					<g>
						<g>
							<path d="M188.9,240.5c-1.9,5.8-3.7,11.6-4.6,17.6c-0.7,4.6-1.3,10.4,0.7,14.9c1.3,2.9,4.4,5.1,7.6,3.9c3.1-1.2,3.3-5,1.3-7.3
								c-2.5-2.8-6.8-1.9-9.4,0.4c-3.4,3.1-4.8,8.4-5.2,12.8c-0.6,5.8,2,11.6-0.7,17.1c-1.1,2.2-2.7,4.7-5.1,5.4
								c-1.6,0.4-3.9-0.4-4.3-2.2c-0.6-3,3.3-3.2,5.1-2.1c4.9,2.9,6.7,8.7,8.1,13.9c1,3.9,1.2,7.6,1.2,11.6c0,0.8,1.2,0.8,1.2,0
								c0-3.2,0-6.4-0.7-9.6c-0.8-3.9-1.8-8.4-4.1-11.7c-1.8-2.7-5-6.5-8.6-6.1c-3.3,0.4-4.7,4-2.2,6.3c2.9,2.7,6.6,0.7,8.7-1.9
								c2.9-3.7,3.7-7.8,3-12.4c-0.9-5.8-0.5-12,2.3-17.2c1.4-2.5,3.7-4.9,6.8-4.8c3.1,0.1,6,4.7,2.4,6.5c-3.7,1.8-6.4-2.4-7-5.4
								c-0.6-3.1-0.5-6.4-0.2-9.5c0.7-6.8,2.8-13.4,4.9-19.8C190.3,240.1,189.1,239.8,188.9,240.5L188.9,240.5z"/>
						</g>
					</g>
				</g>
				<g>
					<g>
						<g>
							<g>
								<path d="M276.9,266.7c-8.6-1.1-14.8-10.9-15-19.1c-0.2-8.3,5.3-17.1,11.9-21.9c7.1-5.1,17-6.3,24.5-1.5
									c7.3,4.7,13.2,13.6,12.9,22.5c-0.3,10-7.6,18.3-17.3,20.3c-0.8,0.2-0.5,1.4,0.3,1.2c9-1.9,16.4-9.1,17.9-18.3
									c1.7-10-3.7-19.4-11.4-25.4c-7.4-5.8-17.8-5.8-25.7-1c-7.6,4.6-13.6,13.5-14.3,22.4c-0.7,9.4,6.4,20.8,16.2,22.1
									C277.7,268,277.7,266.7,276.9,266.7L276.9,266.7z"/>
							</g>
						</g>
						<g>
							<g>
								<path d="M276.6,267.8c0.6,1.9,1,3.7,1,5.7c0,0.7,1.1,0.9,1.2,0.2c0.3-1.5,4.7-1.5,5.9-1.6c1.6,0,3.2,0.2,4.7,0.5
									c0.9,0.2,2.2,0.3,2.9,0.9c1.4,1.1-0.5,1.7-1.5,2c-1.7,0.5-3.5,0.7-5.3,0.5c-1.9-0.1-6.1-0.5-6.7-2.7
									c-0.2-0.8-1.4-0.5-1.2,0.3c0.6,2.2,3,2.8,5,3.2c2.4,0.5,5.1,0.6,7.6,0c1.5-0.3,3.8-0.8,3.8-2.5c0-1-0.3-1.6-1.2-2.1
									c-2.2-1.2-5.4-1.5-7.8-1.5c-1.9,0-6.8,0-7.3,2.5c0.4,0,0.8,0.1,1.2,0.2c0-2.1-0.4-4.1-1-6
									C277.6,266.7,276.4,267,276.6,267.8L276.6,267.8z"/>
							</g>
						</g>
						<g>
							<g>
								<path d="M294.3,273.6c0-2,0.2-3.9,0.2-5.8c0-0.8-1.2-0.8-1.2,0c0,2-0.1,3.9-0.2,5.8C293,274.4,294.2,274.4,294.3,273.6
									L294.3,273.6z"/>
							</g>
						</g>
						<g>
							<g>
								<path d="M277.8,274.6c0.7,2.2,0.1,3.7,2.5,4.9c2.2,1.1,4.8,1.2,7.2,1.1c1.8-0.1,4.4,0,5.8-1.4c1.5-1.5,1.2-3.8,0.8-5.7
									c-0.2-0.8-1.4-0.5-1.2,0.3c0.4,2.1,0.7,4.5-2,5.2c-1.5,0.4-3.3,0.4-4.7,0.4c-1.6,0-3.2-0.2-4.7-0.7c-2.2-0.8-2-2.5-2.5-4.3
									C278.8,273.5,277.6,273.8,277.8,274.6L277.8,274.6z"/>
							</g>
						</g>
						<g>
							<g>
								<path d="M279.1,278.4c-0.1,1.9,0.7,3.5,2.2,4.7c1.4,1.2,3.5,2.6,5.4,2.8c3.6,0.4,6.9-4.2,7.4-7.3c0.1-0.8-1.1-1.1-1.2-0.3
									c-0.4,2.6-3.3,7-6.4,6.3c-2.7-0.6-6.3-3.2-6.1-6.2C280.3,277.7,279.1,277.7,279.1,278.4L279.1,278.4z"/>
							</g>
						</g>
						<g>
							<g>
								<path d="M286.3,273.4c-0.6-7.1-1.2-14.2-1.8-21.3c-0.1-0.8-1.3-0.8-1.2,0c0.6,7.1,1.2,14.2,1.8,21.3
									C285.1,274.2,286.4,274.2,286.3,273.4L286.3,273.4z"/>
							</g>
						</g>
						<g>
							<g>
								<path d="M283.2,250.8c-1.5,0.4-2.9,0.7-4.4,0.7c-1,0.1-2,0.2-2.9-0.6c-0.2-0.2-0.4-0.5-0.6-0.8c-1-1.6-0.4-2.6,1.7-3
									c0.5,0.3,1-0.2,0.9-0.7c-0.4-2.2,0.7-4.6,2.9-5.3c2.2-0.7,4.5,0.9,4.9,3.1c0.1,0.5,0.7,0.6,1,0.3c2.2-2.6,6.3-1,5.7,2.5
									c-0.1,0.5,0.4,1,0.9,0.7c1.8,0.4,2.2,1.1,1.2,2.1c-0.6,0.1-1.2,0.2-1.9,0.2c-1,0.1-2.1,0.2-3.2,0.3
									c-2.1,0.2-4.2,0.3-6.3,0.4c-0.8,0-0.8,1.2,0,1.2c2.7,0,5.3-0.2,7.9-0.5c1.3-0.1,3.9,0,4.9-1c1.7-1.8-1.2-5-3.3-3.8
									c0.3,0.2,0.6,0.5,0.9,0.7c0.8-4.6-4.7-7.4-7.8-3.7c0.3,0.1,0.7,0.2,1,0.3c-0.6-2.9-3.6-4.8-6.4-4c-2.9,0.8-4.3,4-3.8,6.8
									c0.3-0.2,0.6-0.5,0.9-0.7c-2.7-1.5-4.6,1.6-3.7,4.1c1.5,3.9,6.4,2.7,9.6,1.9C284.3,251.8,284,250.6,283.2,250.8L283.2,250.8
									z"/>
							</g>
						</g>
					</g>
					<g>
						<g>
							<path d="M288.1,285.6c1,6.6,1.9,13.2,2.8,19.8c1,7,2,13.9,2,21c0,0.8,1.2,0.8,1.2,0c0-6.9-0.9-13.7-1.9-20.5
								c-1-6.9-2-13.8-2.9-20.6C289.1,284.5,287.9,284.8,288.1,285.6L288.1,285.6z"/>
						</g>
					</g>
				</g>
				<g>
					<g>
						<g>
							<g>
								<path d="M316.4,225.1c1.2-7.7-5.9-12.3-11.5-16c-7.6-4.9-12.1-11.9-15.1-20.3c-1.7-4.5-2.9-9.3-2.6-14.2
									c0.2-4.7,2-9.2,4.1-13.3c3.7-7.6,8.6-14.7,15.2-20.1c6.5-5.3,14.6-8.6,23-8.3c7.8,0.2,15.4,3,21.7,7.4
									c6.7,4.6,12.8,11.2,15.5,19c2.9,8.6,1.5,18.8-1.3,27.2c-3.1,9-9.5,16.2-17.3,21.6c-3.6,2.4-7.8,4.1-11.2,6.8
									c-2.9,2.2-5,5.8-3.8,9.5c0.2,0.7,1.5,0.4,1.2-0.3c-1.8-5.6,4-8.9,8.1-11.1c3.4-1.8,6.6-3.9,9.7-6.3
									c6.4-5,11.5-11.5,14.3-19.1c2.9-8.1,4.4-18,2.2-26.4c-2-7.7-7.3-14.4-13.4-19.4c-12-9.8-28.4-13.3-42.5-6
									c-7.4,3.9-13.3,10-17.8,16.9c-4.6,7.1-9.1,15.6-8.8,24.4c0.2,5.1,1.7,10,3.6,14.7c1.7,4,3.7,7.9,6.4,11.3
									c3,3.7,6.8,6.2,10.8,8.8c4.4,2.9,9.5,7.1,8.6,13.1C315,225.5,316.2,225.9,316.4,225.1L316.4,225.1z"/>
							</g>
						</g>
						<g>
							<g>
								<path d="M315.5,225.9c3.2,0.6,6.6,0.1,9.8,0c1.9-0.1,3.7-0.2,5.6-0.3c1,0,2.5-0.3,3.4,0.1c3,1.4,0.9,3.2-0.3,3.9
									c-3.2,1.8-7.4,2.1-10.9,2.4c-1.9,0.2-3.8,0.5-5.6-0.3c-1.7-0.7-5.7-5.2-1.8-5.9c0.8-0.1,0.5-1.3-0.3-1.2
									c-1.6,0.3-2.6,1.7-2.4,3.3c0.2,2,1.7,3.7,3.4,4.6c2.4,1.3,5.2,0.9,7.8,0.6c2.9-0.3,5.8-0.7,8.5-1.7c1.7-0.6,3.8-1.5,4.3-3.3
									c0.5-1.6-0.6-3-2-3.5c-2.6-1-6.1-0.1-8.8,0c-3.4,0.2-7,0.7-10.3,0.1C315,224.5,314.7,225.7,315.5,225.9L315.5,225.9z"/>
							</g>
						</g>
						<g>
							<g>
								<path d="M315,231c-0.7,2.2-1.6,5.6,1.2,6.6c1.5,0.6,3.4,0.2,5,0.1c2.1-0.2,4.2-0.4,6.3-0.7c2.8-0.4,6.9-0.5,8.8-3
									c1.2-1.6,1.1-4.1-0.7-5.1c-0.7-0.4-1.3,0.7-0.6,1.1c1.1,0.6,1.2,2,0.6,3c-0.6,1.1-2,1.5-3.1,1.9c-2.2,0.6-4.6,0.9-6.8,1.1
									c-2.1,0.2-4.2,0.4-6.2,0.5c-0.4,0-0.8,0.1-1.2,0c-1.1,0-1.2-0.1-1.9-1.1c-0.7-1-0.7-1.3-0.4-2.4c0.1-0.6,0.3-1.2,0.5-1.7
									C316.5,230.6,315.3,230.3,315,231L315,231z"/>
							</g>
						</g>
						<g>
							<g>
								<path d="M318.8,237.8c1,1.2,1.4,2.4,2,3.7c0.2,0.6,0.5,1.1,1,1.4c1.5,1,4.1,0.4,5.7,0.3c1.3-0.1,3.5,0,4.6-1
									c1.5-1.4,1.3-4.9,1.1-6.7c-0.1-0.8-1.3-0.8-1.2,0c0.2,1.8,0.4,4.4-1,5.6c-1.2,1.1-3.9,0.9-5.6,1c-0.6,0-1.4,0.1-2,0
									c-1.4-0.3-1.3-1.1-1.7-2.1c-0.5-1.2-1.1-2.2-2-3.2C319.2,236.4,318.3,237.2,318.8,237.8L318.8,237.8z"/>
							</g>
						</g>
						<g>
							<g>
								<path d="M321.7,224.4c-0.5-9-1.1-18.1-2.8-26.9c-0.9-4.4-1.9-8.8-3.7-13c-1.1-2.6-3-5.9-6.1-6.1c-2.5-0.2-3.9,1.9-2.9,4.2
									c1,2.1,4.1,3.4,6.2,3.8c3,0.6,6.2,0,8.7-1.7c2-1.3,3.7-3.7,2.7-6.1c-0.7-1.6-3.2-2.1-4.3-0.5c-1.2,2-0.2,4.9,1.3,6.4
									c3.9,4.2,12,1.8,11.1-4.5c-0.4-2.5-2.6-2.6-4.2-0.9c-2,2.1-0.7,5.2,1.4,6.7c3,2.3,7,1.7,10.3,0.5c1.8-0.7,4.9-2.7,4.3-5.1
									c-0.7-3-4.9-1.2-6.3,0.2c-2.9,3.1-4.6,7.7-6,11.7c-3.3,9.8-3.7,20.3-4,30.6c0,0.8,1.2,0.8,1.2,0c0.3-10.3,0.7-20.8,4.1-30.7
									c0.9-2.4,1.9-4.9,3.2-7.1c1-1.7,2.9-5.7,5.6-5.1c2.7,0.6-1.1,3.7-1.5,3.9c-1,0.5-2,0.9-3.1,1.1c-2.9,0.7-6.5,0.5-8.3-2.2
									c-0.7-1.2-1.1-2.4-0.1-3.7c0.5-0.5,1.5-0.8,2-0.1c0.5,0.7-0.2,2.7-0.6,3.4c-1.6,2.5-5,2.8-7.3,1.2c-1.2-0.8-2.4-2.4-2.4-3.9
									c0-1.1,0.5-2.7,1.8-1.7c2.4,1.7-1.2,4.7-2.9,5.5c-3.3,1.6-9.3,1.5-11.7-1.9c-0.5-0.7-0.6-1.3-0.2-2c0.6-1.2,1.9-1,3-0.4
									c1.1,0.6,2,1.7,2.7,2.8c1.3,2.2,2.1,4.9,2.8,7.4c3.2,11,3.9,22.6,4.6,34.1C320.5,225.2,321.8,225.2,321.7,224.4L321.7,224.4
									z"/>
							</g>
						</g>
					</g>
					<g>
						<g>
							<path d="M325.6,243.5c-0.3,9.5-0.6,19.1-0.9,28.6c-0.1,4-0.4,8.1,0.9,12c0.9,2.7,3,5.6,6.1,5.9c5.4,0.5,6.8-7.3,1.4-8.5
								c-7.7-1.7-7.2,9-7.6,13.7c-0.7,10.5-1.2,21-4.2,31.2c-0.2,0.8,1,1.1,1.2,0.3c1.9-6.3,2.8-12.8,3.4-19.4
								c0.3-3.4,0.5-6.8,0.7-10.2c0.2-3.4,0.2-6.8,0.9-10.2c0.3-1.5,0.8-3.1,2.2-3.8c1.4-0.7,3.4-0.7,4.6,0.3c1.5,1.1,1.3,3.3,0,4.5
								c-1.7,1.5-4,0.7-5.4-0.7c-2.5-2.4-2.9-6.3-3-9.5c-0.1-3.3,0.1-6.7,0.2-10c0.2-8,0.5-16.1,0.8-24.1
								C326.8,242.7,325.6,242.7,325.6,243.5L325.6,243.5z"/>
						</g>
					</g>
				</g>
				<g>
					<g>
						<g>
							<g>
								<path d="M138.1,265.8c-3.3-1.2-6.5-2.6-9.1-5.1c-2.2-2.2-3.9-4.9-5.2-7.7c-2.6-5.7-3-11.7-0.7-17.5
									c4.8-12,18.4-20,31.1-18.8c11.3,1,22.1,9.6,24.4,21c2.3,11-4,23.2-14.5,27.3c-2.1,0.8-4.5,1.5-6.1,3.2
									c-0.7,0.7-1.1,1.6-1.3,2.6c-0.2,0.9,0,2.2-1,2.8c-0.6,0.3-1.7,0.2-2.4,0.3c-2.2,0.1-4.3,0.2-6.4,0.2c-0.8,0-1.7,0-2.4-0.2
									c-1.4-0.5-1.8-1.6-2.1-2.9C141.8,268.2,140.7,266.9,138.1,265.8c-0.7-0.3-1.1,0.9-0.3,1.2c2.2,0.9,2.9,2,3.4,4.3
									c0.3,1.2,0.6,2.4,1.7,3.2c2.4,1.7,6.6,0.8,9.3,0.7c1.9-0.1,5,0.2,5.6-2.2c0.3-1,0-2.1,0.5-3.1c0.4-0.7,1-1.3,1.7-1.8
									c1.2-0.8,2.6-1.2,3.9-1.7c10.8-4.1,17.6-15.8,16.1-27.2c-1.6-11.9-12.1-21.4-23.7-23.3c-13.1-2.2-27.2,5.1-33.3,16.8
									c-3.3,6.2-3.7,13.2-1,19.7c1.4,3.3,3.2,6.5,5.8,9c2.8,2.8,6.2,4.3,9.9,5.6C138.5,267.3,138.8,266.1,138.1,265.8z"/>
							</g>
						</g>
						<g>
							<g>
								<path d="M143.1,273.7c-1,1-1.3,2.6,0,3.6c0.7,0.6,1.7,0.6,2.7,0.7c1.7,0.1,3.4,0.2,5.1,0.2c1.9,0,5.1,0.2,6.5-1.4
									c0.9-1.1,0.7-2.6-0.6-3.2c-0.7-0.3-1.4,0.7-0.6,1.1c0.1,1.5-0.5,2.2-1.8,2.1c-0.5,0-1,0.1-1.6,0.1c-0.9,0-1.8,0.1-2.7,0.1
									c-0.9,0-1.8,0-2.7-0.1c-0.5,0-5.4-0.1-3.3-2.3C144.5,274,143.6,273.1,143.1,273.7L143.1,273.7z"/>
							</g>
						</g>
						<g>
							<g>
								<path d="M143.5,276.8c-0.9,1.1-1.8,2.7-0.6,3.9c1.4,1.4,4.4,1,6.1,1c2.7-0.2,11.6-0.1,8.1-4.8c-0.5-0.6-1.5,0-1.1,0.6
									c0.3,0.4,0.7,1.5,0.1,1.9c-0.3,0.2-1.3,0.2-1.7,0.3c-1.4,0.2-2.8,0.5-4.2,0.6c-1.1,0.1-2.2,0.2-3.2,0.1
									c-0.6,0-1.5,0.1-2.1-0.2c-1.1-0.5-1.2-1.7-0.5-2.6C144.9,277,144,276.2,143.5,276.8L143.5,276.8z"/>
							</g>
						</g>
						<g>
							<g>
								<path d="M145.1,281.9c0.3,1.2,0.7,2.5,1,3.7c0.1,0.4,0.2,1.1,0.6,1.4c1.1,0.9,3.8,0.5,5.1,0.4c1-0.1,3,0,3.7-0.8
									c0.9-1.2,0.7-4.4,0.8-5.8c0-0.8-1.2-0.8-1.2,0c0,1.2,0.1,3.3-0.4,4.4c0,0.2-0.1,0.5-0.2,0.7c-0.4,0-0.8,0.1-1.3,0.1
									c-0.7,0.1-1.4,0.2-2.1,0.2c-1.1,0-2.4,0.3-3.3-0.5c-1-0.8-1.2-2.9-1.5-4.2C146.1,280.8,144.9,281.1,145.1,281.9L145.1,281.9
									z"/>
							</g>
						</g>
						<g>
							<g>
								<path d="M149,274.1c-2.7-9-4.8-18.2-6.5-27.4c-0.3,0.2-0.6,0.5-0.9,0.7c1.7,1.2,3.2,2.4,4.7,3.8c0.3,0.2,0.8,0.2,1-0.1
									c0.9-1.6,1.5-3.3,2-5.1c-0.4,0-0.7,0.1-1.1,0.2c0.7,1.1,1.5,2.2,2.3,3.3c0.3,0.5,0.6,1.1,1.2,1.2c1.3,0.3,3-2.4,3.8-3.2
									c-0.4-0.2-0.7-0.3-1.1-0.5c0.8,9.2-3.5,18-2.4,27.2c0.1,0.8,1.3,0.8,1.2,0c-1.1-9.2,3.2-18,2.4-27.2c0-0.5-0.7-0.9-1.1-0.5
									c-0.6,0.7-1.9,2.8-3,2.2c-0.3-0.2-0.7-1-0.9-1.3c-0.5-0.7-0.9-1.3-1.4-2c-0.3-0.4-1-0.4-1.1,0.2c-0.4,1.7-1,3.2-1.8,4.8
									c0.3,0,0.7-0.1,1-0.1c-1.6-1.5-3.2-2.7-4.9-3.9c-0.5-0.3-1,0.2-0.9,0.7c1.7,9.3,3.9,18.4,6.5,27.4
									C148,275.2,149.2,274.9,149,274.1L149,274.1z"/>
							</g>
						</g>
						<g>
							<g>
								<path d="M165.3,227.1c4.6,2.6,7.8,7,8.7,12.2c0.1,0.8,1.3,0.5,1.2-0.3c-0.9-5.5-4.4-10.3-9.3-13
									C165.2,225.6,164.6,226.7,165.3,227.1L165.3,227.1z"/>
							</g>
						</g>
					</g>
					<g>
						<g>
							<path d="M150.1,286.7c-1.6,13.3,2.5,26.4,1.2,39.7c-0.1,0.8,1.2,0.8,1.2,0c1.4-13.3-2.8-26.4-1.2-39.7
								C151.4,286,150.1,286,150.1,286.7L150.1,286.7z"/>
						</g>
					</g>
				</g>
				<g>
					<g>
						<g>
							<g>
								<path d="M243.9,251.2c-2.2,0-4.3,0-6.4,0c-2-0.1-4.4-0.2-6.1-1.4c-1.9-1.3-1.5-3-1.5-4.9c0.1-2.3,0.1-4.6,0.2-6.9
									c0.1-3.4-0.9-5.6-3.6-7.8c-2.8-2.2-5.6-4.2-8-7c-10.5-12.6-9.8-31.4,1.1-43.5c10.5-11.7,31.2-16.6,44-5.8
									c12,10,14.1,28.8,7.5,42.4c-3.9,8.1-10.7,13.7-19,16.8c-1.3,0.5-2.6,1.1-3.2,2.4c-0.7,1.7-0.1,3.9,0,5.6
									c0.2,2.3,0.6,4.8,0.4,7.2C249,251.5,246.4,251.3,243.9,251.2c-0.8,0-0.8,1.2,0,1.2c2.7,0,5.6,0.1,6.4-3c0.5-2,0.1-4.3,0-6.3
									c-0.2-2.3-1.5-6.9,1-8.3c1.6-0.9,3.5-1.3,5.1-2.1c2-0.9,3.8-2,5.5-3.3c3.1-2.3,5.8-5.1,7.9-8.3c9-13.3,8.4-33-2.3-45.2
									c-11.3-12.8-31.5-11.1-44.2-1.2c-12.9,10-17.4,28.3-10,43c2,4,4.9,7.7,8.4,10.6c1.6,1.4,3.5,2.4,5,3.9
									c2.2,2.1,2.2,4.6,2.1,7.5c-0.1,2.5-0.3,5-0.3,7.5c0,1.5,0.6,2.6,1.8,3.6c3.5,2.8,9.5,1.8,13.6,1.9
									C244.8,252.5,244.8,251.2,243.9,251.2z"/>
							</g>
						</g>
						<g>
							<g>
								<path d="M229.8,237.1c6.3-1,12.7-0.7,18.8,0.8c0.8,0.2,1.1-1,0.3-1.2c-6.4-1.6-13-1.8-19.5-0.8
									C228.7,236.1,229,237.2,229.8,237.1L229.8,237.1z"/>
							</g>
						</g>
						<g>
							<g>
								<path d="M229.6,241.4c6.6,0.7,13.3,1,20,0.9c0.8,0,0.8-1.2,0-1.2c-6.7,0-13.3-0.3-20-0.9
									C228.8,240.1,228.8,241.3,229.6,241.4L229.6,241.4z"/>
							</g>
						</g>
						<g>
							<g>
								<path d="M230.1,246.1c6.6,0.5,13.2,0.6,19.8,0.5c0.8,0,0.8-1.3,0-1.2c-6.6,0.2-13.2,0-19.8-0.5
									C229.3,244.8,229.3,246,230.1,246.1L230.1,246.1z"/>
							</g>
						</g>
						<g>
							<g>
								<path d="M233.9,252c0.5,1.5,0.3,3.3,1.3,4.6c1,1.2,2.6,1,3.9,1.1c1.5,0,3.5,0.5,4.8-0.3c1.5-1,1.7-3.3,1.9-4.9
									c0.1-0.8-1.1-1.1-1.2-0.3c-0.2,1.5-0.2,3.3-1.6,4c-1.2,0.6-2.6,0.4-3.9,0.3c-1.5,0-3,0-3.5-1.7c-0.3-1-0.3-2-0.6-3
									C234.8,250.9,233.6,251.3,233.9,252L233.9,252z"/>
							</g>
						</g>
						<g>
							<g>
								<path d="M238.1,236c1.7-4.8,3.4-9.6,5-14.4c1.7-4.8,3.7-9.5,4.9-14.4c0.6-2.5,1.8-7.1-1.5-8.4c-3.7-1.5-5.6,3.1-6.2,5.7
									c0.4,0,0.7-0.1,1.1-0.2c-1.3-2.1-3.1-5.9-6.3-4.5c-3,1.3-0.7,5.9,0.1,7.8c3.9,9.3,6.9,18.7,8.5,28.6
									c0.1,0.8,1.3,0.5,1.2-0.3c-1.1-6.9-2.8-13.6-5.1-20.2c-1.1-3.2-2.5-6.2-3.7-9.3c-0.5-1.3-2.5-6.2,0.9-5.5
									c1.8,0.4,2.6,2.7,3.4,4c0.3,0.4,1,0.4,1.1-0.2c0.5-1.8,1.1-4.6,3.3-5c3.4-0.6,2.7,3.7,2.3,5.5c-0.7,3.5-2,6.9-3.2,10.3
									c-2.4,6.7-4.6,13.4-7,20.1C236.6,236.4,237.8,236.8,238.1,236L238.1,236z"/>
							</g>
						</g>
					</g>
					<g>
						<g>
							<path d="M239,257.4c-1.7,6.1-2.5,12.4-2.4,18.7c0.1,6.4,1.5,12.5,3,18.7c1.3,5.4,2.2,11,1.9,16.5c-0.2,5-1.4,10-2,15
								c-0.1,0.8,1.1,0.8,1.2,0c0.7-4.9,1.7-9.7,2-14.6c0.3-5-0.3-10.2-1.4-15.1c-1.5-6.6-3.2-12.8-3.5-19.5
								c-0.2-6.6,0.6-13.2,2.3-19.5C240.4,257,239.2,256.7,239,257.4L239,257.4z"/>
						</g>
					</g>
				</g>
				<g>
					<g>
						<g>
							<g>
								<path d="M88.7,297.2c-0.2-3.4-1.9-6.3-4.5-8.4c-1.7-1.3-3.5-2.4-4.9-4.1c-1.6-1.7-2.9-3.8-3.7-5.9
									c-3.3-8.6,0.4-19.1,6.4-25.7c3.4-3.7,8.4-5.2,13.2-5.6c4.6-0.4,9.5,0,13.6,2.4c8.2,5,11.4,16.4,7.4,24.9
									c-2.1,4.5-5.5,8.3-9.1,11.6c-1.5,1.4-3.9,2.8-4.9,4.7c-0.7,1.6,0,3.6,0.5,5.1c0.2,0.7,1.5,0.4,1.2-0.3
									c-0.3-1-0.9-2.3-0.7-3.4c0.2-1.5,1.9-2.6,2.9-3.5c2-1.7,3.8-3.5,5.6-5.4c2.9-3.2,5.4-6.8,6.7-11c2.5-8.2-0.8-17.9-7.8-23
									c-6.9-5-18.4-4.6-25.7-0.4c-3.9,2.2-6.4,6.1-8.4,10c-2.1,4.1-3.5,8.6-3.4,13.2c0.1,4.4,1.7,8.7,4.5,12.2
									c3.5,4.3,9.6,6.2,9.9,12.5C87.5,298,88.7,298,88.7,297.2L88.7,297.2z"/>
							</g>
						</g>
						<g>
							<g>
								<path d="M88.2,297.1c-1.1,0.5-2.1,1.2-1.1,2.4c0.9,1.1,2.7,1.2,3.9,1.3c4.2,0.5,9,0.7,13-0.6c1-0.3,2.2-0.8,2.4-1.9
									c0.2-1.2-0.9-2.1-2-2.4c-2.4-0.6-5.5,0.2-8,0.3C93.8,296.5,90.9,296.5,88.2,297.1c-0.8,0.2-0.5,1.4,0.3,1.2
									c3.1-0.6,6.4-0.6,9.5-0.9c1.5-0.1,2.9-0.2,4.3-0.3c0.8,0,3.5,0.2,2.1,1.7c-0.3,0.3-1,0.4-1.4,0.5c-2.3,0.5-4.8,0.7-7.1,0.7
									c-1.4,0-2.7-0.1-4.1-0.2c-0.5,0-1-0.1-1.4-0.2c0,0-2.9-0.7-1.7-1.2C89.3,298,89,296.8,88.2,297.1z"/>
							</g>
						</g>
						<g>
							<g>
								<path d="M88.1,299.5c-1.7,0.8-2.7,2.7-0.4,3.4c1.7,0.5,3.7,0.4,5.4,0.5c2.2,0.1,4.5,0.1,6.8,0c1.9-0.1,5,0.3,6.6-0.9
									c1.7-1.3,0.2-3.1-1.1-3.9c-0.7-0.4-1.3,0.7-0.6,1.1c1,0.7,1.6,1.8,0.2,2.2c-0.6,0.2-1.2,0.2-1.9,0.2
									c-1.4,0.1-2.8,0.1-4.3,0.2c-2,0-4.1,0-6.1,0c-1,0-2-0.1-3.1-0.2c-0.5,0-1.1-0.1-1.7-0.2c-0.1-0.7,0.1-1.1,0.7-1.2
									C89.5,300.2,88.9,299.2,88.1,299.5L88.1,299.5z"/>
							</g>
						</g>
						<g>
							<g>
								<path d="M88,302.3c-1.5,1.4-0.5,3,1.3,3.4c3,0.8,6.4,0.1,9.4,0c2.4-0.1,6,0.6,8.3-0.7c1.7-0.9,1.8-2.7,0.2-3.6
									c-0.7-0.4-1.3,0.7-0.6,1.1c0.2,1,0,1.6-0.8,1.7c-0.5,0.1-0.9,0.2-1.4,0.2c-0.5,0-1,0-1.5,0c-1.6,0-3.2,0-4.7,0.1
									c-1.6,0.1-3.1,0.2-4.7,0.2c-0.5,0-1.1,0-1.6,0c-0.2,0-4.2-0.3-2.8-1.5C89.5,302.6,88.6,301.8,88,302.3L88,302.3z"/>
							</g>
						</g>
						<g>
							<g>
								<path d="M89.2,304.8c-1.5,0.7-1.6,2.9-0.2,3.8c1,0.7,2.4,0.5,3.5,0.5c2.2,0,4.3-0.2,6.5-0.2c2.2-0.1,4.4,0,6.5-0.2
									c0.9-0.1,2-0.2,2.7-0.8c1.2-1.1,0.5-3-0.8-3.6c-0.7-0.3-1.4,0.7-0.6,1.1c1.1,0.5,0.5,1.7-0.3,2c-0.7,0.3-1.8,0.2-2.5,0.2
									c-1.5,0-3,0.1-4.5,0.2s-3,0.1-4.4,0.2c-0.8,0-1.6,0-2.4,0.1c-0.3,0-0.5,0-0.8,0c-1.2,0.2-1.8-0.4-1.9-2
									C90.6,305.6,90,304.5,89.2,304.8L89.2,304.8z"/>
							</g>
						</g>
						<g>
							<g>
								<path d="M94.2,296.7c-0.5-5-1.5-9.8-3.1-14.6c-0.7-2.1-2-7.1-5.1-6.5c-1,0.2-1.9,1.1-2.1,2.1c-0.3,1.5,1.2,2.7,2.4,3.2
									c2.9,1.4,6.7,1,8.9-1.4c1.2-1.3,2.3-4.9-0.2-5.4c-2.7-0.7-3.7,2-2.4,3.9c1.7,2.7,6.1,2.9,8.9,2.4c2.3-0.4,3.3-2.5,1.7-4.4
									c-2.7-3.3-5.4,1.6-5.7,3.9c-0.9,5.4-0.9,11.2-0.9,16.6c0,0.8,1.2,0.8,1.2,0c0-3,0.1-6.1,0.2-9c0.2-2.7,0.1-5.7,0.8-8.3
									c0.3-1.2,2.6-5,3.7-1.8c0.7,1.9-1.8,1.9-2.9,2c-1.2,0-2.4,0-3.6-0.3c-0.9-0.3-1.9-0.8-2.4-1.6c-0.4-0.6-1.2-2.4,0.7-2.1
									c1.9,0.3,0.5,2.9-0.2,3.6c-1,1-2.6,1.6-4,1.7c-1.3,0-3.5-0.3-4.4-1.5c-1.1-1.4,0.5-2.4,1.5-1.9c0.6,0.2,1.2,1.4,1.4,2
									c2.5,5.4,3.8,11.7,4.4,17.6C93,297.5,94.3,297.5,94.2,296.7L94.2,296.7z"/>
							</g>
						</g>
					</g>
					<g>
						<g>
							<path d="M96.7,308.2c-0.4,2.9,0.1,5.4,1.1,8.1c1.4,3.7-0.2,6.6-2.2,9.8c-0.4,0.7,0.7,1.3,1.1,0.6c1.6-2.5,3.4-5.4,3-8.5
								c-0.2-1.5-0.9-2.7-1.3-4.1c-0.6-2-0.7-3.9-0.4-5.9C98,307.5,96.8,307.5,96.7,308.2L96.7,308.2z"/>
						</g>
					</g>
				</g>
			</g>
		</g>
	</g>
</g>
</svg>
