<?xml version="1.0" encoding="utf-8"?>
<!-- Generator: Adobe Illustrator 22.1.0, SVG Export Plug-In . SVG Version: 6.00 Build 0)  -->
<svg version="1.1" id="Layer_1" xmlns="http://www.w3.org/2000/svg" xmlns:xlink="http://www.w3.org/1999/xlink" x="0px" y="0px"
	 viewBox="0 0 372 370.8" style="enable-background:new 0 0 372 370.8;" xml:space="preserve">
<style type="text/css">
	.st0{fill:#D2E8FF;}
</style>
<path class="st0" d="M71.5,116.1c26.4-8,51.3,21.9,82-7s17.4-81.8,63.9-71.6s50.4,8.2,64.2,1.8s43.8-18.4,49.4-7.3
	c5.6,11.1-26.6,50.7,9.6,73.3s28.4,39.9,27.3,52c-1.1,12.1-13.6,45.6-35.3,36.5c-21.7-9.1-41.4,11-32.7,32.6
	c8.7,21.6,22.4,89.8,5.8,104s-77.2-43.4-103.6-38c-26.4,5.3-20.9,57.6-46.8,49.8c-25.8-7.8-59-38.9-78.6-25.1s-93.4-4.4-68.9-42.1
	s27.4-35.9,21.7-59.3s-28.7-53.9-10.2-71S55.7,121,71.5,116.1z"/>
<image style="overflow:visible;enable-background:new    ;" width="1392" height="1380" xlink:href="mini.png"  transform="matrix(0.3864 0 0 0.3864 -102.4689 -68.2226)">
</image>
<path class="st0" d="M110,54.1c-8.2,13-7.8,25.2,0,30.4c7.8,5.2,28.2,20.8,32.6,5.2c4.4-15.6,13-27.4,3.3-32.6
	c-9.6-5.2-13-29.7-21.5-21.9S110,54.1,110,54.1z"/>
<path class="st0" d="M143,30.8c-0.7,9.6-0.4,23.4,6.7,15.6s9.3-13,3.3-15.6S143,30.8,143,30.8z"/>
<path class="st0" d="M127.5,2c-9.1,1.2-18.2,13.5-10.8,13.6c7.5,0.1,10.3,9.7,13.5,7.8c3.2-1.9,4.7-9,5.8-11.2
	C137.1,10,137.8,0.6,127.5,2z"/>
</svg>
