<?xml version="1.0" encoding="utf-8"?>
<!-- Generator: Adobe Illustrator 22.1.0, SVG Export Plug-In . SVG Version: 6.00 Build 0)  -->
<svg version="1.1" id="Layer_1" xmlns="http://www.w3.org/2000/svg" xmlns:xlink="http://www.w3.org/1999/xlink" x="0px" y="0px"
	 viewBox="0 0 371.2 278" style="enable-background:new 0 0 371.2 278;" xml:space="preserve">
<style type="text/css">
	.st0{fill:#EAE4D3;}
	.st1{fill:#BDD358;}
	.st2{fill:#B5CC52;}
	.st3{fill:#C3D95F;}
	.st4{opacity:0.28;}
	.st5{fill:#037558;}
	.st6{fill:#128787;}
	.st7{fill:#FFFFFF;}
	.st8{fill:#61E8E1;}
	.st9{fill:#2D5575;}
	.st10{fill:#F25757;}
	.st11{opacity:0.19;}
	.st12{fill:#9E9A8D;}
	.st13{fill:#FFD6B0;}
	.st14{fill:#F5C243;}
	.st15{fill:#14212B;}
	.st16{fill:#726F67;}
	.st17{fill:#C94949;}
	.st18{fill:#F4CCA8;}
	.st19{fill:#C4DB5E;}
	.st20{fill:#B0C452;}
	.st21{fill:#B1C750;}
	.st22{fill:#0B1217;}
	.st23{fill:#EB4D4D;}
	.st24{fill:#FF7373;}
	.st25{opacity:0.2;fill:#037558;enable-background:new    ;}
</style>
<g id="OBJECTS">
	<g>
		<path class="st0" d="M33.2,226.5h309.1c-0.3-6-0.6-11.9,0-17.6c1.7-15,9.6-27.9,15.6-41.2c6.1-13.4,10.4-29.8,4.6-43.3
			c-5.2-12.1-17.1-18.5-28.7-19.7c-7.4-0.8-14.9,0.1-22.3-0.8c-12.5-1.5-24.5-8.4-33.2-18.9c-11.1-13.5-17.4-33.1-31.9-41.1
			c-10.5-5.7-23-3.7-34.1,0.6c-27.5,10.7-50,34.1-70.3,58.2c-7.2,8.7-14.6,17.7-23.7,23.5c-13.8,8.8-30.4,9.3-45.9,6.5
			c-9.5-1.7-18.8-4.5-28.3-4.4s-19.7,3.6-25.6,12.2c-5.7,8.2-6.7,19.7-5.7,30.2C14.5,191.7,23.1,209.6,33.2,226.5z"/>
	</g>
	<g>
		<g>
			<g>
				<path class="st1" d="M165.9,126.2l94.7-63.5c1-0.6,1.2-1.9,0.6-2.9l-27.8-41.4c-0.6-1-1.9-1.2-2.9-0.6L229,19l-93.2,62.4
					c-1,0.6-1.2,1.9-0.6,2.9l26,38.8l1.8,2.7C163.7,126.5,164.9,126.8,165.9,126.2z"/>
			</g>
			<g>
				<path class="st2" d="M165.9,126.2l94.7-63.5c1-0.6,1.2-1.9,0.6-2.9l-27.8-41.4c-0.6-1-1.9-1.2-2.9-0.6L229,19
					c-4,24-18.4,81.4-67.7,104.1l1.8,2.7C163.7,126.5,164.9,126.8,165.9,126.2z"/>
			</g>
			<g>
				<ellipse class="st3" cx="198.2" cy="72" rx="18.7" ry="18.7"/>
			</g>
			<g>
				<path class="st3" d="M226.5,29.4c1.4,2,4.1,2.5,6.1,1.2c2-1.4,2.5-4.1,1.2-6.1s-4.1-2.5-6.1-1.2
					C225.6,24.7,225.1,27.4,226.5,29.4z"/>
			</g>
			<g>
				<path class="st3" d="M141.8,86.3c1.4,2,4.1,2.5,6.1,1.2c2-1.4,2.5-4.1,1.2-6.1c-1.4-2-4.1-2.5-6.1-1.2
					C141.1,81.5,140.6,84.3,141.8,86.3z"/>
			</g>
			<g>
				<path class="st3" d="M247.8,61.2c1.4,2,4.1,2.5,6.1,1.2c2-1.4,2.5-4.1,1.2-6.1c-1.4-2-4.1-2.5-6.1-1.2
					C246.9,56.4,246.5,59.2,247.8,61.2z"/>
			</g>
			<g>
				<path class="st3" d="M163.2,118c1.4,2,4.1,2.5,6.1,1.2c2-1.4,2.5-4.1,1.2-6.1c-1.4-2-4.1-2.5-6.1-1.2
					C162.4,113.3,161.8,116,163.2,118z"/>
			</g>
		</g>
		<g>
			<g class="st4">
				<path class="st5" d="M165.9,126.2l26.7-17.9l63-55.7c0.2-0.2,0.3-0.3,0.5-0.6l-5.7-8.5l-21.7-24.4l-1.5,1l24.4,27.6
					c0.7,0.9,0.6,2.1-0.2,2.9L165.9,126.2z"/>
			</g>
			<g>
				<g>
					<path class="st1" d="M165.9,126.2l85.5-75.6c0.9-0.7,1-2.1,0.2-2.9l-33-37.3c-0.7-0.9-2.1-1-2.9-0.2l-1.4,1.3l-84,74.3
						c-0.9,0.7-1,2.1-0.2,2.9l30.9,35l2.1,2.4C163.7,126.8,165.1,126.9,165.9,126.2z"/>
				</g>
				<g>
					<path class="st2" d="M165.9,126.2l85.5-75.6c0.9-0.7,1-2.1,0.2-2.9l-33-37.3c-0.7-0.9-2.1-1-2.9-0.2l-1.4,1.3
						c-0.7,24.3-7.4,83.1-53.3,112.1l2.1,2.4C163.7,126.8,165.1,126.9,165.9,126.2z"/>
				</g>
				<g>
					<ellipse class="st3" cx="190.7" cy="68.2" rx="18.7" ry="18.7"/>
				</g>
				<g>
					<ellipse class="st3" cx="216.4" cy="19.4" rx="4.4" ry="4.4"/>
				</g>
				<g>
					<path class="st3" d="M136.8,89.8c1.6,1.8,4.4,2,6.2,0.4c1.8-1.6,2-4.4,0.4-6.2c-1.6-1.8-4.4-2-6.2-0.4
						C135.4,85.3,135.2,88,136.8,89.8z"/>
				</g>
				<g>
					<path class="st3" d="M238.4,50.9c1.6,1.8,4.4,2,6.2,0.4c1.8-1.6,2-4.4,0.4-6.2s-4.4-2-6.2-0.4C237,46.3,236.8,49.1,238.4,50.9z
						"/>
				</g>
				<g>
					<path class="st3" d="M162.2,118.4c1.6,1.8,4.4,2,6.2,0.4c1.8-1.6,2-4.4,0.4-6.2c-1.6-1.8-4.4-2-6.2-0.4
						C160.7,113.8,160.6,116.7,162.2,118.4z"/>
				</g>
			</g>
		</g>
		<g>
			<g>
				<path class="st1" d="M165.9,126.2L240.6,40c0.7-0.9,0.6-2.1-0.2-2.9L202.6,4.5c-0.9-0.7-2.1-0.6-2.9,0.2l-1.3,1.5l-73.4,84.7
					c-0.7,0.9-0.6,2.1,0.2,2.9l35.3,30.6l2.5,2.1C163.9,127.1,165.2,127,165.9,126.2z"/>
			</g>
			<g class="st4">
				<path class="st5" d="M165.9,126.2l30.7-27.1l49.3-56.8c0.2-0.2,0.2-0.3,0.3-0.5l-7.6-8.5l-24.8-21.5l-1.4,1.2L240.4,37
					c0.9,0.7,1,2.1,0.2,2.9L165.9,126.2z"/>
			</g>
			<g>
				<path class="st2" d="M165.9,126.2L240.6,40c0.7-0.9,0.6-2.1-0.2-2.9L202.6,4.5c-0.9-0.7-2.1-0.6-2.9,0.2l-1.3,1.5
					c2.5,24.1,3.7,83.4-38,118.2l2.5,2.1C163.9,127.1,165.2,127,165.9,126.2z"/>
			</g>
			<g>
				
					<ellipse transform="matrix(2.071621e-02 -0.9998 0.9998 2.071621e-02 113.6985 246.8442)" class="st3" cx="182.9" cy="65.4" rx="18.7" ry="18.7"/>
			</g>
			<g>
				<path class="st3" d="M198.9,16.9c1.8,1.6,4.6,1.4,6.2-0.5s1.4-4.6-0.5-6.2c-1.8-1.6-4.6-1.4-6.2,0.5
					C196.9,12.6,197,15.3,198.9,16.9z"/>
			</g>
			<g>
				<path class="st3" d="M132.2,94c1.8,1.6,4.6,1.4,6.2-0.5c1.6-1.8,1.4-4.6-0.5-6.2c-1.8-1.6-4.6-1.4-6.2,0.5
					C130.2,89.7,130.4,92.5,132.2,94z"/>
			</g>
			<g>
				<path class="st3" d="M227.8,41.9c1.8,1.6,4.6,1.4,6.2-0.5c1.6-1.8,1.4-4.6-0.5-6.2c-1.8-1.6-4.6-1.4-6.2,0.5
					C225.8,37.5,226,40.3,227.8,41.9z"/>
			</g>
			<g>
				<path class="st3" d="M161.2,119c1.8,1.6,4.6,1.4,6.2-0.5c1.6-1.8,1.4-4.6-0.5-6.2c-1.8-1.6-4.6-1.4-6.2,0.5
					C159.1,114.7,159.4,117.5,161.2,119z"/>
			</g>
		</g>
	</g>
	<g>
		<g>
			<g>
				<polygon class="st6" points="13.5,217.5 3.2,210.2 60,130.8 68.8,161.4 329.8,54.5 334.6,66.2 60.5,178.4 55.1,159.5 				"/>
			</g>
		</g>
		<g>
			<polygon class="st6" points="354.4,51.8 343.4,66.1 332.4,80.3 325.6,63.6 318.8,47 336.7,49.5 			"/>
		</g>
	</g>
	<g>
		<g>
			<path class="st7" d="M295.9,223.3H80.5c-3.4,0-6.1-2.7-6.1-6.1V89.3c0-3.4,2.7-6.1,6.1-6.1h215.4c3.4,0,6.1,2.7,6.1,6.1v127.9
				C302,220.6,299.3,223.3,295.9,223.3z"/>
		</g>
		<g>
			<path class="st8" d="M281.3,217.8H86.3c-2.6,0-4.8-2.1-4.8-4.8V92c0-2.6,2.1-4.8,4.8-4.8h195.1c2.6,0,4.8,2.1,4.8,4.8v121
				C286.1,215.6,284,217.8,281.3,217.8z"/>
		</g>
		<g>
			<path class="st8" d="M298.9,155.6c0,2.8-2.2,5-5,5c-2.8,0-5-2.2-5-5c0-2.8,2.2-5,5-5C296.6,150.7,298.9,152.9,298.9,155.6z"/>
		</g>
		<g>
			<g>
				<g>
					<rect x="138" y="96.8" class="st7" width="81.2" height="10.4"/>
				</g>
				<g>
					<rect x="204.9" y="96.8" class="st9" width="14.3" height="10.4"/>
				</g>
			</g>
			<g>
				<g>
					<circle class="st9" cx="271.9" cy="101.6" r="5"/>
				</g>
				<g>
					<g>
						<path class="st9" d="M262.7,99.3c-0.7,0-1.4-0.6-1.4-1.4c0-0.7,0.6-1.4,1.4-1.4c0.7,0,1.4,0.6,1.4,1.4
							C264.1,98.7,263.4,99.3,262.7,99.3z"/>
					</g>
					<g>
						<path class="st9" d="M262.7,103c-0.7,0-1.4-0.6-1.4-1.4c0-0.7,0.6-1.4,1.4-1.4c0.7,0,1.4,0.6,1.4,1.4
							C264.1,102.3,263.4,103,262.7,103z"/>
					</g>
					<g>
						<path class="st9" d="M262.7,106.6c-0.7,0-1.4-0.6-1.4-1.4c0-0.7,0.6-1.4,1.4-1.4c0.7,0,1.4,0.6,1.4,1.4
							C264.1,106,263.4,106.6,262.7,106.6z"/>
					</g>
				</g>
			</g>
			<g>
				<rect x="142" y="115.1" class="st9" width="0.8" height="86"/>
			</g>
			<g>
				<path class="st10" d="M152,124.1c0,1.3-1,2.4-2.4,2.4s-2.4-1-2.4-2.4c0-1.4,1-2.4,2.4-2.4S152,122.8,152,124.1z"/>
			</g>
			<g>
				<path class="st7" d="M172.6,126.2H156c-1,0-2-0.9-2-2l0,0c0-1,0.9-2,2-2h16.6c1,0,2,0.9,2,2l0,0
					C174.5,125.3,173.6,126.2,172.6,126.2z"/>
			</g>
			<g>
				<rect x="177" y="123.8" class="st9" width="49.4" height="0.8"/>
			</g>
			<g>
				<rect x="229.6" y="123.8" class="st9" width="11.9" height="0.8"/>
			</g>
			<g>
				<path class="st10" d="M152,134.1c0,1.3-1,2.4-2.4,2.4s-2.4-1-2.4-2.4s1-2.4,2.4-2.4S152,132.7,152,134.1z"/>
			</g>
			<g>
				<path class="st7" d="M172.6,135.8H156c-1,0-2-0.9-2-2l0,0c0-1,0.9-2,2-2h16.6c1,0,2,0.9,2,2l0,0
					C174.5,134.9,173.6,135.8,172.6,135.8z"/>
			</g>
			<g>
				<rect x="177" y="133.4" class="st9" width="49.4" height="0.8"/>
			</g>
			<g>
				<rect x="229.6" y="133.4" class="st9" width="11.9" height="0.8"/>
			</g>
			<g>
				<path class="st10" d="M152,144c0,1.3-1,2.4-2.4,2.4s-2.4-1-2.4-2.4c0-1.3,1-2.4,2.4-2.4S152,142.7,152,144z"/>
			</g>
			<g>
				<path class="st7" d="M172.6,146.1H156c-1,0-2-0.9-2-2l0,0c0-1,0.9-2,2-2h16.6c1,0,2,0.9,2,2l0,0
					C174.5,145.2,173.6,146.1,172.6,146.1z"/>
			</g>
			<g>
				<rect x="177" y="143.7" class="st9" width="49.4" height="0.8"/>
			</g>
			<g>
				<rect x="229.6" y="143.7" class="st9" width="11.9" height="0.8"/>
			</g>
			<g>
				<path class="st10" d="M152,154c0,1.3-1,2.4-2.4,2.4s-2.4-1-2.4-2.4c0-1.3,1-2.4,2.4-2.4S152,152.7,152,154z"/>
			</g>
			<g>
				<path class="st7" d="M172.6,155.7H156c-1,0-2-0.9-2-2l0,0c0-1,0.9-2,2-2h16.6c1,0,2,0.9,2,2l0,0
					C174.5,154.8,173.6,155.7,172.6,155.7z"/>
			</g>
			<g>
				<rect x="177" y="153.3" class="st9" width="49.4" height="0.8"/>
			</g>
			<g>
				<rect x="229.6" y="153.3" class="st9" width="11.9" height="0.8"/>
			</g>
			<g>
				<path class="st10" d="M152,163.9c0,1.3-1,2.4-2.4,2.4s-2.4-1-2.4-2.4c0-1.3,1-2.4,2.4-2.4S152,162.7,152,163.9z"/>
			</g>
			<g>
				<path class="st7" d="M172.6,166H156c-1,0-2-0.9-2-2l0,0c0-1,0.9-2,2-2h16.6c1,0,2,0.9,2,2l0,0C174.5,165.1,173.6,166,172.6,166z
					"/>
			</g>
			<g>
				<rect x="177" y="163.6" class="st9" width="49.4" height="0.8"/>
			</g>
			<g>
				<rect x="229.6" y="163.6" class="st9" width="11.9" height="0.8"/>
			</g>
			<g>
				<rect x="91.1" y="119.8" class="st9" width="35" height="0.8"/>
			</g>
			<g>
				<rect x="91.1" y="125.4" class="st9" width="35" height="0.8"/>
			</g>
			<g>
				<rect x="91.1" y="131" class="st9" width="35" height="0.8"/>
			</g>
			<g>
				<rect x="91.1" y="136.6" class="st9" width="19.9" height="0.8"/>
			</g>
		</g>
		<g class="st11">
			<g>
				<polygon class="st7" points="122.5,217.8 101.1,217.8 147.8,87.2 169.2,87.2 				"/>
			</g>
			<g>
				<polygon class="st7" points="174.6,217.8 153.2,217.8 199.9,87.2 221.3,87.2 				"/>
			</g>
			<g>
				<polygon class="st7" points="199.6,217.8 188.9,217.8 235.7,87.2 246.4,87.2 				"/>
			</g>
		</g>
	</g>
	<g id="Layer_4">
		
			<image style="overflow:visible;enable-background:new    ;" width="1140" height="705" xlink:href="done/big4/tamwelly2.png"  transform="matrix(0.1795 0 0 0.1842 81.4996 87.9725)">
		</image>
	</g>
	<g>
		<g>
			<g>
				<rect x="28.2" y="80.8" class="st12" width="36.6" height="4"/>
			</g>
			<g>
				<rect x="28.2" y="87.2" class="st12" width="21.5" height="4"/>
			</g>
		</g>
		<g>
			<g>
				<rect x="315.6" y="131.8" class="st12" width="36.6" height="4"/>
			</g>
			<g>
				<rect x="314.8" y="138.9" class="st12" width="21.5" height="4"/>
			</g>
		</g>
	</g>
	<g>
		<path class="st0" d="M252.3,271.8c0,2.9-30.5,1.8-68.1,1.8s-68.1,1.1-68.1-1.8s30.5-5.4,68.1-5.4
			C221.8,266.4,252.3,268.8,252.3,271.8z"/>
		<g>
			<g>
				<path class="st13" d="M182.2,172.5c1,0.2,2,0.6,2.9,0.6c1.8,0.2,3.7,0.1,5.5-0.1c3.7-0.3,7.2-1.1,10.7-2.2c3.5-1,6.9-2.5,10.3-4
					c1.7-0.8,3.3-1.6,4.9-2.5c0.8-0.5,1.6-0.9,2.5-1.3c0.8-0.4,1.7-0.8,2.5-1l0.3-0.1c1.8-0.6,3.8,0.2,5.1,1.8
					c1.5,2.1,1.2,5.1-0.7,6.6c-0.9,0.7-1.8,1.2-2.6,1.7c-0.9,0.5-1.8,0.9-2.8,1.2c-1.9,0.7-3.7,1.4-5.7,2c-3.8,1.2-7.7,2.1-11.7,2.8
					c-4,0.6-8.1,0.9-12.3,0.6c-2.9-0.2-5.9-1-8.8-1.9C182.2,175.3,182.2,173.9,182.2,172.5z"/>
				<g>
					<path class="st14" d="M227.5,164.2c0-0.1-0.1-0.1-0.1-0.2c-1.2-2.5-4.3-3.5-6.8-2.3l-14.6,7.2l4.7,7.6c0,0,6.9-2.1,12.9-4.1
						C227.1,171.4,229,167.5,227.5,164.2z"/>
					<path class="st7" d="M210.2,167.1c-7.2,3.1-13.9,4.4-18.9,4.9c-0.9,2.3-1.3,4.7-1.8,7.1c7.1,1,15.4-0.6,21.7-2.3v0.1
						c0,0,0.4-0.2,1.2-0.4c5.1-1.4,8.7-2.9,8.7-2.9l0,0c1-0.3,2-0.7,2.9-1c3.4-1.2,5.2-5.1,3.7-8.4c0-0.1-0.1-0.1-0.1-0.2
						c-1.3-2.5-4.4-3.4-6.8-2.1L210.2,167.1z"/>
				</g>
				<g>
					<path class="st15" d="M235.9,268.7c0,0,0.7,2.1,0.5,2.9c0,0-8.3,0.2-8.8,0s3.3-2.6,4.7-2.9H235.9z"/>
					<g>
						<path class="st16" d="M227.8,268.7c0,0,0.7,2.1,0.5,2.9c0,0-8.3,0.2-8.8,0c-0.5-0.2,3.3-2.6,4.7-2.9H227.8z"/>
						<path class="st16" d="M223.1,268.7h5.4l-1.5-66.2l2.2-11.8h-4.3h-5.5l-1.8,13.1c-0.2,1.4-0.2,2.7-0.1,4.1L223.1,268.7z"/>
					</g>
					<path class="st12" d="M235,202.5c0,0,0.1-5.9-0.9-8.6l-1.1-3.1h-5.5h-8l5.9,15.1l5.7,62.9h5.4L235,202.5z"/>
				</g>
				<g>
					<g>
						<path class="st7" d="M232.9,190.7l3.7-14.8c0,0,3.7-12.7-6.9-17.2l-3.9,1c-2.7,0.7-4.9,2.5-6.2,4.9c-2,3.7-3.8,10.1-1.6,19.2
							l1.5,6.8H232.9z"/>
					</g>
					<g>
						<path class="st15" d="M228.5,176.2l1,7.6l1.3-0.3c0,0-0.1,3.7-0.5,5.2C230.2,188.7,228.1,182.7,228.5,176.2z"/>
						<g>
							<path class="st13" d="M238.3,171.6c0-1-0.1-2-0.2-3c-0.2-1-0.3-2-0.6-3c-0.7-2.3-3.4-3.7-6-2.9c-2.1,0.6-3.4,2.3-3.5,4.1v0.3
								c0,0.8,0.1,1.8,0.2,2.6c0.1,0.9,0.2,1.8,0.3,2.7c0.3,1.8,0.5,3.7,0.6,5.5c0.3,3.7,0.5,7.3,0.2,11c-0.2,3.7-0.6,7.3-1.6,10.8
								c-0.2,0.6-0.4,1.3-0.6,1.9c1.1,1.3,2.6,2.2,4.2,2.9c0.6-1,1.3-2.1,1.8-3.3c1.7-3.8,2.8-7.7,3.6-11.7c0.8-4,1.2-8,1.4-11.9
								C238.3,175.7,238.4,173.6,238.3,171.6z"/>
							<path class="st17" d="M227.1,200.1c0.7,1,1.4,2,2.3,2.8c0.9,0.9,1.8,1.5,2.9,2.2l0,0c0.2,0.1,0.2,0.2,0.1,0.4
								c-0.1,0.1-0.2,0.2-0.2,0.1c-0.7-0.1-1.4-0.2-2-0.6c-0.6-0.2-1.2-0.7-1.8-1.2c-0.5-0.5-1-1-1.3-1.7c-0.3-0.6-0.6-1.3-0.6-2
								c0-0.2,0.1-0.2,0.2-0.2C227,199.9,227,199.9,227.1,200.1L227.1,200.1z"/>
							<path class="st7" d="M229,179.3c0.8,7.6,0,14.3-1.1,19.2c2,1.5,4,2.6,6.1,3.7c3-6.4,4.1-14.6,4.3-21.1h0.1c0,0,0-0.5,0-1.2
								c0.2-5.3-0.2-9-0.2-9l0,0c0-1-0.1-2.1-0.1-3c-0.2-3.5-3.2-6.4-6.8-5.9c-0.1,0-0.1,0-0.2,0c-2.7,0.4-4.5,3.1-4.1,5.8
								L229,179.3z"/>
						</g>
					</g>
				</g>
				<g>
					<path class="st18" d="M231.4,150.1c0.2-2.5,0.2-5.3-0.6-6.1c-1.4-1.6-5.5-2.5-7.3-1.8c-0.9,0.3-1.6,2.9-1.9,5.7
						c-0.6,1.4-1.4,3.5-1.4,3.5s0.6,0.3,1.2,0.3c0,2,0.3,3.7,1,4.4c0.6,0.6,1.5,1,2.5,1.1v4.5l6.4-1.7V153c0.5-0.2,1.8-1,1.9-2.2
						C233.2,149.9,232.1,149.7,231.4,150.1z"/>
					<path class="st15" d="M224.8,157.3c0,0,3.1,0,4.3-1.9c0,0-1.8,4-4.3,3.7V157.3z"/>
					<path class="st15" d="M234.3,144.6c-0.2-0.6-0.4-1.3-1-1.4c0.2-0.9,0.1-1.8-0.6-2.5c-0.6-0.5-1.3-0.6-2-0.6
						c-0.7,0-1.4,0-2.1-0.4c-0.3-0.2-0.6-0.6-0.9-0.9c-0.2-0.2-0.6-0.5-0.9-0.6c-0.3-0.1-0.7-0.1-1,0.1c-0.4,0.2-0.6,0.7-1,1
						c-0.4,0.3-1,0.2-1.5,0.1c-0.5-0.2-1-0.5-1.4-0.6c-0.5-0.2-1-0.2-1.5,0c-0.4,0.2-0.6,0.6-0.6,1c-0.1,0.4,0,0.9,0.1,1.3
						c0.2,0.9,0.4,1.9,0.9,2.6c-0.1,0.8,0,2.2,0.8,2.7l0.4-1.8c1,0.3,1.8,0.6,2.9,0.7c1,0.1,2.1-0.1,3-0.7c0.2-0.2,0.4-0.3,0.6-0.3
						c0.2-0.1,0.5,0.1,0.7,0.2c0.6,0.5,0.8,1.3,1,2.1c0.1,1,0,2.1-0.3,3.2c0,0.1-0.1,0.2,0,0.2h0.1c0.5,0,1-0.2,1.4-0.3
						c0,0,1.3-0.6,1.7,0.6c0,0,0.2,1.4-1.9,2.5v2.5c0.2,0,0.1,0.5,0.2,0.4l0.1-0.1c0.6-1,1.7-1.6,2.1-2.6c0.2-0.3,0.2-0.7,0.3-1
						c0.2-0.8,0.4-1.6,0.6-2.4c0.1-0.6,0.2-1.1,0.2-1.7C234.8,146.8,234.6,145.7,234.3,144.6z"/>
				</g>
			</g>
			<g>
				<g>
					<g>
						<g>
							<path class="st18" d="M166.7,203.3c-0.7-0.9-1.7-1.7-2.7-2.2c0.6,0,1,0,1.6,0c0.2,0,0.4,0,0.5-0.2c0-0.1,0-0.2-0.1-0.3
								c-0.4-0.5-1-0.7-1.6-1c-0.2-0.1-0.4-0.2-0.6-0.2c-0.3-0.1-0.6-0.2-0.8-0.4c-0.7-0.5-1.5-1-2.1-1.5c-1.3-1.2-2.4-2.5-3.4-4
								c-2.1-2.8-3.8-5.9-5.3-9.1c-1.5-3.2-2.7-6.5-3.7-9.9c-0.5-1.7-1-3.4-1.4-5.1c-0.2-0.9-0.4-1.7-0.6-2.5
								c-0.2-0.8-0.5-1.7-0.8-2.4l-0.2-0.3c-0.7-1.7-2.5-2.7-4.5-2.5c-2.5,0.2-4.5,2.4-4.2,4.7c0.1,1.1,0.2,2,0.5,2.9
								c0.2,1,0.6,1.8,0.9,2.8c0.7,1.8,1.4,3.6,2.2,5.3c1.6,3.5,3.3,6.9,5.5,10.2c2.1,3.3,4.5,6.4,7.4,9.2c1.6,1.6,3.6,2.9,5.6,4.2
								c1,0.6,1.9,1.5,2.6,2.5c0.2,0.3,0.5,0.6,0.7,0.9c0.9,1,1.9,1.7,3.2,1.8c0.9,0.1,1.9-0.2,2.1-1.1
								C167.5,204.4,167.1,203.8,166.7,203.3z"/>
							<path class="st15" d="M148.9,175.6l-3.2-11.5c-0.7-2.7-3.5-4.5-6.2-3.7c-0.1,0-0.1,0-0.2,0.1c-3.4,1-5.2,4.9-3.8,8.3
								c0.4,1,0.8,1.9,1.2,2.9l0,0c0,0,1.3,3.7,3.6,8.4c0.3,0.7,0.5,1.1,0.5,1.1h0.1c3.8,7.7,10.2,17.8,18.2,21.2l3.9-3.4
								C162.9,198.8,153.6,190.1,148.9,175.6z"/>
						</g>
					</g>
				</g>
				<g>
					<path class="st15" d="M134.1,190.7l-3.7-14.8c0,0-3.7-12.7,6.9-17.2l3.9,1c2.7,0.7,4.9,2.5,6.2,4.9c2,3.7,3.8,10.1,1.6,19.2
						l-1.5,6.8H134.1z"/>
					<g>
						<g>
							<path class="st18" d="M175,173.3c0,0,3.3-1.7,4.8-1.8c1.5-0.2,5.5,2.7,5.7,3.3c0.2,0.6-1.4,4.1-6.1,1.9
								c-1-0.5-2.3-0.6-3.4-0.3h-0.2L175,173.3z"/>
							<g>
								<path class="st18" d="M177.8,171.8c-1,0.2-2.8,0.6-3.7,0.6c-1.8,0.2-3.7,0.2-5.5,0.1c-3.7-0.2-7.2-1-10.7-2
									c-3.5-1-7-2.3-10.4-3.7c-1.7-0.7-3.3-1.5-4.9-2.4c-0.8-0.4-1.6-0.8-2.5-1.2c-0.8-0.4-1.7-0.7-2.5-1l-0.3-0.1
									c-1.8-0.6-3.8,0.2-5,2c-1.5,2.1-1.1,5.1,0.9,6.5c1,0.6,1.8,1.1,2.7,1.6c0.9,0.4,1.8,0.8,2.8,1.1c1.9,0.6,3.8,1.3,5.7,1.8
									c3.8,1.1,7.8,2,11.8,2.5c4,0.5,8.1,0.7,12.3,0.3c2.9-0.2,5.9-1.1,8.7-2.1C177,174.6,177.8,173.3,177.8,171.8z"/>
								<path class="st15" d="M149.5,167.1l-10.7-5.3c-2.5-1.3-5.7-0.4-6.8,2.1c0,0.1-0.1,0.1-0.1,0.2c-1.5,3.3,0.3,7.2,3.7,8.4
									c1,0.3,2,0.7,2.9,1l0,0c0,0,3.6,1.4,8.7,2.9c0.7,0.2,1.2,0.4,1.2,0.4v-0.1c8.3,2.2,20.1,4.2,27.9,0.5v-5.2
									C176.2,172,163.5,173.2,149.5,167.1z"/>
							</g>
						</g>
						<path class="st13" d="M180.5,171.4c0,0-1.5,1.1-1.4,1.6c0.1,0.5,1.5,0.1,2.5-0.6c0,0,2.1,0.5,2.3,0.6c0.2,0.2,1.3,0.2,1.3,0.2
							S182,170.6,180.5,171.4z"/>
						<path class="st13" d="M178.6,176.4c0,0,1,1.4,3.6,1c0,0,0.2-1.4-0.3-1.8c0,0-0.2-0.1-0.3,0.3c0,0,0-0.8-0.3-1
							c-0.4-0.2-0.5,0.5-0.5,0.5s0.1-0.5-0.2-0.6c-0.2-0.1-0.6,0.2-0.6,0.6c0,0-0.1-0.9-0.5-0.9
							C179.2,174.4,178.7,175.2,178.6,176.4z"/>
					</g>
				</g>
				<g>
					<g>
						<path class="st16" d="M139.5,267.9c0,0-0.7,2.1-0.5,2.9c0,0,8.3,0.2,8.8,0s-3.3-2.6-4.7-2.9H139.5z"/>
						<path class="st16" d="M144.2,268.7h-5.4l1.5-66.2l-2.2-11.8h4.3h5.5l1.8,13.1c0.2,1.4,0.2,2.7,0.1,4.1L144.2,268.7z"/>
					</g>
					<g>
						<path class="st12" d="M131.3,267.9c0,0-0.7,2.1-0.5,2.9c0,0,8.3,0.2,8.8,0s-3.3-2.6-4.7-2.9H131.3z"/>
						<path class="st12" d="M132.2,202.5c0,0-0.1-5.9,0.9-8.6l1.1-3.1h5.5h8l-5.9,15.1l-5.7,62.9h-5.4L132.2,202.5z"/>
					</g>
				</g>
				<g>
					<path class="st18" d="M145.4,151.8c0.6,0,1.2-0.3,1.2-0.3s-0.9-2.2-1.4-3.5c-0.3-2.9-1.1-5.3-1.9-5.7c-1.8-0.7-6,0.2-7.3,1.8
						c-0.7,0.8-0.7,3.5-0.6,6.1c-0.7-0.4-1.8-0.2-1.7,0.9c0.2,1.2,1.4,1.9,1.9,2.2v6.9l6.4,1.7v-4.5c1-0.1,1.8-0.5,2.5-1.1
						C145.1,155.4,145.4,153.8,145.4,151.8z"/>
					<path class="st15" d="M142,157.3c0,0-3.1,0-4.3-1.9c0,0,1.8,4,4.3,3.7V157.3z"/>
					<path class="st15" d="M145.9,140.5c-0.4-0.6-1.1-0.8-2.7,0.2c-1.7,1-3-2.1-6.6-0.7c-0.5,0.2-1,0.5-1.4,0.7
						c-1.5,1.1-2.4,2.8-2.8,4.6c-1.4,7.5,3.2,10,3.2,10c0-0.7,0.1-1.5,0.1-2.1c0,0-2.4-1-1.8-2.8c0,0,0.5-0.6,1.4-0.3
						c0.3,0.2,0.7,0.4,1.2,0.4c0.8,0.1,3.1-4.4,3.1-4.4l0,0c0.2-0.6,0.4-1.1,0.6-1.7c0.1-0.5,0.7-0.7,1.3-0.7c0.5,0,1,0.2,1.4,0.3
						c0.5,0.2,0.9,0.3,1.4,0.3c0.2,0,0.3,0,0.4-0.1c0.2,0.8,0.5,1.8,0.5,1.8c1-0.7,0.9-1.9,0.7-2.5c0.1-0.1,0.2-0.2,0.2-0.4
						c0.1-0.2,0.2-0.5,0.2-0.6C146.2,141.8,146.2,140.9,145.9,140.5z"/>
				</g>
			</g>
		</g>
	</g>
	<g>
		<g>
			<g>
				<rect x="62.4" y="224.1" class="st1" width="47.8" height="47.8"/>
			</g>
			<g>
				<path class="st2" d="M63.2,223.9v47.4l-24.7-7.7v-47.4c0,0,0,0,0.1,0L63.2,223.9z"/>
			</g>
			<g>
				<polygon class="st19" points="37.6,216.2 62.7,224.1 111,224.1 80.8,216.2 				"/>
			</g>
			<path class="st20" d="M110.2,233.2v37.9H63.3l-0.5-0.1C105.6,269.8,109.8,241.3,110.2,233.2z"/>
			<path class="st21" d="M63.2,223.9v47.4c0-45.9-23.1-54.6-24.5-55.1L63.2,223.9z"/>
		</g>
		<g>
			<g>
				<g>
					<g>
						<g>
							<g>
								<path class="st18" d="M86.7,158.1c-0.6-1-1.3-1.9-2.2-2.5c0.5,0.1,1,0.2,1.5,0.3c0.2,0,0.4,0.1,0.5-0.1c0.1-0.1,0-0.2,0-0.3
									c-0.2-0.6-0.8-0.9-1.4-1.1c-0.2-0.1-0.3-0.2-0.6-0.3c-0.2-0.2-0.5-0.3-0.7-0.6c-0.6-0.6-1.3-1.2-1.8-1.8
									c-1-1.4-1.8-2.9-2.5-4.4c-1.5-3-2.5-6.2-3.3-9.6c-0.9-3.3-1.4-6.6-1.8-10c-0.2-1.7-0.3-3.3-0.4-5.1c0-0.9-0.1-1.7-0.2-2.5
									c-0.1-0.8-0.2-1.7-0.3-2.4l-0.1-0.3c-0.4-1.7-1.9-2.9-3.9-3.1c-2.5-0.2-4.6,1.4-4.9,3.7c-0.1,1-0.1,1.9,0,2.9
									c0.1,1,0.2,1.8,0.4,2.8c0.3,1.8,0.7,3.7,1.2,5.4c0.9,3.6,2,7.2,3.4,10.6s3.2,6.8,5.3,10c1.3,1.8,2.9,3.4,4.5,4.9
									c0.8,0.8,1.5,1.8,2.1,2.8c0.2,0.3,0.3,0.6,0.6,1c0.6,1,1.5,2,2.7,2.3c0.8,0.2,1.8,0.1,2.2-0.7
									C87.2,159.3,87,158.6,86.7,158.1z"/>
								<path class="st15" d="M74.7,128.8l-1-11.5c-0.2-2.7-2.5-4.9-5.2-4.6c-0.1,0-0.1,0-0.2,0c-3.4,0.4-5.7,3.7-5,7.2
									c0.2,1,0.4,2,0.6,2.9l0,0c0,0,0.6,3.7,1.9,8.6c0.2,0.7,0.2,1.2,0.2,1.2h0.1c2.3,8,6.5,18.6,13.5,23.2l4.3-2.5
									C83.9,153.3,76.6,143.3,74.7,128.8z"/>
							</g>
						</g>
						
							<rect x="78.9" y="153.3" transform="matrix(0.8158 -0.5783 0.5783 0.8158 -74.0682 75.5645)" class="st22" width="5.4" height="1.6"/>
					</g>
				</g>
				<path class="st15" d="M72.4,144.5c3.3-21.4-2.9-30.9-2.9-30.9V112c0,0,11.3,1.6,8.2,31.7c-0.1,0.5-0.5,0.8-0.9,0.8H72.4z"/>
				<path class="st15" d="M74.4,115.8l-1-1.7l-2.5-3c-0.2-0.2-0.5-0.5-0.8-0.6L64,109v2.8l5.4,1.4l0,0
					C69.2,113.2,72.8,114.2,74.4,115.8z"/>
				<path class="st7" d="M60.8,142.1l-3.6-14.6c0,0-3.6-12.5,6.8-17l3.9,1c2.6,0.7,4.9,2.5,6.1,4.9c2,3.7,2.2,10.2,1.6,18.9
					l-1.5,6.8L60.8,142.1L60.8,142.1z"/>
				<g>
					<g>
						<path class="st15" d="M74.1,218.6c0,0-0.7,2.1-0.5,2.9c0,0,8.2,0.2,8.6,0s-3.3-2.5-4.6-2.9H74.1z"/>
						<path class="st8" d="M77,154.3c-0.1-2.7-0.6-5.5-1.4-8.1l-1.3-4.1h-8H61c0,0-2.1,3.3-2.1,9.3c0,1.4,1,2.6,2.3,3l5.2,1.4v0.1
							l7.3,63.4H79L77,154.3z"/>
					</g>
					<g>
						<path class="st15" d="M58.5,218.6c0,0-0.7,2.1-0.5,2.9c0,0,8.2,0.2,8.6,0s-3.3-2.5-4.6-2.9H58.5z"/>
						<path class="st8" d="M62.9,218.6h-5.3l1.5-64.9c0,0-0.1-5.8,0.9-8.5l1.1-3.1h5.4l2.1,14.7L62.9,218.6z"/>
						<path class="st15" d="M67.9,166.4l-1.3-10.8l-5.2-1.4c0,0-1.5-0.6-2.2-2.2v0.9L67.9,166.4z"/>
					</g>
				</g>
				<path class="st15" d="M67.3,114.2c0,0,4.9,17.8,5.5,29.1c0,0.6-0.5,1.2-1.1,1.2H60.2c-0.6,0-1.2-0.5-1.3-1.1
					c-0.3-2.8-1.1-10.3-2.1-16.2c-1.2-7.4,1.3-13.6,4.2-14.6L67.3,114.2z"/>
				<g>
					<g>
						<g>
							<polygon class="st10" points="86.4,114.2 84.4,114.5 80.6,107.5 79.8,106 82,105.7 83.5,108.5 							"/>
							<path class="st23" d="M83.5,108.5c-1-0.8-2.3-1-2.9-1l-0.8-1.5l2.2-0.3L83.5,108.5z"/>
						</g>
						<g>
							<path class="st10" d="M79.3,105.1c0,0-0.8,0.3-1.4,0.5c-0.2,0.1-0.5,0.1-0.6,0.1c-0.5-0.1-1.2-2.1-0.5-2.6c0,0,0.1,0,0.1-0.1
								c0.8-0.5,1.8-0.3,1.8-0.3L79.3,105.1z"/>
							<path class="st23" d="M78,105.6c0.1-1.5-0.6-2.2-1-2.6c0,0,0.1,0,0.1-0.1c0.8-0.5,1.8-0.3,1.8-0.3l0.6,2.5
								C79.3,105.1,78.6,105.4,78,105.6z"/>
						</g>
						<g>
							<path class="st10" d="M90.1,93.8l2.5,16.2v0.1c0,0.1-0.1,0.1-0.2,0.1c-3.1-0.9-7.3-3.7-9.5-5.3c-0.5-0.3-0.8-0.6-1-0.8
								l-0.2-1.2c0.3-0.5,0.8-1,1.3-1.8c0.2-0.2,0.3-0.4,0.5-0.6C85.4,98.2,87.9,95.2,90.1,93.8C90,93.7,90.1,93.8,90.1,93.8z"/>
							<path class="st23" d="M92.9,110c0,0.1-0.1,0.1-0.2,0.1c-3.1-0.9-7.3-3.7-9.5-5.3l0.1-3.7c0.2-0.2,0.3-0.4,0.5-0.6
								c1,2.5,4.1,8.2,8.5,7.5L92.9,110z"/>
							<path class="st24" d="M92.6,110.1c-0.4-0.1-0.8-0.2-1.2-0.4c-0.9-1.5-1.8-4.2-2.2-7.4s-0.5-6-0.1-7.7c0.3-0.2,0.6-0.5,1-0.7
								c-1,0.8-1.2,4.3-0.6,8.4C90.2,106.3,91.5,109.6,92.6,110.1z"/>
						</g>
						<g>
							<path class="st1" d="M84.5,105.7c-0.5,0.2-0.9,0.4-1.3,0.6c-1.7,0.6-2.9,0.6-3.7,0.5c-0.4-0.1-0.7-0.2-0.9-0.6
								c-0.9-1.6-0.7-3.2-0.6-4c0.1-0.3,0.2-0.6,0.6-0.8c0.1-0.1,0.2-0.1,0.3-0.2c0.9-0.4,2.4-0.8,4.6-0.4L84.5,105.7z"/>
							<path class="st2" d="M83.3,106.1c-1.7,0.6-2.9,0.6-3.7,0.5c-0.4-0.1-0.7-0.2-0.9-0.6c-0.9-1.6-0.7-3.2-0.6-4
								c0.1-0.3,0.2-0.6,0.6-0.8c0.1-0.1,0.2-0.1,0.3-0.2C79.1,102.4,79.6,106,83.3,106.1z"/>
						</g>
						<path class="st10" d="M93.9,101.6c0.7,4.5,0.3,8.4-0.9,8.6c-1,0.2-2.2-2.3-3-5.7c-0.2-0.7-0.3-1.4-0.4-2.1
							c-0.1-0.7-0.2-1.5-0.2-2.1c-0.3-3.5,0.2-6.2,1.2-6.4C91.7,93.5,93.2,97,93.9,101.6z"/>
						<path class="st23" d="M90.8,102.1c0.2,1.3,0,2.4-0.5,2.5c-0.1,0-0.2,0-0.3-0.1c-0.2-0.7-0.3-1.4-0.4-2.1
							c-0.1-0.7-0.2-1.5-0.2-2.1c0.1-0.1,0.2-0.2,0.2-0.2C90,99.9,90.6,100.8,90.8,102.1z"/>
					</g>
					<path class="st18" d="M79.8,114.7c0,0-0.2-4,1.1-4.5s4.6-2.2,5.8-0.9c1.2,1.4-0.7,3.6-1.5,3.6c-0.9,0-1.8-0.2-2.1,1.8
						C83.1,114.7,81.4,117.1,79.8,114.7z"/>
					<path class="st15" d="M62.5,115.5c2.2,0.6,6.5,2.9,10.5,12.7l5.6-12.7l4.5,1c0,0-1.9,17-9.5,19.5c0,0-10-0.4-16.3-13
						c-0.2-0.5-0.4-1-0.4-1.6c0-1.3,0.5-3.7,2.7-5.3C60.5,115.5,61.5,115.2,62.5,115.5z"/>
					
						<rect x="80.3" y="112.7" transform="matrix(0.2311 -0.9729 0.9729 0.2311 -49.7333 167.4341)" class="st22" width="1.6" height="5"/>
				</g>
			</g>
			<g>
				<path class="st18" d="M72.7,103.4c0.6,0,1.2-0.3,1.2-0.3s-0.9-2.2-1.4-3.6c-0.3-2.8-1-5.3-1.9-5.7c-1.8-0.7-6,0.2-7.3,1.8
					c-0.7,0.8-0.7,3.6-0.5,6.1c-0.7-0.4-1.8-0.2-1.6,0.9c0.2,1.2,1.4,1.9,1.9,2.1v6.9l6.4,1.7v-4.5c1-0.1,1.8-0.5,2.4-1.1
					C72.4,107.1,72.7,105.4,72.7,103.4z"/>
				<path class="st15" d="M68.8,108.9c0,0-3,0-4.2-1.9c0,0,1.8,3.9,4.2,3.6V108.9z"/>
				<polygon class="st15" points="60.8,109.6 62.4,109.5 62.4,110.1 				"/>
				<polygon class="st15" points="67.4,112 67.1,114 63.3,113.6 60.8,112.4 60.8,109.6 				"/>
				<path class="st15" d="M62.6,107.9c0,0-2.4-2.6-3.1-3.3c-0.6-0.6-1.8-1.6-1.6-4.3s1.1-6.9,2.8-7.5c0,0,0.6-0.3,1.7-0.1
					c0,0,5.3-4,9.2-2.1c0.7,0.4,1.3,1.1,1.4,2c0.3,1.5,0.7,4.3-1,6.4l-0.9-2.5c0,0-1.9,2.6-7.1,1.8c0,0-0.6,3.6-1,4.1
					c0,0-0.2-1.1-1.4-1c-1.2,0.2-0.9,2.2,1,3.1"/>
			</g>
		</g>
	</g>
	<g>
		<path class="st0" d="M340.3,273.9c-6.4,0.2-14.4,0.1-23.1,0.1c-20.8,0-37.7,0.1-37.7-2c0-2.1,16.9-3.8,37.7-3.8s37.7,1.7,37.7,3.8
			C354.8,273.3,349.2,273.7,340.3,273.9"/>
		<g>
			<g>
				<g>
					<path class="st8" d="M316.3,186.7h-1.1l-4.7,81.2l6.1,0.1l7.2-66.6C323.7,201.4,316.1,187.2,316.3,186.7z"/>
					<path class="st15" d="M316.3,268.7c0,0,0.7,2.3,0.6,3.2c0,0-8.8,0.2-9.2,0c-0.5-0.2,3.5-2.8,4.9-3.2H316.3z"/>
					<path class="st15" d="M316.4,195.9l0.6,17.9c0.2,4.4,1.2,8.6,2.8,12.7c0,0.1,0.1,0.1,0.1,0.2
						C319.8,226.8,316.4,195.9,316.4,195.9z"/>
				</g>
				<g>
					<path class="st8" d="M315.4,186.7l9.1,81.2h6.1l-1.5-56.4c0,0,4-16.1-3.1-24.8H315.4z"/>
					<path class="st15" d="M329.7,268.7c0,0,0.7,2.3,0.6,3.2c0,0-8.8,0.2-9.2,0c-0.5-0.2,3.5-2.8,4.9-3.2H329.7z"/>
				</g>
			</g>
			<g>
				<path class="st18" d="M320.5,153.6c1.8-0.7,2.8-1.1,2.9-3c0.1-2.8,0.1-7.4-0.9-8.4c-1.4-1.4-3.9-1.2-5.7-0.6
					c-3.3,1.3-3.7,11-1.7,12.8C316.4,155.7,318.7,154.3,320.5,153.6z"/>
				<polygon class="st18" points="318.8,159.7 323.9,157.7 323.3,150.3 318.2,150.7 				"/>
				<path class="st18" d="M314,146.2c-0.4,1.3-1.4,3.5-1.4,3.5s1,0.8,1.4,0.6V146.2z"/>
				<path class="st15" d="M318.4,154.5l0.2,2.3c0,0,2.5-1.8,2.9-4.3C321.5,152.5,319.5,154.3,318.4,154.5z"/>
				<path class="st18" d="M323.1,150c0,0,1.8-0.9,1.8-2.3c0.1-1.4-2.1-1.1-2.2,0.2L323.1,150z"/>
				<path class="st15" d="M314.3,145.8c0-1.6,6.1-2.5,6.1-2.5s0.3,4.9,1.6,4.7l1.4-1c0,0,1.3-0.6,1.5,0.6c0.2,1.1-1.5,2.1-1.8,2.3
					c-0.3,0.2,0,0,0,0l0.7,6.7c0,0,2.5,0.6,2.8,3.7l0.6,4.9c0,0,2,1.5,4.1-1.7c2.1-3.2,3.9-3.3,3.7-5.3c-0.2-2.1-5-2.1-5.7-4.4
					c-0.7-2.3,0.2-5-1.5-7.7c-0.3-0.5-0.6-0.9-0.9-1.3c-1.8-2.5-4.5-4.3-7.6-4.8c-3.5-0.6-7.2,0-5.4,5.3
					C314,145.4,314.3,145.8,314.3,145.8z"/>
				<path class="st7" d="M324.4,150.2c0.1,0.6-0.4,1-1,1.1c-0.6,0.1-1-0.4-1.1-1c-0.1-0.6,0.4-1,1-1.1
					C323.9,149.1,324.3,149.6,324.4,150.2z"/>
			</g>
			<g>
				<path class="st18" d="M321.5,166.3c0-1-0.1-1.9-0.2-2.9c-0.2-1.6-1.4-2.8-2.9-2.8c-1.7,0-2.9,1.4-2.9,3.2v0.6c0,0.7,0,1.6,0,2.5
					s-0.1,1.7-0.1,2.5c-0.1,1.7-0.2,3.4-0.3,5.1c-0.3,3.4-0.9,6.8-1.5,10.1c-0.3,1.7-0.8,3.3-1.3,4.9c-0.2,0.9-0.6,1.6-0.8,2.4
					l-0.1,0.2c-1,3-2.9,7.8-5.2,9.7l0,0c-1.4,0.7-3,1.6-2.8,2c0.5,0.8,2.1-0.1,2.4,0.4c0.3,0.4-2.1,1.3-4.3,1.3
					c-0.3,0-0.4,0.4-0.2,0.6c1,0.9,3.1,2,6-0.1l0,0c0.8-0.4,1.6-1.1,2.4-1.9c0.1-0.1,0.2-0.2,0.2-0.2v0.5l0,0v-0.1
					c0.3,0,0-0.2,0-0.2v-0.3c0,0,0,0,0-0.1c0.1-0.1,0.2-0.2,0.2-0.3c1.1-1.3,2.1-2.8,2.9-4c0.6-1,1.3-2,1.8-2.9l0.1-0.2
					c0-0.1,0.1-0.1,0.1-0.1l0.5-1l0.6-1.3c0.4-0.9,0.8-1.8,1.1-2.6c0.6-1.8,1.3-3.5,1.8-5.4c1-3.6,1.8-7.4,2.2-11.1l0.2-2.8
					c0-1,0.1-1.9,0.1-2.8C321.5,168.2,321.5,167.2,321.5,166.3z"/>
				<path class="st7" d="M325.8,186.7c0,0-1.7-6.2,0.5-12.8c1.6-4.9,1.2-11.5-0.1-15.2c-0.6-1.6-2.3-2.5-4-1.9l-3.4,1
					c-0.7,0.2-1.4,0.7-1.8,1.4c-1.3,2.1-4.1,6.6-4.9,7.6c-0.9,1.3,1,4.9,3.7,5.7l-0.6,14.3L325.8,186.7L325.8,186.7z"/>
				<g>
					<g>
						<g>
							<path class="st1" d="M339.9,201c0.1,0.6-0.3,1-0.9,1.1l-54.7,8.3c-0.6,0.1-1-0.3-1.1-0.9l-0.2-1.5l-2.2-14.6l-0.3-1.9l-0.9-6
								c-0.1-0.6,0.3-1,0.9-1.1l39.3-6l10.9-1.7l1.4-0.2l1-0.2l1.2-0.2l1-0.2c0.6-0.1,1,0.3,1.1,0.9L339.9,201z"/>
						</g>
						<g>
							<path class="st2" d="M284.3,210.4l54.7-8.3c0.6-0.1,1-0.6,0.9-1.1l-3.7-23.9c-0.1-0.6-0.6-1-1.1-0.9l-1,0.2
								c-6.7,9.7-24.8,31.9-51.2,31.7l0.2,1.5C283.2,210.1,283.7,210.4,284.3,210.4z"/>
						</g>
						<g>
							<path class="st3" d="M300.7,194.7c0.8,4.9,5.4,8.4,10.4,7.6s8.4-5.4,7.6-10.4c-0.8-4.9-5.4-8.4-10.4-7.6
								C303.4,185,300,189.7,300.7,194.7z"/>
						</g>
						<g>
							<path class="st3" d="M330.9,180.4c0.2,1.2,1.3,2,2.4,1.8c1.2-0.2,2-1.3,1.8-2.4c-0.2-1.2-1.3-2-2.4-1.8
								C331.5,178.2,330.7,179.3,330.9,180.4z"/>
						</g>
						<g>
							<path class="st3" d="M282,187.9c0.2,1.2,1.3,2,2.4,1.8c1.2-0.2,2-1.3,1.8-2.4c-0.2-1.2-1.3-2-2.4-1.8
								C282.6,185.7,281.8,186.8,282,187.9z"/>
						</g>
						<g>
							<path class="st3" d="M333.6,198.7c0.2,1.2,1.3,2,2.4,1.8c1.2-0.2,2-1.3,1.8-2.4c-0.2-1.2-1.3-2-2.4-1.8
								C334.3,196.5,333.5,197.6,333.6,198.7z"/>
						</g>
						<g>
							<path class="st3" d="M284.8,206.2c0.2,1.2,1.3,2,2.4,1.8c1.2-0.2,2-1.3,1.8-2.4c-0.2-1.2-1.3-2-2.4-1.8
								C285.4,204,284.6,205.1,284.8,206.2z"/>
						</g>
					</g>
					<polygon class="st25" points="319.6,178.5 330.5,176.8 330.4,176.9 280.7,193.5 280.5,191.6 					"/>
					<g>
						<g>
							<path class="st1" d="M287.1,219l52.5-17.4c0.6-0.2,0.8-0.7,0.6-1.3l-7.6-22.9c-0.2-0.6-0.7-0.8-1.3-0.6l-0.9,0.3l-51.6,17.2
								c-0.6,0.2-0.8,0.7-0.6,1.3l7.2,21.5l0.5,1.5C286,218.8,286.5,219.1,287.1,219z"/>
						</g>
						<g>
							<path class="st2" d="M287.1,219l52.5-17.4c0.6-0.2,0.8-0.7,0.6-1.3l-7.6-22.9c-0.2-0.6-0.7-0.8-1.3-0.6l-0.9,0.3
								c-4.9,10.7-19.1,35.7-45.1,39.9l0.5,1.5C286,218.8,286.5,219.1,287.1,219z"/>
						</g>
						<g>
							<ellipse class="st3" cx="309.2" cy="197.8" rx="9.1" ry="9.1"/>
						</g>
						<g>
							<path class="st3" d="M327.9,181.5c0.4,1.1,1.6,1.8,2.7,1.4s1.8-1.6,1.4-2.7c-0.4-1.1-1.6-1.8-2.7-1.4
								C328.1,179.2,327.5,180.4,327.9,181.5z"/>
						</g>
						<g>
							<path class="st3" d="M281,197.2c0.4,1.1,1.6,1.8,2.7,1.4c1.1-0.4,1.8-1.6,1.4-2.7c-0.4-1.1-1.6-1.8-2.7-1.4
								C281.2,194.9,280.6,196.1,281,197.2z"/>
						</g>
						<g>
							<path class="st3" d="M333.7,199.1c0.4,1.1,1.6,1.8,2.7,1.4c1.1-0.4,1.8-1.6,1.4-2.7c-0.4-1.1-1.6-1.8-2.7-1.4
								S333.4,198,333.7,199.1z"/>
						</g>
						<g>
							<path class="st3" d="M286.8,214.7c0.4,1.1,1.6,1.8,2.7,1.4c1.1-0.4,1.8-1.6,1.4-2.7c-0.4-1.1-1.6-1.8-2.7-1.4
								C287.1,212.4,286.5,213.6,286.8,214.7z"/>
						</g>
					</g>
				</g>
				<path class="st18" d="M326.4,164.5c-0.3-1-0.6-1.8-1-2.9c-0.6-1.5-2.1-2.4-3.7-1.9c-1.6,0.5-2.5,2.2-2,4l0.1,0.2
					c0.2,0.7,0.5,1.6,0.7,2.4c0.2,0.9,0.4,1.7,0.6,2.5c0.4,1.7,0.8,3.4,1.1,5.2c0.6,3.4,1.1,6.9,1.4,10.4c0.2,1.8,0.2,3.5,0.2,5.3
					c0,0.9-0.3,2.6-0.3,2.6v0.2c0,0-0.4,8.6-2.1,11.1l0,0c-1.2,1.1-2.5,2.5-2.1,2.8c0.6,0.6,2.1-0.6,2.5-0.3
					c0.4,0.3-1.7,1.8-3.9,2.5c-0.3,0.1-0.3,0.5,0,0.6c1.2,0.6,3.6,1.1,5.9-1.8l0,0c0.6-0.6,1.3-1.5,1.8-2.5c0.1-0.1-0.5-0.3-0.5-0.3
					l0,0l0,0v-0.1c0.6-0.1,0.8-0.2,0.8-0.2l0,0v-0.1c0-0.2,0-0.2,0.1-0.4c0.7-1.5,1.3-3.3,1.7-4.7c0.3-1.1,0.6-2.3,0.9-3.4l0.6-0.2
					v-0.2l-0.2-1l0.2-1.4c0.1-1,0.2-1.9,0.3-2.9c0.2-1.9,0.2-3.8,0.2-5.7c0-3.8-0.3-7.7-1-11.5L328,170c-0.2-1-0.4-1.9-0.7-2.8
					C327,166.3,326.7,165.4,326.4,164.5z"/>
			</g>
		</g>
	</g>
	
		<image style="overflow:visible;enable-background:new    ;" width="276" height="126" xlink:href="done/big4/logot.png"  transform="matrix(0.4635 0 0 0.4635 25.7676 18.7057)">
	</image>
</g>
</svg>
