<?xml version="1.0" encoding="utf-8"?>
<!-- Generator: Adobe Illustrator 22.1.0, SVG Export Plug-In . SVG Version: 6.00 Build 0)  -->
<svg version="1.1" id="Layer_1" xmlns="http://www.w3.org/2000/svg" xmlns:xlink="http://www.w3.org/1999/xlink" x="0px" y="0px"
	 viewBox="0 0 372.3 288" style="enable-background:new 0 0 372.3 288;" xml:space="preserve">
<style type="text/css">
	.st0{fill:#EADFCC;}
	.st1{fill:url(#SVGID_1_);}
	.st2{fill:#2E2E2E;}
	.st3{fill:url(#SVGID_2_);}
	.st4{fill:url(#SVGID_3_);}
	.st5{fill:url(#SVGID_4_);}
	.st6{fill:url(#SVGID_5_);}
	.st7{fill:url(#SVGID_6_);}
	.st8{fill:url(#SVGID_7_);}
	.st9{fill:url(#SVGID_8_);}
	.st10{fill:url(#SVGID_9_);}
	.st11{fill:url(#SVGID_10_);}
	.st12{fill:url(#SVGID_11_);}
	.st13{fill:url(#SVGID_12_);}
	.st14{fill:url(#SVGID_13_);}
	.st15{fill:url(#SVGID_14_);}
	.st16{fill:url(#SVGID_15_);}
	.st17{fill:url(#SVGID_16_);}
	.st18{fill:url(#SVGID_17_);}
	.st19{fill:url(#SVGID_18_);}
	.st20{fill:url(#SVGID_19_);}
	.st21{fill:url(#SVGID_20_);}
	.st22{fill:url(#SVGID_21_);}
	.st23{fill:url(#SVGID_22_);}
	.st24{fill:url(#SVGID_23_);}
	.st25{fill:url(#SVGID_24_);}
	.st26{fill:url(#SVGID_25_);}
	.st27{fill:url(#SVGID_26_);}
	.st28{fill:url(#SVGID_27_);}
	.st29{fill:url(#SVGID_28_);}
	.st30{fill:url(#SVGID_29_);}
	.st31{fill:url(#SVGID_30_);}
	.st32{fill:url(#SVGID_31_);}
	.st33{fill:url(#SVGID_32_);}
	.st34{fill:url(#SVGID_33_);}
	.st35{fill:url(#SVGID_34_);}
	.st36{fill:url(#SVGID_35_);}
	.st37{fill:url(#SVGID_36_);}
	.st38{fill:url(#SVGID_37_);}
	.st39{fill:url(#SVGID_38_);}
	.st40{fill:url(#SVGID_39_);}
	.st41{fill:#FFFFFF;}
	.st42{fill:url(#SVGID_40_);}
	.st43{fill:url(#SVGID_41_);}
	.st44{fill:url(#SVGID_42_);}
	.st45{fill:url(#SVGID_43_);}
	.st46{fill:url(#SVGID_44_);}
	.st47{fill:url(#SVGID_45_);}
	.st48{fill:url(#SVGID_46_);}
	.st49{fill:#BEDAEB;}
	.st50{fill:#DFECF4;}
	.st51{fill:#F4F6F7;}
	.st52{fill:#97BACF;}
	.st53{fill:#A2C8DE;}
	.st54{fill:url(#SVGID_47_);}
	.st55{fill:#AFCCE0;}
	.st56{fill:#DEF0FC;}
	.st57{fill:url(#SVGID_48_);}
	.st58{fill:#3B4259;}
	.st59{fill:url(#SVGID_49_);}
	.st60{fill:url(#SVGID_50_);}
	.st61{display:none;}
	.st62{display:inline;fill:#008BEE;}
	.st63{display:inline;fill:#FFFFFF;}
	.st64{display:inline;}
	.st65{fill:#C9E4F2;}
	.st66{opacity:0.2;}
	.st67{fill:#F5F5F5;}
	.st68{fill:url(#SVGID_51_);}
	.st69{fill:url(#SVGID_52_);}
	.st70{fill:url(#SVGID_53_);}
	.st71{fill:url(#SVGID_54_);}
	.st72{fill:url(#SVGID_55_);}
	.st73{fill:url(#SVGID_56_);}
	.st74{fill:url(#SVGID_57_);}
	.st75{fill:url(#SVGID_58_);}
	.st76{fill:url(#SVGID_59_);}
	.st77{fill:url(#SVGID_60_);}
	.st78{fill:url(#SVGID_61_);}
	.st79{fill:url(#SVGID_62_);}
	.st80{fill:url(#SVGID_63_);}
	.st81{fill:url(#SVGID_64_);}
	.st82{fill:url(#SVGID_65_);}
	.st83{fill:url(#SVGID_66_);}
	.st84{fill:url(#SVGID_67_);}
	.st85{fill:url(#SVGID_68_);}
	.st86{fill:url(#SVGID_69_);}
	.st87{fill:url(#SVGID_70_);}
	.st88{fill:url(#SVGID_71_);}
	.st89{fill:url(#SVGID_72_);}
	.st90{fill:url(#SVGID_73_);}
	.st91{fill:url(#SVGID_74_);}
	.st92{fill:url(#SVGID_75_);}
	.st93{fill:url(#SVGID_76_);}
	.st94{fill:url(#SVGID_77_);}
	.st95{fill:url(#SVGID_78_);}
	.st96{fill:url(#SVGID_79_);}
	.st97{fill:url(#SVGID_80_);}
	.st98{fill:url(#SVGID_81_);}
	.st99{fill:url(#SVGID_82_);}
	.st100{fill:url(#SVGID_83_);}
	.st101{fill:url(#SVGID_84_);}
	.st102{fill:url(#SVGID_85_);}
	.st103{fill:url(#SVGID_86_);}
	.st104{fill:url(#SVGID_87_);}
	.st105{fill:url(#SVGID_88_);}
	.st106{fill:url(#SVGID_89_);}
	.st107{fill:url(#SVGID_90_);}
	.st108{fill:url(#SVGID_91_);}
	.st109{fill:url(#SVGID_92_);}
	.st110{fill:url(#SVGID_93_);}
	.st111{fill:url(#SVGID_94_);}
	.st112{fill:url(#SVGID_95_);}
	.st113{fill:url(#SVGID_96_);}
	.st114{fill:url(#SVGID_97_);}
	.st115{fill:url(#SVGID_98_);}
	.st116{fill:url(#SVGID_99_);}
	.st117{fill:url(#SVGID_100_);}
	.st118{fill:url(#SVGID_101_);}
	.st119{opacity:0.2;fill:url(#SVGID_102_);enable-background:new    ;}
	.st120{fill:#FFD423;}
	.st121{fill:#486178;}
	.st122{fill:#506E85;}
	.st123{fill:#FF9E0C;}
	.st124{fill:#FFE04D;}
	.st125{fill:url(#SVGID_103_);}
	.st126{opacity:0.2;fill:#F5F5F5;enable-background:new    ;}
	.st127{fill:#7BB33B;}
	.st128{fill:#A4F04F;}
	.st129{fill:url(#SVGID_104_);}
	.st130{fill:#5B862C;}
	.st131{fill:url(#SVGID_105_);}
	.st132{fill:url(#SVGID_106_);}
	.st133{fill:url(#SVGID_107_);}
	.st134{fill:url(#SVGID_108_);}
	.st135{fill:url(#SVGID_109_);}
	.st136{fill:url(#SVGID_110_);}
	.st137{fill:url(#SVGID_111_);}
	.st138{fill:url(#SVGID_112_);}
	.st139{fill:url(#SVGID_113_);}
	.st140{fill:url(#SVGID_114_);}
	.st141{fill:url(#SVGID_115_);}
	.st142{fill:#E39B76;}
	.st143{fill:#2F3547;}
	.st144{fill:#454E69;}
	.st145{fill:url(#SVGID_116_);}
	.st146{fill:url(#SVGID_117_);}
	.st147{fill:url(#SVGID_118_);}
	.st148{fill:url(#SVGID_119_);}
	.st149{fill:url(#SVGID_120_);}
	.st150{fill:url(#SVGID_121_);}
	.st151{fill:url(#SVGID_122_);}
	.st152{fill:url(#SVGID_123_);}
	.st153{fill:#942837;}
	.st154{fill:url(#SVGID_124_);}
	.st155{fill:#BB3345;}
</style>
<g id="BACKGROUND">
	<ellipse class="st0" cx="186.2" cy="217.2" rx="183.5" ry="64.8"/>
</g>
<g id="OBJECTS">
	<g>
		<g>
			<g>
				
					<linearGradient id="SVGID_1_" gradientUnits="userSpaceOnUse" x1="236.8994" y1="30.5461" x2="241.3704" y2="165.488" gradientTransform="matrix(1 0 0 1 0 14)">
					<stop  offset="0" style="stop-color:#FFD924"/>
					<stop  offset="1" style="stop-color:#FF961A"/>
				</linearGradient>
				<path class="st1" d="M252,58c1.6,2.7,3,6.9,3,9.5v60.7c0,2.6-1.8,3.6-4.1,2.3L225.7,116c-2.2-1.3-4-4.4-4-6.9V48.4
					c0-2.6,1.4-5.3,3-6.1l10.8-5.3c0.8-0.4,1.9-0.2,3,0.4c1,0.6,2.2,1.7,3,3L252,58z M238.4,50.9c1.7,1,3,0.2,3-1.7
					c0-1.9-1.4-4.2-3-5.1c-1.7-1-3-0.2-3,1.7C235.4,47.6,236.7,49.9,238.4,50.9"/>
			</g>
			<g>
				<g>
					<path class="st2" d="M247.4,99.4c0.9,1.7,1.3,3.5,1.3,5.5c0,2.1-0.4,3.4-1.3,4.1c-0.8,0.6-2,0.6-3.5-0.3
						c-1.4-0.8-2.6-2.1-3.3-3.7c-0.8-1.7-1.3-3.5-1.2-5.5c0-2.1,0.4-3.4,1.2-4.1c0.8-0.6,1.9-0.6,3.4,0.2
						C245.4,96.5,246.5,97.8,247.4,99.4z M244.7,104.9c0.2-0.5,0.2-1.2,0.2-2.2s-0.1-1.8-0.2-2.4c-0.2-0.6-0.4-1-0.7-1.3
						c-0.3-0.2-0.6-0.1-0.7,0.3c-0.2,0.4-0.2,1.1-0.2,2.2c0,1.1,0.1,1.9,0.2,2.5c0.2,0.6,0.4,1,0.7,1.1
						C244.4,105.6,244.6,105.4,244.7,104.9"/>
				</g>
				<g>
					<path class="st2" d="M233.7,92.8c-0.8,0.6-2,0.6-3.5-0.3c-1.4-0.8-2.6-2.1-3.3-3.7s-1.3-3.5-1.2-5.5c0-2.1,0.4-3.4,1.2-4.1
						c0.8-0.6,1.9-0.6,3.4,0.3c1.4,0.8,2.6,2.1,3.4,3.7c0.9,1.7,1.3,3.5,1.3,5.5C234.9,90.7,234.5,92.1,233.7,92.8z M230.9,88.7
						c0.2-0.4,0.2-1.1,0.2-2.2s-0.1-1.9-0.2-2.5s-0.4-1-0.7-1.1s-0.6-0.1-0.7,0.3c-0.2,0.4-0.2,1.1-0.2,2.2s0.1,1.9,0.2,2.5
						c0.2,0.6,0.4,1,0.7,1.1C230.5,89.2,230.7,89.1,230.9,88.7"/>
				</g>
				<g>
					<polygon class="st2" points="240.3,85.5 244,87.6 233.8,102.7 230.2,100.5 					"/>
				</g>
			</g>
			<g>
				<g>
					<g>
						<path class="st2" d="M227.5,71c0,0.2,0,0.6,0,0.8l-0.5-0.2V71c-0.2,0.2-0.5,0.3-1,0.1c-0.6-0.4-1.2-1.3-1.2-2.2
							c0-1,0.6-1.4,1.2-1c0.4,0.2,0.7,0.6,0.8,1V67l0.5,0.3L227.5,71z M227.1,70.2v-0.6c0-0.1,0-0.2,0-0.2c-0.1-0.4-0.3-0.9-0.7-1
							c-0.5-0.3-0.8,0.1-0.8,0.7s0.2,1.3,0.8,1.6c0.3,0.2,0.6,0.1,0.7-0.2C227.1,70.5,227.1,70.4,227.1,70.2"/>
					</g>
					<g>
						<polygon class="st2" points="228.4,72.4 228.4,69.2 228.9,69.5 228.9,72.6 						"/>
					</g>
					<g>
						<path class="st2" d="M228.7,68.8c-0.2-0.1-0.3-0.3-0.3-0.5c0-0.2,0.2-0.3,0.3-0.2c0.2,0.1,0.3,0.3,0.3,0.6
							C229,68.9,228.8,69,228.7,68.8z"/>
					</g>
					<g>
						<path class="st2" d="M230.6,70.4c0.2,0.2,0.5,0.4,0.6,0.6l-0.2,0.3c-0.1-0.2-0.3-0.3-0.6-0.5c-0.3-0.2-0.5-0.1-0.5,0.2
							c0,0.2,0.2,0.5,0.5,0.8c0.5,0.5,0.7,0.9,0.7,1.4c0,0.6-0.4,0.7-1,0.3c-0.3-0.2-0.6-0.4-0.8-0.6l0.2-0.4
							c0.2,0.2,0.4,0.5,0.6,0.6c0.4,0.2,0.6,0.1,0.6-0.2c0-0.2-0.2-0.5-0.5-0.9c-0.5-0.5-0.7-1-0.7-1.3
							C229.6,70.2,229.9,70.1,230.6,70.4z"/>
					</g>
					<g>
						<path class="st2" d="M233.2,71.9c0.3,0.2,0.6,0.4,0.7,0.6l-0.1,0.4c-0.1-0.2-0.3-0.3-0.6-0.5c-0.6-0.4-1,0-1,0.6
							c0,0.7,0.4,1.4,1,1.8c0.3,0.2,0.5,0.2,0.6,0.2l0.1,0.5c-0.2,0-0.4-0.1-0.8-0.2c-0.8-0.5-1.4-1.4-1.4-2.4
							C231.8,71.8,232.3,71.4,233.2,71.9z"/>
					</g>
					<g>
						<path class="st2" d="M235.6,73.3c0.8,0.5,1.3,1.4,1.3,2.4c0,1.2-0.7,1.3-1.4,0.9c-0.7-0.4-1.3-1.4-1.3-2.4
							C234.2,73.2,234.9,72.9,235.6,73.3z M235.6,76.1c0.5,0.2,0.8,0,0.8-0.7c0-0.6-0.2-1.4-0.8-1.7s-0.8,0.2-0.9,0.7
							C234.7,75.2,235.1,75.9,235.6,76.1"/>
					</g>
					<g>
						<path class="st2" d="M239.8,75.8v2.3c0,0.3,0,0.6,0,0.9l-0.5-0.2v-0.6l0,0c-0.2,0.2-0.4,0.3-0.9,0.1c-0.4-0.2-1-0.8-1-1.9
							v-1.8l0.5,0.3v1.8c0,0.6,0.2,1.1,0.6,1.4c0.3,0.2,0.6,0.1,0.6-0.2c0-0.1,0.1-0.2,0.1-0.2v-1.9L239.8,75.8z"/>
					</g>
					<g>
						<path class="st2" d="M242,77c0.4,0.2,1,0.8,1,1.9v1.8l-0.5-0.3v-1.8c0-0.5-0.2-1-0.6-1.3c-0.3-0.2-0.6-0.1-0.6,0.2
							c0,0.1,0,0.2,0,0.2v1.9l-0.5-0.3v-2.3c0-0.3,0-0.6,0-0.9l0.4,0.2V77l0,0C241.3,76.9,241.6,76.8,242,77z"/>
					</g>
					<g>
						<path class="st2" d="M244.4,77.6v0.9l0.7,0.4v0.4l-0.7-0.4v1.7c0,0.4,0.1,0.6,0.4,0.8c0.2,0.1,0.2,0.1,0.3,0.2V82
							c-0.1,0-0.2-0.1-0.4-0.2c-0.2-0.2-0.4-0.3-0.6-0.6c-0.2-0.2-0.2-0.6-0.2-1v-1.7l-0.5-0.2V78l0.4,0.2v-0.7L244.4,77.6z"/>
					</g>
				</g>
			</g>
		</g>
		<g>
			
				<linearGradient id="SVGID_2_" gradientUnits="userSpaceOnUse" x1="246.6835" y1="161.8803" x2="273.7219" y2="161.8803" gradientTransform="matrix(1 0 0 1 0 14)">
				<stop  offset="0" style="stop-color:#F7C97E"/>
				<stop  offset="1" style="stop-color:#CF8553"/>
			</linearGradient>
			<polygon class="st3" points="246.7,153.1 246.7,182.9 273.7,198.7 273.7,168.8 			"/>
			
				<linearGradient id="SVGID_3_" gradientUnits="userSpaceOnUse" x1="310.4885" y1="133.2377" x2="280.4546" y2="187.8956" gradientTransform="matrix(1 0 0 1 0 14)">
				<stop  offset="0" style="stop-color:#F7C97E"/>
				<stop  offset="1" style="stop-color:#D79659"/>
			</linearGradient>
			<polygon class="st4" points="273.7,168.8 273.7,198.7 322.6,170.5 322.6,140.6 			"/>
			
				<linearGradient id="SVGID_4_" gradientUnits="userSpaceOnUse" x1="288.7396" y1="162.4117" x2="278.7393" y2="180.6111" gradientTransform="matrix(1 0 0 1 0 14)">
				<stop  offset="0" style="stop-color:#B8704B"/>
				<stop  offset="1" style="stop-color:#A86644"/>
			</linearGradient>
			<polygon class="st5" points="276.5,183.6 276.5,193.5 292.8,184.1 292.8,174.2 			"/>
			
				<linearGradient id="SVGID_5_" gradientUnits="userSpaceOnUse" x1="246.6835" y1="147.3642" x2="273.7219" y2="147.3642" gradientTransform="matrix(1 0 0 1 0 14)">
				<stop  offset="0" style="stop-color:#FFE88F"/>
				<stop  offset="1" style="stop-color:#F7A36A"/>
			</linearGradient>
			<polygon class="st6" points="246.7,153.1 246.7,153.9 273.7,169.6 273.7,168.8 			"/>
			
				<linearGradient id="SVGID_6_" gradientUnits="userSpaceOnUse" x1="306.2625" y1="126.3723" x2="286.4967" y2="162.3434" gradientTransform="matrix(1 0 0 1 0 14)">
				<stop  offset="0" style="stop-color:#FFE88F"/>
				<stop  offset="1" style="stop-color:#F7A36A"/>
			</linearGradient>
			<polygon class="st7" points="273.7,168.8 273.7,169.6 322.6,141.4 322.6,140.6 			"/>
			
				<linearGradient id="SVGID_7_" gradientUnits="userSpaceOnUse" x1="295.009" y1="114.2962" x2="270.9448" y2="157.388" gradientTransform="matrix(1 0 0 1 0 14)">
				<stop  offset="0" style="stop-color:#F7C97E"/>
				<stop  offset="1" style="stop-color:#D79659"/>
			</linearGradient>
			<polygon class="st8" points="246.7,153.1 273.7,168.8 322.6,140.6 295.6,124.9 			"/>
			
				<linearGradient id="SVGID_8_" gradientUnits="userSpaceOnUse" x1="294.4901" y1="114.2007" x2="270.6276" y2="156.931" gradientTransform="matrix(1 0 0 1 0 14)">
				<stop  offset="0" style="stop-color:#D17F55"/>
				<stop  offset="1" style="stop-color:#995D3E"/>
			</linearGradient>
			<polygon class="st9" points="263,162.5 311.8,134.4 305.5,130.7 256.7,158.9 			"/>
			
				<linearGradient id="SVGID_9_" gradientUnits="userSpaceOnUse" x1="261.9607" y1="148.6465" x2="256.9029" y2="157.7035" gradientTransform="matrix(1 0 0 1 0 14)">
				<stop  offset="0" style="stop-color:#D17F55"/>
				<stop  offset="1" style="stop-color:#995D3E"/>
			</linearGradient>
			<polygon class="st10" points="263,174.2 263,162.5 256.7,158.9 256.7,170.6 			"/>
			
				<linearGradient id="SVGID_10_" gradientUnits="userSpaceOnUse" x1="259.9741" y1="146.82" x2="259.5626" y2="147.5571" gradientTransform="matrix(1 0 0 1 0 14)">
				<stop  offset="0" style="stop-color:#FF9C69"/>
				<stop  offset="1" style="stop-color:#E0885A"/>
			</linearGradient>
			<polygon class="st11" points="256.7,159.7 263,163.4 263,162.5 261.1,161.5 256.7,158.9 			"/>
		</g>
		<g>
			
				<linearGradient id="SVGID_11_" gradientUnits="userSpaceOnUse" x1="247.8002" y1="127.863" x2="274.8385" y2="127.863" gradientTransform="matrix(1 0 0 1 0 14)">
				<stop  offset="0" style="stop-color:#F7C97E"/>
				<stop  offset="1" style="stop-color:#CF8553"/>
			</linearGradient>
			<polygon class="st12" points="247.8,119.1 247.8,149 274.8,164.7 274.8,134.8 			"/>
			
				<linearGradient id="SVGID_12_" gradientUnits="userSpaceOnUse" x1="311.6057" y1="99.2192" x2="281.5719" y2="153.8769" gradientTransform="matrix(1 0 0 1 0 14)">
				<stop  offset="0" style="stop-color:#F7C97E"/>
				<stop  offset="1" style="stop-color:#D79659"/>
			</linearGradient>
			<polygon class="st13" points="274.8,134.8 274.8,164.7 323.7,136.4 323.7,106.6 			"/>
			
				<linearGradient id="SVGID_13_" gradientUnits="userSpaceOnUse" x1="289.8737" y1="128.4025" x2="279.8734" y2="146.6019" gradientTransform="matrix(1 0 0 1 0 14)">
				<stop  offset="0" style="stop-color:#B8704B"/>
				<stop  offset="1" style="stop-color:#A86644"/>
			</linearGradient>
			<polygon class="st14" points="277.6,149.6 277.6,159.6 293.9,150.2 293.9,140.2 			"/>
			
				<linearGradient id="SVGID_14_" gradientUnits="userSpaceOnUse" x1="247.8002" y1="113.3867" x2="274.8385" y2="113.3867" gradientTransform="matrix(1 0 0 1 0 14)">
				<stop  offset="0" style="stop-color:#FFE88F"/>
				<stop  offset="1" style="stop-color:#F7A36A"/>
			</linearGradient>
			<polygon class="st15" points="247.8,119.1 247.8,119.9 274.8,135.6 274.8,134.8 			"/>
			
				<linearGradient id="SVGID_15_" gradientUnits="userSpaceOnUse" x1="307.3966" y1="92.3631" x2="287.631" y2="128.3339" gradientTransform="matrix(1 0 0 1 0 14)">
				<stop  offset="0" style="stop-color:#FFE88F"/>
				<stop  offset="1" style="stop-color:#F7A36A"/>
			</linearGradient>
			<polygon class="st16" points="274.8,134.8 274.8,135.6 323.7,107.4 323.7,106.6 			"/>
			
				<linearGradient id="SVGID_16_" gradientUnits="userSpaceOnUse" x1="296.1263" y1="80.2776" x2="272.0621" y2="123.3694" gradientTransform="matrix(1 0 0 1 0 14)">
				<stop  offset="0" style="stop-color:#F7C97E"/>
				<stop  offset="1" style="stop-color:#D79659"/>
			</linearGradient>
			<polygon class="st17" points="247.8,119.1 274.8,134.8 323.7,106.6 296.7,90.9 			"/>
			
				<linearGradient id="SVGID_17_" gradientUnits="userSpaceOnUse" x1="295.6378" y1="80.1991" x2="271.7754" y2="122.9295" gradientTransform="matrix(1 0 0 1 0 14)">
				<stop  offset="0" style="stop-color:#D17F55"/>
				<stop  offset="1" style="stop-color:#995D3E"/>
			</linearGradient>
			<polygon class="st18" points="264.1,128.5 313,100.3 306.7,96.6 257.8,124.9 			"/>
			
				<linearGradient id="SVGID_18_" gradientUnits="userSpaceOnUse" x1="263.095" y1="114.6374" x2="258.0371" y2="123.6945" gradientTransform="matrix(1 0 0 1 0 14)">
				<stop  offset="0" style="stop-color:#D17F55"/>
				<stop  offset="1" style="stop-color:#995D3E"/>
			</linearGradient>
			<polygon class="st19" points="264.1,140.2 264.1,128.5 257.8,124.9 257.8,136.5 			"/>
			
				<linearGradient id="SVGID_19_" gradientUnits="userSpaceOnUse" x1="261.0915" y1="112.8015" x2="260.6799" y2="113.5385" gradientTransform="matrix(1 0 0 1 0 14)">
				<stop  offset="0" style="stop-color:#FF9C69"/>
				<stop  offset="1" style="stop-color:#E0885A"/>
			</linearGradient>
			<polygon class="st20" points="257.8,125.7 264.1,129.3 264.1,128.5 262.2,127.5 257.8,124.9 			"/>
		</g>
		<g>
			
				<linearGradient id="SVGID_20_" gradientUnits="userSpaceOnUse" x1="280.98" y1="175.3597" x2="308.0184" y2="175.3597" gradientTransform="matrix(1 0 0 1 0 14)">
				<stop  offset="0" style="stop-color:#F7C97E"/>
				<stop  offset="1" style="stop-color:#CF8553"/>
			</linearGradient>
			<polygon class="st21" points="281,166.6 281,196.4 308,212.1 308,182.3 			"/>
			
				<linearGradient id="SVGID_21_" gradientUnits="userSpaceOnUse" x1="344.7843" y1="146.6782" x2="314.7504" y2="201.3361" gradientTransform="matrix(1 0 0 1 0 14)">
				<stop  offset="0" style="stop-color:#F7C97E"/>
				<stop  offset="1" style="stop-color:#D79659"/>
			</linearGradient>
			<polygon class="st22" points="308,182.3 308,212.1 356.9,183.9 356.9,154.1 			"/>
			
				<linearGradient id="SVGID_22_" gradientUnits="userSpaceOnUse" x1="323.0523" y1="175.8616" x2="313.0523" y2="194.0602" gradientTransform="matrix(1 0 0 1 0 14)">
				<stop  offset="0" style="stop-color:#B8704B"/>
				<stop  offset="1" style="stop-color:#A86644"/>
			</linearGradient>
			<polygon class="st23" points="310.8,197.1 310.8,207 327.1,197.6 327.1,187.6 			"/>
			
				<linearGradient id="SVGID_23_" gradientUnits="userSpaceOnUse" x1="280.98" y1="160.8435" x2="308.0184" y2="160.8435" gradientTransform="matrix(1 0 0 1 0 14)">
				<stop  offset="0" style="stop-color:#FFE88F"/>
				<stop  offset="1" style="stop-color:#F7A36A"/>
			</linearGradient>
			<polygon class="st24" points="281,166.6 281,167.4 308,183.1 308,182.3 			"/>
			
				<linearGradient id="SVGID_24_" gradientUnits="userSpaceOnUse" x1="340.5753" y1="139.822" x2="320.8098" y2="175.7926" gradientTransform="matrix(1 0 0 1 0 14)">
				<stop  offset="0" style="stop-color:#FFE88F"/>
				<stop  offset="1" style="stop-color:#F7A36A"/>
			</linearGradient>
			<polygon class="st25" points="308,182.3 308,183.1 356.9,154.9 356.9,154.1 			"/>
			
				<linearGradient id="SVGID_25_" gradientUnits="userSpaceOnUse" x1="329.3221" y1="127.7457" x2="305.2578" y2="170.8377" gradientTransform="matrix(1 0 0 1 0 14)">
				<stop  offset="0" style="stop-color:#F7C97E"/>
				<stop  offset="1" style="stop-color:#D79659"/>
			</linearGradient>
			<polygon class="st26" points="281,166.6 308,182.3 356.9,154.1 329.9,138.4 			"/>
			
				<linearGradient id="SVGID_26_" gradientUnits="userSpaceOnUse" x1="328.8164" y1="127.658" x2="304.9536" y2="170.3891" gradientTransform="matrix(1 0 0 1 0 14)">
				<stop  offset="0" style="stop-color:#D17F55"/>
				<stop  offset="1" style="stop-color:#995D3E"/>
			</linearGradient>
			<polygon class="st27" points="297.3,176 346.1,147.8 339.8,144.1 290.9,172.3 			"/>
			
				<linearGradient id="SVGID_27_" gradientUnits="userSpaceOnUse" x1="296.274" y1="162.0957" x2="291.2156" y2="171.1537" gradientTransform="matrix(1 0 0 1 0 14)">
				<stop  offset="0" style="stop-color:#D17F55"/>
				<stop  offset="1" style="stop-color:#995D3E"/>
			</linearGradient>
			<polygon class="st28" points="297.3,187.6 297.3,176 290.9,172.3 290.9,184 			"/>
			
				<linearGradient id="SVGID_28_" gradientUnits="userSpaceOnUse" x1="294.2704" y1="160.2598" x2="293.8587" y2="160.9972" gradientTransform="matrix(1 0 0 1 0 14)">
				<stop  offset="0" style="stop-color:#FF9C69"/>
				<stop  offset="1" style="stop-color:#E0885A"/>
			</linearGradient>
			<polygon class="st29" points="290.9,173.1 297.3,176.8 297.3,176 295.4,175 290.9,172.3 			"/>
		</g>
		<g>
			
				<linearGradient id="SVGID_29_" gradientUnits="userSpaceOnUse" x1="280.98" y1="144.2137" x2="308.0184" y2="144.2137" gradientTransform="matrix(1 0 0 1 0 14)">
				<stop  offset="0" style="stop-color:#F7C97E"/>
				<stop  offset="1" style="stop-color:#CF8553"/>
			</linearGradient>
			<polygon class="st30" points="281,135.4 281,165.3 308,181 308,151.2 			"/>
			
				<linearGradient id="SVGID_30_" gradientUnits="userSpaceOnUse" x1="344.7873" y1="115.5666" x2="314.7537" y2="170.2241" gradientTransform="matrix(1 0 0 1 0 14)">
				<stop  offset="0" style="stop-color:#F7C97E"/>
				<stop  offset="1" style="stop-color:#D79659"/>
			</linearGradient>
			<polygon class="st31" points="308,151.2 308,181 356.9,152.8 356.9,123 			"/>
			
				<linearGradient id="SVGID_31_" gradientUnits="userSpaceOnUse" x1="323.0551" y1="144.7503" x2="313.0549" y2="162.9494" gradientTransform="matrix(1 0 0 1 0 14)">
				<stop  offset="0" style="stop-color:#B8704B"/>
				<stop  offset="1" style="stop-color:#A86644"/>
			</linearGradient>
			<polygon class="st32" points="310.8,166 310.8,175.9 327.1,166.5 327.1,156.5 			"/>
			
				<linearGradient id="SVGID_32_" gradientUnits="userSpaceOnUse" x1="280.98" y1="129.7374" x2="308.0184" y2="129.7374" gradientTransform="matrix(1 0 0 1 0 14)">
				<stop  offset="0" style="stop-color:#FFE88F"/>
				<stop  offset="1" style="stop-color:#F7A36A"/>
			</linearGradient>
			<polygon class="st33" points="281,135.5 281,136.3 308,152 308,151.2 			"/>
			
				<linearGradient id="SVGID_33_" gradientUnits="userSpaceOnUse" x1="340.5782" y1="108.7105" x2="320.8128" y2="144.681" gradientTransform="matrix(1 0 0 1 0 14)">
				<stop  offset="0" style="stop-color:#FFE88F"/>
				<stop  offset="1" style="stop-color:#F7A36A"/>
			</linearGradient>
			<polygon class="st34" points="308,151.2 308,152 356.9,123.8 356.9,123 			"/>
			
				<linearGradient id="SVGID_34_" gradientUnits="userSpaceOnUse" x1="329.3082" y1="96.6248" x2="305.2439" y2="139.7165" gradientTransform="matrix(1 0 0 1 0 14)">
				<stop  offset="0" style="stop-color:#F7C97E"/>
				<stop  offset="1" style="stop-color:#D79659"/>
			</linearGradient>
			<polygon class="st35" points="281,135.4 308,151.2 356.9,123 329.9,107.2 			"/>
			
				<linearGradient id="SVGID_35_" gradientUnits="userSpaceOnUse" x1="328.8194" y1="96.5465" x2="304.957" y2="139.277" gradientTransform="matrix(1 0 0 1 0 14)">
				<stop  offset="0" style="stop-color:#D17F55"/>
				<stop  offset="1" style="stop-color:#995D3E"/>
			</linearGradient>
			<polygon class="st36" points="297.3,144.9 346.1,116.7 339.8,113 290.9,141.2 			"/>
			
				<linearGradient id="SVGID_36_" gradientUnits="userSpaceOnUse" x1="296.2769" y1="130.9843" x2="291.2185" y2="140.0423" gradientTransform="matrix(1 0 0 1 0 14)">
				<stop  offset="0" style="stop-color:#D17F55"/>
				<stop  offset="1" style="stop-color:#995D3E"/>
			</linearGradient>
			<polygon class="st37" points="297.3,156.5 297.3,144.9 290.9,141.2 290.9,152.9 			"/>
			
				<linearGradient id="SVGID_37_" gradientUnits="userSpaceOnUse" x1="294.2734" y1="129.1484" x2="293.8615" y2="129.8861" gradientTransform="matrix(1 0 0 1 0 14)">
				<stop  offset="0" style="stop-color:#FF9C69"/>
				<stop  offset="1" style="stop-color:#E0885A"/>
			</linearGradient>
			<polygon class="st38" points="290.9,142 297.3,145.7 297.3,144.9 295.4,143.9 290.9,141.2 			"/>
		</g>
		<g>
			
				<linearGradient id="SVGID_38_" gradientUnits="userSpaceOnUse" x1="267.3813" y1="105.2114" x2="294.4196" y2="105.2114" gradientTransform="matrix(1 0 0 1 0 14)">
				<stop  offset="0" style="stop-color:#F7C97E"/>
				<stop  offset="1" style="stop-color:#CF8553"/>
			</linearGradient>
			<polygon class="st39" points="267.4,96.4 267.4,126.3 294.5,142 294.5,112.1 			"/>
			
				<linearGradient id="SVGID_39_" gradientUnits="userSpaceOnUse" x1="331.2095" y1="76.5586" x2="301.1758" y2="131.2161" gradientTransform="matrix(1 0 0 1 0 14)">
				<stop  offset="0" style="stop-color:#F7C97E"/>
				<stop  offset="1" style="stop-color:#D79659"/>
			</linearGradient>
			<polygon class="st40" points="294.5,112.1 294.5,142 343.4,113.8 343.4,84 			"/>
			<g>
				<g>
					<g>
						<polygon class="st41" points="300.8,110.4 300.8,110.8 299.2,111.7 299.2,113.1 300.7,112.3 300.7,112.8 299.2,113.5 
							299.3,115.5 298.8,115.8 298.8,111.6 						"/>
					</g>
					<g>
						<path class="st41" d="M303.6,111.9c0.2,0.6,0.2,0.9,0.3,1l-0.5,0.3c-0.1-0.1-0.2-0.4-0.2-0.9c-0.1-0.6-0.3-0.6-0.7-0.4
							l-0.5,0.2v1.8l-0.5,0.2V110c0.2-0.2,0.6-0.4,0.9-0.6c0.5-0.3,0.9-0.4,1-0.2c0.2,0.1,0.3,0.3,0.3,0.6c0,0.6-0.3,1.1-0.7,1.5
							l0,0C303.4,111.2,303.6,111.5,303.6,111.9z M302.4,111.4c0.5-0.3,0.8-0.8,0.8-1.3c0-0.6-0.3-0.6-0.9-0.3
							c-0.2,0.2-0.4,0.2-0.5,0.3v1.6L302.4,111.4"/>
					</g>
					<g>
						<polygon class="st41" points="306.4,107.1 306.4,107.6 304.9,108.4 304.9,109.8 306.3,108.9 306.3,109.4 304.9,110.3 
							304.9,111.8 306.5,110.8 306.6,111.3 304.4,112.5 304.4,108.3 						"/>
					</g>
					<g>
						<polygon class="st41" points="309.1,105.6 309.1,106 307.6,106.8 307.6,108.2 309.1,107.4 309.1,107.9 307.6,108.7 
							307.6,110.2 309.3,109.3 309.3,109.7 307.1,111 307.1,106.7 						"/>
					</g>
					<g>
						<path class="st41" d="M312.2,103.7c0.4-0.2,0.6-0.3,0.8-0.2l-0.2,0.6c-0.2,0-0.4,0-0.7,0.2c-0.5,0.3-0.7,0.7-0.7,1
							c0,0.4,0.2,0.5,0.7,0.4c0.6-0.1,1,0.1,1,0.7c0,0.6-0.4,1.4-1.3,2c-0.3,0.2-0.7,0.3-1,0.2l0.2-0.6c0.2,0,0.6,0,0.9-0.2
							c0.5-0.3,0.8-0.7,0.8-1.2c0-0.4-0.2-0.5-0.7-0.5c-0.6,0.1-1,0-1-0.6C310.9,104.9,311.4,104.1,312.2,103.7z"/>
					</g>
					<g>
						<polygon class="st41" points="316.5,101.3 316.6,105.6 316.1,105.8 316.1,103.8 314.2,104.9 314.2,106.8 313.8,107.2 
							313.8,102.9 314.2,102.6 314.2,104.4 316,103.3 316,101.6 						"/>
					</g>
					<g>
						<polygon class="st41" points="317.8,100.5 317.8,104.8 317.4,105.1 317.4,100.8 						"/>
					</g>
					<g>
						<path class="st41" d="M320.6,99.3c0.2,0.1,0.3,0.3,0.3,0.7s-0.1,0.7-0.3,1.1c-0.2,0.5-0.6,0.9-1.1,1.1
							c-0.2,0.1-0.2,0.2-0.4,0.2v1.7l-0.5,0.2v-4.2c0.2-0.2,0.6-0.4,0.9-0.6C320.1,99.2,320.4,99.1,320.6,99.3z M319.6,101.7
							c0.6-0.3,1-0.9,1-1.4s-0.3-0.6-0.9-0.3c-0.2,0.2-0.4,0.2-0.5,0.3v1.7C319.3,101.8,319.4,101.8,319.6,101.7"/>
					</g>
					<g>
						<path class="st41" d="M323.6,97.5c0.2,0.1,0.3,0.3,0.3,0.7s-0.1,0.7-0.3,1.1c-0.2,0.5-0.6,0.9-1.1,1.1
							c-0.2,0.1-0.3,0.2-0.4,0.2v1.7l-0.5,0.2v-4.2c0.2-0.2,0.6-0.4,0.9-0.6C323,97.5,323.3,97.4,323.6,97.5z M322.5,100
							c0.6-0.3,1-0.9,1-1.4c0-0.6-0.3-0.6-0.9-0.3c-0.2,0.2-0.4,0.2-0.5,0.3v1.7C322.2,100.1,322.3,100.1,322.5,100"/>
					</g>
					<g>
						<polygon class="st41" points="325,96.4 325,100.6 324.5,100.9 324.5,96.6 						"/>
					</g>
					<g>
						<path class="st41" d="M328.7,94.3v4.2l-0.5,0.3l-1.2-1.5c-0.2-0.3-0.5-0.6-0.7-1l0,0c0,0.6,0.1,1,0.1,1.8v1.8l-0.5,0.2v-4.2
							l0.6-0.3l1.2,1.4c0.2,0.3,0.5,0.6,0.6,1l0,0c-0.1-0.6-0.1-1-0.1-1.8v-1.8L328.7,94.3z"/>
					</g>
					<g>
						<path class="st41" d="M331.2,92.7c0.4-0.2,0.8-0.3,1-0.3l-0.1,0.5c-0.2,0-0.5,0.1-0.8,0.3c-0.9,0.6-1.5,1.5-1.5,2.6
							c0,1.1,0.6,1.4,1.4,0.9c0.3-0.2,0.6-0.3,0.6-0.5v-1.3l-0.7,0.4v-0.5l1.2-0.7v2.1c-0.2,0.2-0.6,0.6-1.1,0.9
							c-0.6,0.3-1,0.4-1.4,0.2c-0.3-0.2-0.6-0.6-0.6-1.3C329.2,94.8,330,93.4,331.2,92.7z"/>
					</g>
				</g>
			</g>
			
				<linearGradient id="SVGID_40_" gradientUnits="userSpaceOnUse" x1="309.4773" y1="105.7423" x2="299.4771" y2="123.9413" gradientTransform="matrix(1 0 0 1 0 14)">
				<stop  offset="0" style="stop-color:#B8704B"/>
				<stop  offset="1" style="stop-color:#A86644"/>
			</linearGradient>
			<polygon class="st42" points="297.3,126.9 297.3,136.8 313.5,127.4 313.5,117.5 			"/>
			
				<linearGradient id="SVGID_41_" gradientUnits="userSpaceOnUse" x1="267.3829" y1="90.6952" x2="294.4213" y2="90.6952" gradientTransform="matrix(1 0 0 1 0 14)">
				<stop  offset="0" style="stop-color:#FFE88F"/>
				<stop  offset="1" style="stop-color:#F7A36A"/>
			</linearGradient>
			<polygon class="st43" points="267.4,96.4 267.4,97.2 294.5,113 294.5,112.1 			"/>
			
				<linearGradient id="SVGID_42_" gradientUnits="userSpaceOnUse" x1="327.0004" y1="69.7025" x2="307.235" y2="105.673" gradientTransform="matrix(1 0 0 1 0 14)">
				<stop  offset="0" style="stop-color:#FFE88F"/>
				<stop  offset="1" style="stop-color:#F7A36A"/>
			</linearGradient>
			<polygon class="st44" points="294.5,112.1 294.5,113 343.4,84.8 343.4,84 			"/>
			
				<linearGradient id="SVGID_43_" gradientUnits="userSpaceOnUse" x1="315.7469" y1="57.6263" x2="291.6827" y2="100.7181" gradientTransform="matrix(1 0 0 1 0 14)">
				<stop  offset="0" style="stop-color:#F7C97E"/>
				<stop  offset="1" style="stop-color:#D79659"/>
			</linearGradient>
			<polygon class="st45" points="267.4,96.4 294.5,112.1 343.4,84 316.2,68.2 			"/>
			
				<linearGradient id="SVGID_44_" gradientUnits="userSpaceOnUse" x1="315.1974" y1="57.5141" x2="291.335" y2="100.2445" gradientTransform="matrix(1 0 0 1 0 14)">
				<stop  offset="0" style="stop-color:#D17F55"/>
				<stop  offset="1" style="stop-color:#995D3E"/>
			</linearGradient>
			<polygon class="st46" points="283.6,105.9 332.5,77.7 326.2,74 277.3,102.2 			"/>
			
				<linearGradient id="SVGID_45_" gradientUnits="userSpaceOnUse" x1="282.6549" y1="91.9519" x2="277.5965" y2="101.0099" gradientTransform="matrix(1 0 0 1 0 14)">
				<stop  offset="0" style="stop-color:#D17F55"/>
				<stop  offset="1" style="stop-color:#995D3E"/>
			</linearGradient>
			<polygon class="st47" points="283.6,117.5 283.6,105.9 277.3,102.2 277.3,113.9 			"/>
			
				<linearGradient id="SVGID_46_" gradientUnits="userSpaceOnUse" x1="280.6514" y1="90.116" x2="280.2394" y2="90.8537" gradientTransform="matrix(1 0 0 1 0 14)">
				<stop  offset="0" style="stop-color:#FF9C69"/>
				<stop  offset="1" style="stop-color:#E0885A"/>
			</linearGradient>
			<polygon class="st48" points="277.3,103 283.6,106.7 283.6,105.9 281.8,104.8 277.3,102.2 			"/>
		</g>
		<g>
			<g>
				<polygon class="st49" points="174.6,217.5 174.6,214.9 172.6,216 				"/>
				<path class="st49" d="M139.4,238.8c0.4-0.2,1.5-0.9,3.1-1.8l6.4-3.7c9.7-5.7,23.5-13.7,24.7-14.4c1.8-1,1-2.2-0.5-3l-27.7-16
					l-40.3,23.4l27.4,15.9C133.7,239.8,137.2,240.1,139.4,238.8z"/>
				<polygon class="st50" points="103.6,216.7 143.9,193.3 145.4,197.2 105.1,220.7 				"/>
				<polygon class="st49" points="114,180.1 154.3,156.6 143.9,193.3 103.6,216.7 				"/>
				<polygon class="st51" points="114.8,176.9 155,153.4 156.2,156.3 116,179.7 				"/>
				<polygon class="st52" points="112.1,177.3 152.4,153.8 155,153.4 114.8,176.9 				"/>
				<polygon class="st53" points="114.8,176.9 116,179.7 114,180.1 103.6,216.7 105.1,220.7 132.4,236.4 132.4,239 103.8,222.5 
					101.1,215.7 112.1,177.3 				"/>
				
					<linearGradient id="SVGID_47_" gradientUnits="userSpaceOnUse" x1="148.9498" y1="217.1468" x2="132.0013" y2="191.9567" gradientTransform="matrix(1 0 0 1 0 14)">
					<stop  offset="0" style="stop-color:#F7F7F7"/>
					<stop  offset="0.2966" style="stop-color:#F3F5F7"/>
					<stop  offset="0.5897" style="stop-color:#E7F0F5"/>
					<stop  offset="0.8805" style="stop-color:#D3E7F3"/>
					<stop  offset="1" style="stop-color:#C9E2F2"/>
				</linearGradient>
				<path class="st54" d="M139.4,236.1c0.4-0.2,1.5-0.9,3.1-1.8l6.4-3.7c9.7-5.7,23.5-13.7,24.7-14.4c1.8-1,1-2.2-0.5-3l-27.8-16
					l-40.3,23.4l27.4,15.9C133.7,237.2,137.2,237.4,139.4,236.1z"/>
			</g>
			<path class="st55" d="M201.5,11.3c-0.3-2.5-1.6-4.2-3.3-4.9c0,0,0,0,0.1,0c-1.5-0.6-3-1.3-4.6-1.9c-0.2-0.1-0.6-0.2-0.8-0.3
				c-1.4-0.6-3-0.4-4.6,0.5L17.5,99.4c-3.7,2.1-6.2,7.3-5.7,11.8l15,112l5.3,1.7l184.2-102.1L201.5,11.3z"/>
			<path class="st56" d="M32.2,224.9l184.2-102.1L201.5,11.3c-0.3-2.3-1.4-3.9-2.9-4.7c-0.1,0-0.1,0-0.2-0.1
				c-0.2-0.1-0.6-0.2-0.8-0.3c-1.4-0.6-3-0.4-4.6,0.5L22.3,101.4c-3.7,2.1-6.2,7.3-5.7,11.8l14.9,111.5L32.2,224.9z"/>
			
				<linearGradient id="SVGID_48_" gradientUnits="userSpaceOnUse" x1="117.7003" y1="135.8103" x2="129.8747" y2="210.209" gradientTransform="matrix(1 0 0 1 0 14)">
				<stop  offset="0" style="stop-color:#F7F7F7"/>
				<stop  offset="0.2966" style="stop-color:#F3F5F7"/>
				<stop  offset="0.5897" style="stop-color:#E7F0F5"/>
				<stop  offset="0.8805" style="stop-color:#D3E7F3"/>
				<stop  offset="1" style="stop-color:#C9E2F2"/>
			</linearGradient>
			<path class="st57" d="M218.1,135.1l-1.7-12.3L32.2,224.9l-5.3-1.7l1.6,11.7c0.3,2.5,1.5,4.1,3.2,4.9c1.8,0.7,3.6,1.5,5.4,2.2
				c-0.1,0-0.1-0.1-0.2-0.1c1.4,0.6,3,0.6,4.8-0.4l170.8-94.7C216.2,144.8,218.7,139.6,218.1,135.1z"/>
			<path class="st58" d="M201.5,11.3c-0.6-4.5-4.1-6.4-7.8-4.4L23,101.7c-3.7,2.1-6.2,7.3-5.7,11.8l14.9,111.4l184.2-102.1
				L201.5,11.3z"/>
			
				<linearGradient id="SVGID_49_" gradientUnits="userSpaceOnUse" x1="31.0172" y1="225.3024" x2="291.0329" y2="73.2281" gradientTransform="matrix(1 0 0 1 0 14)">
				<stop  offset="0" style="stop-color:#F7F7F7"/>
				<stop  offset="0.2966" style="stop-color:#F3F5F7"/>
				<stop  offset="0.5897" style="stop-color:#E7F0F5"/>
				<stop  offset="0.8805" style="stop-color:#D3E7F3"/>
				<stop  offset="1" style="stop-color:#C9E2F2"/>
			</linearGradient>
			<path class="st59" d="M216.5,122.8L32.2,224.9l1.7,12.3c0.6,4.5,4.1,6.4,7.8,4.4l170.8-94.7c3.7-2.1,6.2-7.3,5.7-11.8
				L216.5,122.8z"/>
			
				<linearGradient id="SVGID_50_" gradientUnits="userSpaceOnUse" x1="133.364" y1="160.06" x2="91.4904" y2="8.1188" gradientTransform="matrix(1 0 0 1 0 14)">
				<stop  offset="0" style="stop-color:#99F7FF"/>
				<stop  offset="1" style="stop-color:#0A9DFD"/>
			</linearGradient>
			<polygon class="st60" points="20.4,111.2 199.6,11.9 214.2,120.4 35,219.8 			"/>
			<g class="st61">
				<path class="st62" d="M77.5,187.7c-0.5,0.2-0.8,1-0.7,1.5c0.1,0.6,0.6,0.9,1,0.6c0.5-0.2,0.8-1,0.7-1.5
					C78.5,187.6,78,187.4,77.5,187.7z"/>
				<path class="st62" d="M82.9,184.7c-0.5,0.2-0.8,1-0.7,1.5c0.1,0.6,0.6,0.9,1,0.6c0.5-0.2,0.8-1,0.7-1.5
					C83.9,184.7,83.4,184.5,82.9,184.7z"/>
				<path class="st62" d="M88.4,181.7c-0.5,0.2-0.8,1-0.7,1.5c0.1,0.6,0.6,0.9,1,0.6c0.5-0.2,0.8-1,0.7-1.5
					C89.3,181.7,88.8,181.4,88.4,181.7z"/>
				<path class="st63" d="M99,98.8c-0.2-1-0.9-1.4-1.7-1l-55.6,30.8c-0.8,0.4-1.4,1.6-1.2,2.6l9.9,67.2c0.2,1,0.9,1.4,1.7,1
					l55.6-30.8c0.8-0.4,1.4-1.6,1.2-2.6L99,98.8z"/>
				<path class="st62" d="M72.1,190.7c-0.5,0.2-0.8,1-0.7,1.5s0.6,0.9,1,0.6c0.5-0.2,0.8-1,0.7-1.5S72.6,190.4,72.1,190.7z"/>
				<polygon class="st63" points="191.6,58 110.7,102.9 111.2,106.4 192.1,61.5 				"/>
				<polygon class="st63" points="157.6,86 112.1,111.2 112.4,112.9 157.8,87.7 				"/>
				<polygon class="st63" points="160.9,108.5 115.5,133.6 115.7,135.4 161.2,110.2 				"/>
				<polygon class="st63" points="116.6,141.1 116.8,142.9 162.2,117.7 162,116 				"/>
				<polygon class="st63" points="159.8,101 114.4,126.2 114.6,127.9 160.1,102.7 				"/>
				<polygon class="st63" points="158.7,93.5 113.2,118.7 113.5,120.4 158.9,95.2 				"/>
				<path class="st62" d="M153,130c-0.2-1-0.9-1.4-1.7-1L119,147c-0.8,0.4-1.4,1.6-1.2,2.6l1.6,10.7c0.2,1,0.9,1.4,1.7,1l32.4-17.9
					c0.8-0.4,1.3-1.6,1.2-2.6L153,130z"/>
				<path class="st63" d="M129.8,144.2L129.8,144.2c0-0.2-0.2-0.2-0.3-0.2l-1,0.6c-0.2,0.1-0.2,0.2-0.2,0.5l-0.1,1.2
					c-0.2,0-0.2,0-0.4,0.1l-4.7,2.6c-0.2,0.2-0.4,0.3-0.5,0.6c-0.1,0.3-0.1,0.6,0,0.9l1.2,2.9c0.2,0.3,0.5,0.5,0.8,0.3l3.8-2.2
					c0.2-0.1,0.3,0,0.3,0.2c0,0.2-0.1,0.4-0.2,0.5l-3.2,1.8c-0.5,0.2-0.7,1-0.6,1.5c0.1,0.6,0.6,0.8,1,0.6c0,0,0,0,0.1,0
					c0.4-0.2,0.6-0.8,0.6-1.4c0-0.2-0.1-0.3-0.2-0.4l1-0.6c0,0.2,0,0.2,0,0.4c0.1,0.6,0.6,0.8,1,0.6c0,0,0,0,0.1,0
					c0.4-0.2,0.6-0.9,0.6-1.4c0-0.2-0.1-0.3-0.2-0.4c0.4-0.3,0.7-1,0.6-1.5c-0.1-0.5-0.4-0.7-0.8-0.6l0.2-3.2l0.1-2.3l0.9-0.5
					C129.8,144.6,129.9,144.3,129.8,144.2z M125.3,148.5l0.2,0.8l-0.9,0.5l-0.3-0.7L125.3,148.5z M123.1,150c0-0.1,0-0.2,0-0.2
					s0.1-0.1,0.1-0.2l0.5-0.2l0.2,0.7l-0.6,0.3L123.1,150z M123.9,151.8l-0.3-0.6l0.6-0.3l0.2,0.6L123.9,151.8z M124.5,152.9
					c-0.1,0.1-0.2,0-0.2-0.1l-0.2-0.5l0.6-0.3l0.2,0.6L124.5,152.9z M124.7,150.4l0.8-0.5l0.2,0.7l-0.6,0.4L124.7,150.4z
					 M125.5,152.3l-0.2-0.6l0.6-0.3l0.2,0.7L125.5,152.3z M125.8,148.2l1-0.6v0.9L126,149L125.8,148.2z M126.1,149.7l0.8-0.4v0.8
					l-0.6,0.3L126.1,149.7z M126.5,151.8l-0.2-0.7l0.5-0.3v0.8L126.5,151.8z M128,150.8c0,0.1-0.1,0.2-0.2,0.2l-0.4,0.2v-0.8
					l0.6-0.3V150.8z M128.1,149.4l-0.6,0.3v-0.8l0.6-0.4V149.4z M128.1,147.8l-0.7,0.4v-0.9l0.5-0.3c0.1,0,0.1,0,0.2,0
					c0,0,0.1,0.1,0.1,0.2L128.1,147.8z M125.6,155.3c-0.2,0.1-0.3,0-0.3-0.2s0.1-0.4,0.2-0.5c0.2-0.1,0.3,0,0.3,0.2
					C125.8,155,125.8,155.3,125.6,155.3z M128.2,153.9c-0.2,0.1-0.3,0-0.3-0.2s0.1-0.4,0.2-0.5c0.2-0.1,0.3,0,0.3,0.2
					C128.4,153.6,128.3,153.8,128.2,153.9z"/>
				<g class="st64">
					<g>
						<g>
							<path class="st41" d="M134.1,145.6c0.3-0.1,0.7,0,0.8,0.6c0.1,0.3,0,0.6-0.2,0.9c-0.2,0.4-0.6,0.6-1,1
								c-0.2,0.2-0.5,0.2-0.6,0.3l-0.5-3.7c0.2-0.2,0.5-0.3,0.7-0.5c0.4-0.2,0.6-0.3,0.9-0.2c0.2,0.1,0.3,0.2,0.3,0.6
								C134.5,144.9,134.4,145.3,134.1,145.6L134.1,145.6z M133.7,147.6c0.4-0.2,0.8-0.6,0.7-1.2c-0.1-0.5-0.5-0.6-0.9-0.2l-0.3,0.2
								l0.2,1.4C133.5,147.8,133.6,147.7,133.7,147.6 M133,144.7l0.2,1.2l0.4-0.2c0.4-0.2,0.6-0.6,0.6-1c-0.1-0.5-0.4-0.5-0.8-0.2
								C133.2,144.7,133,144.7,133,144.7"/>
						</g>
						<g>
							<path class="st41" d="M137.3,141.9l0.3,2.2c0.2,1.2-0.3,1.9-1,2.3c-0.6,0.3-1.2,0.2-1.4-1l-0.3-2.2l0.4-0.2l0.3,2.2
								c0.1,0.9,0.5,1,0.9,0.8c0.5-0.2,0.7-0.8,0.6-1.6l-0.3-2.2L137.3,141.9z"/>
						</g>
						<g>
							<path class="st41" d="M140.2,140.3l-0.8,2.7l0.2,1.6l-0.4,0.2l-0.2-1.6l-1.3-1.6l0.5-0.2l0.6,0.8c0.2,0.2,0.3,0.4,0.4,0.6
								c0.1-0.3,0.2-0.6,0.2-1l0.3-1.3L140.2,140.3z"/>
						</g>
						<g>
							<polygon class="st41" points="142,139.4 142.4,143.1 142,143.4 141.6,139.6 							"/>
						</g>
						<g>
							<polygon class="st41" points="145.6,140.3 145.3,140.4 144.9,137.8 145.3,137.6 							"/>
						</g>
						<g>
							<polygon class="st41" points="144.6,138 144.7,138.4 143.7,138.9 144.1,142.2 143.7,142.4 143.3,139.1 142.4,139.6 
								142.3,139.2 							"/>
						</g>
						<g>
							<path class="st41" d="M145.5,140.7c0.2-0.1,0.3,0,0.3,0.2c0,0.2-0.1,0.4-0.2,0.5c-0.2,0.1-0.3,0-0.3-0.2
								S145.4,140.8,145.5,140.7z"/>
						</g>
					</g>
				</g>
			</g>
			<path class="st65" d="M38.9,138.5c0,1.6,1.1,2.3,2.6,1.5l2.2-1.2c1.4-0.8,2.6-2.7,2.6-4.3c0,1.6,1.1,2.3,2.6,1.5l2.2-1.2
				c1.4-0.8,2.6-2.7,2.6-4.3c0,1.6,1.1,2.3,2.6,1.5l2.2-1.2c1.4-0.8,2.6-2.7,2.6-4.3c0,1.6,1.1,2.3,2.6,1.5l2.2-1.2
				c1.4-0.8,2.6-2.7,2.6-4.3c0,1.6,1.1,2.3,2.6,1.5l2.2-1.2c1.4-0.8,2.6-2.7,2.6-4.3c0,1.6,1.1,2.3,2.6,1.5l2.2-1.2
				c1.4-0.8,2.6-2.7,2.6-4.3c0,1.6,1.1,2.3,2.6,1.5l2.2-1.2c1.4-0.8,2.6-2.7,2.6-4.3c0,1.6,1.1,2.3,2.6,1.5l2.2-1.2
				c1.4-0.8,2.6-2.7,2.6-4.3c0,1.6,1.1,2.3,2.6,1.5l2.2-1.2c1.4-0.8,2.6-2.7,2.6-4.3c0,1.6,1.1,2.3,2.6,1.5l2.2-1.2
				c1.4-0.8,2.6-2.7,2.6-4.3c0,1.6,1.1,2.3,2.6,1.5l2.2-1.2c1.4-0.8,2.6-2.7,2.6-4.3c0,1.6,1.1,2.3,2.6,1.5l2.2-1.2
				c1.4-0.8,2.6-2.7,2.6-4.3c0,1.6,1.1,2.3,2.6,1.5l2.2-1.2c1.4-0.8,2.6-2.7,2.6-4.3c0,1.6,1.1,2.3,2.6,1.5L138,87
				c1.4-0.8,2.6-2.7,2.6-4.3c0,1.6,1.1,2.3,2.6,1.5l2.2-1.2c1.4-0.8,2.6-2.7,2.6-4.3c0,1.6,1.1,2.3,2.6,1.5l2.2-1.2
				c1.4-0.8,2.6-2.7,2.6-4.3c0,1.6,1.1,2.3,2.6,1.5l2.2-1.2c1.4-0.8,2.6-2.7,2.6-4.3c0,1.6,1.1,2.3,2.6,1.5L167,71
				c1.4-0.8,2.6-2.7,2.6-4.3c0,1.6,1.1,2.3,2.6,1.5l2.2-1.2c1.4-0.8,2.6-2.7,2.6-4.3c0,1.6,1.1,2.3,2.6,1.5l2.2-1.2
				c1.4-0.8,2.6-2.7,2.6-4.3c0,1.6,1.1,2.3,2.6,1.5l2.2-1.2c1.4-0.8,2.6-2.7,2.6-4.3c0,1.6,1.1,2.3,2.6,1.5l2.2-1.2
				c1.4-0.8,2.6-2.7,2.6-4.3c0,1.6,1.1,2.3,2.6,1.5l2.2-1.2c0.9-0.5,1.6-1.4,2.1-2.3l-2.6-13.3l-4.7-22.8L20.4,111.2l5,37
				c0.4,0.2,1,0.1,1.6-0.2l2.2-1.2c1.4-0.8,2.6-2.7,2.6-4.3c0,1.6,1.1,2.3,2.6,1.5l2.2-1.2C37.7,142.1,38.9,140.1,38.9,138.5z"/>
			<g class="st66">
				<polygon class="st67" points="199.6,11.9 95.5,69.6 196.8,130.1 214.2,120.4 				"/>
				<polygon class="st67" points="153.8,154 52.4,93.4 20.4,111.2 23.7,135.3 102.5,182.4 				"/>
			</g>
			
				<image style="overflow:visible;enable-background:new    ;" width="1431" height="1525" id="Layer_2_xA0_Image_2_" xlink:href="CE102279.png"  transform="matrix(0.135 0 0 0.135 20.6011 13.4769)">
			</image>
			<g>
				
					<linearGradient id="SVGID_51_" gradientUnits="userSpaceOnUse" x1="25.9762" y1="103.6746" x2="27.8206" y2="117.782" gradientTransform="matrix(1 0 0 1 0 14)">
					<stop  offset="0" style="stop-color:#3D9FFF"/>
					<stop  offset="1" style="stop-color:#3F60BA"/>
				</linearGradient>
				<polygon class="st68" points="20.4,111.2 31.8,126.2 31.8,133.7 22.7,128.5 				"/>
				
					<linearGradient id="SVGID_52_" gradientUnits="userSpaceOnUse" x1="70.5751" y1="74.863" x2="89.1939" y2="74.863" gradientTransform="matrix(1 0 0 1 0 14)">
					<stop  offset="0" style="stop-color:#FFFFFF"/>
					<stop  offset="1" style="stop-color:#DAE1F2"/>
				</linearGradient>
				<polygon class="st69" points="70.6,83.4 82,98.3 89.2,94.3 77.8,79.4 				"/>
				
					<linearGradient id="SVGID_53_" gradientUnits="userSpaceOnUse" x1="84.9041" y1="66.927" x2="103.5259" y2="66.927" gradientTransform="matrix(1 0 0 1 0 14)">
					<stop  offset="0" style="stop-color:#FFFFFF"/>
					<stop  offset="1" style="stop-color:#DAE1F2"/>
				</linearGradient>
				<polygon class="st70" points="84.9,75.4 96.3,90.4 103.5,86.4 92.1,71.4 				"/>
				
					<linearGradient id="SVGID_54_" gradientUnits="userSpaceOnUse" x1="27.56" y1="98.711" x2="46.1694" y2="98.711" gradientTransform="matrix(1 0 0 1 0 14)">
					<stop  offset="0" style="stop-color:#FFFFFF"/>
					<stop  offset="1" style="stop-color:#DAE1F2"/>
				</linearGradient>
				<polygon class="st71" points="27.6,107.2 39,122.2 46.2,118.2 34.8,103.3 				"/>
				
					<linearGradient id="SVGID_55_" gradientUnits="userSpaceOnUse" x1="99.2397" y1="58.9909" x2="117.8654" y2="58.9909" gradientTransform="matrix(1 0 0 1 0 14)">
					<stop  offset="0" style="stop-color:#FFFFFF"/>
					<stop  offset="1" style="stop-color:#DAE1F2"/>
				</linearGradient>
				<polygon class="st72" points="99.2,67.4 110.7,82.4 117.9,78.5 106.4,63.5 				"/>
				
					<linearGradient id="SVGID_56_" gradientUnits="userSpaceOnUse" x1="56.2185" y1="82.8389" x2="74.8342" y2="82.8389" gradientTransform="matrix(1 0 0 1 0 14)">
					<stop  offset="0" style="stop-color:#FFFFFF"/>
					<stop  offset="1" style="stop-color:#DAE1F2"/>
				</linearGradient>
				<polygon class="st73" points="56.2,91.3 67.7,106.3 74.9,102.3 63.4,87.4 				"/>
				
					<linearGradient id="SVGID_57_" gradientUnits="userSpaceOnUse" x1="41.8956" y1="90.7351" x2="60.5082" y2="90.7351" gradientTransform="matrix(1 0 0 1 0 14)">
					<stop  offset="0" style="stop-color:#FFFFFF"/>
					<stop  offset="1" style="stop-color:#DAE1F2"/>
				</linearGradient>
				<polygon class="st74" points="41.9,99.3 53.3,114.2 60.5,110.3 49,95.3 				"/>
				
					<linearGradient id="SVGID_58_" gradientUnits="userSpaceOnUse" x1="170.9122" y1="19.2309" x2="189.5537" y2="19.2309" gradientTransform="matrix(1 0 0 1 0 14)">
					<stop  offset="0" style="stop-color:#FFFFFF"/>
					<stop  offset="1" style="stop-color:#DAE1F2"/>
				</linearGradient>
				<polygon class="st75" points="170.9,27.7 182.4,42.7 189.6,38.7 178.1,23.7 				"/>
				
					<linearGradient id="SVGID_59_" gradientUnits="userSpaceOnUse" x1="156.5838" y1="27.2069" x2="175.222" y2="27.2069" gradientTransform="matrix(1 0 0 1 0 14)">
					<stop  offset="0" style="stop-color:#FFFFFF"/>
					<stop  offset="1" style="stop-color:#DAE1F2"/>
				</linearGradient>
				<polygon class="st76" points="156.6,35.7 168,50.7 175.2,46.7 163.7,31.7 				"/>
				
					<linearGradient id="SVGID_60_" gradientUnits="userSpaceOnUse" x1="185.2689" y1="11.3348" x2="203.9326" y2="11.3348" gradientTransform="matrix(1 0 0 1 0 14)">
					<stop  offset="0" style="stop-color:#FFFFFF"/>
					<stop  offset="1" style="stop-color:#DAE1F2"/>
				</linearGradient>
				<polygon class="st77" points="192.4,15.8 185.3,19.8 196.8,34.8 203.9,30.8 				"/>
				
					<linearGradient id="SVGID_61_" gradientUnits="userSpaceOnUse" x1="113.5654" y1="51.015" x2="132.1943" y2="51.015" gradientTransform="matrix(1 0 0 1 0 14)">
					<stop  offset="0" style="stop-color:#FFFFFF"/>
					<stop  offset="1" style="stop-color:#DAE1F2"/>
				</linearGradient>
				<polygon class="st78" points="113.6,59.6 125.1,74.5 132.2,70.6 120.7,55.6 				"/>
				<g>
					
						<linearGradient id="SVGID_62_" gradientUnits="userSpaceOnUse" x1="77.7535" y1="70.875" x2="96.3739" y2="70.875" gradientTransform="matrix(1 0 0 1 0 14)">
						<stop  offset="0" style="stop-color:#3D9FFF"/>
						<stop  offset="1" style="stop-color:#3F60BA"/>
					</linearGradient>
					<polygon class="st79" points="77.8,79.4 89.2,94.3 96.3,90.4 84.9,75.4 					"/>
					
						<linearGradient id="SVGID_63_" gradientUnits="userSpaceOnUse" x1="63.3968" y1="78.851" x2="82.014" y2="78.851" gradientTransform="matrix(1 0 0 1 0 14)">
						<stop  offset="0" style="stop-color:#3D9FFF"/>
						<stop  offset="1" style="stop-color:#3F60BA"/>
					</linearGradient>
					<polygon class="st80" points="63.4,87.4 74.9,102.3 82,98.3 70.6,83.4 					"/>
					
						<linearGradient id="SVGID_64_" gradientUnits="userSpaceOnUse" x1="92.0722" y1="62.939" x2="110.6958" y2="62.939" gradientTransform="matrix(1 0 0 1 0 14)">
						<stop  offset="0" style="stop-color:#3D9FFF"/>
						<stop  offset="1" style="stop-color:#3F60BA"/>
					</linearGradient>
					<polygon class="st81" points="92.1,71.4 103.5,86.4 110.7,82.4 99.2,67.4 					"/>
					
						<linearGradient id="SVGID_65_" gradientUnits="userSpaceOnUse" x1="20.4066" y1="102.699" x2="39.0144" y2="102.699" gradientTransform="matrix(1 0 0 1 0 14)">
						<stop  offset="0" style="stop-color:#3D9FFF"/>
						<stop  offset="1" style="stop-color:#3F60BA"/>
					</linearGradient>
					<polygon class="st82" points="20.4,111.2 31.8,126.2 39,122.2 27.6,107.2 					"/>
					
						<linearGradient id="SVGID_66_" gradientUnits="userSpaceOnUse" x1="34.7282" y1="94.7231" x2="53.3391" y2="94.7231" gradientTransform="matrix(1 0 0 1 0 14)">
						<stop  offset="0" style="stop-color:#3D9FFF"/>
						<stop  offset="1" style="stop-color:#3F60BA"/>
					</linearGradient>
					<polygon class="st83" points="34.8,103.3 46.2,118.2 53.3,114.2 41.9,99.3 					"/>
					
						<linearGradient id="SVGID_67_" gradientUnits="userSpaceOnUse" x1="49.0638" y1="86.787" x2="67.6779" y2="86.787" gradientTransform="matrix(1 0 0 1 0 14)">
						<stop  offset="0" style="stop-color:#3D9FFF"/>
						<stop  offset="1" style="stop-color:#3F60BA"/>
					</linearGradient>
					<polygon class="st84" points="49,95.3 60.5,110.3 67.7,106.3 56.2,91.3 					"/>
					
						<linearGradient id="SVGID_68_" gradientUnits="userSpaceOnUse" x1="135.0799" y1="39.1309" x2="153.7135" y2="39.1309" gradientTransform="matrix(1 0 0 1 0 14)">
						<stop  offset="0" style="stop-color:#3D9FFF"/>
						<stop  offset="1" style="stop-color:#3F60BA"/>
					</linearGradient>
					<polygon class="st85" points="135.1,47.6 146.5,62.6 153.7,58.6 142.3,43.7 					"/>
					
						<linearGradient id="SVGID_69_" gradientUnits="userSpaceOnUse" x1="163.7339" y1="23.2189" x2="182.3737" y2="23.2189" gradientTransform="matrix(1 0 0 1 0 14)">
						<stop  offset="0" style="stop-color:#3D9FFF"/>
						<stop  offset="1" style="stop-color:#3F60BA"/>
					</linearGradient>
					<polygon class="st86" points="163.7,31.7 175.2,46.7 182.4,42.7 170.9,27.7 					"/>
					
						<linearGradient id="SVGID_70_" gradientUnits="userSpaceOnUse" x1="178.0906" y1="15.2829" x2="196.7329" y2="15.2829" gradientTransform="matrix(1 0 0 1 0 14)">
						<stop  offset="0" style="stop-color:#3D9FFF"/>
						<stop  offset="1" style="stop-color:#3F60BA"/>
					</linearGradient>
					<polygon class="st87" points="178.1,23.7 189.6,38.7 196.8,34.8 185.3,19.8 					"/>
					
						<linearGradient id="SVGID_71_" gradientUnits="userSpaceOnUse" x1="192.424" y1="7.3468" x2="211.0078" y2="7.3468" gradientTransform="matrix(1 0 0 1 0 14)">
						<stop  offset="0" style="stop-color:#3D9FFF"/>
						<stop  offset="1" style="stop-color:#3F60BA"/>
					</linearGradient>
					<polygon class="st88" points="211,26.9 199.6,11.9 192.4,15.8 203.9,30.8 					"/>
					
						<linearGradient id="SVGID_72_" gradientUnits="userSpaceOnUse" x1="106.4078" y1="55.003" x2="125.0345" y2="55.003" gradientTransform="matrix(1 0 0 1 0 14)">
						<stop  offset="0" style="stop-color:#3D9FFF"/>
						<stop  offset="1" style="stop-color:#3F60BA"/>
					</linearGradient>
					<polygon class="st89" points="106.4,63.5 117.9,78.5 125.1,74.5 113.6,59.6 					"/>
					
						<linearGradient id="SVGID_73_" gradientUnits="userSpaceOnUse" x1="149.4155" y1="31.1549" x2="168.0522" y2="31.1549" gradientTransform="matrix(1 0 0 1 0 14)">
						<stop  offset="0" style="stop-color:#3D9FFF"/>
						<stop  offset="1" style="stop-color:#3F60BA"/>
					</linearGradient>
					<polygon class="st90" points="149.4,39.7 160.9,54.6 168,50.7 156.6,35.7 					"/>
					
						<linearGradient id="SVGID_74_" gradientUnits="userSpaceOnUse" x1="120.7437" y1="47.0669" x2="139.3742" y2="47.0669" gradientTransform="matrix(1 0 0 1 0 14)">
						<stop  offset="0" style="stop-color:#3D9FFF"/>
						<stop  offset="1" style="stop-color:#3F60BA"/>
					</linearGradient>
					<polygon class="st91" points="120.7,55.6 132.2,70.6 139.4,66.6 127.9,51.6 					"/>
				</g>
				
					<linearGradient id="SVGID_75_" gradientUnits="userSpaceOnUse" x1="142.2473" y1="35.1429" x2="160.8824" y2="35.1429" gradientTransform="matrix(1 0 0 1 0 14)">
					<stop  offset="0" style="stop-color:#FFFFFF"/>
					<stop  offset="1" style="stop-color:#DAE1F2"/>
				</linearGradient>
				<polygon class="st92" points="142.3,43.7 153.7,58.6 160.9,54.6 149.4,39.7 				"/>
				
					<linearGradient id="SVGID_76_" gradientUnits="userSpaceOnUse" x1="127.922" y1="43.0789" x2="146.554" y2="43.0789" gradientTransform="matrix(1 0 0 1 0 14)">
					<stop  offset="0" style="stop-color:#FFFFFF"/>
					<stop  offset="1" style="stop-color:#DAE1F2"/>
				</linearGradient>
				<polygon class="st93" points="127.9,51.6 139.4,66.6 146.5,62.6 135.1,47.6 				"/>
				<g>
					
						<linearGradient id="SVGID_77_" gradientUnits="userSpaceOnUse" x1="200.2637" y1="16.8382" x2="200.2637" y2="31.6819" gradientTransform="matrix(1 0 0 1 0 14)">
						<stop  offset="0" style="stop-color:#FFFFFF"/>
						<stop  offset="1" style="stop-color:#DAE1F2"/>
					</linearGradient>
					<path class="st94" d="M196.7,34.8v9c0,1.6,1.1,2.3,2.6,1.5l2.1-1.2c1.4-0.8,2.6-2.7,2.6-4.3v-9L196.7,34.8z"/>
					
						<linearGradient id="SVGID_78_" gradientUnits="userSpaceOnUse" x1="128.5601" y1="56.5394" x2="128.5601" y2="71.3831" gradientTransform="matrix(1 0 0 1 0 14)">
						<stop  offset="0" style="stop-color:#FFFFFF"/>
						<stop  offset="1" style="stop-color:#DAE1F2"/>
					</linearGradient>
					<path class="st95" d="M125,74.5v9c0,1.6,1.1,2.3,2.6,1.5l2.1-1.2c1.4-0.8,2.6-2.7,2.6-4.3v-9L125,74.5z"/>
					
						<linearGradient id="SVGID_79_" gradientUnits="userSpaceOnUse" x1="142.9167" y1="48.6008" x2="142.9167" y2="63.4446" gradientTransform="matrix(1 0 0 1 0 14)">
						<stop  offset="0" style="stop-color:#FFFFFF"/>
						<stop  offset="1" style="stop-color:#DAE1F2"/>
					</linearGradient>
					<path class="st96" d="M139.3,66.6v9c0,1.6,1.1,2.3,2.6,1.5l2.1-1.2c1.4-0.8,2.6-2.7,2.6-4.3v-9L139.3,66.6z"/>
					
						<linearGradient id="SVGID_80_" gradientUnits="userSpaceOnUse" x1="157.2734" y1="40.6596" x2="157.2734" y2="55.5033" gradientTransform="matrix(1 0 0 1 0 14)">
						<stop  offset="0" style="stop-color:#FFFFFF"/>
						<stop  offset="1" style="stop-color:#DAE1F2"/>
					</linearGradient>
					<path class="st97" d="M153.7,58.6v9c0,1.6,1.1,2.3,2.6,1.5l2.1-1.2c1.4-0.8,2.6-2.7,2.6-4.3v-9L153.7,58.6z"/>
					
						<linearGradient id="SVGID_81_" gradientUnits="userSpaceOnUse" x1="171.5503" y1="32.7102" x2="171.5503" y2="47.554" gradientTransform="matrix(1 0 0 1 0 14)">
						<stop  offset="0" style="stop-color:#FFFFFF"/>
						<stop  offset="1" style="stop-color:#DAE1F2"/>
					</linearGradient>
					<path class="st98" d="M168,50.7v9c0,1.6,1.1,2.3,2.6,1.5l2.1-1.2c1.4-0.8,2.6-2.7,2.6-4.3v-9L168,50.7z"/>
					
						<linearGradient id="SVGID_82_" gradientUnits="userSpaceOnUse" x1="185.907" y1="24.7798" x2="185.907" y2="39.6235" gradientTransform="matrix(1 0 0 1 0 14)">
						<stop  offset="0" style="stop-color:#FFFFFF"/>
						<stop  offset="1" style="stop-color:#DAE1F2"/>
					</linearGradient>
					<path class="st99" d="M182.3,42.7v9c0,1.6,1.1,2.3,2.6,1.5l2.1-1.2c1.4-0.8,2.6-2.7,2.6-4.3v-9L182.3,42.7z"/>
					
						<linearGradient id="SVGID_83_" gradientUnits="userSpaceOnUse" x1="85.5699" y1="80.3604" x2="85.5699" y2="95.2041" gradientTransform="matrix(1 0 0 1 0 14)">
						<stop  offset="0" style="stop-color:#FFFFFF"/>
						<stop  offset="1" style="stop-color:#DAE1F2"/>
					</linearGradient>
					<path class="st100" d="M82,98.3v9c0,1.6,1.1,2.3,2.6,1.5l2.1-1.2c1.4-0.8,2.6-2.7,2.6-4.3v-9L82,98.3z"/>
					
						<linearGradient id="SVGID_84_" gradientUnits="userSpaceOnUse" x1="99.9265" y1="72.4304" x2="99.9265" y2="87.2741" gradientTransform="matrix(1 0 0 1 0 14)">
						<stop  offset="0" style="stop-color:#FFFFFF"/>
						<stop  offset="1" style="stop-color:#DAE1F2"/>
					</linearGradient>
					<path class="st101" d="M96.3,90.4v9c0,1.6,1.1,2.3,2.6,1.5l2.1-1.2c1.4-0.8,2.6-2.7,2.6-4.3v-9L96.3,90.4z"/>
					
						<linearGradient id="SVGID_85_" gradientUnits="userSpaceOnUse" x1="114.2832" y1="64.4807" x2="114.2832" y2="79.3244" gradientTransform="matrix(1 0 0 1 0 14)">
						<stop  offset="0" style="stop-color:#FFFFFF"/>
						<stop  offset="1" style="stop-color:#DAE1F2"/>
					</linearGradient>
					<path class="st102" d="M110.7,82.4v9c0,1.6,1.1,2.3,2.6,1.5l2.1-1.2c1.4-0.8,2.6-2.7,2.6-4.3v-9L110.7,82.4z"/>
					
						<linearGradient id="SVGID_86_" gradientUnits="userSpaceOnUse" x1="71.293" y1="88.3024" x2="71.293" y2="103.1462" gradientTransform="matrix(1 0 0 1 0 14)">
						<stop  offset="0" style="stop-color:#FFFFFF"/>
						<stop  offset="1" style="stop-color:#DAE1F2"/>
					</linearGradient>
					<path class="st103" d="M67.7,106.3v9c0,1.6,1.1,2.3,2.6,1.5l2.1-1.2c1.4-0.8,2.6-2.7,2.6-4.3v-9L67.7,106.3z"/>
					
						<linearGradient id="SVGID_87_" gradientUnits="userSpaceOnUse" x1="42.5796" y1="104.1745" x2="42.5796" y2="119.0183" gradientTransform="matrix(1 0 0 1 0 14)">
						<stop  offset="0" style="stop-color:#FFFFFF"/>
						<stop  offset="1" style="stop-color:#DAE1F2"/>
					</linearGradient>
					<path class="st104" d="M39,122.2v9c0,1.6,1.1,2.3,2.6,1.5l2.1-1.2c1.4-0.8,2.6-2.7,2.6-4.3v-9L39,122.2z"/>
					
						<linearGradient id="SVGID_88_" gradientUnits="userSpaceOnUse" x1="56.9363" y1="96.2402" x2="56.9363" y2="111.084" gradientTransform="matrix(1 0 0 1 0 14)">
						<stop  offset="0" style="stop-color:#FFFFFF"/>
						<stop  offset="1" style="stop-color:#DAE1F2"/>
					</linearGradient>
					<path class="st105" d="M53.3,114.2v9c0,1.6,1.1,2.3,2.6,1.5l2.1-1.2c1.4-0.8,2.6-2.7,2.6-4.3v-9L53.3,114.2z"/>
				</g>
				<g>
					
						<linearGradient id="SVGID_89_" gradientUnits="userSpaceOnUse" x1="207.442" y1="12.8704" x2="207.442" y2="27.7141" gradientTransform="matrix(1 0 0 1 0 14)">
						<stop  offset="0" style="stop-color:#3D9FFF"/>
						<stop  offset="1" style="stop-color:#3F60BA"/>
					</linearGradient>
					<path class="st106" d="M203.9,30.8v9c0,1.6,1.1,2.3,2.6,1.5l2.1-1.2c1.4-0.8,2.6-2.7,2.6-4.3v-9L203.9,30.8z"/>
					
						<linearGradient id="SVGID_90_" gradientUnits="userSpaceOnUse" x1="193.0853" y1="20.809" x2="193.0853" y2="35.6527" gradientTransform="matrix(1 0 0 1 0 14)">
						<stop  offset="0" style="stop-color:#3D9FFF"/>
						<stop  offset="1" style="stop-color:#3F60BA"/>
					</linearGradient>
					<path class="st107" d="M189.5,38.8v9c0,1.6,1.1,2.3,2.6,1.5l2.1-1.2c1.4-0.8,2.6-2.7,2.6-4.3v-9L189.5,38.8z"/>
					
						<linearGradient id="SVGID_91_" gradientUnits="userSpaceOnUse" x1="121.4615" y1="60.5102" x2="121.4615" y2="75.3539" gradientTransform="matrix(1 0 0 1 0 14)">
						<stop  offset="0" style="stop-color:#3D9FFF"/>
						<stop  offset="1" style="stop-color:#3F60BA"/>
					</linearGradient>
					<path class="st108" d="M117.9,78.5v9c0,1.6,1.1,2.3,2.6,1.5l2.1-1.2c1.4-0.8,2.6-2.7,2.6-4.3v-9L117.9,78.5z"/>
					
						<linearGradient id="SVGID_92_" gradientUnits="userSpaceOnUse" x1="135.7384" y1="52.5703" x2="135.7384" y2="67.414" gradientTransform="matrix(1 0 0 1 0 14)">
						<stop  offset="0" style="stop-color:#3D9FFF"/>
						<stop  offset="1" style="stop-color:#3F60BA"/>
					</linearGradient>
					<path class="st109" d="M132.1,70.6v9c0,1.6,1.1,2.3,2.6,1.5l2.1-1.2c1.4-0.8,2.6-2.7,2.6-4.3v-9L132.1,70.6z"/>
					
						<linearGradient id="SVGID_93_" gradientUnits="userSpaceOnUse" x1="150.0951" y1="44.63" x2="150.0951" y2="59.4738" gradientTransform="matrix(1 0 0 1 0 14)">
						<stop  offset="0" style="stop-color:#3D9FFF"/>
						<stop  offset="1" style="stop-color:#3F60BA"/>
					</linearGradient>
					<path class="st110" d="M146.5,62.6v9c0,1.6,1.1,2.3,2.6,1.5l2.1-1.2c1.4-0.8,2.6-2.7,2.6-4.3v-9L146.5,62.6z"/>
					
						<linearGradient id="SVGID_94_" gradientUnits="userSpaceOnUse" x1="164.4518" y1="36.6982" x2="164.4518" y2="51.542" gradientTransform="matrix(1 0 0 1 0 14)">
						<stop  offset="0" style="stop-color:#3D9FFF"/>
						<stop  offset="1" style="stop-color:#3F60BA"/>
					</linearGradient>
					<path class="st111" d="M160.9,54.7v9c0,1.6,1.1,2.3,2.6,1.5l2.1-1.2c1.4-0.8,2.6-2.7,2.6-4.3v-9L160.9,54.7z"/>
					
						<linearGradient id="SVGID_95_" gradientUnits="userSpaceOnUse" x1="178.7287" y1="28.7502" x2="178.7287" y2="43.5939" gradientTransform="matrix(1 0 0 1 0 14)">
						<stop  offset="0" style="stop-color:#3D9FFF"/>
						<stop  offset="1" style="stop-color:#3F60BA"/>
					</linearGradient>
					<path class="st112" d="M175.1,46.7v9c0,1.6,1.1,2.3,2.6,1.5l2.1-1.2c1.4-0.8,2.6-2.7,2.6-4.3v-9L175.1,46.7z"/>
					
						<linearGradient id="SVGID_96_" gradientUnits="userSpaceOnUse" x1="92.7482" y1="76.39" x2="92.7482" y2="91.2337" gradientTransform="matrix(1 0 0 1 0 14)">
						<stop  offset="0" style="stop-color:#3D9FFF"/>
						<stop  offset="1" style="stop-color:#3F60BA"/>
					</linearGradient>
					<path class="st113" d="M89.2,94.3v9c0,1.6,1.1,2.3,2.6,1.5l2.1-1.2c1.4-0.8,2.6-2.7,2.6-4.3v-9L89.2,94.3z"/>
					
						<linearGradient id="SVGID_97_" gradientUnits="userSpaceOnUse" x1="107.1049" y1="68.4424" x2="107.1049" y2="83.2861" gradientTransform="matrix(1 0 0 1 0 14)">
						<stop  offset="0" style="stop-color:#3D9FFF"/>
						<stop  offset="1" style="stop-color:#3F60BA"/>
					</linearGradient>
					<path class="st114" d="M103.5,86.4v9c0,1.6,1.1,2.3,2.6,1.5l2.1-1.2c1.4-0.8,2.6-2.7,2.6-4.3v-9L103.5,86.4z"/>
					
						<linearGradient id="SVGID_98_" gradientUnits="userSpaceOnUse" x1="78.3915" y1="84.3312" x2="78.3915" y2="99.175" gradientTransform="matrix(1 0 0 1 0 14)">
						<stop  offset="0" style="stop-color:#3D9FFF"/>
						<stop  offset="1" style="stop-color:#3F60BA"/>
					</linearGradient>
					<path class="st115" d="M74.8,102.3v9c0,1.6,1.1,2.3,2.6,1.5l2.1-1.2c1.4-0.8,2.6-2.7,2.6-4.3v-9L74.8,102.3z"/>
					
						<linearGradient id="SVGID_99_" gradientUnits="userSpaceOnUse" x1="49.758" y1="100.211" x2="49.758" y2="115.0548" gradientTransform="matrix(1 0 0 1 0 14)">
						<stop  offset="0" style="stop-color:#3D9FFF"/>
						<stop  offset="1" style="stop-color:#3F60BA"/>
					</linearGradient>
					<path class="st116" d="M46.2,118.2v9c0,1.6,1.1,2.3,2.6,1.5l2.1-1.2c1.4-0.8,2.6-2.7,2.6-4.3v-9L46.2,118.2z"/>
					
						<linearGradient id="SVGID_100_" gradientUnits="userSpaceOnUse" x1="64.1146" y1="92.2694" x2="64.1146" y2="107.1132" gradientTransform="matrix(1 0 0 1 0 14)">
						<stop  offset="0" style="stop-color:#3D9FFF"/>
						<stop  offset="1" style="stop-color:#3F60BA"/>
					</linearGradient>
					<path class="st117" d="M60.5,110.3v9c0,1.6,1.1,2.3,2.6,1.5l2.1-1.2c1.4-0.8,2.6-2.7,2.6-4.3v-9L60.5,110.3z"/>
					
						<linearGradient id="SVGID_101_" gradientUnits="userSpaceOnUse" x1="35.4013" y1="108.1625" x2="35.4013" y2="123.0062" gradientTransform="matrix(1 0 0 1 0 14)">
						<stop  offset="0" style="stop-color:#3D9FFF"/>
						<stop  offset="1" style="stop-color:#3F60BA"/>
					</linearGradient>
					<path class="st118" d="M31.8,126.2v9c0,1.6,1.1,2.3,2.6,1.5l2.1-1.2c1.4-0.8,2.6-2.7,2.6-4.3v-9L31.8,126.2z"/>
				</g>
				
					<linearGradient id="SVGID_102_" gradientUnits="userSpaceOnUse" x1="31.8121" y1="62.7795" x2="211.0311" y2="62.7795" gradientTransform="matrix(1 0 0 1 0 14)">
					<stop  offset="0" style="stop-color:#FFFFFF"/>
					<stop  offset="1" style="stop-color:#DAE1F2"/>
				</linearGradient>
				<polygon class="st119" points="31.8,126.7 211,27.4 211,26.9 31.8,126.2 				"/>
			</g>
		</g>
		<g class="st61">
			<g class="st64">
				<polygon class="st120" points="86.2,40.6 83.9,38.1 81.7,43.2 77.8,46.7 80.2,48.9 80.1,53.6 83.9,49.9 87.7,49.2 87.6,44.7 
					90,39.7 				"/>
				<polygon class="st120" points="103.9,30.3 101.7,27.9 99.4,32.9 95.6,36.4 98,38.7 97.9,43.3 101.7,39.6 105.4,39 105.4,34.4 
					107.7,29.4 				"/>
				<polygon class="st120" points="121.7,20.1 119.5,17.6 117.2,22.6 113.4,26.1 115.8,28.4 115.7,33.1 119.5,29.3 123.2,28.7 
					123.1,24.1 125.5,19.1 				"/>
				<polygon class="st120" points="139.5,9.8 137.2,7.3 134.9,12.4 131.1,15.9 133.6,18.2 133.5,22.8 137.3,19.1 141,18.5 
					140.9,13.9 143.3,8.9 				"/>
				<polygon class="st121" points="161.1,-1.4 157.3,-0.5 155,-2.9 152.7,2.1 148.9,5.6 151.4,7.9 151.3,12.5 155,8.8 158.8,8.2 
					158.7,3.6 				"/>
			</g>
			<g class="st64">
				<g>
					<g>
						<path class="st41" d="M19.1,77.5c0.4-0.2,0.7-0.3,1-0.2L19.8,78c-0.2,0-0.4,0-0.8,0.2s-0.6,0.6-0.6,1c0,0.4,0.2,0.4,0.7,0.3
							c0.6-0.1,1,0.1,1,0.8c0,0.8-0.6,1.7-1.4,2.2c-0.4,0.2-0.8,0.3-1.1,0.3l0.2-0.7c0.2,0.1,0.6,0,1-0.2c0.5-0.3,0.7-0.7,0.7-1.1
							s-0.2-0.5-0.7-0.4c-0.7,0.1-1-0.2-1-0.6C17.7,78.9,18.3,78,19.1,77.5z"/>
					</g>
					<g>
						<path class="st41" d="M21.9,74.7V76l1-0.6v0.6l-1,0.6V79c0,0.6,0.2,0.8,0.6,0.6c0.2-0.1,0.3-0.2,0.4-0.3v0.6
							c-0.2,0.2-0.3,0.3-0.6,0.5c-0.3,0.2-0.6,0.2-0.8,0.1c-0.2-0.2-0.2-0.5-0.2-1v-2.4l-0.6,0.3v-0.6l0.6-0.3v-1L21.9,74.7z"/>
					</g>
					<g>
						<path class="st41" d="M25.4,73.9c1.1-0.6,1.8-0.2,1.8,1.2c0,1.7-1,3-1.9,3.5c-1,0.6-1.8,0.2-1.8-1.2
							C23.4,75.9,24.3,74.5,25.4,73.9z M25.4,78c0.6-0.4,1.2-1.4,1.2-2.4c0-0.7-0.3-1.5-1.2-1c-0.8,0.5-1.2,1.6-1.2,2.4
							C24.2,77.9,24.6,78.4,25.4,78"/>
					</g>
					<g>
						<path class="st41" d="M29.8,71.3c0.1-0.1,0.2-0.1,0.2-0.1V72c-0.1,0-0.2,0.1-0.2,0.1c-0.5,0.3-0.9,1-1,1.6c0,0.2,0,0.2,0,0.4
							v2.4l-0.7,0.4v-3c0-0.6,0-1,0-1.4l0.6-0.3V73l0,0C28.9,72.2,29.3,71.6,29.8,71.3z"/>
					</g>
					<g>
						<path class="st41" d="M33.9,71.1c0,0.2,0,0.3,0,0.4l-2.7,1.6c0,1.1,0.6,1.2,1.4,0.8c0.5-0.3,0.8-0.6,1-0.9l0.2,0.5
							c-0.2,0.2-0.6,0.6-1.3,1c-1.2,0.7-1.9,0.2-1.9-1.1c0-1.4,0.7-2.8,1.8-3.4C33.6,69.2,33.9,70.2,33.9,71.1z M31.2,72.5l2.1-1.2
							c0-0.5-0.2-1.2-1-0.7C31.5,71,31.2,71.8,31.2,72.5"/>
					</g>
					<g>
						<path class="st41" d="M38.2,66.5c0.1-0.1,0.2-0.1,0.2-0.1v0.8c-0.1,0-0.2,0.1-0.2,0.1c-0.5,0.3-0.9,1-1,1.6c0,0.2,0,0.2,0,0.4
							v2.4l-0.7,0.4v-3c0-0.6,0-1,0-1.4l0.6-0.3v0.9l0,0C37.2,67.4,37.7,66.8,38.2,66.5z"/>
					</g>
					<g>
						<path class="st41" d="M41.8,67.9c0,0.4,0,0.7,0.1,1l-0.6,0.4l-0.1-0.6l0,0c-0.2,0.5-0.6,1-1.2,1.4c-0.8,0.5-1.2,0.1-1.2-0.6
							c0-1,0.8-2.2,2.3-3c0,0,0,0,0.1,0v-0.1c0-0.4-0.1-1-0.9-0.6c-0.4,0.2-0.7,0.6-1,0.9l-0.2-0.5c0.3-0.4,0.8-0.9,1.3-1.1
							c1.2-0.7,1.5,0.1,1.5,1L41.8,67.9z M41.1,67.8V67l-0.1,0.1c-0.7,0.4-1.5,1-1.5,1.9c0,0.6,0.3,0.6,0.6,0.4
							c0.5-0.3,0.8-0.9,1-1.3C41.1,68.1,41.1,67.9,41.1,67.8"/>
					</g>
					<g>
						<path class="st41" d="M43.8,62.1v1.3l1-0.6v0.6l-1,0.6v2.4c0,0.6,0.2,0.8,0.6,0.6c0.2-0.1,0.3-0.2,0.4-0.3v0.6
							c-0.2,0.2-0.3,0.3-0.6,0.5c-0.3,0.2-0.6,0.2-0.8,0.1c-0.2-0.2-0.2-0.5-0.2-1v-2.4l-0.6,0.4v-0.6l0.6-0.3v-1L43.8,62.1z"/>
					</g>
					<g>
						<polygon class="st41" points="45.6,66.8 45.6,62.3 46.2,61.9 46.3,66.4 						"/>
					</g>
					<g>
						<path class="st41" d="M45.9,61.4c-0.2,0.2-0.4,0-0.4-0.2c0-0.3,0.2-0.6,0.4-0.8c0.2-0.2,0.4,0,0.4,0.2
							C46.3,60.9,46.2,61.2,45.9,61.4z"/>
					</g>
					<g>
						<path class="st41" d="M49.4,60c0.6-0.3,1.4-0.4,1.4,1.1v2.6L50,64.2v-2.6c0-0.7-0.2-1.2-0.9-0.8c-0.5,0.2-0.8,0.9-1,1.4
							c0,0.1-0.1,0.2-0.1,0.4v2.7l-0.7,0.4v-3.3c0-0.5,0-0.8,0-1.2l0.6-0.3l0.1,0.7l0,0C48.3,61.1,48.7,60.4,49.4,60z"/>
					</g>
					<g>
						<path class="st41" d="M54.6,57.1l0.6-0.3c0,0.3,0,0.7,0,1.3v2.6c0,1-0.2,1.8-0.6,2.4c-0.4,0.6-1,1-1.4,1.4
							c-0.5,0.2-1,0.4-1.3,0.4l0.2-0.7c0.2,0,0.6,0,1.1-0.3c0.7-0.4,1.3-1.1,1.3-2.3v-0.5l0,0c-0.2,0.6-0.6,1.1-1.2,1.4
							c-1,0.6-1.7,0-1.7-1.2c0-1.5,0.9-2.9,1.8-3.3c0.6-0.4,1-0.2,1.2,0.1l0,0V57.1z M54.5,59.7v-0.8c0-0.2,0-0.2-0.1-0.3
							c-0.2-0.4-0.5-0.6-1-0.3c-0.6,0.4-1.1,1.4-1.1,2.3c0,0.9,0.4,1.4,1.1,1c0.4-0.2,0.8-0.8,1-1.4C54.5,60,54.5,59.9,54.5,59.7"/>
					</g>
					<g>
						<path class="st41" d="M58.4,58.4c0.3-0.2,0.5,0,0.5,0.3s-0.2,0.6-0.5,0.9c-0.3,0.2-0.5,0-0.5-0.3
							C57.9,58.8,58.1,58.5,58.4,58.4z"/>
					</g>
					<g>
						<path class="st41" d="M58.4,56.3c-0.3,0.2-0.5,0-0.5-0.3s0.2-0.7,0.5-0.9c0.3-0.2,0.5,0,0.5,0.3C58.9,55.7,58.7,56,58.4,56.3z
							"/>
					</g>
				</g>
			</g>
		</g>
		<g>
			<polygon class="st122" points="205.2,108.5 165.3,131.9 166.3,137.1 206.2,113.7 			"/>
			<path class="st123" d="M259.8,147.7L259.8,147.7v-2.5l-4.9-0.7l-51-29.4c-0.8-0.5-2.1-0.5-2.9,0l-29.6,17.2l-2.8-0.4v2.6l0,0
				c0,0.3,0.2,0.6,0.6,0.9l55.3,31.9c0.8,0.5,2.1,0.5,2.9,0l31.8-18.5C259.7,148.4,259.9,148,259.8,147.7z"/>
			<path class="st124" d="M204,115.1c-0.8-0.5-2.1-0.5-2.9,0l-29.6,17.2l-2.8-0.4v0.3c0,0.3,0.2,0.6,0.6,0.9l55.3,31.9
				c0.8,0.5,2.1,0.5,2.9,0l31.8-18.5c0.5-0.2,0.6-0.6,0.6-1l0,0v-0.2l-4.9-0.7L204,115.1z"/>
			
				<linearGradient id="SVGID_103_" gradientUnits="userSpaceOnUse" x1="229.0583" y1="112.2259" x2="185.902" y2="148.1129" gradientTransform="matrix(1 0 0 1 0 14)">
				<stop  offset="0" style="stop-color:#FFD924"/>
				<stop  offset="1" style="stop-color:#FFB908"/>
			</linearGradient>
			<path class="st125" d="M259.3,144.4L204,112.5c-0.8-0.5-2.1-0.5-2.9,0L169.2,131c-0.8,0.5-0.8,1.2,0,1.7l55.3,31.9
				c0.8,0.5,2.1,0.5,2.9,0l31.8-18.5C260.1,145.6,260.1,144.9,259.3,144.4z"/>
			<g>
				<polygon class="st58" points="184.9,137.6 192.4,141.8 196.1,139.6 188.7,135.4 				"/>
				<polygon class="st58" points="198.4,114 190.2,118.8 248.4,152.4 256.6,147.6 				"/>
				<polygon class="st58" points="179.3,130 175.6,132.1 183,136.4 186.7,134.3 				"/>
			</g>
			<path class="st126" d="M192.1,145.9h67.4c0.6-0.5,0.5-1.1-0.2-1.5l-14-8.1h-69.7L192.1,145.9z"/>
			<polygon class="st126" points="169.8,130.7 235.4,130.7 208.3,115 196.8,115 			"/>
		</g>
		<g>
			<g>
				<path class="st127" d="M263.1,205.9c0,0.1,0,0.2,0,0.2l0,0c0,0.1-0.1,0.1-0.1,0.2l0,0c0,0.1-0.1,0.1-0.2,0.2
					c0,0-0.1,0.1-0.2,0.1l-0.1,0.1l-29.5,17.1c-0.1,0.1-0.2,0.1-0.3,0.2c-0.1,0-0.1,0-0.2,0.1c-0.1,0-0.2,0-0.2,0.1
					c-0.1,0-0.2,0-0.2,0c0,0,0,0-0.1,0c-0.1,0-0.2,0-0.3,0c0,0,0,0-0.1,0c-0.1,0-0.2,0-0.3,0l0,0c-0.1,0-0.2,0-0.3-0.1
					c0,0,0,0-0.1,0s-0.2-0.1-0.2-0.1l0,0c-0.1,0-0.2-0.1-0.2-0.2l-59.4-34.3c-0.3-0.2-0.6-0.5-0.6-0.7c0,0.5,0,1,0,1.4
					c0,0.2,0.2,0.6,0.6,0.7l59.4,34.3c0.1,0.1,0.2,0.1,0.2,0.2l0,0c0,0,0,0,0.1,0c0.1,0,0.1,0,0.2,0.1h0.1c0,0,0,0,0.1,0l0,0l0,0
					l0,0l0,0c0.1,0,0.1,0,0.2,0h0.1c0,0,0,0,0.1,0h0.1c0.1,0,0.1,0,0.2,0h0.1c0,0,0,0,0.1,0h0.1c0.1,0,0.2,0,0.2,0l0,0
					c0,0,0,0,0.1,0c0.1,0,0.1,0,0.2,0h0.1c0.1,0,0.2,0,0.2-0.1h0.1l0,0c0.2-0.1,0.2-0.1,0.3-0.2l29.5-17.1l0,0l0.1-0.1
					c0.1,0,0.1-0.1,0.1-0.1l0,0c0.1,0,0.1-0.1,0.1-0.2l0,0l0,0c0,0,0,0,0-0.1c0,0,0-0.1,0.1-0.1l0,0l0,0v-0.1v-0.1l0,0
					c0-0.5,0-0.9,0-1.4v-0.1C263.1,205.9,263.1,205.9,263.1,205.9z"/>
				<path class="st128" d="M231.3,224.4C231.4,224.4,231.4,224.4,231.3,224.4C231.4,224.4,231.4,224.4,231.3,224.4h0.2
					c0.1,0,0.1,0,0.2,0h0.1c0,0,0,0,0.1,0h0.1c0.1,0,0.2,0,0.2,0l0,0c0,0,0,0,0.1,0s0.1,0,0.2,0h0.1c0.1,0,0.2,0,0.2-0.1h0.1l0,0
					c0.2-0.1,0.2-0.1,0.3-0.2l29.5-17.1l0,0l0.1-0.1c0.1,0,0.1-0.1,0.1-0.1l0,0c0.1,0,0.1-0.1,0.1-0.2l0,0l0,0c0,0,0,0,0-0.1
					c0,0,0-0.1,0.1-0.1l0,0l0,0v-0.1v-0.1l0,0c0-0.1,0-0.2,0-0.3c0,0.1,0,0.1,0,0.2l0,0c0,0.1-0.1,0.1-0.1,0.2l0,0
					c0,0.1-0.1,0.1-0.2,0.2c0,0-0.1,0.1-0.2,0.1l-0.1,0.1l-29.5,17.1c-0.1,0.1-0.2,0.1-0.3,0.2c-0.1,0-0.1,0-0.2,0.1
					c-0.1,0-0.2,0-0.2,0.1c-0.1,0-0.2,0-0.2,0c0,0,0,0-0.1,0c-0.1,0-0.2,0-0.3,0c0,0,0,0-0.1,0c-0.1,0-0.2,0-0.3,0l0,0
					c-0.1,0-0.2,0-0.3-0.1c0,0,0,0-0.1,0c-0.1,0-0.2-0.1-0.2-0.1l0,0c-0.1,0-0.2-0.1-0.2-0.2l-59.4-34.3c-0.3-0.2-0.6-0.5-0.6-0.7
					c0,0.1,0,0.2,0,0.3c0,0.2,0.2,0.6,0.6,0.7l59.4,34.3c0.1,0.1,0.2,0.1,0.2,0.2l0,0c0,0,0,0,0.1,0c0.1,0,0.1,0,0.2,0.1h0.1
					c0,0,0,0,0.1,0l0,0l0,0C231.2,224.3,231.3,224.3,231.3,224.4z"/>
				
					<linearGradient id="SVGID_104_" gradientUnits="userSpaceOnUse" x1="227.6734" y1="178.8508" x2="163.0876" y2="205.2859" gradientTransform="matrix(1 0 0 1 0 14)">
					<stop  offset="0" style="stop-color:#A4F04F"/>
					<stop  offset="1" style="stop-color:#80BB3E"/>
				</linearGradient>
				<path class="st129" d="M262.6,205.1l-59.4-34.3c-0.7-0.4-1.8-0.4-2.6,0L171.1,188c-0.7,0.4-0.7,1,0,1.5l59.4,34.3
					c0.7,0.4,1.8,0.4,2.6,0l29.5-17.1C263.3,206.2,263.3,205.6,262.6,205.1z"/>
				<path class="st130" d="M253.6,202.9L207.1,176c-3,1.7-7.7,1.7-10.6,0l-16.5,9.6c3,1.7,3,4.5,0,6.1l46.5,26.9
					c3-1.7,7.7-1.7,10.6,0l16.5-9.6C250.7,207.3,250.7,204.6,253.6,202.9z"/>
				
					<linearGradient id="SVGID_105_" gradientUnits="userSpaceOnUse" x1="227.6734" y1="178.8508" x2="163.0886" y2="205.2855" gradientTransform="matrix(1 0 0 1 0 14)">
					<stop  offset="0" style="stop-color:#A4F04F"/>
					<stop  offset="1" style="stop-color:#80BB3E"/>
				</linearGradient>
				<path class="st131" d="M226.4,191.7c-5.3-3.1-14-3.1-19.3,0c-5.3,3.1-5.3,8.1,0.1,11.2c5.3,3.1,14,3.1,19.3,0
					C231.8,199.8,231.8,194.8,226.4,191.7z"/>
			</g>
			<g>
				<path class="st127" d="M263.1,203.6c0,0.1,0,0.2,0,0.2l0,0c0,0.1-0.1,0.1-0.1,0.2l0,0c0,0.1-0.1,0.1-0.2,0.2
					c0,0-0.1,0.1-0.2,0.1l-0.1,0.1l-29.5,17.1c-0.1,0.1-0.2,0.1-0.3,0.2c-0.1,0-0.1,0-0.2,0.1c-0.1,0-0.2,0-0.2,0.1
					c-0.1,0-0.2,0-0.2,0c0,0,0,0-0.1,0c-0.1,0-0.2,0-0.3,0c0,0,0,0-0.1,0c-0.1,0-0.2,0-0.3,0l0,0c-0.1,0-0.2,0-0.3-0.1
					c0,0,0,0-0.1,0s-0.2-0.1-0.2-0.1l0,0c-0.1,0-0.2-0.1-0.2-0.2l-59.4-34.3c-0.3-0.2-0.6-0.5-0.6-0.7c0,0.5,0,1,0,1.4
					c0,0.2,0.2,0.6,0.6,0.7l59.4,34.3c0.1,0.1,0.2,0.1,0.2,0.2l0,0c0,0,0,0,0.1,0c0.1,0,0.1,0,0.2,0.1h0.1c0,0,0,0,0.1,0l0,0l0,0
					l0,0l0,0c0.1,0,0.1,0,0.2,0h0.1c0,0,0,0,0.1,0h0.1c0.1,0,0.1,0,0.2,0h0.1c0,0,0,0,0.1,0h0.1c0.1,0,0.2,0,0.2,0l0,0
					c0,0,0,0,0.1,0c0.1,0,0.1,0,0.2,0h0.1c0.1,0,0.2,0,0.2-0.1h0.1l0,0c0.2-0.1,0.2-0.1,0.3-0.2l29.5-17.1l0,0l0.1-0.1
					c0.1,0,0.1-0.1,0.1-0.1l0,0c0.1,0,0.1-0.1,0.1-0.2l0,0l0,0c0,0,0,0,0-0.1c0,0,0-0.1,0.1-0.1l0,0l0,0v-0.1V205l0,0
					c0-0.5,0-0.9,0-1.4v-0.1C263.1,203.7,263.1,203.6,263.1,203.6z"/>
				<path class="st128" d="M231.3,222.1C231.4,222.1,231.4,222.1,231.3,222.1C231.4,222.1,231.4,222.1,231.3,222.1h0.2
					c0.1,0,0.1,0,0.2,0h0.1c0,0,0,0,0.1,0h0.1c0.1,0,0.2,0,0.2,0l0,0c0,0,0,0,0.1,0s0.1,0,0.2,0h0.1c0.1,0,0.2,0,0.2-0.1h0.1l0,0
					c0.2-0.1,0.2-0.1,0.3-0.2l29.5-17.1l0,0l0.1-0.1c0.1,0,0.1-0.1,0.1-0.1l0,0c0.1,0,0.1-0.1,0.1-0.2l0,0l0,0c0,0,0,0,0-0.1
					c0,0,0-0.1,0.1-0.1l0,0l0,0v-0.1v-0.1l0,0c0-0.1,0-0.2,0-0.3c0,0.1,0,0.1,0,0.2l0,0c0,0.1-0.1,0.1-0.1,0.2l0,0
					c0,0.1-0.1,0.1-0.2,0.2c0,0-0.1,0.1-0.2,0.1l-0.1,0.1l-29.5,17.1c-0.1,0.1-0.2,0.1-0.3,0.2c-0.1,0-0.1,0-0.2,0.1
					c-0.1,0-0.2,0-0.2,0.1c-0.1,0-0.2,0-0.2,0c0,0,0,0-0.1,0c-0.1,0-0.2,0-0.3,0c0,0,0,0-0.1,0c-0.1,0-0.2,0-0.3,0l0,0
					c-0.1,0-0.2,0-0.3-0.1c0,0,0,0-0.1,0c-0.1,0-0.2-0.1-0.2-0.1l0,0c-0.1,0-0.2-0.1-0.2-0.2l-59.4-34.3c-0.3-0.2-0.6-0.5-0.6-0.7
					c0,0.1,0,0.2,0,0.3c0,0.2,0.2,0.6,0.6,0.7l59.4,34.3c0.1,0.1,0.2,0.1,0.2,0.2l0,0c0,0,0,0,0.1,0c0.1,0,0.1,0,0.2,0.1h0.1
					c0,0,0,0,0.1,0l0,0l0,0C231.2,222.1,231.3,222.1,231.3,222.1z"/>
				
					<linearGradient id="SVGID_106_" gradientUnits="userSpaceOnUse" x1="227.6826" y1="176.6138" x2="163.0969" y2="203.0488" gradientTransform="matrix(1 0 0 1 0 14)">
					<stop  offset="0" style="stop-color:#A4F04F"/>
					<stop  offset="1" style="stop-color:#80BB3E"/>
				</linearGradient>
				<path class="st132" d="M262.6,202.9l-59.4-34.3c-0.7-0.4-1.8-0.4-2.6,0l-29.5,17.1c-0.7,0.4-0.7,1,0,1.5l59.4,34.3
					c0.7,0.4,1.8,0.4,2.6,0l29.5-17.1C263.3,203.9,263.3,203.3,262.6,202.9z"/>
				<path class="st130" d="M253.6,200.6l-46.5-26.9c-3,1.7-7.7,1.7-10.6,0l-16.5,9.6c3,1.7,3,4.5,0,6.1l46.5,26.9
					c3-1.7,7.7-1.7,10.6,0l16.5-9.6C250.7,205,250.7,202.3,253.6,200.6z"/>
				
					<linearGradient id="SVGID_107_" gradientUnits="userSpaceOnUse" x1="227.6826" y1="176.6138" x2="163.0978" y2="203.0485" gradientTransform="matrix(1 0 0 1 0 14)">
					<stop  offset="0" style="stop-color:#A4F04F"/>
					<stop  offset="1" style="stop-color:#80BB3E"/>
				</linearGradient>
				<path class="st133" d="M226.4,189.5c-5.3-3.1-14-3.1-19.3,0c-5.3,3.1-5.3,8.1,0.1,11.2c5.3,3.1,14,3.1,19.3,0
					C231.8,197.5,231.8,192.6,226.4,189.5z"/>
			</g>
			<g>
				<path class="st127" d="M263.1,201.4c0,0.1,0,0.2,0,0.2l0,0c0,0.1-0.1,0.1-0.1,0.2l0,0c0,0.1-0.1,0.1-0.2,0.2
					c0,0-0.1,0.1-0.2,0.1l-0.1,0.1l-29.5,17.1c-0.1,0.1-0.2,0.1-0.3,0.2c-0.1,0-0.1,0-0.2,0.1c-0.1,0-0.2,0-0.2,0.1
					c-0.1,0-0.2,0-0.2,0c0,0,0,0-0.1,0c-0.1,0-0.2,0-0.3,0c0,0,0,0-0.1,0c-0.1,0-0.2,0-0.3,0l0,0c-0.1,0-0.2,0-0.3-0.1
					c0,0,0,0-0.1,0c-0.1,0-0.2-0.1-0.2-0.1l0,0c-0.1,0-0.2-0.1-0.2-0.2l-59.4-34.3c-0.3-0.2-0.6-0.5-0.6-0.7c0,0.5,0,1,0,1.4
					c0,0.2,0.2,0.6,0.6,0.7l59.4,34.3c0.1,0.1,0.2,0.1,0.2,0.2l0,0c0,0,0,0,0.1,0c0.1,0,0.1,0,0.2,0.1h0.1c0,0,0,0,0.1,0l0,0l0,0
					l0,0l0,0c0.1,0,0.1,0,0.2,0h0.1c0,0,0,0,0.1,0h0.1c0.1,0,0.1,0,0.2,0h0.1c0,0,0,0,0.1,0h0.1c0.1,0,0.2,0,0.2,0l0,0
					c0,0,0,0,0.1,0c0.1,0,0.1,0,0.2,0h0.1c0.1,0,0.2,0,0.2-0.1h0.1l0,0c0.2-0.1,0.2-0.1,0.3-0.2l29.5-17.1l0,0l0.1-0.1
					c0.1,0,0.1-0.1,0.1-0.1l0,0c0.1,0,0.1-0.1,0.1-0.2l0,0l0,0c0,0,0,0,0-0.1c0,0,0-0.1,0.1-0.1l0,0l0,0v-0.1v-0.1l0,0
					c0-0.5,0-0.9,0-1.4v-0.1C263.1,201.4,263.1,201.4,263.1,201.4z"/>
				<path class="st128" d="M231.3,219.9C231.4,219.9,231.4,219.9,231.3,219.9C231.4,219.9,231.4,219.9,231.3,219.9h0.2
					c0.1,0,0.1,0,0.2,0h0.1c0,0,0,0,0.1,0h0.1c0.1,0,0.2,0,0.2,0l0,0c0,0,0,0,0.1,0s0.1,0,0.2,0h0.1c0.1,0,0.2,0,0.2-0.1h0.1l0,0
					c0.2-0.1,0.2-0.1,0.3-0.2l29.5-17.1l0,0l0.1-0.1c0.1,0,0.1-0.1,0.1-0.1l0,0c0.1,0,0.1-0.1,0.1-0.2l0,0l0,0c0,0,0,0,0-0.1
					c0,0,0-0.1,0.1-0.1l0,0l0,0v-0.1v-0.1l0,0c0-0.1,0-0.2,0-0.3c0,0.1,0,0.1,0,0.2l0,0c0,0.1-0.1,0.1-0.1,0.2l0,0
					c0,0.1-0.1,0.1-0.2,0.2c0,0-0.1,0.1-0.2,0.1l-0.1,0.1l-29.5,17.1c-0.1,0.1-0.2,0.1-0.3,0.2c-0.1,0-0.1,0-0.2,0.1
					c-0.1,0-0.2,0-0.2,0.1c-0.1,0-0.2,0-0.2,0c0,0,0,0-0.1,0c-0.1,0-0.2,0-0.3,0c0,0,0,0-0.1,0c-0.1,0-0.2,0-0.3,0l0,0
					c-0.1,0-0.2,0-0.3-0.1c0,0,0,0-0.1,0c-0.1,0-0.2-0.1-0.2-0.1l0,0c-0.1,0-0.2-0.1-0.2-0.2L170.8,185c-0.3-0.2-0.6-0.5-0.6-0.7
					c0,0.1,0,0.2,0,0.3c0,0.2,0.2,0.6,0.6,0.7l59.4,34.3c0.1,0.1,0.2,0.1,0.2,0.2l0,0c0,0,0,0,0.1,0c0.1,0,0.1,0,0.2,0.1h0.1
					c0,0,0,0,0.1,0l0,0l0,0C231.2,219.9,231.3,219.9,231.3,219.9z"/>
				
					<linearGradient id="SVGID_108_" gradientUnits="userSpaceOnUse" x1="227.6919" y1="174.3767" x2="163.1061" y2="200.8118" gradientTransform="matrix(1 0 0 1 0 14)">
					<stop  offset="0" style="stop-color:#A4F04F"/>
					<stop  offset="1" style="stop-color:#80BB3E"/>
				</linearGradient>
				<path class="st134" d="M262.6,200.6l-59.4-34.3c-0.7-0.4-1.8-0.4-2.6,0l-29.5,17.1c-0.7,0.4-0.7,1,0,1.5l59.4,34.3
					c0.7,0.4,1.8,0.4,2.6,0l29.5-17.1C263.3,201.7,263.3,201,262.6,200.6z"/>
				<path class="st130" d="M253.6,198.3l-46.5-26.9c-3,1.7-7.7,1.7-10.6,0L180,181c3,1.7,3,4.5,0,6.1l46.5,26.9
					c3-1.7,7.7-1.7,10.6,0l16.5-9.6C250.7,202.8,250.7,200.1,253.6,198.3z"/>
				
					<linearGradient id="SVGID_109_" gradientUnits="userSpaceOnUse" x1="227.6918" y1="174.3768" x2="163.107" y2="200.8114" gradientTransform="matrix(1 0 0 1 0 14)">
					<stop  offset="0" style="stop-color:#A4F04F"/>
					<stop  offset="1" style="stop-color:#80BB3E"/>
				</linearGradient>
				<path class="st135" d="M226.4,187.2c-5.3-3.1-14-3.1-19.3,0c-5.3,3.1-5.3,8.1,0.1,11.2c5.3,3.1,14,3.1,19.3,0
					C231.8,195.3,231.8,190.3,226.4,187.2z"/>
			</g>
			<g>
				<path class="st127" d="M263.1,199.1c0,0.1,0,0.2,0,0.2l0,0c0,0.1-0.1,0.1-0.1,0.2l0,0c0,0.1-0.1,0.1-0.2,0.2
					c0,0-0.1,0.1-0.2,0.1l-0.1,0.1l-29.5,17.1c-0.1,0.1-0.2,0.1-0.3,0.2c-0.1,0-0.1,0-0.2,0.1c-0.1,0-0.2,0-0.2,0.1
					c-0.1,0-0.2,0-0.2,0c0,0,0,0-0.1,0c-0.1,0-0.2,0-0.3,0c0,0,0,0-0.1,0c-0.1,0-0.2,0-0.3,0l0,0c-0.1,0-0.2,0-0.3-0.1
					c0,0,0,0-0.1,0s-0.2-0.1-0.2-0.1l0,0c-0.1,0-0.2-0.1-0.2-0.2l-59.4-34.3c-0.3-0.2-0.6-0.5-0.6-0.7c0,0.5,0,1,0,1.4
					c0,0.2,0.2,0.6,0.6,0.7l59.4,34.3c0.1,0.1,0.2,0.1,0.2,0.2l0,0c0,0,0,0,0.1,0c0.1,0,0.1,0,0.2,0.1h0.1c0,0,0,0,0.1,0l0,0l0,0
					l0,0l0,0c0.1,0,0.1,0,0.2,0h0.1c0,0,0,0,0.1,0h0.1c0.1,0,0.1,0,0.2,0h0.1c0,0,0,0,0.1,0h0.1c0.1,0,0.2,0,0.2,0l0,0
					c0,0,0,0,0.1,0c0.1,0,0.1,0,0.2,0h0.1c0.1,0,0.2,0,0.2-0.1h0.1l0,0c0.2-0.1,0.2-0.1,0.3-0.2l29.5-17.1l0,0l0.1-0.1
					c0.1,0,0.1-0.1,0.1-0.1l0,0c0.1,0,0.1-0.1,0.1-0.2l0,0l0,0c0,0,0,0,0-0.1c0,0,0-0.1,0.1-0.1l0,0l0,0v-0.1v-0.1l0,0
					c0-0.5,0-0.9,0-1.4v-0.1C263.1,199.1,263.1,199.1,263.1,199.1z"/>
				<path class="st128" d="M231.3,217.6C231.4,217.6,231.4,217.6,231.3,217.6C231.4,217.6,231.4,217.6,231.3,217.6h0.2
					c0.1,0,0.1,0,0.2,0h0.1c0,0,0,0,0.1,0h0.1c0.1,0,0.2,0,0.2,0l0,0c0,0,0,0,0.1,0s0.1,0,0.2,0h0.1c0.1,0,0.2,0,0.2-0.1h0.1l0,0
					c0.2-0.1,0.2-0.1,0.3-0.2l29.5-17.1l0,0l0.1-0.1c0.1,0,0.1-0.1,0.1-0.1l0,0c0.1,0,0.1-0.1,0.1-0.2l0,0l0,0c0,0,0,0,0-0.1
					c0,0,0-0.1,0.1-0.1l0,0l0,0v-0.1v-0.1l0,0c0-0.1,0-0.2,0-0.3c0,0.1,0,0.1,0,0.2l0,0c0,0.1-0.1,0.1-0.1,0.2l0,0
					c0,0.1-0.1,0.1-0.2,0.2c0,0-0.1,0.1-0.2,0.1l-0.1,0.1l-29.5,17.1c-0.1,0.1-0.2,0.1-0.3,0.2c-0.1,0-0.1,0-0.2,0.1
					c-0.1,0-0.2,0-0.2,0.1c-0.1,0-0.2,0-0.2,0c0,0,0,0-0.1,0c-0.1,0-0.2,0-0.3,0c0,0,0,0-0.1,0c-0.1,0-0.2,0-0.3,0l0,0
					c-0.1,0-0.2,0-0.3-0.1c0,0,0,0-0.1,0c-0.1,0-0.2-0.1-0.2-0.1l0,0c-0.1,0-0.2-0.1-0.2-0.2l-59.4-34.3c-0.3-0.2-0.6-0.5-0.6-0.7
					c0,0.1,0,0.2,0,0.3c0,0.2,0.2,0.6,0.6,0.7l59.4,34.3c0.1,0.1,0.2,0.1,0.2,0.2l0,0c0,0,0,0,0.1,0c0.1,0,0.1,0,0.2,0.1h0.1
					c0,0,0,0,0.1,0l0,0l0,0C231.2,217.6,231.3,217.6,231.3,217.6z"/>
				
					<linearGradient id="SVGID_110_" gradientUnits="userSpaceOnUse" x1="227.6732" y1="172.0713" x2="163.0874" y2="198.5065" gradientTransform="matrix(1 0 0 1 0 14)">
					<stop  offset="0" style="stop-color:#A4F04F"/>
					<stop  offset="1" style="stop-color:#80BB3E"/>
				</linearGradient>
				<path class="st136" d="M262.6,198.3L203.1,164c-0.7-0.4-1.8-0.4-2.6,0l-29.5,17.1c-0.7,0.4-0.7,1,0,1.5l59.4,34.3
					c0.7,0.4,1.8,0.4,2.6,0l29.5-17.1C263.3,199.4,263.3,198.8,262.6,198.3z"/>
				<path class="st130" d="M253.6,196.1l-46.5-26.8c-3,1.7-7.7,1.7-10.6,0l-16.5,9.6c3,1.7,3,4.5,0,6.1l46.5,26.9
					c3-1.7,7.7-1.7,10.6,0l16.5-9.6C250.7,200.6,250.7,197.8,253.6,196.1z"/>
				
					<linearGradient id="SVGID_111_" gradientUnits="userSpaceOnUse" x1="227.6731" y1="172.0714" x2="163.0883" y2="198.5061" gradientTransform="matrix(1 0 0 1 0 14)">
					<stop  offset="0" style="stop-color:#A4F04F"/>
					<stop  offset="1" style="stop-color:#80BB3E"/>
				</linearGradient>
				<path class="st137" d="M226.4,184.9c-5.3-3.1-14-3.1-19.3,0c-5.3,3.1-5.3,8.1,0.1,11.2c5.3,3.1,14,3.1,19.3,0
					C231.8,193.1,231.8,188,226.4,184.9z"/>
			</g>
			<g>
				<path class="st127" d="M263.1,196.8c0,0.1,0,0.2,0,0.2l0,0c0,0.1-0.1,0.1-0.1,0.2l0,0c0,0.1-0.1,0.1-0.2,0.2
					c0,0-0.1,0.1-0.2,0.1l-0.1,0.1l-29.5,17.1c-0.1,0.1-0.2,0.1-0.3,0.2c-0.1,0-0.1,0-0.2,0.1c-0.1,0-0.2,0-0.2,0.1
					c-0.1,0-0.2,0-0.2,0c0,0,0,0-0.1,0c-0.1,0-0.2,0-0.3,0c0,0,0,0-0.1,0c-0.1,0-0.2,0-0.3,0l0,0c-0.1,0-0.2,0-0.3-0.1
					c0,0,0,0-0.1,0s-0.2-0.1-0.2-0.1l0,0c-0.1,0-0.2-0.1-0.2-0.2l-59.4-34.3c-0.3-0.2-0.6-0.5-0.6-0.7c0,0.5,0,1,0,1.4
					c0,0.2,0.2,0.6,0.6,0.7l59.4,34.3c0.1,0.1,0.2,0.1,0.2,0.2l0,0c0,0,0,0,0.1,0c0.1,0,0.1,0,0.2,0.1h0.1c0,0,0,0,0.1,0l0,0l0,0
					l0,0l0,0c0.1,0,0.1,0,0.2,0h0.1c0,0,0,0,0.1,0h0.1c0.1,0,0.1,0,0.2,0h0.1c0,0,0,0,0.1,0h0.1c0.1,0,0.2,0,0.2,0l0,0
					c0,0,0,0,0.1,0c0.1,0,0.1,0,0.2,0h0.1c0.1,0,0.2,0,0.2-0.1h0.1l0,0c0.2-0.1,0.2-0.1,0.3-0.2l29.5-17.1l0,0l0.1-0.1
					c0.1,0,0.1-0.1,0.1-0.1l0,0c0.1,0,0.1-0.1,0.1-0.2l0,0l0,0c0,0,0,0,0-0.1c0,0,0-0.1,0.1-0.1l0,0l0,0v-0.1v-0.1l0,0
					c0-0.5,0-0.9,0-1.4v-0.1C263.1,196.9,263.1,196.8,263.1,196.8z"/>
				<path class="st128" d="M231.3,215.3C231.4,215.3,231.4,215.3,231.3,215.3C231.4,215.3,231.4,215.3,231.3,215.3h0.2
					c0.1,0,0.1,0,0.2,0h0.1c0,0,0,0,0.1,0h0.1c0.1,0,0.2,0,0.2,0l0,0c0,0,0,0,0.1,0s0.1,0,0.2,0h0.1c0.1,0,0.2,0,0.2-0.1h0.1l0,0
					c0.2-0.1,0.2-0.1,0.3-0.2l29.5-17.1l0,0l0.1-0.1c0.1,0,0.1-0.1,0.1-0.1l0,0c0.1,0,0.1-0.1,0.1-0.2l0,0l0,0c0,0,0,0,0-0.1
					c0,0,0-0.1,0.1-0.1l0,0l0,0v-0.1v-0.1l0,0c0-0.1,0-0.2,0-0.3c0,0.1,0,0.1,0,0.2l0,0c0,0.1-0.1,0.1-0.1,0.2l0,0
					c0,0.1-0.1,0.1-0.2,0.2c0,0-0.1,0.1-0.2,0.1l-0.1,0.1l-29.5,17.1c-0.1,0.1-0.2,0.1-0.3,0.2c-0.1,0-0.1,0-0.2,0.1
					c-0.1,0-0.2,0-0.2,0.1c-0.1,0-0.2,0-0.2,0c0,0,0,0-0.1,0c-0.1,0-0.2,0-0.3,0c0,0,0,0-0.1,0c-0.1,0-0.2,0-0.3,0l0,0
					c-0.1,0-0.2,0-0.3-0.1c0,0,0,0-0.1,0c-0.1,0-0.2-0.1-0.2-0.1l0,0c-0.1,0-0.2-0.1-0.2-0.2l-59.4-34.3c-0.3-0.2-0.6-0.5-0.6-0.7
					c0,0.1,0,0.2,0,0.3c0,0.2,0.2,0.6,0.6,0.7l59.4,34.3c0.1,0.1,0.2,0.1,0.2,0.2l0,0c0,0,0,0,0.1,0c0.1,0,0.1,0,0.2,0.1h0.1
					c0,0,0,0,0.1,0l0,0l0,0C231.2,215.3,231.3,215.3,231.3,215.3z"/>
				
					<linearGradient id="SVGID_112_" gradientUnits="userSpaceOnUse" x1="227.6823" y1="169.8344" x2="163.0966" y2="196.2694" gradientTransform="matrix(1 0 0 1 0 14)">
					<stop  offset="0" style="stop-color:#A4F04F"/>
					<stop  offset="1" style="stop-color:#80BB3E"/>
				</linearGradient>
				<path class="st138" d="M262.6,196.1l-59.4-34.3c-0.7-0.4-1.8-0.4-2.6,0L171.1,179c-0.7,0.4-0.7,1,0,1.5l59.4,34.3
					c0.7,0.4,1.8,0.4,2.6,0l29.5-17.1C263.3,197.1,263.3,196.5,262.6,196.1z"/>
				<path class="st130" d="M253.6,193.9L207.1,167c-3,1.7-7.7,1.7-10.6,0l-16.5,9.6c3,1.7,3,4.5,0,6.1l46.5,26.9
					c3-1.7,7.7-1.7,10.6,0l16.5-9.6C250.7,198.3,250.7,195.5,253.6,193.9z"/>
				
					<linearGradient id="SVGID_113_" gradientUnits="userSpaceOnUse" x1="227.6823" y1="169.8344" x2="163.0976" y2="196.269" gradientTransform="matrix(1 0 0 1 0 14)">
					<stop  offset="0" style="stop-color:#A4F04F"/>
					<stop  offset="1" style="stop-color:#80BB3E"/>
				</linearGradient>
				<path class="st139" d="M226.4,182.7c-5.3-3.1-14-3.1-19.3,0c-5.3,3.1-5.3,8.1,0.1,11.2c5.3,3.1,14,3.1,19.3,0
					C231.8,190.8,231.8,185.8,226.4,182.7z"/>
			</g>
			<g>
				
					<linearGradient id="SVGID_114_" gradientUnits="userSpaceOnUse" x1="177.6918" y1="164.4725" x2="222.676" y2="164.4725" gradientTransform="matrix(1 0 0 1 0 14)">
					<stop  offset="0" style="stop-color:#D17F55"/>
					<stop  offset="1" style="stop-color:#995D3E"/>
				</linearGradient>
				<polygon class="st140" points="210.7,165.5 177.7,184.5 189.6,191.5 222.7,172.4 				"/>
			</g>
			
				<linearGradient id="SVGID_115_" gradientUnits="userSpaceOnUse" x1="183.6339" y1="185.1223" x2="183.6339" y2="170.1184" gradientTransform="matrix(1 0 0 1 0 14)">
				<stop  offset="0" style="stop-color:#D17F55"/>
				<stop  offset="1" style="stop-color:#995D3E"/>
			</linearGradient>
			<polygon class="st141" points="189.6,191.5 189.6,202.1 177.7,195.1 177.7,184.5 			"/>
			<polygon class="st142" points="177.7,184.9 189.6,191.9 189.6,191.5 177.7,184.5 			"/>
		</g>
		<g>
			<path class="st143" d="M190,239.1c0,0-6.6-1-8.1-1.3s-3.5,0-4,2c-0.5,1.9,1,3.3,4.9,5.7c4.1,2.3,4.5,2.3,5.8,3
				c1.4,0.7,3,1.2,4.4,0.6c1.4-0.6,2.4-1.6,2.6-3c0.2-1.4-0.2-5.4-0.2-5.4L190,239.1z"/>
			<path class="st58" d="M191.4,169.8c0,0,1.7,3.6,0.9,14c-0.5,6.3,1.5,20.5,1.9,24.9c0.5,4.4,0.4,7.4,0.9,14.4
				c0.7,10.6,1,20.3,1,20.3s-2.6,2.2-6.8,1c-4.1-1.1-3.4-4.8-3.4-4.8s-4.3-25.9-5.5-33.4c-1.2-7.5-4.9-24.1-3.7-34L191.4,169.8z"/>
			<path class="st58" d="M173.5,246.4c0,0-6.6-1-8.1-1.3c-1.5-0.3-3.5,0-4,2c-0.5,1.9,1,3.3,4.9,5.7c4.1,2.3,4.5,2.3,5.8,3
				c1.4,0.7,3,1.2,4.4,0.6c1.4-0.6,2.4-1.6,2.6-3c0.2-1.4-0.2-5.4-0.2-5.4L173.5,246.4z"/>
			<path class="st144" d="M185.2,177.8c0,0-2.6,5.8-4.3,11.9c-1.8,6.1-1.8,22.1-1.4,26.5c0.5,4.4,1.4,4,1.1,14.6
				c-0.3,10.6-0.6,20-0.6,20s-2.6,2.2-6.8,1c-4.1-1.1-3.4-4.8-3.4-4.8s-1.5-25.6-2.7-33.2c-1.2-7.6-4.9-24.1-3.7-34L185.2,177.8z"/>
			<g>
				
					<linearGradient id="SVGID_116_" gradientUnits="userSpaceOnUse" x1="148.5139" y1="128.5577" x2="145.7991" y2="122.6018" gradientTransform="matrix(1 0 0 1 0 14)">
					<stop  offset="0" style="stop-color:#FFB597"/>
					<stop  offset="1" style="stop-color:#FFCCB7"/>
				</linearGradient>
				<path class="st145" d="M147.1,141.3c0,0-0.9-1.9-1.2-3c-0.3-1-0.8-2.4-0.8-3c0.1-0.6,0.2-0.9,0.4-0.9c0.2,0,0.6,0.9,1,1.7
					s0.6,1.2,0.8,1.8c0.2,0.6,0.7,1.8,0.7,1.8L147.1,141.3z"/>
				
					<linearGradient id="SVGID_117_" gradientUnits="userSpaceOnUse" x1="182.9309" y1="145.3486" x2="180.2162" y2="139.3929" gradientTransform="matrix(0.9948 0.1015 -0.1015 0.9948 -17.7444 -21.0902)">
					<stop  offset="0" style="stop-color:#FFB597"/>
					<stop  offset="1" style="stop-color:#FFCCB7"/>
				</linearGradient>
				<path class="st146" d="M147.9,139.9c0,0-0.6-2-0.9-3.1c-0.2-1.1-0.6-2.4-0.5-3c0.1-0.6,0.2-0.9,0.5-0.9c0.2,0,0.6,1,0.8,1.8
					c0.2,0.9,0.6,1.3,0.6,1.8c0.1,0.6,0.6,2.2,0.6,2.2L147.9,139.9z"/>
				
					<linearGradient id="SVGID_118_" gradientUnits="userSpaceOnUse" x1="245.2471" y1="165.0841" x2="242.5329" y2="159.1295" gradientTransform="matrix(0.9611 0.2763 -0.2763 0.9611 -40.2457 -84.638)">
					<stop  offset="0" style="stop-color:#FFB597"/>
					<stop  offset="1" style="stop-color:#FFCCB7"/>
				</linearGradient>
				<path class="st147" d="M148.7,139c0,0-0.2-1.8-0.3-2.8c0-1-0.1-2.2,0.1-2.6c0.2-0.5,0.4-0.7,0.6-0.6c0.2,0.1,0.3,0.9,0.4,1.7
					c0.1,0.8,0.2,1.2,0.2,1.7s0.2,1.9,0.2,1.9L148.7,139z"/>
				
					<linearGradient id="SVGID_119_" gradientUnits="userSpaceOnUse" x1="271.8939" y1="169.7449" x2="269.1796" y2="163.7901" gradientTransform="matrix(0.9389 0.3443 -0.3443 0.9389 -46.0599 -111.4073)">
					<stop  offset="0" style="stop-color:#FFB597"/>
					<stop  offset="1" style="stop-color:#FFCCB7"/>
				</linearGradient>
				<path class="st148" d="M149.9,138.8c0,0-0.1-1.6-0.1-2.4s0-1.9,0.2-2.2c0.2-0.4,0.3-0.6,0.6-0.6c0.2,0.1,0.2,0.8,0.2,1.4
					s0.2,1,0.1,1.4c0,0.4,0.1,1.7,0.1,1.7L149.9,138.8z"/>
				
					<linearGradient id="SVGID_120_" gradientUnits="userSpaceOnUse" x1="152.2384" y1="130.1699" x2="148.324" y2="127.1313" gradientTransform="matrix(1 0 0 1 0 14)">
					<stop  offset="0" style="stop-color:#FFB597"/>
					<stop  offset="1" style="stop-color:#FFCCB7"/>
				</linearGradient>
				<path class="st149" d="M152.8,144.1c0,0-0.9-0.1-1.9,0c-1,0.1-1.6,0.2-2.4,0.6s-1.1,0.6-1.4,1c-0.2,0.4-1,0-0.6-1.1
					c0.2-0.6,0.2-0.6,0.9-1.3c0.3-0.3-0.1-1-0.2-1.7c-0.2-0.7-0.4-0.8-0.4-1.5s3.7-3.3,4-2.9c0.7,1,0.9,1.6,1.1,2.2
					c0.2,0.6,2,0.9,2,0.9L152.8,144.1z"/>
			</g>
			
				<linearGradient id="SVGID_121_" gradientUnits="userSpaceOnUse" x1="162.6674" y1="130.3137" x2="152.8058" y2="127.4328" gradientTransform="matrix(1 0 0 1 0 14)">
				<stop  offset="0" style="stop-color:#942837"/>
				<stop  offset="1" style="stop-color:#BB3345"/>
			</linearGradient>
			<path class="st150" d="M150.6,144.2c0,0-0.1-4.1,1.4-5l2,0.3c0,0,0.5-0.6,1.6-0.5c1.1,0.2,9.7,1.6,9.7,1.6l0.7,8.2
				c0,0-9.7-1.8-11-2.3c-1.3-0.5-1.9-1.4-1.9-1.4L150.6,144.2z"/>
			
				<linearGradient id="SVGID_122_" gradientUnits="userSpaceOnUse" x1="160.6149" y1="155.6463" x2="182.3307" y2="132.6003" gradientTransform="matrix(1 0 0 1 0 14)">
				<stop  offset="0" style="stop-color:#942837"/>
				<stop  offset="1" style="stop-color:#BB3345"/>
			</linearGradient>
			<path class="st151" d="M165.8,127.2c0,0-3.9,1.6-3.8,6.8c0.1,5.1,2.3,17.5,2.8,24c0.5,6.5-2.1,15.6-2.2,17.3
				c-0.2,1.7,0.2,1.7,0.2,1.7s-0.2,1.5-0.3,3.4c7.3,3.3,16.2,1.8,22.7-1.4c6.5-3.2,7.4-6.5,7.4-6.5l-0.2-3.3c0,0,0.6-0.7,0.4-1.6
				s-2.3-12.6-2.6-15.9s3.3-22.4,1.8-28.2c-1.5-5.7-6.1-5.7-7.3-5.7C183.6,117.9,165.8,127.2,165.8,127.2z"/>
			
				<linearGradient id="SVGID_123_" gradientUnits="userSpaceOnUse" x1="183.6322" y1="104.6105" x2="171.5006" y2="95.1932" gradientTransform="matrix(1 0 0 1 0 14)">
				<stop  offset="0" style="stop-color:#FFB597"/>
				<stop  offset="1" style="stop-color:#FFCCB7"/>
			</linearGradient>
			<path class="st152" d="M168.8,102.4c0,0-1.1,4-1,5.3c0.2,1.4-0.3,3.8-0.3,5.3c0,1.4,0.2,6.3,1.5,6.8c1.2,0.5,3.5,0.3,3.5,0.3
				l-0.4,5.2c0,0,4.4,1,7.5-0.6c3-1.6,3.5-3.7,3.5-3.7s-0.6-2.4-0.9-5.3s-0.6-14.3-0.6-14.3L168.8,102.4z"/>
			<path class="st2" d="M170.8,103.6c0,0-1,3.5-0.9,4.9c0.2,1.4,1.4,1.8,1.2,3.6c-0.2,1.8-0.2,2.6-0.2,2.6s1.4,0.1,1.6-0.8
				c0.2-0.9,0.3-1.6,1.6-1.1c1.2,0.5,1.4,3,1.1,4.6c0,0,1.4,2.1,5,1.8c0,0,2.8-1.4,4.5-4.6c1.6-3.2,3-7.3,2-10
				c0.6-0.8-0.1-4.7-2.2-6c-2.2-1.3-4.1-2.5-4.5-3.2c-0.5,0.8-0.2,1.6-0.2,1.6c-2.6-0.6-4.5-1.3-7-0.8c-2.5,0.5-3.3,0-3.3,0
				s-0.6,1.5,0.3,1.9c0,0-2,1-2.3,2.6c0,0,0.6-0.1,0.9-0.3c0,0-0.6,3.5,1.2,4.6C169.5,105.2,169.9,104.2,170.8,103.6z"/>
			<path class="st41" d="M168.8,125.2c1.2-0.7,2.2-1.7,5.4-1.6s7.7-1.4,8.5-4l-0.2-1.3c0,0,2-1,3,0c1,1,4.9,6.5,4.1,12
				c-1,6.5-3.2,6.5-5,6.9c-1.8,0.5-6.3-0.6-10.4-4.6c-4.1-4-6.1-5.7-8.1-5.5C166.1,127,167.6,126,168.8,125.2z"/>
			<path class="st153" d="M165.8,127.2c0,0,1.1-1.5,2.7-1.8c1.6-0.3,8.5,2.4,11.8,4.3c3.3,1.8,6.8,0.6,6.6-3
				c-0.2-3.6-2.4-7.7-4.1-8.5c0,0,1.2-1,2.8-0.2c1.7,0.9,4.6,5.7,4.6,11s-1.8,8.3-4.9,8.8s-7.7-1.2-11-4.4
				C171,130.2,169.9,127.9,165.8,127.2z"/>
			
				<linearGradient id="SVGID_124_" gradientUnits="userSpaceOnUse" x1="164.043" y1="168.7045" x2="157.4583" y2="163.5931" gradientTransform="matrix(1 0 0 1 0 14)">
				<stop  offset="0" style="stop-color:#FFB597"/>
				<stop  offset="1" style="stop-color:#FFCCB7"/>
			</linearGradient>
			<path class="st154" d="M157,172.7c0,0-1.5,4.4-1.6,5.5s0.4,4.9,0.5,5.4c0.1,0.4,1,1,1.7,1.4c0.6,0.5,3.5,1,4,1.3
				c0.6,0.3,0.9,0.1,0.6-0.6c-0.2-0.7-1-1.3-1.1-1.8c-0.2-0.5-0.2-2.7,0-3.4c0.2-0.7,1-2.5,1-3.7c0-1.3-0.7-3.4-0.7-3.4L157,172.7z"
				/>
			<path class="st155" d="M164.5,128.1c-1.9,0.6-4.5,3.7-3.4,15.6c1.1,11.7,0.9,10.4,0.6,13.2c-0.3,2.9-3.5,10.8-4.2,11.6
				c-0.8,0.6,0.3,2.2,0.3,2.2l-1.3,2.6c0,0,0.6,4,6.1,3.1l1.2-2.9c0,0,2.4-0.6,2.5-2.5c0.2-1.8,4.5-8.5,4.9-14.3
				c0.5-5.7,2.2-9.8,1.8-16.3C172.4,133.4,168.4,126.8,164.5,128.1z"/>
		</g>
		
			<image style="overflow:visible;enable-background:new    ;" width="139" height="39" xlink:href="CE10227E.png"  transform="matrix(0.7135 0 0 0.7135 61.46 236.9511)">
		</image>
	</g>
	<g id="Layer_4">
	</g>
</g>
</svg>
